<svg width="100" height="100" viewBox="0 0 100 100" fill="none" xmlns="http://www.w3.org/2000/svg">
<g clip-path="url(#clip0_87_282)">
<rect x="38.3548" y="63.215" width="21.6559" height="2.04301" fill="url(#paint0_linear_87_282)" stroke="#405D1E" stroke-width="0.408602"/>
<rect x="38.1505" y="84.2581" width="22.0645" height="4.90323" fill="#34414D"/>
<rect x="38.9678" y="89.1613" width="20.4301" height="3.26882" fill="#A1ACAF"/>
<path d="M57.4513 79.7635L59.6801 87.9355H38.6855L40.9142 79.7635H57.4513Z" fill="url(#paint1_linear_87_282)" stroke="black" stroke-width="0.817204"/>
<rect x="41.5923" y="65.4623" width="15.1811" height="18.7957" fill="url(#paint2_linear_87_282)"/>
<circle cx="49.1828" cy="76.086" r="6.53763" fill="#34414D"/>
<path d="M42.1591 11.7312H56.2494C59.7282 11.7312 62.5484 14.5513 62.5484 18.0301V25.4129H35.8602V18.0301C35.8602 14.5513 38.6803 11.7312 42.1591 11.7312Z" fill="url(#paint3_linear_87_282)" stroke="#405D1E" stroke-width="0.408602"/>
<path d="M35.8602 25.821H62.5484V60.3006C62.5484 61.6842 61.4267 62.8059 60.043 62.8059H38.3656C36.9819 62.8059 35.8602 61.6842 35.8602 60.3006V25.821Z" fill="url(#paint4_linear_87_282)" stroke="#405D1E" stroke-width="0.408602"/>
<path d="M41.7527 25.7522H42.5656V55.9651C42.5656 56.1896 42.3836 56.3715 42.1591 56.3715C41.9346 56.3715 41.7527 56.1896 41.7527 55.9651V25.7522Z" fill="#426120" stroke="black" stroke-width="0.270968"/>
<path d="M38.5011 25.7522H39.043V56.1006C39.043 56.2502 38.9217 56.3715 38.7721 56.3715C38.6224 56.3715 38.5011 56.2502 38.5011 56.1006V25.7522Z" fill="#426120" stroke="black" stroke-width="0.270968"/>
<path d="M36.8752 25.7522H37.4172V56.1006C37.4172 56.2502 37.2958 56.3715 37.1462 56.3715C36.9965 56.3715 36.8752 56.2502 36.8752 56.1006V25.7522Z" fill="#426120" stroke="black" stroke-width="0.270968"/>
<path d="M44.4624 25.7522H45.2753V55.9651C45.2753 56.1896 45.0933 56.3715 44.8688 56.3715C44.6444 56.3715 44.4624 56.1896 44.4624 55.9651V25.7522Z" fill="#426120" stroke="black" stroke-width="0.270968"/>
<path d="M47.172 25.7522H47.9849V55.9651C47.9849 56.1896 47.8029 56.3715 47.5784 56.3715C47.354 56.3715 47.172 56.1896 47.172 55.9651V25.7522Z" fill="#426120" stroke="black" stroke-width="0.270968"/>
<path d="M49.8817 25.7522H50.6946V55.9651C50.6946 56.1896 50.5126 56.3715 50.2882 56.3715C50.0637 56.3715 49.8817 56.1896 49.8817 55.9651V25.7522Z" fill="#426120" stroke="black" stroke-width="0.270968"/>
<path d="M52.5914 25.7522H53.4043V55.9651C53.4043 56.1896 53.2223 56.3715 52.9979 56.3715C52.7734 56.3715 52.5914 56.1896 52.5914 55.9651V25.7522Z" fill="#426120" stroke="black" stroke-width="0.270968"/>
<path d="M55.301 25.7522H56.1139V55.9651C56.1139 56.1896 55.9319 56.3715 55.7075 56.3715C55.483 56.3715 55.301 56.1896 55.301 55.9651V25.7522Z" fill="#426120" stroke="black" stroke-width="0.270968"/>
<path d="M58.0107 25.7522H58.8236V55.9651C58.8236 56.1896 58.6417 56.3715 58.4172 56.3715C58.1927 56.3715 58.0107 56.1896 58.0107 55.9651V25.7522Z" fill="#426120" stroke="black" stroke-width="0.270968"/>
<rect x="55.572" y="55.0168" width="2.98065" height="4.06452" fill="url(#paint5_linear_87_282)" stroke="#426120" stroke-width="0.270968"/>
<path d="M56.114 59.3529H58.0108V59.7593C58.0108 59.9838 57.8288 60.1658 57.6043 60.1658H56.5205C56.296 60.1658 56.114 59.9838 56.114 59.7593V59.3529Z" fill="url(#paint6_linear_87_282)" stroke="#426120" stroke-width="0.270968"/>
<rect x="32.5399" y="55.5585" width="2.98065" height="4.06452" fill="url(#paint7_linear_87_282)" stroke="#426120" stroke-width="0.270968"/>
<path d="M33.0818 59.8946H34.9785V60.3011C34.9785 60.5256 34.7966 60.7075 34.5721 60.7075H33.4882C33.2637 60.7075 33.0818 60.5256 33.0818 60.3011V59.8946Z" fill="url(#paint8_linear_87_282)" stroke="#426120" stroke-width="0.270968"/>
<rect x="27.6623" y="38.2168" width="13.2774" height="18.1548" fill="url(#paint9_linear_87_282)" stroke="#3D591D" stroke-width="0.270968"/>
<path d="M35.3849 42.1459L33.2172 43.5007V45.9394L35.6559 47.2943L37.8236 45.9394V43.5007L35.3849 42.1459Z" stroke="black" stroke-width="0.270968"/>
<circle cx="35.4934" cy="44.6929" r="1.49032" fill="#245200" stroke="black" stroke-width="0.270968"/>
<circle cx="35.5475" cy="44.6927" r="3.3871" stroke="black" stroke-width="0.270968"/>
<line x1="30.1011" y1="56.5073" x2="30.1011" y2="38.0815" stroke="black" stroke-width="0.270968"/>
<rect x="59.0946" y="29.0051" width="6.77419" height="25.7419" fill="url(#paint10_linear_87_282)" stroke="#466520" stroke-width="0.270968"/>
<line x1="64.7849" y1="54.8818" x2="64.7849" y2="28.8689" stroke="black" stroke-width="0.270968"/>
<line x1="58.9591" y1="32.5279" x2="64.9204" y2="32.5279" stroke="black" stroke-width="0.270968"/>
<line x1="58.9591" y1="52.0368" x2="64.9204" y2="52.0368" stroke="black" stroke-width="0.270968"/>
<path d="M32.6753 57.8621L62.7527 57.8621" stroke="#415D1E" stroke-width="0.541935"/>
</g>
<defs>
<linearGradient id="paint0_linear_87_282" x1="38.1505" y1="64.2365" x2="60.215" y2="64.2365" gradientUnits="userSpaceOnUse">
<stop stop-color="#82BC34"/>
<stop offset="0.465" stop-color="#BDEB7E"/>
<stop offset="1" stop-color="#82BC34"/>
</linearGradient>
<linearGradient id="paint1_linear_87_282" x1="49.1828" y1="79.3549" x2="49.1828" y2="88.3441" gradientUnits="userSpaceOnUse">
<stop stop-color="#74A939"/>
<stop offset="1" stop-color="#2E4317"/>
</linearGradient>
<linearGradient id="paint2_linear_87_282" x1="41.5923" y1="74.4127" x2="56.7734" y2="74.4127" gradientUnits="userSpaceOnUse">
<stop stop-color="#9CA7AA"/>
<stop offset="0.485" stop-color="#D0DAE7"/>
<stop offset="1" stop-color="#9CA7AA"/>
</linearGradient>
<linearGradient id="paint3_linear_87_282" x1="62.7527" y1="18.572" x2="35.6559" y2="18.572" gradientUnits="userSpaceOnUse">
<stop stop-color="#82BC34"/>
<stop offset="0.464" stop-color="#BDEB7E"/>
<stop offset="1" stop-color="#82BC34"/>
</linearGradient>
<linearGradient id="paint4_linear_87_282" x1="35.9269" y1="44.3135" x2="62.7527" y2="44.3135" gradientUnits="userSpaceOnUse">
<stop stop-color="#82BC34"/>
<stop offset="0.479" stop-color="#BDEB7E"/>
<stop offset="1" stop-color="#82BC34"/>
</linearGradient>
<linearGradient id="paint5_linear_87_282" x1="58.4172" y1="56.6155" x2="55.4365" y2="56.6155" gradientUnits="userSpaceOnUse">
<stop stop-color="#82BC34"/>
<stop offset="0.49" stop-color="#BDEB7E"/>
<stop offset="1" stop-color="#82BC34"/>
</linearGradient>
<linearGradient id="paint6_linear_87_282" x1="57.9656" y1="59.651" x2="55.9785" y2="59.651" gradientUnits="userSpaceOnUse">
<stop stop-color="#82BC34"/>
<stop offset="0.49" stop-color="#BDEB7E"/>
<stop offset="1" stop-color="#82BC34"/>
</linearGradient>
<linearGradient id="paint7_linear_87_282" x1="35.3851" y1="57.1572" x2="32.4044" y2="57.1572" gradientUnits="userSpaceOnUse">
<stop stop-color="#82BC34"/>
<stop offset="0.49" stop-color="#BDEB7E"/>
<stop offset="1" stop-color="#82BC34"/>
</linearGradient>
<linearGradient id="paint8_linear_87_282" x1="34.9334" y1="60.1927" x2="32.9463" y2="60.1927" gradientUnits="userSpaceOnUse">
<stop stop-color="#82BC34"/>
<stop offset="0.49" stop-color="#BDEB7E"/>
<stop offset="1" stop-color="#82BC34"/>
</linearGradient>
<linearGradient id="paint9_linear_87_282" x1="40.5333" y1="38.3523" x2="27.7978" y2="56.5072" gradientUnits="userSpaceOnUse">
<stop stop-color="#82BC34"/>
<stop offset="0.515" stop-color="#BDEB7E"/>
<stop offset="1" stop-color="#82BC34"/>
</linearGradient>
<linearGradient id="paint10_linear_87_282" x1="62.4817" y1="28.8696" x2="62.4817" y2="54.8825" gradientUnits="userSpaceOnUse">
<stop stop-color="#82BC34"/>
<stop offset="0.475" stop-color="#BDEB7E"/>
<stop offset="1" stop-color="#82BC34"/>
</linearGradient>
<clipPath id="clip0_87_282">
<rect width="100" height="100" fill="white"/>
</clipPath>
</defs>
</svg>
