<svg width="100" height="100" viewBox="0 0 100 100" fill="none" xmlns="http://www.w3.org/2000/svg">
<g clip-path="url(#clip0_87_346)">
<path d="M13 26H91V47H13V26Z" fill="#6E3E00"/>
<rect x="13" y="56" width="78" height="28" fill="#513505"/>
<path d="M16.8956 41.0459C17.0171 40.8085 17.2237 40.2864 17.0779 40.0965C16.9321 39.7168 15.6807 38.356 15.0732 37.7231C15.0124 37.5649 14.7087 37.4383 13.9797 38.1978C13.2508 38.9573 14.2835 40.413 14.8909 41.0459C16.2031 41.6155 16.7741 41.2832 16.8956 41.0459Z" fill="#D9D9D9"/>
<path d="M19.9938 32.5015C16.7863 31.3623 15.62 32.9762 15.4377 33.9256C15.4377 35.824 18.2321 36.1408 19.6293 36.062C21.8162 35.6822 21.7555 34.005 21.4518 33.2139C21.391 33.1348 21.0144 32.8815 19.9938 32.5015Z" fill="#D9D9D9"/>
<path d="M21.9985 36.0619C21.7069 36.0619 21.7555 37.8024 21.8162 38.6726C21.6704 39.8118 22.3022 40.7296 22.5452 41.046C25.2788 41.5207 25.8863 40.5713 26.3723 40.0967C26.919 38.4353 26.5181 37.5808 26.3723 37.0112C26.19 36.2992 25.0966 35.5872 24.7321 35.5872C21.8162 35.5872 22.363 36.0619 21.9985 36.0619Z" fill="#D9D9D9"/>
<path d="M22.9097 33.9258C23.7844 35.4448 25.8256 34.5587 26.7368 33.9258C26.7368 33.6884 26.7368 33.2139 26.5545 33.2139C26.3723 33.2139 25.8256 33.2138 25.2788 32.2644C24.8414 31.5049 24.1246 31.4733 23.8209 31.5524C22.6545 31.9321 22.7274 33.2929 22.9097 33.9258Z" fill="#D9D9D9"/>
<path d="M29.4704 30.6022C27.8666 30.982 27.7087 32.9757 27.8302 33.925C30.3087 36.2031 31.5358 34.3996 31.8395 33.213C31.5479 30.7446 30.1386 30.444 29.4704 30.6022Z" fill="#D9D9D9"/>
<path d="M30.0171 37.0108C29.5798 37.7702 30.0779 39.2259 30.3816 39.8588C31.548 40.9978 32.933 40.3334 33.4798 39.8588C34.2087 38.5294 34.0265 36.6151 33.8443 35.824C31.5116 35.2544 30.3209 36.3778 30.0171 37.0108Z" fill="#D9D9D9"/>
<path d="M37.6714 38.4352C37.6714 40.144 39.0078 40.7295 39.676 40.8086C40.6966 40.8086 42.4097 39.2263 43.1387 38.4352C43.3209 37.3276 43.4302 35.3023 42.4097 36.0618C41.3891 36.8212 40.7695 37.0109 40.5873 37.0108C39.6153 36.7735 37.6714 36.7263 37.6714 38.4352Z" fill="#D9D9D9"/>
<path d="M43.1387 34.875C44.5358 34.2421 46.5284 32.4067 43.3209 30.1282C39.3116 27.2802 40.0405 33.9261 43.1387 34.875Z" fill="#D9D9D9"/>
<path d="M46.0545 37.0108L46.2368 39.1474C49.5901 40.8567 50.5499 39.3848 50.6106 38.4352C50.3676 37.9604 49.5172 36.8685 48.0592 36.2993C46.6013 35.7301 46.1153 36.5364 46.0545 37.0108Z" fill="#D9D9D9"/>
<path d="M19.1666 82.6221C19.2881 82.3848 19.4947 81.8626 19.3489 81.6728C19.2031 81.293 17.9517 79.9323 17.3442 79.2993C17.2834 79.1411 16.9797 79.0145 16.2507 79.774C15.5218 80.5335 16.5545 81.9892 17.1619 82.6221C18.4741 83.1917 19.0451 82.8595 19.1666 82.6221Z" fill="#D9D9D9"/>
<path d="M22.2648 74.0777C19.0573 72.9385 17.891 74.5524 17.7087 75.5017C17.7087 77.4002 20.5031 77.717 21.9003 77.6381C24.0872 77.2584 24.0265 75.5812 23.7228 74.79C23.662 74.7109 23.2854 74.4577 22.2648 74.0777Z" fill="#D9D9D9"/>
<path d="M24.2695 77.638C23.9779 77.638 24.0265 79.3785 24.0872 80.2488C23.9414 81.388 24.5732 82.3057 24.8162 82.6222C27.5498 83.0969 28.1573 82.1475 28.6433 81.6728C29.19 80.0114 28.7891 79.157 28.6433 78.5874C28.461 77.8754 27.3676 77.1634 27.0031 77.1634C24.0872 77.1634 24.6339 77.638 24.2695 77.638Z" fill="#D9D9D9"/>
<path d="M25.1807 75.502C26.0554 77.0209 28.0966 76.1349 29.0078 75.502C29.0078 75.2645 29.0078 74.7901 28.8255 74.7901C28.6433 74.7901 28.0966 74.7899 27.5498 73.8406C27.1124 73.0811 26.3956 73.0494 26.0919 73.1286C24.9255 73.5083 24.9984 74.8691 25.1807 75.502Z" fill="#D9D9D9"/>
<path d="M31.7414 72.1784C30.1376 72.5582 29.9797 74.5518 30.1012 75.5012C32.5797 77.7793 33.8068 75.9757 34.1105 74.7892C33.8189 72.3208 32.4096 72.0202 31.7414 72.1784Z" fill="#D9D9D9"/>
<path d="M32.2881 78.5869C31.8508 79.3464 32.3489 80.8021 32.6526 81.435C33.819 82.574 35.204 81.9096 35.7508 81.435C36.4797 80.1056 36.2975 78.1912 36.1153 77.4002C33.7825 76.8306 32.5919 77.954 32.2881 78.5869Z" fill="#D9D9D9"/>
<path d="M39.9424 80.0113C39.9424 81.7202 41.2788 82.3056 41.947 82.3847C42.9676 82.3847 44.6807 80.8025 45.4096 80.0113C45.5919 78.9037 45.7012 76.8784 44.6807 77.6379C43.6601 78.3974 43.0405 78.587 42.8582 78.5869C41.8863 78.3497 39.9424 78.3025 39.9424 80.0113Z" fill="#D9D9D9"/>
<path d="M45.4096 76.4512C46.8068 75.8183 48.7994 73.9829 45.5919 71.7044C41.5825 68.8563 42.3115 75.5022 45.4096 76.4512Z" fill="#D9D9D9"/>
<path d="M48.3255 78.5869L48.5078 80.7235C51.8611 82.4328 52.8209 80.9609 52.8816 80.0113C52.6386 79.5365 51.7882 78.4446 50.3302 77.8755C48.8723 77.3063 48.3863 78.1126 48.3255 78.5869Z" fill="#D9D9D9"/>
<path d="M86.8085 41.0459C86.687 40.8085 86.4804 40.2864 86.6262 40.0965C86.772 39.7168 88.0234 38.356 88.6309 37.7231C88.6917 37.5649 88.9954 37.4383 89.7244 38.1978C90.4533 38.9573 89.4206 40.413 88.8132 41.0459C87.501 41.6155 86.93 41.2832 86.8085 41.0459Z" fill="#D9D9D9"/>
<path d="M83.7103 32.5015C86.9178 31.3623 88.0841 32.9762 88.2664 33.9256C88.2664 35.824 85.472 36.1408 84.0748 36.062C81.8879 35.6822 81.9486 34.005 82.2523 33.2139C82.3131 33.1348 82.6897 32.8815 83.7103 32.5015Z" fill="#D9D9D9"/>
<path d="M81.7058 36.0619C81.9973 36.0619 81.9487 37.8024 81.888 38.6726C82.0338 39.8118 81.402 40.7296 81.159 41.046C78.4254 41.5207 77.8179 40.5713 77.3319 40.0967C76.7852 38.4353 77.1861 37.5808 77.3319 37.0112C77.5142 36.2992 78.6076 35.5872 78.9721 35.5872C81.888 35.5872 81.3413 36.0619 81.7058 36.0619Z" fill="#D9D9D9"/>
<path d="M80.7946 33.9258C79.9198 35.4448 77.8787 34.5587 76.9674 33.9258C76.9674 33.6884 76.9674 33.2139 77.1497 33.2139C77.3319 33.2139 77.8787 33.2138 78.4254 32.2644C78.8628 31.5049 79.5796 31.4733 79.8833 31.5524C81.0497 31.9321 80.9768 33.2929 80.7946 33.9258Z" fill="#D9D9D9"/>
<path d="M74.2337 30.6022C75.8375 30.982 75.9954 32.9757 75.8739 33.925C73.3954 36.2031 72.1683 34.3996 71.8646 33.213C72.1562 30.7446 73.5655 30.444 74.2337 30.6022Z" fill="#D9D9D9"/>
<path d="M73.687 37.0108C74.1243 37.7702 73.6262 39.2259 73.3225 39.8588C72.1561 40.9978 70.7711 40.3334 70.2243 39.8588C69.4954 38.5294 69.6776 36.6151 69.8598 35.824C72.1926 35.2544 73.3832 36.3778 73.687 37.0108Z" fill="#D9D9D9"/>
<path d="M66.0327 38.4352C66.0327 40.144 64.6963 40.7295 64.0281 40.8086C63.0075 40.8086 61.2944 39.2263 60.5654 38.4352C60.3832 37.3276 60.2739 35.3023 61.2944 36.0618C62.315 36.8212 62.9346 37.0109 63.1168 37.0108C64.0888 36.7735 66.0327 36.7263 66.0327 38.4352Z" fill="#D9D9D9"/>
<path d="M60.5654 34.875C59.1683 34.2421 57.1757 32.4067 60.3832 30.1282C64.3926 27.2802 63.6636 33.9261 60.5654 34.875Z" fill="#D9D9D9"/>
<path d="M57.6496 37.0108L57.4673 39.1474C54.114 40.8567 53.1542 39.3848 53.0935 38.4352C53.3365 37.9604 54.1869 36.8685 55.6449 36.2993C57.1028 35.7301 57.5888 36.5364 57.6496 37.0108Z" fill="#D9D9D9"/>
<path d="M87.0795 82.6221C86.958 82.3848 86.7514 81.8626 86.8972 81.6728C87.043 81.293 88.2944 79.9323 88.9019 79.2993C88.9627 79.1411 89.2664 79.0145 89.9954 79.774C90.7243 80.5335 89.6916 81.9892 89.0842 82.6221C87.772 83.1917 87.201 82.8595 87.0795 82.6221Z" fill="#D9D9D9"/>
<path d="M83.9813 74.0777C87.1888 72.9385 88.3551 74.5524 88.5374 75.5017C88.5374 77.4002 85.743 77.717 84.3458 77.6381C82.1588 77.2584 82.2196 75.5812 82.5233 74.79C82.5841 74.7109 82.9607 74.4577 83.9813 74.0777Z" fill="#D9D9D9"/>
<path d="M81.9768 77.638C82.2683 77.638 82.2197 79.3785 82.159 80.2488C82.3048 81.388 81.673 82.3057 81.43 82.6222C78.6964 83.0969 78.0889 82.1475 77.6029 81.6728C77.0562 80.0114 77.4571 79.157 77.6029 78.5874C77.7852 77.8754 78.8786 77.1634 79.2431 77.1634C82.159 77.1634 81.6123 77.638 81.9768 77.638Z" fill="#D9D9D9"/>
<path d="M81.0655 75.502C80.1908 77.0209 78.1497 76.1349 77.2384 75.502C77.2384 75.2645 77.2384 74.7901 77.4207 74.7901C77.6029 74.7901 78.1497 74.7899 78.6964 73.8406C79.1338 73.0811 79.8506 73.0494 80.1543 73.1286C81.3207 73.5083 81.2478 74.8691 81.0655 75.502Z" fill="#D9D9D9"/>
<path d="M74.5047 72.1784C76.1085 72.5582 76.2664 74.5518 76.1449 75.5012C73.6664 77.7793 72.4393 75.9757 72.1356 74.7892C72.4272 72.3208 73.8365 72.0202 74.5047 72.1784Z" fill="#D9D9D9"/>
<path d="M73.9579 78.5869C74.3953 79.3464 73.8972 80.8021 73.5935 81.435C72.4271 82.574 71.0421 81.9096 70.4953 81.435C69.7664 80.1056 69.9486 78.1912 70.1308 77.4002C72.4635 76.8306 73.6542 77.954 73.9579 78.5869Z" fill="#D9D9D9"/>
<path d="M66.3037 80.0113C66.3037 81.7202 64.9673 82.3056 64.2991 82.3847C63.2785 82.3847 61.5654 80.8025 60.8364 80.0113C60.6542 78.9037 60.5449 76.8784 61.5654 77.6379C62.586 78.3974 63.2056 78.587 63.3878 78.5869C64.3598 78.3497 66.3037 78.3025 66.3037 80.0113Z" fill="#D9D9D9"/>
<path d="M60.8364 76.4512C59.4392 75.8183 57.4467 73.9829 60.6542 71.7044C64.6635 68.8563 63.9346 75.5022 60.8364 76.4512Z" fill="#D9D9D9"/>
<path d="M57.9206 78.5869L57.7383 80.7235C54.385 82.4328 53.4252 80.9609 53.3645 80.0113C53.6075 79.5365 54.4579 78.4446 55.9159 77.8755C57.3738 77.3063 57.8598 78.1126 57.9206 78.5869Z" fill="#D9D9D9"/>
<rect x="13" y="44" width="78" height="12" fill="#4ED8FF"/>
<path d="M57.9643 68.362C58.6244 68.0182 60.8797 68.5053 61.9248 68.7918L65.7203 67.7175C65.5883 65.9982 66.3254 64.5655 66.7104 64.064C66.1604 63.276 64.4332 61.5279 61.9248 60.8402C59.4165 60.1525 57.5793 64.1355 56.9742 66.213C57.0292 67.0726 57.3043 68.7059 57.9643 68.362Z" fill="#A8A9AE"/>
<path d="M66.7104 64.4925L64.8952 62.7732C64.7632 62.6482 64.7302 61.7182 64.7302 61.2689C65.3902 60.6241 67.1725 59.3347 69.0207 59.3347C70.8689 59.3347 71.8811 59.6212 72.1561 59.7645C74.2684 59.7645 73.2562 63.4896 72.4861 65.3522C71.034 63.8048 68.0306 64.1344 66.7104 64.4925Z" fill="#A8A9AE"/>
<path d="M49.5482 70.0819C49.4162 69.2222 50.5933 67.5746 51.1984 66.8582C51.7265 64.6231 50.6484 63.4912 50.0433 63.2047C48.3931 64.924 44.4326 62.1301 44.2675 62.1301C44.1355 62.1301 43.5524 62.7032 43.2774 62.9898C42.2213 63.1617 42.3973 64.6374 42.6173 65.3538C42.6723 66.2135 42.6833 68.0187 42.2873 68.3626C41.8912 68.7064 42.1223 69.7953 42.2873 70.2968C44.9276 72.3599 48.228 71.0132 49.5482 70.0819Z" fill="#656668"/>
<path d="M52.0235 69.4371C51.2314 69.781 50.8134 70.5833 50.7034 70.9415C49.9883 71.443 48.7891 71.8871 49.7132 69.6521C50.8684 66.8582 51.5285 67.0731 53.1787 65.5687C54.8289 64.0643 58.4593 66.2135 59.6145 67.0731C60.7696 67.9328 58.7894 70.0819 58.1293 70.0819C57.4692 70.0819 53.0137 69.0073 52.0235 69.4371Z" fill="#656668"/>
<path d="M52.0235 58.4766C48.7231 64.6661 53.6187 64.924 56.4791 64.2793C58.2393 63.8494 61.0007 62.1301 57.9643 58.6916C54.9279 55.253 52.7386 57.1155 52.0235 58.4766Z" fill="#656668"/>
<path d="M41.6272 68.5755C40.9671 68.2317 38.7118 68.7188 37.6667 69.0053L33.8712 67.931C34.0032 66.2117 33.2662 64.779 32.8811 64.2775C33.4312 63.4895 35.1584 61.7414 37.6667 61.0537C40.175 60.366 42.0123 64.349 42.6173 66.4265C42.5623 67.2861 42.2873 68.9194 41.6272 68.5755Z" fill="#A8A9AE"/>
<path d="M22.3198 70.5106C21.8247 70.5106 16.379 67.7167 17.5342 63.4185C18.4583 59.9799 21.7697 60.2664 23.3099 60.8395C24.025 61.1977 25.4882 62.3438 25.6202 64.0631C25.8073 64.5747 26.0122 65.2752 26.1388 65.9973C27.6712 64.8511 31.1319 62.9025 32.7161 64.278C34.3003 65.6534 33.9263 67.43 33.5412 68.1464L32.7161 70.0806C31.506 70.1523 28.9866 70.3388 28.5906 70.5106C27.6005 70.0807 25.6202 69.3069 25.6202 69.6508C25.6202 69.7751 25.6103 69.5038 25.6117 69.0605C25.5169 69.1278 25.4101 69.1819 25.2902 69.221C24.9601 69.6508 23.904 70.5106 22.3198 70.5106Z" fill="#656668"/>
<path d="M32.8811 64.279L34.6964 62.5597C34.8284 62.4346 34.8614 61.5047 34.8614 61.0553C34.2013 60.4106 32.4191 59.1211 30.5708 59.1211C28.7226 59.1211 27.7105 59.4076 27.4355 59.5509C25.3232 59.5509 26.3353 63.2761 27.1054 65.1386C28.5576 63.5913 31.561 63.9208 32.8811 64.279Z" fill="#A8A9AE"/>
<path d="M41.6272 60.8405L44.2676 62.1299C44.2676 62.2733 44.8946 62.7319 47.403 63.4196C49.9113 64.1074 50.5384 62.8464 50.5384 62.1299C50.9344 60.9262 49.4932 59.336 48.7231 58.6913C47.568 57.1869 45.5877 57.6168 43.1124 57.6168C41.1322 57.6168 41.2972 59.7659 41.6272 60.8405Z" fill="#A8A9AE"/>
<path d="M79.5381 64.2871L82.1785 65.5766C82.1785 65.7199 82.8055 66.1786 85.3138 66.8663C87.8222 67.554 88.4492 66.293 88.4492 65.5766C88.8453 64.3729 87.4041 62.7826 86.634 62.138C85.4789 60.6336 83.4986 61.0634 81.0233 61.0634C79.0431 61.0634 79.2081 63.2125 79.5381 64.2871Z" fill="#A8A9AE"/>
<path d="M76.9418 70.2955C77.4369 70.2955 82.8826 67.5016 81.7274 63.2034C80.8033 59.7648 77.4919 60.0514 75.9517 60.6245C75.2366 60.9826 73.7734 62.1287 73.6414 63.848C73.4543 64.3596 73.2494 65.0601 73.1228 65.7822C71.5904 64.636 68.1297 62.6875 66.5455 64.0629C64.9613 65.4383 65.3353 67.2149 65.7204 67.9313L66.5455 69.8655C67.7556 69.9373 70.275 70.1237 70.671 70.2955C71.6611 69.8656 73.6414 69.0918 73.6414 69.4357C73.6414 69.56 73.6513 69.2887 73.6499 68.8455C73.7446 68.9127 73.8515 68.9668 73.9714 69.0059C74.3015 69.4357 75.3576 70.2955 76.9418 70.2955Z" fill="#656668"/>
</g>
<defs>
<clipPath id="clip0_87_346">
<rect width="100" height="100" fill="white"/>
</clipPath>
</defs>
</svg>
