<svg width="100" height="100" viewBox="0 0 100 100" fill="none" xmlns="http://www.w3.org/2000/svg">
<g clip-path="url(#clip0_87_446)">
<rect x="19.1908" y="46.5325" width="60.247" height="30.3428" fill="#02A9F4"/>
<path d="M48.6621 74.8909H42.2206C32.4528 75.1805 28.6113 61.3528 27.5377 54.3481C26.6283 44.548 20.9699 41.5326 18.2544 41.2499C7.7964 39.2145 5.56082 40.4018 5.75028 41.2499V83.8429H45.915C51.9776 80.4506 50.2725 76.4614 48.6621 74.8909Z" fill="#825A2C"/>
<path d="M50.2635 74.8908H56.705C66.4727 75.1804 70.3142 61.3527 71.3878 54.3481C72.2972 44.5479 77.9556 41.5325 80.6712 41.2498C91.1291 39.2144 93.3647 40.4017 93.1753 41.2498V83.8429H53.0106C46.948 80.4505 48.6531 76.4613 50.2635 74.8908Z" fill="#825A2C"/>
<rect x="38.7048" y="75.1798" width="27.6606" height="8.66938" fill="#825A2C"/>
</g>
<defs>
<clipPath id="clip0_87_446">
<rect width="100" height="100" fill="white"/>
</clipPath>
</defs>
</svg>
