<svg width="100" height="100" viewBox="0 0 100 100" fill="none" xmlns="http://www.w3.org/2000/svg">
<g clip-path="url(#clip0_87_280)">
<path d="M77.1081 81.9189C77.1081 82.6742 76.5297 83.6146 74.9265 84.639C73.365 85.6367 71.0465 86.5687 68.1018 87.3645C62.2255 88.9528 54.0574 89.9459 45 89.9459C35.9426 89.9459 27.7745 88.9528 21.8982 87.3645C18.9535 86.5687 16.635 85.6367 15.0735 84.639C13.4703 83.6146 12.8919 82.6742 12.8919 81.9189C12.8919 81.1637 13.4703 80.2233 15.0735 79.1988C16.635 78.2011 18.9535 77.2691 21.8982 76.4733C27.7745 74.8851 35.9426 73.8919 45 73.8919C54.0574 73.8919 62.2255 74.8851 68.1018 76.4733C71.0465 77.2691 73.365 78.2011 74.9265 79.1988C76.5297 80.2233 77.1081 81.1637 77.1081 81.9189Z" fill="#613637" stroke="#613637" stroke-width="1.78378"/>
<rect x="12.8919" y="22.1614" width="64.2162" height="58.8649" fill="#613637" stroke="#613637" stroke-width="1.78378"/>
<path d="M76.2162 20.3784C76.2162 21.586 75.6199 22.9106 74.1724 24.2981C72.7201 25.69 70.5244 27.0258 67.6643 28.1852C61.9535 30.5004 53.9413 31.973 45 31.973C36.0587 31.973 28.0465 30.5004 22.3357 28.1852C19.4756 27.0258 17.2799 25.69 15.8276 24.2981C14.3801 22.9106 13.7838 21.586 13.7838 20.3784C13.7838 19.1707 14.3801 17.8461 15.8276 16.4587C17.2799 15.0667 19.4756 13.731 22.3357 12.5715C28.0465 10.2563 36.0587 8.78378 45 8.78378C53.9413 8.78378 61.9535 10.2563 67.6643 12.5715C70.5244 13.731 72.7201 15.0667 74.1724 16.4587C75.6199 17.8461 76.2162 19.1707 76.2162 20.3784Z" fill="#DEB5A2" stroke="#613637" stroke-width="3.56757"/>
<path d="M32.5 35C22.9 35 15.5 32.3333 13 31V39.5C14.6 42.3 26.6667 43.6667 32.5 44V35Z" fill="#C0674F" stroke="black"/>
<path d="M58 35C67.6 35 75 32.3333 77.5 31V39.5C75.9 42.3 63.8333 43.6667 58 44V35Z" fill="#FBD4C5" stroke="black"/>
<path d="M56 35H35V44H56V35Z" fill="#C59982" stroke="black"/>
<path d="M27 46C20.1077 46 14.7949 43.3333 13 42V50.5C14.1487 53.3 22.812 54.6667 27 55V46Z" fill="#DFB6A2" stroke="black"/>
<path d="M65 46C70.9077 46 75.4615 43.3333 77 42V50.5C76.0154 53.3 68.5897 54.6667 65 55V46Z" fill="#FBD4C5" stroke="black"/>
<path d="M45 46H29V55H45V46Z" fill="#C0674F" stroke="black"/>
<path d="M63 46H47V55H63V46Z" fill="#C59982" stroke="black"/>
<path d="M32.5 57C22.9 57 15.5 54.3333 13 53V61.5C14.6 64.3 26.6667 65.6667 32.5 66V57Z" fill="#DFB6A2" stroke="black"/>
<path d="M58 57C67.6 57 75 54.3333 77.5 53V61.5C75.9 64.3 63.8333 65.6667 58 66V57Z" fill="#C59982" stroke="black"/>
<path d="M56 57H35V66H56V57Z" fill="#C0674F" stroke="black"/>
<path d="M27 68C20.1077 68 14.7949 65.3333 13 64V72.5C14.1487 75.3 22.812 76.6667 27 77V68Z" fill="#FBD4C5" stroke="black"/>
<path d="M65 68C70.9077 68 75.4615 65.3333 77 64V72.5C76.0154 75.3 68.5897 76.6667 65 77V68Z" fill="#C59982" stroke="black"/>
<path d="M45 68H29V77H45V68Z" fill="#DFB6A2" stroke="black"/>
<path d="M63 68H47V77H63V68Z" fill="#C0674F" stroke="black"/>
<path d="M32.5 79C22.9 79 15.5 76.3333 13 75V83.5C14.6 86.3 26.6667 87.6667 32.5 88V79Z" fill="#FBD4C5" stroke="black"/>
<path d="M58 79C67.6 79 75 76.3333 77.5 75V83.5C75.9 86.3 63.8333 87.6667 58 88V79Z" fill="#C0674F" stroke="black"/>
<path d="M56 79H35V88H56V79Z" fill="#DFB6A2" stroke="black"/>
</g>
<defs>
<clipPath id="clip0_87_280">
<rect width="100" height="100" fill="white"/>
</clipPath>
</defs>
</svg>
