<svg width="100" height="100" viewBox="0 0 100 100" fill="none" xmlns="http://www.w3.org/2000/svg">
<g clip-path="url(#clip0_87_487)">
<path d="M76.3759 34.3339C53.455 45.2353 31.6521 38.8761 23.6158 34.3339V76.6118C46.2572 88.3517 68.2231 81.5034 76.3759 76.6118V34.3339Z" fill="url(#paint0_linear_87_487)" stroke="#666666" stroke-width="0.839816"/>
<path d="M75.4656 33.9844C75.4656 34.3304 75.1927 34.9666 73.9284 35.7818C72.7206 36.5606 70.8893 37.3096 68.5139 37.9574C63.781 39.2482 57.1717 40.0622 49.8212 40.0622C42.4707 40.0622 35.8614 39.2482 31.1286 37.9574C28.7532 37.3096 26.9219 36.5606 25.714 35.7818C24.4498 34.9666 24.1768 34.3304 24.1768 33.9844C24.1768 33.6384 24.4498 33.0022 25.714 32.187C26.9219 31.4082 28.7532 30.6592 31.1286 30.0113C35.8614 28.7206 42.4707 27.9066 49.8212 27.9066C57.1717 27.9066 63.781 28.7206 68.5139 30.0113C70.8893 30.6592 72.7206 31.4082 73.9284 32.187C75.1927 33.0022 75.4656 33.6384 75.4656 33.9844Z" fill="#A7A7A7" stroke="#666666" stroke-width="2.51945"/>
<path d="M75.8855 29.094C75.8855 29.6623 75.4526 30.4081 74.156 31.2442C72.8969 32.0561 71.0194 32.8189 68.6243 33.4721C63.8462 34.7752 57.198 35.5916 49.8212 35.5916C42.4444 35.5916 35.7962 34.7752 31.0181 33.4721C28.623 32.8189 26.7455 32.0561 25.4865 31.2442C24.1898 30.4081 23.7569 29.6623 23.7569 29.094C23.7569 28.5256 24.1898 27.7798 25.4865 26.9437C26.7455 26.1319 28.623 25.369 31.0181 24.7158C35.7962 23.4127 42.4444 22.5963 49.8212 22.5963C57.198 22.5963 63.8462 23.4127 68.6243 24.7158C71.0194 25.369 72.8969 26.1319 74.156 26.9437C75.4526 27.7798 75.8855 28.5256 75.8855 29.094Z" stroke="#404040" stroke-width="1.67963"/>
<line x1="31.0239" y1="33.6348" x2="31.0239" y2="37.8276" stroke="#404040" stroke-width="0.839816"/>
<line y1="-0.419908" x2="4.19285" y2="-0.419908" transform="matrix(0 1 1 0 69.0385 33.6348)" stroke="#404040" stroke-width="0.839816"/>
<line x1="40.1084" y1="35.7321" x2="40.1084" y2="39.925" stroke="#404040" stroke-width="0.839816"/>
<line y1="-0.419908" x2="4.19285" y2="-0.419908" transform="matrix(0 1 1 0 59.954 35.7321)" stroke="#404040" stroke-width="0.839816"/>
<line x1="31.7226" y1="24.5513" x2="31.7226" y2="29.4429" stroke="#404040" stroke-width="0.839816"/>
<line y1="-0.419908" x2="4.89166" y2="-0.419908" transform="matrix(0 1 1 0 68.3396 24.5513)" stroke="#404040" stroke-width="0.839816"/>
<line x1="40.8072" y1="23.1547" x2="40.8072" y2="28.0463" stroke="#404040" stroke-width="0.839816"/>
<line y1="-0.419908" x2="4.89166" y2="-0.419908" transform="matrix(0 1 1 0 59.2551 23.1547)" stroke="#404040" stroke-width="0.839816"/>
<line y1="-0.419908" x2="4.89166" y2="-0.419908" transform="matrix(0 1 1 0 50.1705 22.4572)" stroke="#404040" stroke-width="0.839816"/>
<line y1="-0.419908" x2="4.89166" y2="-0.419908" transform="matrix(0 1 1 0 50.1705 35.7321)" stroke="#404040" stroke-width="0.839816"/>
</g>
<defs>
<linearGradient id="paint0_linear_87_487" x1="23.6158" y1="54.9487" x2="76.7253" y2="55.2981" gradientUnits="userSpaceOnUse">
<stop stop-color="#656565"/>
<stop offset="0.179" stop-color="#888888"/>
<stop offset="0.364" stop-color="#CDCDCD"/>
<stop offset="0.614" stop-color="#CDCDCD"/>
<stop offset="0.819" stop-color="#888888"/>
<stop offset="1" stop-color="#656565"/>
</linearGradient>
<clipPath id="clip0_87_487">
<rect width="100" height="100" fill="white"/>
</clipPath>
</defs>
</svg>
