<svg width="120" height="120" viewBox="0 0 120 120" fill="none" xmlns="http://www.w3.org/2000/svg">
<path d="M38.8752 57.8627C39.518 57.8581 40.1497 58.0311 40.701 58.3629C41.2522 58.6947 41.7017 59.1723 42.0002 59.7435H44.9377L49.571 48.5631C49.6812 48.289 49.8503 48.0427 50.0664 47.8419C50.2825 47.641 50.5402 47.4905 50.821 47.4012C51.8001 47.2256 52.7793 47.7606 52.9585 48.7428L57.8626 70.3806L62.8543 41.2321C62.9044 40.8858 63.0591 40.5631 63.2974 40.3076C63.5358 40.0521 63.8465 39.8758 64.1876 39.8027C64.4218 39.7433 64.6654 39.7309 64.9044 39.7662C65.1434 39.8016 65.3731 39.8839 65.5802 40.0086C65.7874 40.1333 65.9679 40.2978 66.1115 40.4927C66.2551 40.6876 66.3588 40.9091 66.4168 41.1443L71.7668 63.0454L74.5293 54.9119C74.6508 54.515 74.8999 54.1697 75.2376 53.9297C76.0417 53.3905 77.2001 53.5702 77.7376 54.3769L80.0542 57.683C80.1417 58.4896 80.1417 59.2921 80.1417 60.0988C80.1307 61.1431 80.0709 62.1864 79.9626 63.2251C79.6167 63.0985 79.3105 62.8821 79.0751 62.5982L76.7542 59.3799L73.1918 70.2008C73.0288 70.6563 72.697 71.0311 72.2656 71.2475C71.8341 71.4639 71.3361 71.5052 70.8751 71.3628C70.5852 71.2818 70.3234 71.1217 70.1189 70.9004C69.9144 70.679 69.7752 70.405 69.7168 70.1089L64.9001 50.6194L59.821 80.211C59.7335 80.6771 59.4736 81.0929 59.0935 81.3751C58.7133 81.6572 58.2409 81.7848 57.771 81.7323C56.971 81.6446 56.4376 81.0218 56.2585 80.2151L50.821 55.1794L47.8793 62.2429C47.7448 62.5836 47.512 62.8762 47.2105 63.0832C46.9091 63.2903 46.5529 63.4022 46.1877 63.4048H41.996C41.6793 63.9517 41.2244 64.405 40.6772 64.7191C40.13 65.0332 39.5098 65.1969 38.8793 65.1937C37.9112 65.1904 36.9837 64.8031 36.2991 64.1164C35.6145 63.4297 35.2285 62.4993 35.2252 61.5282C35.3085 59.5638 36.9169 57.8627 38.8793 57.8627H38.8752ZM60.0001 12C89.0542 12 110 34.4402 110 60.546C110 87.0989 90.1251 109 60.0001 109C29.8752 109 10.0002 87.0989 10.0002 60.546C9.91691 34.4402 30.8544 12 60.0001 12ZM26.9335 60.5418C26.9335 78.3301 42.1752 93.9785 59.9126 93.9785C77.6501 93.9785 92.8875 78.3301 92.8875 60.5418C92.8875 41.3157 77.6459 26.9253 59.9126 26.9253C42.2627 26.9253 26.9335 41.3198 26.9335 60.5418Z" fill="white"/>
</svg>
