<svg width="120" height="120" viewBox="0 0 120 120" fill="none" xmlns="http://www.w3.org/2000/svg">
<path d="M59.8789 75.127C55.7122 75.127 52.1706 73.6686 49.2539 70.752C46.3372 67.8353 44.8789 64.2936 44.8789 60.127C44.8789 55.9603 46.3372 52.4186 49.2539 49.502C52.1706 46.5853 55.7122 45.127 59.8789 45.127C64.0456 45.127 67.5873 46.5853 70.5039 49.502C73.4206 52.4186 74.8789 55.9603 74.8789 60.127C74.8789 64.2936 73.4206 67.8353 70.5039 70.752C67.5873 73.6686 64.0456 75.127 59.8789 75.127ZM52.7539 102.877L42.1289 92.252C41.1289 91.252 40.6489 90.0653 40.6889 88.692C40.7289 87.3186 41.2506 86.1303 42.2539 85.127C43.2572 84.1236 44.4456 83.6236 45.8189 83.627C47.1922 83.6303 48.3789 84.1303 49.3789 85.127L60.0039 95.877L70.6289 85.252C71.5456 84.3353 72.7122 83.877 74.1289 83.877C75.5456 83.877 76.7122 84.3353 77.6289 85.252C78.5456 86.1686 79.0039 87.3353 79.0039 88.752C79.0039 90.1686 78.5456 91.3353 77.6289 92.252L67.0039 102.877C66.0039 103.877 64.8789 104.627 63.6289 105.127C62.3789 105.627 61.1289 105.877 59.8789 105.877C58.6289 105.877 57.3789 105.627 56.1289 105.127C54.8789 104.627 53.7539 103.877 52.7539 102.877ZM27.6289 77.877L17.0039 67.252C16.0039 66.252 15.2539 65.127 14.7539 63.877C14.2539 62.627 14.0039 61.377 14.0039 60.127C14.0039 58.877 14.2539 57.627 14.7539 56.377C15.2539 55.127 16.0039 54.002 17.0039 53.002L27.6289 42.377C28.6289 41.377 29.8172 40.877 31.1939 40.877C32.5706 40.877 33.7572 41.377 34.7539 42.377C35.7506 43.377 36.2506 44.5653 36.2539 45.942C36.2572 47.3186 35.7572 48.5053 34.7539 49.502L24.0039 60.252L34.6289 70.877C35.5456 71.7936 36.0039 72.9603 36.0039 74.377C36.0039 75.7936 35.5456 76.9603 34.6289 77.877C33.7122 78.7936 32.5456 79.252 31.1289 79.252C29.7122 79.252 28.5456 78.7936 27.6289 77.877ZM42.1289 27.752L52.7539 17.127C53.7539 16.127 54.8789 15.377 56.1289 14.877C57.3789 14.377 58.6289 14.127 59.8789 14.127C61.1289 14.127 62.3789 14.377 63.6289 14.877C64.8789 15.377 66.0039 16.127 67.0039 17.127L77.6289 27.752C78.6289 28.752 79.1289 29.9186 79.1289 31.252C79.1289 32.5853 78.6289 33.752 77.6289 34.752C76.6289 35.752 75.4422 36.252 74.0689 36.252C72.6956 36.252 71.5073 35.752 70.5039 34.752L59.7539 24.127L49.1289 34.752C48.2122 35.6686 47.0456 36.127 45.6289 36.127C44.2122 36.127 43.0456 35.6686 42.1289 34.752C41.2122 33.8353 40.7539 32.6686 40.7539 31.252C40.7539 29.8353 41.2122 28.6686 42.1289 27.752ZM85.1289 70.627L95.7539 60.002L85.1289 49.377C84.2123 48.4603 83.7539 47.2936 83.7539 45.877C83.7539 44.4603 84.2123 43.2936 85.1289 42.377C86.0456 41.4603 87.2123 41.002 88.6289 41.002C90.0456 41.002 91.2122 41.4603 92.1289 42.377L102.754 53.002C103.754 54.002 104.504 55.127 105.004 56.377C105.504 57.627 105.754 58.877 105.754 60.127C105.754 61.377 105.504 62.627 105.004 63.877C104.504 65.127 103.754 66.252 102.754 67.252L92.1289 77.877C91.1289 78.877 89.9623 79.357 88.6289 79.317C87.2956 79.277 86.1289 78.7553 85.1289 77.752C84.1289 76.7486 83.6289 75.562 83.6289 74.192C83.6289 72.822 84.1289 71.6336 85.1289 70.627Z" fill="white"/>
</svg>
