<svg width="120" height="120" viewBox="0 0 120 120" fill="none" xmlns="http://www.w3.org/2000/svg">
<g clip-path="url(#clip0_5951_4150)">
<path d="M52.2421 43.6934C52.2421 42.7934 52.2421 41.9684 52.2421 41.1434C52.2421 41.1434 52.2421 40.8809 51.9421 40.8059L50.5171 40.1684C49.994 39.9471 49.5478 39.5765 49.2343 39.1029C48.9208 38.6293 48.754 38.0738 48.7546 37.5059C48.6598 36.4205 48.6598 35.3288 48.7546 34.2434C48.8335 33.6024 49.1365 33.01 49.61 32.5708C50.0835 32.1316 50.697 31.8739 51.3421 31.8434H52.7296H65.2546C65.8909 31.788 66.5308 31.788 67.1671 31.8434C67.7194 31.9137 68.2326 32.1655 68.6263 32.5592C69.02 32.9528 69.2718 33.4661 69.3421 34.0184C69.4979 35.1488 69.5606 36.2902 69.5296 37.4309C69.5105 37.898 69.3688 38.3519 69.1186 38.7469C68.8685 39.1418 68.5187 39.464 68.1046 39.6809C67.7843 39.9099 67.43 40.0871 67.0546 40.2059C65.5171 40.7684 65.8546 40.5059 65.8171 42.0059V43.3184H76.0546C76.3749 41.2527 77.1151 39.2745 78.2296 37.5059C78.9107 36.1605 79.2335 34.6624 79.1671 33.1559V32.4059H76.4296C75.7731 32.3761 75.1315 32.2005 74.5514 31.8917C73.9713 31.583 73.4672 31.1489 73.0758 30.6211C72.6843 30.0932 72.4154 29.4848 72.2885 28.84C72.1616 28.1952 72.1799 27.5302 72.3421 26.8934C72.6111 25.9225 73.1906 25.0664 73.9921 24.4559C74.8004 23.7882 75.3777 22.8829 75.6421 21.8684C75.8082 20.8482 76.3512 19.9276 77.1637 19.2887C77.9763 18.6498 78.999 18.3392 80.0296 18.4184H86.9671C87.9432 18.35 88.9115 18.6341 89.696 19.219C90.4804 19.8039 91.029 20.6508 91.2421 21.6059C91.6053 22.7672 92.2644 23.814 93.1546 24.6434C93.8711 25.1968 94.3953 25.9617 94.6528 26.8296C94.9103 27.6976 94.8882 28.6246 94.5895 29.4792C94.2907 30.3339 93.7306 31.0729 92.9885 31.5914C92.2464 32.11 91.3598 32.3818 90.4546 32.3684C89.5546 32.3684 88.6171 32.3684 87.6421 32.3684C87.488 34.021 87.7998 35.6838 88.5421 37.1684C89.8753 39.5634 90.5604 42.265 90.5296 45.0059C90.5296 47.1809 90.5296 49.3934 90.5296 51.6059V52.5059H93.2296V51.3809C93.1396 50.0942 93.3715 48.8054 93.9046 47.6309C94.445 46.5576 95.3302 45.697 96.4182 45.187C97.5062 44.677 98.734 44.5472 99.9046 44.8184C101.105 45.0617 102.185 45.7145 102.957 46.6652C103.73 47.616 104.149 48.8056 104.142 50.0309C104.142 54.9059 104.142 59.7809 104.142 64.6559C104.142 67.8809 104.142 71.1434 104.142 74.4059C104.041 75.7194 103.466 76.9513 102.524 77.8728C101.583 78.7943 100.339 79.3426 99.0234 79.416C97.7081 79.4893 96.4109 79.0826 95.3728 78.2715C94.3347 77.4603 93.6265 76.2999 93.3796 75.0059C93.3226 74.0192 93.3226 73.0301 93.3796 72.0434V71.6309H90.7171C90.7171 71.9684 90.7171 72.2684 90.7171 72.5684C90.7171 74.3684 90.7171 76.3184 90.7171 77.9684C90.7735 78.8808 90.5925 79.7923 90.1916 80.6138C89.7906 81.4354 89.1836 82.139 88.4296 82.6559C87.765 83.1202 87.2971 83.8154 87.1171 84.6059C86.8921 85.3559 86.6671 86.0684 86.4421 86.8934C86.7793 86.8746 87.1174 86.8746 87.4546 86.8934C89.0276 86.7805 90.6066 86.7805 92.1796 86.8934C92.8848 86.9763 93.5663 87.1995 94.184 87.5497C94.8016 87.8999 95.343 88.3702 95.7763 88.9327C96.2096 89.4952 96.526 90.1388 96.7068 90.8254C96.8877 91.512 96.9295 92.2279 96.8296 92.9309C96.6435 94.299 95.9507 95.5475 94.8882 96.4294C93.8258 97.3113 92.4711 97.7624 91.0921 97.6934H31.0921C29.4038 97.857 27.7012 97.7939 26.0296 97.5059C24.7881 97.227 23.6942 96.4974 22.9598 95.4582C22.2255 94.419 21.9029 93.1443 22.0546 91.8809C22.1933 90.6174 22.7732 89.4432 23.6924 88.5652C24.6116 87.6872 25.811 87.1616 27.0796 87.0809C28.5421 87.0809 30.0046 87.0809 31.4671 87.0809C31.9171 87.0809 32.0671 87.0809 32.0296 86.5184C31.9921 85.9559 32.0296 84.6059 32.0296 83.6684C32.0116 83.2915 31.8802 82.9288 31.6527 82.6277C31.4253 82.3266 31.1122 82.1012 30.7546 81.9809C29.0564 81.4015 27.526 80.4149 26.297 79.1075C25.068 77.8001 24.178 76.2117 23.7046 74.4809C23.6667 74.3164 23.5833 74.1659 23.464 74.0465C23.3446 73.9272 23.1941 73.8438 23.0296 73.8059C22.2636 73.6068 21.5119 73.3562 20.7796 73.0559C20.0398 72.8149 19.3933 72.3497 18.9297 71.7248C18.466 71.0999 18.2083 70.3463 18.1921 69.5684C18.1547 68.8439 18.1547 68.1179 18.1921 67.3934C18.1921 63.1559 18.1921 58.9184 18.1921 54.7184C18.0928 53.5921 18.4247 52.4701 19.1208 51.5791C19.8169 50.6881 20.8252 50.0946 21.9421 49.9184C22.476 49.7848 22.9698 49.5241 23.3811 49.1584C23.7925 48.7928 24.1093 48.333 24.3046 47.8184C24.8253 46.5221 25.5969 45.3413 26.5751 44.3438C27.5532 43.3464 28.7187 42.5519 30.0046 42.0059C31.9333 41.1768 34.0813 41.0055 36.1171 41.5184C37.4029 42.0122 38.6555 42.5883 39.8671 43.2434C40.2961 43.4754 40.7685 43.6159 41.2546 43.6559H52.0921L52.2421 43.6934ZM76.0171 76.8809V46.8809H66.9046C66.5937 46.8891 66.2915 46.9849 66.0327 47.1574C65.7739 47.3299 65.5692 47.5721 65.4421 47.8559C65.1435 48.4387 64.6852 48.9245 64.1208 49.2565C63.5563 49.5886 62.9091 49.7531 62.2546 49.7309H59.7046C58.3546 49.7309 57.0421 49.7309 55.6921 49.7309C55.0511 49.7352 54.4234 49.5485 53.8891 49.1945C53.3548 48.8405 52.938 48.3353 52.6921 47.7434C52.5868 47.4678 52.3942 47.2342 52.1436 47.0784C51.893 46.9227 51.5983 46.8533 51.3046 46.8809H40.5796V76.8809H76.0171ZM79.0921 61.8809V76.8809C79.0988 77.5226 79.1615 78.1626 79.2796 78.7934C79.2879 79.1858 79.4425 79.561 79.7131 79.8454C79.9836 80.1298 80.3506 80.3029 80.7421 80.3309C82.6171 80.3309 84.4921 80.3309 86.2921 80.3309C87.0421 80.3309 87.4171 79.8059 87.5296 78.9809C87.6421 78.1559 87.5296 78.0434 87.5296 77.5559V64.3559C87.5296 59.7434 87.5296 55.1309 87.5296 50.5184V46.7684C87.6582 43.7123 86.917 40.6825 85.3921 38.0309C85.1296 37.5809 84.8671 37.0934 84.6421 36.6059C84.3564 36.0969 84.179 35.5344 84.1209 34.9536C84.0629 34.3729 84.1254 33.7864 84.3046 33.2309C84.3046 32.8559 84.3046 32.5184 84.0421 32.3684C83.816 32.256 83.556 32.2321 83.3131 32.3015C83.0703 32.3708 82.8622 32.5285 82.7296 32.7434C82.3921 33.6809 82.0546 34.6184 81.7546 35.5934C80.9296 38.2559 80.1046 40.9184 79.3546 43.6184C78.9798 45.6708 78.8664 47.7625 79.0171 49.8434C79.0546 53.8934 79.0921 57.8309 79.0921 61.7684V61.8809ZM59.3671 90.0059H29.6296C29.3057 90.0441 28.9785 90.0441 28.6546 90.0059C28.0005 89.9247 27.3377 90.0558 26.7638 90.3799C26.1899 90.704 25.7353 91.2039 25.4671 91.8059C25.3837 91.9817 25.3404 92.1738 25.3404 92.3684C25.3404 92.563 25.3837 92.7551 25.4671 92.9309C25.7223 93.6075 26.1975 94.1787 26.8164 94.5527C27.4353 94.9268 28.1619 95.082 28.8796 94.9934H88.8796C89.3671 94.9934 89.8546 94.9934 90.3421 94.9934C90.8296 94.9934 91.2796 94.9934 91.5796 94.9934C92.2194 94.5301 92.81 94.0023 93.3421 93.4184C93.5239 93.2183 93.6247 92.9576 93.6247 92.6871C93.6247 92.4167 93.5239 92.156 93.3421 91.9559C92.9671 91.5059 92.5171 91.0559 92.1046 90.6434C91.9171 90.4499 91.6879 90.302 91.4343 90.211C91.1808 90.12 90.9098 90.0883 90.6421 90.1184H59.3671V90.0059ZM83.6671 86.8559V84.2684C83.6671 83.5184 83.6671 83.4434 82.7671 83.4059C81.8671 83.3684 81.2296 83.4059 80.4796 83.4059C79.6982 83.3545 78.943 83.1034 78.2864 82.6766C77.6298 82.2499 77.0938 81.6617 76.7296 80.9684C76.6278 80.7607 76.4743 80.5826 76.2838 80.4513C76.0934 80.32 75.8724 80.2398 75.6421 80.2184C75.3174 80.1979 74.9918 80.1979 74.6671 80.2184H41.6671C40.9876 80.2236 40.3191 80.3907 39.7171 80.7059C38.2546 81.4559 36.8671 82.3184 35.4796 83.1434C35.4796 83.1434 35.1796 83.3309 35.1796 83.4434V87.0059L83.6671 86.8559ZM30.7921 45.2309C29.6085 45.6317 28.5586 46.3515 27.758 47.3109C26.9573 48.2704 26.4371 49.4322 26.2546 50.6684C26.2546 52.5809 26.2546 54.4184 26.2546 56.4059C26.2546 61.3934 26.2546 66.3434 26.2546 71.4059C26.2177 72.5479 26.4263 73.6844 26.8662 74.7389C27.3061 75.7934 27.9671 76.7412 28.8046 77.5184C30.5061 78.9835 32.7138 79.7238 34.9546 79.5809C36.7921 79.5809 37.5421 78.8309 37.5796 77.0309V76.5059C37.5796 73.7684 37.5796 71.0684 37.5796 68.3309V47.0684C37.6349 46.5448 37.6349 46.0169 37.5796 45.4934C37.5657 45.3222 37.5174 45.1556 37.4375 45.0035C37.3576 44.8515 37.2478 44.7172 37.1147 44.6086C36.9816 44.5 36.828 44.4195 36.663 44.3717C36.498 44.324 36.3251 44.3101 36.1546 44.3309C35.6671 44.3309 35.2171 44.3309 34.7296 44.3309C34.2421 44.3309 34.0171 44.6309 34.0171 45.2309V70.7309C34.0544 71.105 34.0544 71.4818 34.0171 71.8559C33.9653 72.1558 33.8335 72.4361 33.6354 72.6671C33.4374 72.8982 33.1805 73.0714 32.8921 73.1684C32.6435 73.2156 32.3862 73.183 32.1572 73.0752C31.9283 72.9675 31.7392 72.7901 31.6171 72.5684C31.3525 72.2139 31.1729 71.8033 31.0921 71.3684C31.0546 70.9567 31.0546 70.5425 31.0921 70.1309V45.2309H30.7921ZM96.2296 62.0684V72.1559C96.2296 72.9809 96.2296 73.8059 96.2296 74.6309C96.2492 75.1713 96.4802 75.6825 96.873 76.0542C97.2658 76.426 97.7889 76.6286 98.3296 76.6184C98.6216 76.6834 98.9239 76.6864 99.2171 76.6272C99.5103 76.568 99.7879 76.4479 100.032 76.2747C100.276 76.1016 100.48 75.8791 100.633 75.6218C100.785 75.3645 100.882 75.078 100.917 74.7809C100.975 74.383 100.975 73.9788 100.917 73.5809V50.5559C100.903 50.009 100.815 49.4665 100.655 48.9434C100.508 48.4783 100.202 48.0799 99.7904 47.819C99.3785 47.5582 98.8876 47.4517 98.4046 47.5184C97.9275 47.4648 97.4469 47.5824 97.0486 47.8503C96.6502 48.1182 96.3599 48.5189 96.2296 48.9809C96.0628 49.6425 95.9871 50.3238 96.0046 51.0059C96.2296 54.6809 96.2296 58.3934 96.2296 62.0684ZM91.5421 27.9434C91.2457 27.4364 90.8069 27.0276 90.2803 26.7676C89.7537 26.5076 89.1623 26.4079 88.5796 26.4809C85.0546 26.4809 81.5296 26.4809 78.0046 26.4809C77.4438 26.4771 76.8912 26.6162 76.3991 26.8852C75.907 27.1542 75.4916 27.5442 75.1921 28.0184C76.5046 29.2559 76.5796 29.3309 78.2671 29.3309C81.6421 29.3309 85.0171 29.3309 88.3921 29.3309C88.9898 29.3679 89.5877 29.2613 90.1357 29.0199C90.6837 28.7785 91.166 28.4094 91.5421 27.9434ZM62.6296 40.7309H55.6546V46.4309H62.6296V40.7309ZM66.3796 34.9184H51.8671V37.5059H66.4171L66.3796 34.9184ZM22.5046 70.9934C22.6171 70.98 22.7256 70.9435 22.8234 70.8864C22.9212 70.8292 23.0062 70.7524 23.073 70.661C23.1399 70.5695 23.1872 70.4652 23.212 70.3547C23.2367 70.2441 23.2385 70.1297 23.2171 70.0184C23.2171 64.5809 23.2171 59.1809 23.2171 53.7434C23.2417 53.5169 23.1829 53.2891 23.0517 53.1028C22.9206 52.9165 22.7261 52.7843 22.5046 52.7309C22.1296 53.1809 21.7171 53.6309 21.3796 54.1184C21.1865 54.3931 21.0819 54.7201 21.0796 55.0559C21.0796 56.6559 21.0796 58.2684 21.0796 59.8934V68.6309C21.09 69.0233 21.2209 69.403 21.4546 69.7184C21.7546 70.1684 22.1296 70.5809 22.5046 70.9934ZM90.7546 68.4434H93.0796V55.7309H90.7546V68.4434ZM88.4296 22.7309C88.2571 22.592 88.0943 22.4417 87.9421 22.2809C87.7481 22.0059 87.4968 21.7764 87.2054 21.608C86.9141 21.4397 86.5897 21.3366 86.2546 21.3059H79.8796C79.62 21.2501 79.3516 21.2501 79.0921 21.3059C78.8309 21.4625 78.6344 21.7073 78.5381 21.9962C78.4418 22.2851 78.4521 22.5989 78.5671 22.8809C78.5671 23.4809 79.1671 23.2184 79.4671 23.2184H87.4921C87.6807 23.2597 87.8778 23.2335 88.0491 23.1444C88.2204 23.0553 88.3551 22.909 88.4296 22.7309Z" fill="white" stroke="white" stroke-width="1.5"/>
<path d="M67.9656 71.1727C67.5535 71.7613 66.981 72.2191 66.3162 72.4917C65.6514 72.7642 64.9223 72.8401 64.2156 72.7102H51.2781C50.7162 72.7475 50.1525 72.7475 49.5906 72.7102C49.2095 72.6255 48.8513 72.4592 48.5406 72.2227C48.1596 71.8924 47.7966 71.5419 47.4531 71.1727C47.7816 70.766 48.1915 70.4324 48.6564 70.1935C49.1214 69.9545 49.6312 69.8155 50.1531 69.7852C53.6781 69.7852 57.1656 69.7852 60.6906 69.7852C62.4156 69.7852 64.1406 69.7852 65.8656 69.7852C66.1925 69.8058 66.5058 69.9233 66.7656 70.1227C67.2156 70.4227 67.5906 70.8352 67.9656 71.1727Z" fill="white"/>
<path d="M68.0375 63.6715L67.7375 63.934C67.3596 64.4132 66.8637 64.7861 66.2984 65.0162C65.7331 65.2463 65.1177 65.3256 64.5125 65.2465C61.7375 65.2465 59 65.2465 56.225 65.2465H49.5875C49.2749 65.2438 48.9718 65.1384 48.725 64.9465L47.375 63.934C47.7491 63.53 48.1638 63.1656 48.6125 62.8465C48.9634 62.5888 49.3787 62.4331 49.8125 62.3965H56.1125H63.1625C64.1 62.3965 65 62.3965 65.9375 62.3965C66.2744 62.4488 66.5949 62.5771 66.875 62.7715C67.2795 63.0489 67.6676 63.3494 68.0375 63.6715Z" fill="white"/>
<path d="M47.375 55.079C48.6125 53.5415 50.3 53.6915 51.9875 53.6915H63.2375C64.025 53.6915 64.8125 53.6915 65.6 53.6915C65.9604 53.7428 66.3056 53.8707 66.6125 54.0665C67.025 54.3665 67.4 54.7415 67.8125 55.079C67.4422 55.5402 66.9745 55.9138 66.4429 56.1732C65.9113 56.4325 65.3289 56.5711 64.7375 56.579C61.775 56.579 58.8125 56.579 55.85 56.579C53.9375 56.579 52.1 56.579 50.075 56.579C49.6854 56.5804 49.2994 56.5049 48.9391 56.3569C48.5788 56.2089 48.2511 55.9913 47.975 55.7165L47.375 55.079Z" fill="white"/>
<path d="M85.6603 72.0027C85.1728 72.4152 84.7228 72.7902 84.3103 73.2027C84.2267 73.2866 84.1273 73.3532 84.0179 73.3986C83.9085 73.444 83.7912 73.4674 83.6728 73.4674C83.5543 73.4674 83.437 73.444 83.3276 73.3986C83.2182 73.3532 83.1189 73.2866 83.0353 73.2027L82.7728 72.9777C82.5541 72.8551 82.3779 72.6689 82.2674 72.4439C82.1569 72.219 82.1173 71.9657 82.1539 71.7177C82.1905 71.4697 82.3015 71.2387 82.4723 71.0552C82.6431 70.8717 82.8655 70.7444 83.1103 70.6902C83.2452 70.6267 83.3924 70.5938 83.5415 70.5938C83.6906 70.5937 83.8379 70.6267 83.9728 70.6902C84.5728 71.2527 85.0978 71.5902 85.6603 72.0027Z" fill="white"/>
<path d="M83.3341 53.6277C82.9591 52.9902 82.5841 52.4277 82.2841 51.8652C82.2087 51.7641 82.1553 51.6481 82.1275 51.525C82.0998 51.4019 82.0982 51.2743 82.1229 51.1505C82.1477 51.0267 82.1982 50.9095 82.2712 50.8065C82.3442 50.7036 82.4381 50.6171 82.5466 50.5527L83.3716 49.9902C85.3216 51.9027 84.8341 51.7527 83.3716 53.2527L83.3341 53.6277Z" fill="white"/>
<path d="M83.591 63.7543L82.5035 62.4418C82.366 62.3016 82.2891 62.1131 82.2891 61.9168C82.2891 61.7205 82.366 61.532 82.5035 61.3918C82.841 60.9793 83.2535 60.6043 83.6285 60.1543C84.0785 60.5668 84.491 60.9043 84.8285 61.2793C84.9022 61.3494 84.9609 61.4337 85.0011 61.5272C85.0412 61.6207 85.0619 61.7213 85.0619 61.823C85.0619 61.9248 85.0412 62.0254 85.0011 62.1189C84.9609 62.2124 84.9022 62.2967 84.8285 62.3668L83.591 63.7543Z" fill="white"/>
</g>
<defs>
<clipPath id="clip0_5951_4150">
<rect width="120" height="120" fill="white"/>
</clipPath>
</defs>
</svg>
