<svg width="121" height="121" viewBox="0 0 121 121" fill="none" xmlns="http://www.w3.org/2000/svg">
<path d="M60.8828 107.613C87.1163 107.613 108.383 86.3468 108.383 60.1133C108.383 33.8798 87.1163 12.6133 60.8828 12.6133C34.6493 12.6133 13.3828 33.8798 13.3828 60.1133C13.3828 86.3468 34.6493 107.613 60.8828 107.613Z" stroke="white" stroke-width="8"/>
<path d="M90.8984 61.5973V61.5948C90.8984 54.3336 85.0121 48.4473 77.7509 48.4473H44.0159C36.7548 48.4473 30.8684 54.3336 30.8684 61.5948V61.5973C30.8684 68.8584 36.7548 74.7448 44.0159 74.7448H77.7509C85.0121 74.7448 90.8984 68.8584 90.8984 61.5973Z" stroke="white" stroke-width="8"/>
<path d="M65.8984 62.2422C65.8984 69.1457 71.4949 74.7422 78.3984 74.7422C85.302 74.7422 90.8984 69.1457 90.8984 62.2422C90.8984 55.3386 85.302 49.7422 78.3984 49.7422C71.4949 49.7422 65.8984 55.3386 65.8984 62.2422Z" stroke="white" stroke-width="8"/>
</svg>
