<svg width="121" height="121" viewBox="0 0 121 121" fill="none" xmlns="http://www.w3.org/2000/svg">
<path d="M94.6371 112.834C90.7051 112.846 86.8694 111.618 83.6753 109.325C80.4812 107.032 78.0912 103.79 76.8453 100.061C75.5994 96.3317 75.561 92.3045 76.7354 88.5519C77.9098 84.7994 80.2374 81.5127 83.3871 79.159V56.584C83.3871 53.6003 84.5723 50.7388 86.6821 48.629C88.7919 46.5192 91.6534 45.334 94.6371 45.334C97.6208 45.334 100.482 46.5192 102.592 48.629C104.702 50.7388 105.887 53.6003 105.887 56.584V79.159C109.037 81.5127 111.364 84.7994 112.539 88.5519C113.713 92.3045 113.675 96.3317 112.429 100.061C111.183 103.79 108.793 107.032 105.599 109.325C102.405 111.618 98.569 112.846 94.6371 112.834ZM94.6371 52.834C93.6428 52.835 92.6896 53.2304 91.9865 53.9334C91.2835 54.6365 90.8881 55.5897 90.8871 56.584V83.3215L89.0233 84.409C87.3128 85.3798 85.89 86.7866 84.9 88.4861C83.9099 90.1856 83.3879 92.1171 83.3871 94.084C83.3871 97.0677 84.5723 99.9292 86.6821 102.039C88.7919 104.149 91.6534 105.334 94.6371 105.334C97.6208 105.334 100.482 104.149 102.592 102.039C104.702 99.9292 105.887 97.0677 105.887 94.084C105.887 92.1165 105.365 90.1842 104.375 88.484C103.385 86.7838 101.962 85.3764 100.251 84.4052L98.3871 83.3215V56.584C98.3861 55.5897 97.9907 54.6365 97.2876 53.9334C96.5846 53.2304 95.6313 52.835 94.6371 52.834ZM60.8871 90.334H53.3871C53.3628 84.2016 54.6038 78.1302 57.0325 72.4992C59.4611 66.8682 63.0253 61.7988 67.5021 57.6077L72.6508 63.0602C68.9198 66.553 65.9494 70.7778 63.9253 75.4706C61.9012 80.1634 60.8669 85.2233 60.8871 90.334Z" fill="white"/>
<path d="M42.1406 90.3301H34.6406C34.6605 73.4286 41.3833 57.2251 53.3345 45.2739C65.2856 33.3228 81.4892 26.5999 98.3906 26.5801H113.391V34.0801H98.3906C83.4774 34.097 69.1798 40.0287 58.6345 50.574C48.0892 61.1192 42.1575 75.4168 42.1406 90.3301Z" fill="white"/>
<path d="M98.3867 7.83402C82.4001 7.82111 66.7585 12.4823 53.3867 21.244C40.0156 12.4809 24.3736 7.81958 8.38672 7.83402V15.334C21.9424 15.3121 35.2473 18.9877 46.8692 25.9653C43.788 28.4355 40.8869 31.1223 38.188 34.0053C29.0074 29.1401 18.7768 26.5924 8.38672 26.584V34.084C16.9935 34.0826 25.486 36.0543 33.2117 39.8478C30.8671 42.8678 28.7345 46.0467 26.8292 49.3615C21.0345 46.7337 14.7494 45.3611 8.38672 45.334V52.834C13.5542 52.8393 18.6636 53.925 23.3867 56.0215C18.4372 66.7829 15.8785 78.489 15.8867 90.334H23.3867C23.4095 70.4498 31.3186 51.3865 45.3789 37.3262C59.4392 23.2659 78.5025 15.3568 98.3867 15.334H113.387V7.83402H98.3867Z" fill="white"/>
</svg>
