<svg width="120" height="120" viewBox="0 0 120 120" fill="none" xmlns="http://www.w3.org/2000/svg">
<g clip-path="url(#clip0_5951_4177)">
<path d="M95.2755 66.5937C94.5942 66.5937 93.7313 66.8662 93.2317 66.5937C92.7321 66.3212 93.2317 65.3674 93.2317 64.7316C93.2113 64.5657 93.2113 64.3979 93.2317 64.232C93.0608 63.1256 92.556 62.0979 91.7849 61.2862C91.0139 60.4746 90.0133 59.9178 88.9171 59.6904C87.8067 59.4887 86.6613 59.6282 85.6317 60.0903C84.6021 60.5524 83.7366 61.3155 83.1492 62.2791C82.5337 63.4513 82.2658 64.7749 82.3771 66.0941C82.3771 66.6391 82.3771 66.9116 81.6505 66.9116H76.2913C76.0861 66.9118 75.884 66.8623 75.7021 66.7674C75.5202 66.6725 75.364 66.535 75.2467 66.3666C74.2152 65.1813 73.0405 64.1287 71.7496 63.2328C71.5792 63.1402 71.4379 63.0019 71.3416 62.8334C71.2454 62.6649 71.1979 62.473 71.2046 62.2791V54.422C71.2046 53.9224 71.2046 53.7862 71.7951 53.7862H74.8834C75.6378 53.8553 76.3984 53.7663 77.1165 53.525C77.8347 53.2836 78.4946 52.8952 79.0542 52.3845C79.6138 51.8738 80.0608 51.2521 80.3666 50.5589C80.6724 49.8658 80.8304 49.1165 80.8304 48.3589C80.8304 47.6013 80.6724 46.852 80.3666 46.1589C80.0608 45.4658 79.6138 44.844 79.0542 44.3333C78.4946 43.8226 77.8347 43.4342 77.1165 43.1928C76.3984 42.9515 75.6378 42.8625 74.8834 42.9316H70.3417C69.4334 42.9316 68.2071 43.3404 67.6621 42.9316C67.1171 42.5229 67.6621 41.115 67.6621 40.1612C67.6621 39.6616 67.6621 39.5254 68.2526 39.5254H70.9321C72.4309 39.5254 73.1121 38.8441 73.1576 37.3C73.203 35.7558 73.1576 34.6658 73.1576 33.3487C73.1576 32.0316 73.1576 32.2133 74.2476 32.2587H83.8305C84.823 32.3081 85.8102 32.0851 86.6851 31.6139C87.5601 31.1427 88.2896 30.4413 88.7947 29.5854C89.2998 28.7296 89.5612 27.7519 89.5508 26.7582C89.5404 25.7645 89.2584 24.7925 88.7355 23.9475C88.1713 23.0576 87.3723 22.3407 86.4267 21.8759C85.4811 21.4111 84.4255 21.2164 83.3763 21.3133H36.0067C34.9766 21.385 33.9921 21.7658 33.1819 22.4059C32.3716 23.046 31.7733 23.9157 31.4651 24.9012C31.1619 25.7524 31.0751 26.6656 31.2125 27.5586C31.3499 28.4517 31.7072 29.2966 32.2522 30.0172C32.7972 30.7379 33.5129 31.3118 34.3347 31.6872C35.1566 32.0626 36.0589 32.2278 36.9605 32.1679H46.6797C47.588 32.1679 47.8151 32.4404 47.7697 33.2579C47.7242 34.0754 47.7697 35.5287 47.7697 36.6641C47.7697 38.935 48.3147 39.4345 50.5401 39.48C51.403 39.48 52.5838 39.0712 53.0834 39.48C53.583 39.8887 53.0834 41.2512 53.0834 42.1595C53.0834 43.0679 53.0834 42.977 52.2659 42.977H45.7259C44.2841 42.9889 42.9048 43.5669 41.8853 44.5864C40.8658 45.6059 40.2878 46.9853 40.2759 48.427C40.2759 49.1406 40.4172 49.8471 40.6916 50.5058C40.9661 51.1645 41.3682 51.7623 41.8749 52.2648C42.3816 52.7673 42.9827 53.1644 43.6437 53.4333C44.3047 53.7022 45.0124 53.8376 45.7259 53.8316H48.678C49.2684 53.8316 49.4047 53.8316 49.4047 54.5583C49.3136 56.3284 49.3136 58.1019 49.4047 59.872C49.4047 61.6887 49.4047 63.142 47.4972 64.0049C45.5897 64.8678 45.8167 66.3212 44.3634 66.5937C42.9873 66.6845 41.6066 66.6845 40.2305 66.5937C38.5047 66.5937 38.5047 66.5937 38.4138 64.9133C38.378 64.1976 38.2016 63.4959 37.8947 62.8484C37.5877 62.2009 37.1563 61.6201 36.6249 61.1393C36.0935 60.6586 35.4726 60.2872 34.7977 60.0463C34.1228 59.8055 33.407 59.7 32.6913 59.7358C31.9756 59.7716 31.274 59.948 30.6265 60.2549C29.9789 60.5619 29.3982 60.9933 28.9174 61.5247C28.4366 62.0561 28.0652 62.677 27.8244 63.3519C27.5836 64.0268 27.4781 64.7426 27.5138 65.4583C27.5138 66.412 27.2413 66.5937 26.333 66.5937H5.80469V92.1178C6.2509 92.3979 6.78197 92.5105 7.30344 92.4357H25.9697C26.7872 92.4357 27.1959 92.6628 27.1505 93.5257C27.1638 94.1587 27.271 94.7863 27.4684 95.3878C27.7006 96.3536 28.1821 97.2416 28.8649 97.963C29.5477 98.6845 30.4078 99.2141 31.3593 99.4991C32.3109 99.7841 33.3205 99.8145 34.2875 99.5872C35.2544 99.3598 36.1448 98.8828 36.8697 98.2037C38.0898 97.0036 38.7909 95.3731 38.8226 93.662C38.8226 92.9353 39.1405 92.6174 39.8672 92.6628H43.8184C44.1028 92.6604 44.3842 92.7201 44.6431 92.8378C44.9019 92.9555 45.132 93.1283 45.3172 93.3441C47.2231 95.4199 49.5394 97.0771 52.1193 98.2108C54.6993 99.3445 57.4866 99.9299 60.3046 99.9299C63.1227 99.9299 65.91 99.3445 68.49 98.2108C71.0699 97.0771 73.3862 95.4199 75.2921 93.3441C75.4773 93.1283 75.7073 92.9555 75.9662 92.8378C76.2251 92.7201 76.5065 92.6604 76.7909 92.6628H79.8792C81.605 92.6628 81.605 92.6628 81.8321 94.2978V95.1153C81.9537 96.1695 82.3854 97.1638 83.0727 97.9724C83.7599 98.7809 84.6717 99.3672 85.6925 99.657C86.7112 100.017 87.8128 100.071 88.8618 99.8125C89.9108 99.5543 90.8614 98.9951 91.5967 98.2037C92.6045 97.0893 93.1979 95.662 93.2771 94.1616C93.2771 92.7537 93.2771 92.6628 95.0029 92.6628H113.17C113.465 92.6853 113.761 92.6486 114.042 92.555C114.323 92.4614 114.582 92.3128 114.805 92.1178V66.5937H95.2755ZM27.5593 87.5762C27.5593 88.1666 27.5593 88.3482 26.7872 88.3482H10.0284C9.3926 88.3482 9.30177 88.0757 9.30177 87.5307C9.30177 81.9899 9.30177 76.4491 9.30177 70.9083C9.30177 70.3178 9.30177 70.1362 10.0739 70.1362H26.6963C27.3322 70.1362 27.5593 70.1362 27.5593 70.9537C27.4987 76.5248 27.4987 82.0656 27.5593 87.5762ZM34.6897 94.2978C34.613 94.6905 34.395 95.0414 34.0769 95.2842C33.7588 95.5269 33.3628 95.6446 32.9638 95.6149C32.5681 95.622 32.1826 95.4893 31.8752 95.24C31.5678 94.9908 31.3582 94.641 31.2834 94.2524C31.2366 93.7994 31.2366 93.3429 31.2834 92.8899V65.6399C31.2366 65.187 31.2366 64.7304 31.2834 64.2774C31.3659 63.9049 31.5728 63.5715 31.8699 63.3321C32.1671 63.0928 32.5368 62.9616 32.9184 62.9604C33.3105 62.9249 33.7027 63.0282 34.0264 63.2523C34.3501 63.4764 34.5849 63.8071 34.6897 64.1866C34.7568 64.6078 34.7568 65.037 34.6897 65.4583V93.2078C34.7559 93.5834 34.7559 93.9677 34.6897 94.3432V94.2978ZM37.5963 28.5345C37.1447 28.6031 36.6854 28.6031 36.2338 28.5345C35.8436 28.4444 35.4954 28.2247 35.2461 27.9113C34.9968 27.5979 34.8611 27.2092 34.8611 26.8087C34.8611 26.4082 34.9968 26.0196 35.2461 25.7061C35.4954 25.3927 35.8436 25.173 36.2338 25.0829H84.1938C84.6002 25.1154 84.981 25.2946 85.265 25.5871C85.5491 25.8795 85.7172 26.2653 85.738 26.6725C85.8033 27.0999 85.6966 27.5359 85.4412 27.8848C85.1858 28.2338 84.8026 28.4674 84.3755 28.5345C83.9227 28.5859 83.4657 28.5859 83.013 28.5345H37.5963ZM52.0842 35.8466C51.4484 35.8466 51.2667 35.8466 51.2667 35.0291C51.2667 32.1679 51.2667 32.1679 54.0371 32.1679H68.5251C69.2971 32.1679 69.6151 32.1679 69.5242 33.167C69.4334 34.1662 69.7967 35.12 69.5242 35.6195C69.2517 36.1191 67.8438 35.6195 66.9809 35.6195H51.9934L52.0842 35.8466ZM64.0288 42.75C64.0288 43.2041 63.6655 43.0679 63.4384 43.0679H57.2617C56.853 43.0679 56.6713 43.0679 56.6713 42.4775C56.6713 39.3891 56.6713 39.4345 59.4417 39.4345H61.4855C62.2576 39.4345 63.5746 39.0712 63.7563 39.4345C63.9983 40.4607 64.0597 41.5211 63.938 42.5683L64.0288 42.75ZM46.1347 50.3345C44.5451 50.3345 43.5459 49.0174 44.2272 47.7458C44.4241 47.3871 44.7242 47.0957 45.0885 46.9095C45.4529 46.7233 45.8648 46.6507 46.2709 46.7012H74.52C75.928 46.7012 76.8363 47.4279 76.7909 48.5633C76.7627 48.8204 76.6838 49.0694 76.5586 49.2958C76.4335 49.5222 76.2646 49.7214 76.0617 49.882C75.8589 50.0426 75.6262 50.1612 75.3772 50.2311C75.1281 50.301 74.8676 50.3207 74.6109 50.2891H46.0438L46.1347 50.3345ZM81.2871 88.5753C79.4705 88.5753 77.6084 88.5753 75.7463 88.5753C75.2368 88.5351 74.7253 88.6219 74.2577 88.828C73.79 89.0341 73.3808 89.353 73.0667 89.7562C71.3932 91.9185 69.1859 93.6083 66.6617 94.6594C64.1375 95.7104 61.3833 96.0867 58.6696 95.7512C56.7145 95.6093 54.8075 95.0782 53.0605 94.1891C51.3135 93.3 49.7617 92.0708 48.4963 90.5737C47.9811 89.8689 47.2916 89.31 46.4955 88.9518C45.6994 88.5935 44.8238 88.4482 43.9547 88.5299C42.4105 88.5299 40.8209 88.5299 39.413 88.5299C38.9134 88.5299 38.7317 88.5299 38.7317 87.8941C38.7317 82.2624 38.7317 76.6308 38.7317 71.0445C38.7317 70.4541 38.7317 70.3179 39.4584 70.3179H45.3172C45.7948 70.3489 46.2728 70.2615 46.7085 70.0634C47.1443 69.8654 47.5244 69.5627 47.8151 69.1824C48.9758 67.6861 50.4089 66.4225 52.0388 65.4583C52.4612 65.2352 52.8076 64.8915 53.0341 64.471C53.2605 64.0504 53.3568 63.572 53.3105 63.0966C53.3105 60.3262 53.3105 57.5558 53.3105 54.7854C53.3105 54.1041 53.3105 53.877 54.1734 53.877H66.663C67.4805 53.877 67.6167 54.1495 67.5713 54.8308C67.5713 57.5558 67.5713 60.3262 67.5713 63.0512C67.5234 63.5277 67.6136 64.008 67.831 64.4348C68.0484 64.8616 68.3839 65.2168 68.7976 65.4583C70.4464 66.451 71.907 67.7272 73.1121 69.2278C73.3695 69.5847 73.7121 69.8715 74.1088 70.0619C74.5055 70.2523 74.9435 70.3403 75.383 70.3179H81.2417C81.923 70.3179 82.15 70.3178 82.15 71.1808C82.15 73.9512 82.15 76.7216 82.15 79.492C82.15 82.2624 82.15 84.8966 82.15 87.6216C82.15 88.2574 81.923 88.4391 81.1963 88.3937L81.2871 88.5753ZM89.5075 93.117C89.5544 93.5396 89.5544 93.9661 89.5075 94.3887C89.4221 94.7768 89.2018 95.1222 88.8859 95.3633C88.5699 95.6044 88.1787 95.7258 87.7817 95.7057C87.3837 95.7223 86.9934 95.593 86.6839 95.3422C86.3745 95.0913 86.1673 94.7361 86.1013 94.3432C86.0328 93.8917 86.0328 93.4323 86.1013 92.9807V65.7308C86.0328 65.2792 86.0328 64.8198 86.1013 64.3683C86.178 63.9756 86.396 63.6247 86.7141 63.3819C87.0321 63.1392 87.4281 63.0215 87.8271 63.0512C88.2164 63.042 88.5969 63.1683 88.9034 63.4086C89.2099 63.6488 89.4234 63.988 89.5075 64.3683C89.5526 64.791 89.5526 65.2172 89.5075 65.6399V93.117ZM111.353 79.492C111.353 82.2624 111.353 84.9874 111.353 87.7124C111.353 88.3483 111.353 88.6207 110.49 88.6207H93.913C93.2317 88.6207 93.05 88.6208 93.05 87.7578C93.05 82.2624 93.05 76.8124 93.05 71.317C93.05 70.6812 93.05 70.4087 93.913 70.4087H110.263C110.944 70.4087 111.126 70.4087 111.126 71.317C111.262 73.9512 111.262 76.5399 111.262 79.2649L111.353 79.492Z" fill="white" stroke="white" stroke-width="2"/>
<path d="M56.1296 73.7654H58.213L60.9136 81.7978L63.6065 73.7654H65.6898L61.7546 85H60.0648L56.1296 73.7654ZM54.9259 73.7654H57.0478L57.4414 82.091V85H54.9259V73.7654ZM64.7716 73.7654H66.9012V85H64.3781V82.091L64.7716 73.7654Z" fill="white"/>
</g>
<defs>
<clipPath id="clip0_5951_4177">
<rect width="120" height="120" fill="white"/>
</clipPath>
</defs>
</svg>
