<svg width="120" height="120" viewBox="0 0 120 120" fill="none" xmlns="http://www.w3.org/2000/svg">
<path fill-rule="evenodd" clip-rule="evenodd" d="M80 64.15C77.0742 63.1156 74.5413 61.1992 72.7503 58.6649C70.9593 56.1306 69.9984 53.1033 70 50V30C70 26.0218 71.5804 22.2064 74.3934 19.3934C77.2064 16.5804 81.0218 15 85 15C88.9782 15 92.7936 16.5804 95.6066 19.3934C98.4196 22.2064 100 26.0218 100 30V50C100.002 53.1033 99.0407 56.1306 97.2497 58.6649C95.4587 61.1992 92.9258 63.1156 90 64.15V80.415C90 85.165 90.01 92.545 86.55 98.7C82.6 105.72 74.98 110 62.5 110C50.365 110 43.035 106.605 38.945 101.6C34.995 96.785 34.995 91.54 35 90.04V90C35 89.7133 35.0233 89.435 35.07 89.165C26.295 87.115 20 81.55 20 75V35C20 30.675 22.235 27.565 24.11 25.79C25.8129 24.2333 27.7919 23.009 29.945 22.18C33.66 20.695 38.1 20 42.5 20C46.9 20 51.34 20.695 55.05 22.18C56.88 22.91 59.03 24.03 60.89 25.79C62.765 27.565 65 30.675 65 35V75C65 82.72 56.25 89.08 45 89.91V90C45 91.05 45.035 93.26 46.68 95.27C48.215 97.145 52.135 100 62.5 100C72.52 100 76.15 96.78 77.83 93.8C79.89 90.135 80 85.275 80 80V64.15ZM90 30C90 28.6739 89.4732 27.4021 88.5355 26.4645C87.5979 25.5268 86.3261 25 85 25C83.6739 25 82.4021 25.5268 81.4645 26.4645C80.5268 27.4021 80 28.6739 80 30V50C80 51.3261 80.5268 52.5979 81.4645 53.5355C82.4021 54.4732 83.6739 55 85 55C86.3261 55 87.5979 54.4732 88.5355 53.5355C89.4732 52.5979 90 51.3261 90 50V30ZM52.865 32.715C50.65 31.24 47.015 30 42.5 30C37.985 30 34.35 31.24 32.135 32.715C31.3772 33.1773 30.722 33.7898 30.21 34.515C30.1255 34.6379 30.0597 34.7727 30.015 34.915L30 35C30 37.185 33.51 39.045 38.395 39.725C39.685 39.905 41.0533 39.9967 42.5 40C43.9467 39.9967 45.315 39.905 46.605 39.725C51.49 39.045 55 37.185 55 35L54.985 34.91C54.9378 34.7709 54.8704 34.6395 54.785 34.52C54.275 33.7935 53.6215 33.1793 52.865 32.715ZM55 75V47.84C52 49.03 48.535 49.71 45 49.925V79.87C48.36 79.52 51.075 78.48 52.865 77.285C53.95 76.56 54.525 75.9 54.79 75.485C54.8745 75.3621 54.9402 75.2273 54.985 75.085L55 75Z" fill="white"/>
</svg>
