<svg width="120" height="120" viewBox="0 0 120 120" fill="none" xmlns="http://www.w3.org/2000/svg">
<path d="M57.5 33.75C56.8333 33.75 56.25 33.5 55.75 33C55.25 32.5 55 31.9167 55 31.25V21.25C55 17.75 56.2083 14.7917 58.625 12.375C61.0417 9.95833 64 8.75 67.5 8.75H77.5C78.1667 8.75 78.75 9 79.25 9.5C79.75 10 80 10.5833 80 11.25V21.25C80 24.75 78.7917 27.7083 76.375 30.125C73.9583 32.5417 71 33.75 67.5 33.75H57.5ZM27.5 63.75C22.6667 63.75 18.5417 62.0417 15.125 58.625C11.7083 55.2083 10 51.0833 10 46.25V33.75C10 32.3333 10.48 31.1467 11.44 30.19C12.4 29.2333 13.5867 28.7533 15 28.75H27.5C32.3333 28.75 36.4583 30.4583 39.875 33.875C43.2917 37.2917 45 41.4167 45 46.25V58.75C45 60.1667 44.52 61.355 43.56 62.315C42.6 63.275 41.4133 63.7533 40 63.75H27.5ZM80 108.75C76.75 108.75 73.6467 108.25 70.69 107.25C67.7333 106.25 65.045 104.875 62.625 103.125L58.5 107.25C57.5833 108.167 56.4167 108.625 55 108.625C53.5833 108.625 52.4167 108.167 51.5 107.25C50.5833 106.333 50.125 105.167 50.125 103.75C50.125 102.333 50.5833 101.167 51.5 100.25L55.625 96.125C53.875 93.7084 52.5 91.0217 51.5 88.065C50.5 85.1084 50 82.0033 50 78.75C50 70.4167 52.9167 63.3133 58.75 57.44C64.5833 51.5667 71.6667 48.6283 80 48.625H100.125C102.875 48.625 105.23 49.605 107.19 51.565C109.15 53.525 110.128 55.8783 110.125 58.625V78.75C110.125 87.0833 107.188 94.1667 101.315 100C95.4417 105.833 88.3367 108.75 80 108.75ZM80 98.75C85.5833 98.75 90.2917 96.7917 94.125 92.875C97.9583 88.9584 99.875 84.25 99.875 78.75V58.75H80C74.5 58.75 69.7917 60.6883 65.875 64.565C61.9583 68.4417 60 73.17 60 78.75C60 80.6667 60.23 82.48 60.69 84.19C61.15 85.9 61.8367 87.5033 62.75 89L76.5 75.25C77.4167 74.3333 78.5833 73.875 80 73.875C81.4167 73.875 82.5833 74.3333 83.5 75.25C84.4167 76.1667 84.875 77.3333 84.875 78.75C84.875 80.1667 84.4167 81.3334 83.5 82.25L69.75 96C71.25 96.9167 72.855 97.605 74.565 98.065C76.275 98.525 78.0867 98.7534 80 98.75Z" fill="white"/>
</svg>
