<svg width="120" height="120" viewBox="0 0 120 120" fill="none" xmlns="http://www.w3.org/2000/svg">
<path d="M38.1094 67.2344H23.8125V57.3516H38.1094C40.2188 57.3516 41.9115 57 43.1875 56.2969C44.4896 55.5938 45.4401 54.6302 46.0391 53.4062C46.6641 52.1562 46.9766 50.75 46.9766 49.1875C46.9766 47.5729 46.6641 46.0755 46.0391 44.6953C45.4401 43.2891 44.4896 42.1562 43.1875 41.2969C41.9115 40.4375 40.2188 40.0078 38.1094 40.0078H28.4219V87H15.6875V30.125H38.1094C42.6406 30.125 46.5208 30.9453 49.75 32.5859C53.0052 34.2266 55.4922 36.4792 57.2109 39.3438C58.9557 42.1823 59.8281 45.4375 59.8281 49.1094C59.8281 52.7812 58.9557 55.9714 57.2109 58.6797C55.4922 61.388 53.0052 63.4974 49.75 65.0078C46.5208 66.4922 42.6406 67.2344 38.1094 67.2344ZM105.727 53.0156V62.8594H76.2734V53.0156H105.727ZM80.2969 30.125V87H67.5625V30.125H80.2969ZM114.516 30.125V87H101.82V30.125H114.516Z" fill="white"/>
</svg>
