<svg width="121" height="121" viewBox="0 0 121 121" fill="none" xmlns="http://www.w3.org/2000/svg">
<path d="M59.3857 107.391C57.8024 108.974 55.9907 109.329 53.9507 108.456C51.9107 107.582 50.889 106.019 50.8857 103.766V70.8906H18.0107C15.7607 70.8906 14.199 69.8706 13.3257 67.8306C12.4524 65.7906 12.8057 63.9773 14.3857 62.3906L53.0107 23.7656C53.9274 22.849 54.9907 22.1406 56.2007 21.6406C57.4107 21.1406 58.6807 20.8906 60.0107 20.8906H90.8857C93.6357 20.8906 95.9907 21.8706 97.9507 23.8306C99.9107 25.7906 100.889 28.144 100.886 30.8906V61.7656C100.886 63.099 100.636 64.3706 100.136 65.5806C99.6357 66.7906 98.9274 67.8523 98.0107 68.7656L59.3857 107.391ZM80.8857 45.8906V71.7656L90.8857 61.7656V30.8906H60.0107L50.0107 40.8906H75.8857C77.3024 40.8906 78.4907 41.3706 79.4507 42.3306C80.4107 43.2906 80.889 44.4773 80.8857 45.8906ZM60.8857 65.8906V91.7656L70.8857 81.7656V50.8906H40.0107L30.0107 60.8906H55.8857C57.3024 60.8906 58.4907 61.3706 59.4507 62.3306C60.4107 63.2906 60.889 64.4773 60.8857 65.8906Z" fill="white"/>
</svg>
