<svg width="120" height="120" viewBox="0 0 120 120" fill="none" xmlns="http://www.w3.org/2000/svg">
<g clip-path="url(#clip0_5953_4188)">
<path d="M13.3102 116.247H11.6602C11.9122 116.105 12.1963 116.031 12.4852 116.031C12.7741 116.031 13.0581 116.105 13.3102 116.247Z" fill="white"/>
<path d="M35.2148 116.249C35.4758 116.094 35.7738 116.012 36.0773 116.012C36.3809 116.012 36.6789 116.094 36.9398 116.249H35.2148Z" fill="white"/>
<path d="M36.9388 116.247H35.2138C33.3388 115.009 31.4638 113.547 29.8138 112.234C29.1858 111.787 28.6812 111.188 28.3468 110.493C28.0125 109.798 27.8592 109.029 27.9013 108.259V69.4094C27.9076 69.3208 27.8941 69.2319 27.8618 69.1491C27.8296 69.0663 27.7794 68.9918 27.7148 68.9308C27.6502 68.8698 27.5729 68.8239 27.4884 68.7964C27.4039 68.7689 27.3144 68.7606 27.2263 68.7719C25.2763 68.7719 23.4763 68.7719 21.3763 68.7719C21.2846 68.7668 21.1927 68.7805 21.1065 68.8121C21.0202 68.8437 20.9413 68.8926 20.8746 68.9558C20.8079 69.019 20.7548 69.0952 20.7185 69.1796C20.6823 69.264 20.6637 69.355 20.6638 69.4469V95.6969C20.7293 96.1309 20.6465 96.5743 20.4287 96.9554C20.211 97.3365 19.871 97.633 19.4638 97.7969C19.2524 97.8724 19.0278 97.9039 18.8037 97.8896C18.5797 97.8753 18.3609 97.8154 18.1608 97.7136C17.9607 97.6118 17.7835 97.4702 17.64 97.2975C17.4965 97.1249 17.3898 96.9247 17.3263 96.7094C17.2713 96.2862 17.2713 95.8576 17.3263 95.4344V68.6219C17.319 68.0364 17.4077 67.4537 17.5888 66.8969C17.7706 66.4987 18.0466 66.1507 18.3928 65.8828C18.739 65.615 19.1452 65.4353 19.5763 65.3594C20.0862 65.2049 20.6194 65.1414 21.1513 65.1719C23.0859 65.3223 25.0292 65.3223 26.9638 65.1719C27.6878 65.1173 28.4148 65.1173 29.1388 65.1719C29.7252 65.2141 30.2774 65.4637 30.6965 65.876C31.1157 66.2883 31.3744 66.8363 31.4263 67.4219C31.4635 68.0213 31.4635 68.6225 31.4263 69.2219V107.809C31.3703 108.229 31.4446 108.655 31.6392 109.031C31.8337 109.406 32.1391 109.713 32.5138 109.909C33.0938 110.266 33.6454 110.668 34.1638 111.109C34.6513 111.559 35.1763 111.897 35.6263 112.309C35.693 112.382 35.7742 112.44 35.8646 112.48C35.9549 112.52 36.0526 112.54 36.1513 112.54C36.25 112.54 36.3477 112.52 36.438 112.48C36.5284 112.44 36.6096 112.382 36.6763 112.309C37.8388 111.409 39.0013 110.509 40.2013 109.647C40.4324 109.465 40.6174 109.23 40.7412 108.963C40.8649 108.696 40.9241 108.404 40.9138 108.109V104.359C40.9322 104.122 40.9322 103.884 40.9138 103.647C40.9092 103.535 40.8819 103.425 40.8336 103.325C40.7853 103.224 40.717 103.134 40.6328 103.06C40.5486 102.986 40.4503 102.931 40.3439 102.896C40.2375 102.862 40.1252 102.849 40.0138 102.859C39.4513 102.859 38.8888 102.859 38.3263 102.859C37.8981 102.878 37.4729 102.779 37.0964 102.574C36.7199 102.37 36.4061 102.066 36.1888 101.697C36.0761 101.254 36.0761 100.79 36.1888 100.347C36.34 99.9994 36.593 99.706 36.9143 99.5051C37.2356 99.3043 37.6102 99.2056 37.9888 99.2219C38.7763 99.2219 39.5263 99.2219 40.3138 99.2219C41.1013 99.2219 40.9888 99.0344 40.9888 98.5469C40.9888 97.0844 40.9888 95.5844 40.9888 94.1219C40.9888 93.5594 40.9888 93.4469 40.2763 93.4094H38.1763C37.793 93.4144 37.4144 93.3247 37.0742 93.148C36.7339 92.9714 36.4427 92.7133 36.2263 92.3969C36.1138 91.9032 36.1138 91.3905 36.2263 90.8969C36.3971 90.5405 36.6703 90.243 37.0109 90.0426C37.3516 89.8423 37.7443 89.748 38.1388 89.7719C38.8252 89.7157 39.515 89.7157 40.2013 89.7719C40.8013 89.7719 40.9888 89.7719 40.9888 89.0219C40.9888 87.6344 40.9888 86.2094 40.9888 84.8219C40.9888 84.1844 40.9888 84.0719 40.2388 84.0344C39.4888 83.9969 39.0388 84.0344 38.4388 84.0344C38.0031 84.0622 37.5678 83.9725 37.1786 83.7746C36.7894 83.5767 36.4605 83.2779 36.2263 82.9094C36.1138 82.4157 36.1138 81.903 36.2263 81.4094C36.4194 81.0709 36.7061 80.7953 37.052 80.6157C37.3979 80.4361 37.7883 80.3601 38.1763 80.3969H40.2388C40.8388 80.3969 40.9888 80.3969 40.9888 79.6469C40.9888 78.2719 40.9888 76.8844 40.9888 75.4844C40.9888 74.8469 40.7638 74.6219 40.0888 74.6219C39.4138 74.6219 38.8138 74.6219 38.1388 74.6219C37.7451 74.6408 37.3545 74.5445 37.0148 74.3446C36.675 74.1448 36.401 73.8502 36.2263 73.4969C36.0773 72.9952 36.0773 72.461 36.2263 71.9594C36.4386 71.6504 36.7248 71.3994 37.0588 71.2291C37.3928 71.0588 37.764 70.9747 38.1388 70.9844H40.2388C40.8388 70.9844 40.9513 70.9844 40.9513 70.2719C40.9513 66.5219 40.9513 62.7719 40.9513 59.2094C40.9513 58.5344 40.7263 58.3469 40.0513 58.3094H9.1138C7.8013 58.3094 7.6888 58.3094 7.6888 59.7344V69.5219C7.6888 70.6469 8.0263 70.9094 9.1513 70.9844C9.55043 70.9471 9.95217 70.9471 10.3513 70.9844C10.7404 71.0506 11.0961 71.2455 11.3613 71.5378C11.6264 71.8302 11.7858 72.2032 11.8138 72.5969C11.84 72.9924 11.7321 73.3851 11.5075 73.7117C11.283 74.0383 10.9549 74.2797 10.5763 74.3969C9.98429 74.5902 9.35766 74.6541 8.7388 74.5844C7.7638 74.5844 7.6888 74.5844 7.6888 75.5969V78.9719C7.6888 79.9469 7.9138 80.1344 8.8513 80.2844H9.9763C10.4236 80.2716 10.8595 80.4258 11.1993 80.717C11.539 81.0082 11.7581 81.4154 11.8138 81.8594C11.8454 82.0862 11.8314 82.317 11.7728 82.5384C11.7142 82.7598 11.6122 82.9673 11.4725 83.1488C11.3329 83.3303 11.1585 83.4822 10.9596 83.5956C10.7607 83.709 10.5411 83.7817 10.3138 83.8094C9.66715 83.9027 9.01045 83.9027 8.3638 83.8094C7.9138 83.8094 7.6888 83.8094 7.6888 84.4094C7.6888 85.7969 7.6888 87.1469 7.6888 88.5344C7.6888 89.2094 7.9888 89.4344 8.6263 89.5094C9.17563 89.4709 9.72697 89.4709 10.2763 89.5094C10.7139 89.5657 11.1132 89.7876 11.3922 90.1294C11.6713 90.4712 11.8087 90.9069 11.7763 91.3469C11.7496 91.7857 11.5633 92.1996 11.2524 92.5105C10.9415 92.8214 10.5276 93.0077 10.0888 93.0344C9.55195 93.0718 9.01315 93.0718 8.4763 93.0344C7.8013 93.0344 7.6888 93.0344 7.6513 93.8219V97.5719C7.6513 98.5469 7.9513 98.8094 8.9263 98.8469H9.9013C10.3619 98.8436 10.8077 99.0099 11.1535 99.3142C11.4993 99.6186 11.721 100.04 11.7763 100.497C11.8095 100.951 11.6693 101.401 11.384 101.756C11.0987 102.111 10.6895 102.344 10.2388 102.409C9.69016 102.464 9.13744 102.464 8.5888 102.409C7.7638 102.409 7.6513 102.409 7.6513 103.272C7.6513 104.734 7.6513 106.197 7.6513 107.659C7.63936 107.937 7.70278 108.212 7.83483 108.457C7.96688 108.701 8.16264 108.905 8.4013 109.047C9.1138 109.497 9.7513 110.022 10.4263 110.547L11.8138 111.672C12.2638 112.084 12.5263 112.084 13.0138 111.672C14.1763 110.734 15.3763 109.834 16.5763 108.934C16.7666 108.807 16.9216 108.634 17.0265 108.431C17.1315 108.227 17.183 108.001 17.1763 107.772C17.1763 106.572 17.1763 105.372 17.1763 104.022C17.1213 103.624 17.1213 103.22 17.1763 102.822C17.2734 102.429 17.5087 102.084 17.8391 101.85C18.1696 101.615 18.5732 101.508 18.9763 101.547C19.4756 101.647 19.916 101.938 20.2033 102.359C20.4906 102.779 20.6021 103.295 20.5138 103.797V108.747C20.5404 109.342 20.425 109.934 20.1772 110.475C19.9294 111.016 19.5563 111.491 19.0888 111.859C17.1388 113.359 15.3388 114.934 13.1638 116.284H11.6263C9.37848 114.824 7.23574 113.207 5.2138 111.447C4.88263 111.129 4.62405 110.743 4.45577 110.316C4.2875 109.889 4.21348 109.43 4.2388 108.972C4.2388 107.922 4.2388 106.909 4.2388 105.859V58.9844C4.16128 58.3926 4.22612 57.7909 4.42794 57.2292C4.62976 56.6675 4.96272 56.1621 5.39916 55.7551C5.8356 55.348 6.3629 55.0509 6.93723 54.8886C7.51157 54.7263 8.11635 54.7034 8.7013 54.8219H9.3763C10.3138 54.8219 10.6888 54.6344 10.6138 53.6969C10.6138 51.3719 10.6138 49.0844 10.6138 46.7594C10.6138 45.2594 10.6138 43.7219 10.6138 42.2219C10.6235 41.3795 10.9625 40.5744 11.5582 39.9787C12.1538 39.3831 12.9589 39.0441 13.8013 39.0344C16.3138 39.0344 18.8263 39.0344 21.3013 39.0344H21.9013C22.2763 39.0344 22.5013 38.8469 22.5388 38.4344C22.5951 37.6854 22.5951 36.9333 22.5388 36.1844C22.3876 33.9375 23.1134 31.7196 24.5638 29.9969C25.2654 29.1434 26.1468 28.4554 27.1451 27.9822C28.1434 27.509 29.234 27.2622 30.3388 27.2594H61.3138C62.0638 27.2594 62.3263 26.9969 62.3263 26.2094C62.1999 24.9728 62.5039 23.7305 63.187 22.6921C63.8702 21.6537 64.8907 20.8827 66.0763 20.5094L67.7638 19.7969C68.2114 19.6202 68.5797 19.2873 68.8003 18.8597C69.021 18.4321 69.0791 17.939 68.9638 17.4719C68.7185 15.7664 68.8681 14.0274 69.4013 12.3889C69.9344 10.7505 70.8368 9.25638 72.0388 8.02188C73.0702 6.86814 74.3286 5.93962 75.7352 5.29438C77.1419 4.64913 78.6665 4.30104 80.2138 4.27187C81.6013 4.27187 83.0263 4.27187 84.4513 4.27187C84.6855 4.22848 84.9263 4.23628 85.1571 4.29476C85.388 4.35324 85.6035 4.461 85.7887 4.61064C85.974 4.76029 86.1247 4.94826 86.2304 5.16166C86.3362 5.37506 86.3945 5.60882 86.4013 5.84687C86.4614 6.16463 86.4172 6.49329 86.2753 6.78388C86.1334 7.07446 85.9013 7.3114 85.6138 7.45938C85.1656 7.66443 84.6814 7.77912 84.1888 7.79687H80.6263C79.5594 7.78698 78.5012 7.98796 77.5122 8.38824C76.5232 8.78853 75.6231 9.38025 74.8635 10.1294C74.1038 10.8786 73.4997 11.7704 73.0858 12.7538C72.6718 13.7371 72.4562 14.7925 72.4513 15.8594C72.2263 24.4094 72.4513 32.9594 72.4513 41.5469C72.4203 42.688 72.6222 43.8234 73.0447 44.8838C73.4672 45.9443 74.1013 46.9075 74.9085 47.7147C75.7157 48.5218 76.6789 49.156 77.7393 49.5785C78.7998 50.001 79.9352 50.2029 81.0763 50.1719C87.5638 50.1719 94.0888 50.1719 100.614 50.1719C101.851 50.1719 103.089 50.1719 104.364 50.1719C105.896 50.1738 107.4 49.7642 108.719 48.9857C110.039 48.2073 111.125 47.0887 111.864 45.7469C112.512 44.6039 112.848 43.3107 112.839 41.9969C112.839 33.2969 112.839 24.5469 112.839 15.7469C112.824 14.6831 112.6 13.6327 112.179 12.6556C111.759 11.6784 111.15 10.7938 110.387 10.052C109.624 9.3103 108.723 8.72606 107.735 8.33269C106.746 7.93931 105.69 7.7445 104.626 7.75937H93.1138C92.6006 7.78221 92.0887 7.69262 91.6138 7.49688C91.2855 7.36582 91.0108 7.12813 90.8339 6.82204C90.6571 6.51595 90.5884 6.15926 90.6388 5.80937C90.9013 4.64687 91.3513 4.23438 92.5513 4.23438C96.9013 4.23438 101.214 4.23438 105.564 4.23438C108.124 4.39843 110.559 5.40226 112.491 7.09036C114.423 8.77845 115.745 11.0566 116.251 13.5719C116.401 14.5271 116.476 15.4925 116.476 16.4594C116.476 24.9719 116.476 33.4844 116.476 42.0344C116.457 44.46 115.655 46.8145 114.189 48.7469C113.173 50.2436 111.802 51.4653 110.199 52.3029C108.596 53.1405 106.81 53.5679 105.001 53.5469C100.089 53.5469 95.1763 53.7719 90.2638 53.7344C86.7013 53.7344 83.1013 53.7344 79.5388 53.5094C77.1551 53.357 74.8819 52.45 73.0481 50.9196C71.2143 49.3892 69.9151 47.3148 69.3388 44.9969C68.8797 43.4664 68.7518 41.8556 68.9638 40.2719C69.0863 39.7752 69.0198 39.2506 68.7773 38.8002C68.5347 38.3498 68.1334 38.0055 67.6513 37.8344C66.8199 37.5299 66.0062 37.1793 65.2138 36.7844C64.2543 36.3055 63.4618 35.5482 62.9399 34.6115C62.418 33.6747 62.1911 32.6022 62.2888 31.5344C62.2888 30.6719 62.1013 30.4094 61.2388 30.4094C56.9638 30.4094 52.6888 30.4094 48.4138 30.4094H38.2138C35.7388 30.4094 33.2638 30.4094 30.7138 30.4094C30.0744 30.387 29.4374 30.499 28.844 30.7381C28.2506 30.9772 27.7139 31.3381 27.2686 31.7975C26.8233 32.2569 26.4794 32.8046 26.2589 33.4052C26.0385 34.0058 25.9465 34.646 25.9888 35.2844C25.9888 36.2594 25.9888 37.2719 25.9888 38.2844C25.9888 38.7344 25.9888 38.9969 26.6263 39.0344H27.6763C30.0388 39.0344 32.4388 39.0344 34.8013 39.0344C35.228 39.0343 35.6504 39.119 36.0442 39.2834C36.4379 39.4478 36.7951 39.6887 37.0951 39.9922C37.395 40.2956 37.6318 40.6556 37.7917 41.0512C37.9515 41.4468 38.0313 41.8702 38.0263 42.2969C38.0263 45.6719 38.0263 49.0469 38.0263 52.4219V53.9594C38.0263 54.6344 38.2513 54.8219 38.9263 54.7844C39.746 54.6526 40.5816 54.6526 41.4013 54.7844C42.2611 54.9597 43.0322 55.431 43.5803 56.1162C44.1285 56.8014 44.419 57.6571 44.4013 58.5344V58.9844C44.4013 75.4844 44.4013 91.9719 44.4013 108.447C44.4291 109.131 44.286 109.812 43.9849 110.428C43.6837 111.043 43.234 111.574 42.6763 111.972C40.7263 113.509 38.9638 115.084 36.9388 116.247Z" fill="white"/>
<path d="M29.6648 54.7863H14.6648C13.9148 54.7863 13.8398 54.7863 13.8398 53.9988V43.1238C13.8398 42.6363 13.8398 42.2988 14.4773 42.2988H29.4773C29.5694 42.5054 29.6169 42.729 29.6169 42.9551C29.6169 43.1812 29.5694 43.4048 29.4773 43.6113C29.4773 44.5113 29.4773 45.3363 29.4773 46.1988C29.5156 46.6326 29.3808 47.064 29.1023 47.3988C29.0371 47.4267 28.967 47.441 28.8961 47.441C28.8252 47.441 28.755 47.4267 28.6898 47.3988C27.9709 47.0398 27.1634 46.8965 26.3648 46.9863H21.4148C20.9539 46.9627 20.4932 47.0395 20.0648 47.2113C19.7924 47.3228 19.5567 47.5083 19.3843 47.7469C19.212 47.9855 19.11 48.2677 19.0898 48.5613C19.1191 48.8694 19.2429 49.161 19.4443 49.3959C19.6457 49.6309 19.9148 49.7978 20.2148 49.8738C20.5138 49.91 20.8159 49.91 21.1148 49.8738H25.7273C26.2016 49.8374 26.678 49.8374 27.1523 49.8738C27.7443 49.9431 28.3436 49.8389 28.8773 49.5738C29.0545 49.4222 29.2818 49.3419 29.5148 49.3488C29.6287 49.4275 29.7199 49.5347 29.7792 49.6598C29.8384 49.7849 29.8637 49.9234 29.8523 50.0613V54.0363C29.8966 54.1661 29.9024 54.3059 29.8692 54.439C29.8359 54.572 29.765 54.6926 29.6648 54.7863Z" fill="white"/>
<path d="M29.6625 54.7895V50.402C29.7574 50.148 29.7574 49.8684 29.6625 49.6145C29.7003 48.915 29.7003 48.2139 29.6625 47.5145C29.8876 46.7558 29.8876 45.9481 29.6625 45.1895C29.6625 44.477 29.85 43.7645 29.6625 43.052C29.6437 42.8273 29.6437 42.6016 29.6625 42.377H33.8625C34.5375 42.377 34.725 42.5645 34.725 43.2395V54.1145C34.725 54.752 34.725 54.902 33.9 54.902L29.6625 54.7895Z" fill="white"/>
<path d="M68.8894 22.7988V34.2738C68.8894 34.8738 68.8894 34.9488 68.2144 34.7238C66.1144 33.8613 65.5894 33.4863 65.6269 31.2738C65.6644 29.0613 65.6269 27.5238 65.6269 25.8363C65.6077 25.3657 65.7343 24.9006 65.9894 24.5046C66.2444 24.1086 66.6155 23.801 67.0519 23.6238C67.6816 23.389 68.2954 23.1134 68.8894 22.7988Z" fill="white"/>
<path d="M29.4381 47.5139C29.5946 47.8418 29.6758 48.2006 29.6758 48.5639C29.6758 48.9273 29.5946 49.286 29.4381 49.6139C29.1553 49.8679 28.8221 50.0593 28.4602 50.1757C28.0983 50.292 27.7159 50.3306 27.3381 50.2889C25.2756 50.2889 23.1756 50.2889 21.0756 50.2889H20.8131C19.6881 50.2889 18.9381 49.6514 18.9381 48.7139C18.9318 48.4809 18.975 48.2492 19.0648 48.034C19.1546 47.8189 19.2889 47.6252 19.459 47.4658C19.6291 47.3064 19.831 47.1848 20.0515 47.109C20.2719 47.0333 20.506 47.0051 20.7381 47.0264H27.4506C28.15 46.9477 28.8545 47.1205 29.4381 47.5139Z" fill="white"/>
<path d="M101.436 17.7746C102.074 18.2495 102.577 18.8842 102.893 19.6148C103.209 20.3454 103.327 21.1463 103.236 21.9371C103.123 23.7854 103.123 25.6388 103.236 27.4871C103.341 28.2824 103.238 29.0916 102.936 29.8348C102.633 30.5779 102.142 31.2293 101.511 31.7246C100.508 32.06 99.4542 32.2124 98.3981 32.1746H86.2481C85.7613 32.2115 85.2724 32.2115 84.7856 32.1746C83.9502 32.0621 83.1896 31.6343 82.6596 30.9788C82.1297 30.3234 81.8706 29.49 81.9356 28.6496C81.9356 26.1371 81.9356 23.6246 81.9356 21.1496C81.9143 20.681 81.9909 20.2131 82.1605 19.7758C82.3301 19.3385 82.589 18.9413 82.9206 18.6096C83.2523 18.2779 83.6495 18.019 84.0868 17.8494C84.5241 17.6798 84.992 17.6032 85.4606 17.6246C88.4981 17.6246 91.5731 17.6246 94.6106 17.6246H99.5231C100.165 17.5704 100.81 17.621 101.436 17.7746Z" fill="white"/>
<path d="M92.6656 20.6641H99.0031C99.7906 20.6641 99.9406 20.6641 99.9406 21.6016V27.8641C99.9406 28.6891 99.9406 28.8766 98.9281 28.8766H91.4281H86.2531C85.3906 28.8766 85.2031 28.8766 85.2031 27.7891V21.7516C85.2031 20.8141 85.3906 20.6641 86.3656 20.6641H92.6656Z" fill="white"/>
</g>
<defs>
<clipPath id="clip0_5953_4188">
<rect width="120" height="120" fill="white"/>
</clipPath>
</defs>
</svg>
