<svg width="120" height="120" viewBox="0 0 120 120" fill="none" xmlns="http://www.w3.org/2000/svg">
<path d="M50.0014 75H79.4014C80.7514 73.45 82.7514 72.5 85.0014 72.5C89.1514 72.5 92.5014 75.85 92.5014 80C92.5014 84.15 89.1514 87.5 85.0014 87.5C82.8014 87.5 80.8014 86.55 79.4014 85H59.5014C58.597 89.4245 56.5111 93.5215 53.4651 96.8556C50.4191 100.19 46.5269 102.637 42.2019 103.936C37.8769 105.236 33.2806 105.339 28.9014 104.236C24.5221 103.133 20.5235 100.865 17.3301 97.6712C14.1368 94.4779 11.8681 90.4793 10.7651 86.1C9.66198 81.7208 9.76572 77.1245 11.0653 72.7995C12.3648 68.4745 14.8116 64.5823 18.1458 61.5363C21.4799 58.4903 25.5769 56.4044 30.0014 55.5V65.85C24.2014 67.9 20.0014 73.5 20.0014 80C20.0014 88.25 26.7514 95 35.0014 95C43.2514 95 50.0014 88.25 50.0014 80V75ZM62.5014 20C70.7514 20 77.5014 26.75 77.5014 35H87.5014C87.5014 21.2 76.3014 10 62.5014 10C57.5072 10.004 52.6286 11.5031 48.4939 14.3042C44.3592 17.1054 41.1578 21.0802 39.302 25.7169C37.4463 30.3535 37.0212 35.4395 38.0815 40.3199C39.1419 45.2002 41.639 49.6514 45.2514 53.1L33.5014 72.6C30.1014 73.3 27.5014 76.35 27.5014 80C27.5014 84.15 30.8514 87.5 35.0014 87.5C36.1793 87.5014 37.341 87.225 38.392 86.6932C39.4431 86.1614 40.3539 85.3892 41.0505 84.4393C41.7471 83.4894 42.2098 82.3886 42.4011 81.2263C42.5924 80.064 42.5068 78.873 42.1514 77.75L59.0514 49.6C55.7632 48.8229 52.8337 46.9584 50.7375 44.3086C48.6412 41.6587 47.5009 38.3788 47.5014 35C47.5014 26.75 54.2514 20 62.5014 20ZM85.0014 65C81.8014 65 78.8514 66 76.4014 67.7L61.1514 42.35C57.6514 41.75 55.0014 38.7 55.0014 35C55.0014 30.85 58.3514 27.5 62.5014 27.5C66.6514 27.5 70.0014 30.85 70.0014 35C70.0014 35.75 69.9014 36.45 69.7014 37.15L80.6514 55.4C82.0514 55.15 83.5014 55 85.0014 55C98.8014 55 110.001 66.2 110.001 80C110.001 93.8 98.8014 105 85.0014 105C80.6131 105 76.3021 103.845 72.5018 101.65C68.7014 99.4563 65.5456 96.3004 63.3514 92.5H76.7014C79.1014 94.1 81.9514 95 85.0014 95C93.2514 95 100.001 88.25 100.001 80C100.001 71.75 93.2514 65 85.0014 65Z" fill="white"/>
</svg>
