<svg width="121" height="121" viewBox="0 0 121 121" fill="none" xmlns="http://www.w3.org/2000/svg">
<path opacity="0.91" fill-rule="evenodd" clip-rule="evenodd" d="M66.2237 9.30794C67.3024 10.744 68.0406 12.3609 68.4381 14.1586C68.4733 34.0535 68.5788 53.9479 68.7544 73.8422C70.0264 74.8984 71.2917 75.9529 72.5506 77.0056C76.3992 81.7386 78.0512 87.1517 77.5066 93.2447C77.3582 94.3297 77.1123 95.3842 76.7685 96.4081C75.888 98.9427 74.6226 101.263 72.9724 103.368C72.8317 103.368 72.7615 103.438 72.7615 103.579C72.6208 103.579 72.5506 103.649 72.5506 103.789C71.5752 104.701 70.5909 105.615 69.598 106.531C69.276 106.516 69.0651 106.656 68.9653 106.953C68.8247 106.953 68.7544 107.023 68.7544 107.164C63.2034 110.513 57.2983 111.252 51.0392 109.378C49.9412 109.024 48.8867 108.567 47.8757 108.007C47.1515 107.421 46.3781 106.929 45.5558 106.531C45.3951 106.16 45.1138 105.949 44.7123 105.898C44.0682 105.114 43.3651 104.411 42.6033 103.789C42.35 103.281 41.9987 102.86 41.5488 102.524C37.8006 97.0473 36.7811 91.0718 38.4908 84.5979C39.0784 82.7211 39.8867 80.9635 40.9161 79.3255C42.3869 77.1168 44.2498 75.289 46.5049 73.8422C46.5751 53.9477 46.6455 34.053 46.7158 14.1586C47.4183 11.3799 48.9298 9.16552 51.25 7.51532C52.2995 6.61539 53.6353 6.05299 55.2571 5.82815C59.5722 5.04174 63.2279 6.20167 66.2237 9.30794ZM58.2096 32.9283C57.2747 33.7991 57.1343 34.7832 57.7878 35.8809C57.6955 35.8672 57.625 35.9022 57.5769 35.9863C57.7526 36.162 57.9285 36.3379 58.1042 36.5136C58.1883 36.4655 58.2233 36.395 58.2096 36.3027C60.3781 36.5034 62.5573 36.5739 64.7474 36.5136C64.7474 38.271 64.7474 40.0286 64.7474 41.786C62.5573 41.7257 60.3781 41.7961 58.2096 41.9969C58.2233 41.9045 58.1883 41.8341 58.1042 41.786C57.9285 41.9616 57.7526 42.1375 57.5769 42.3132C57.625 42.3974 57.6955 42.4324 57.7878 42.4187C57.2254 43.2622 57.2254 44.1058 57.7878 44.9494C57.6955 44.9357 57.625 44.9707 57.5769 45.0549C57.7526 45.2305 57.9285 45.4064 58.1042 45.5821C58.1883 45.534 58.2233 45.4636 58.2096 45.3712C60.3781 45.572 62.5573 45.6424 64.7474 45.5821C64.7474 47.2693 64.7474 48.9564 64.7474 50.6436C62.7076 50.6086 60.6689 50.6436 58.6314 50.7491C58.3705 50.798 58.1596 50.9034 57.9987 51.0654C57.6602 51.1721 57.5898 51.3128 57.7878 51.4872C57.2254 52.2606 57.2254 53.0337 57.7878 53.8071C58.1533 53.9142 58.2235 54.0899 57.9987 54.3343C58.2096 54.4045 58.4205 54.475 58.6314 54.5452C60.6689 54.6506 62.7076 54.6857 64.7474 54.6506C64.7474 56.3378 64.7474 58.025 64.7474 59.7122C62.5573 59.6518 60.3781 59.7223 58.2096 59.923C57.2994 60.8107 57.1589 61.795 57.7878 62.8756C57.6955 62.8619 57.625 62.8969 57.5769 62.981C57.7526 63.1567 57.9285 63.3326 58.1042 63.5083C58.1883 63.4602 58.2233 63.3898 58.2096 63.2974C60.3781 63.4982 62.5573 63.5686 64.7474 63.5083C64.7122 67.5862 64.7474 71.6636 64.8529 75.7403C65.072 75.8972 65.1774 76.1081 65.1692 76.373C65.4912 76.3576 65.7021 76.4982 65.8019 76.7948C66.8317 77.345 67.7455 78.0481 68.5435 78.9037C68.4512 78.89 68.3807 78.925 68.3326 79.0092C68.5788 79.2553 68.8247 79.5012 69.0708 79.7473C69.1549 79.6992 69.1899 79.6288 69.1762 79.5364C70.1035 80.4768 70.8769 81.5313 71.4961 82.6998C71.8344 82.8658 71.975 83.1469 71.9179 83.5434C72.0946 83.6156 72.1651 83.756 72.1288 83.9652C73.6814 87.5791 73.9275 91.305 72.8669 95.1427C72.5894 96.297 72.1326 97.3514 71.4961 98.3062C71.3674 98.714 71.1566 99.0656 70.8634 99.3607C70.2337 100.271 69.5305 101.115 68.7544 101.891C68.6325 101.671 68.4921 101.706 68.3326 101.997C68.3807 102.081 68.4512 102.116 68.5435 102.102C68.316 102.533 67.9644 102.814 67.4891 102.946C63.1541 106.336 58.3035 107.286 52.9372 105.793C51.4289 105.215 50.0228 104.477 48.7193 103.579C48.3973 103.594 48.1864 103.453 48.0866 103.157C46.554 102.292 45.3239 101.097 44.3959 99.5715C41.1104 94.2745 40.759 88.7912 43.3414 83.1216C43.8919 82.227 44.4893 81.3834 45.1341 80.5909C45.2564 80.1166 45.5375 79.7652 45.9776 79.5364C46.0995 79.7572 46.24 79.722 46.3994 79.431C46.3513 79.3468 46.2809 79.3118 46.1885 79.3255C46.9653 78.5494 47.8089 77.8463 48.7193 77.2165C48.9637 76.8475 49.3153 76.6366 49.7738 76.5839C49.8957 76.8047 50.0361 76.7694 50.1956 76.4784C50.1475 76.3943 50.077 76.3592 49.9847 76.373C50.1158 76.1353 50.2915 75.9244 50.5119 75.7403C50.5821 55.6349 50.6526 35.5293 50.7228 15.4239C50.847 14.3086 51.2338 13.3244 51.8827 12.4714C52.031 12.0041 52.3121 11.6175 52.7263 11.3115C56.4636 8.67903 60.0136 8.99537 63.3766 12.2605C63.9239 13.4101 64.3457 14.6052 64.642 15.8457C64.7474 21.4692 64.7826 27.093 64.7474 32.7174C62.5573 32.6571 60.3781 32.7276 58.2096 32.9283Z" fill="white" stroke="white" stroke-width="2"/>
<path opacity="0.01" fill-rule="evenodd" clip-rule="evenodd" d="M48.9375 8.88672C49.2186 9.02732 49.2186 9.02732 48.9375 8.88672Z" fill="white"/>
<path opacity="0.01" fill-rule="evenodd" clip-rule="evenodd" d="M48.9375 9.09766C48.7969 9.23826 48.7969 9.23826 48.9375 9.09766Z" fill="white"/>
<path opacity="0.01" fill-rule="evenodd" clip-rule="evenodd" d="M66.2344 9.09766C66.5155 9.23826 66.5155 9.23826 66.2344 9.09766Z" fill="white"/>
<path opacity="0.897" fill-rule="evenodd" clip-rule="evenodd" d="M28.6896 16.0583C28.549 16.0583 28.4788 16.1286 28.4788 16.2692C28.3381 16.2692 28.2679 16.3395 28.2679 16.4801C26.1515 17.3275 24.3237 18.5929 22.7846 20.2762C22.6439 20.2762 22.5737 20.3465 22.5737 20.4871C18.3082 26.0388 17.1483 32.2252 19.0939 39.046C19.8283 40.9377 20.7773 42.6951 21.941 44.3184C22.1348 44.8644 22.4863 45.2862 22.9954 45.5838C23.7184 46.5885 24.6324 47.3616 25.7371 47.9036C26.6857 48.5036 27.6698 49.0659 28.6896 49.5908C28.9708 50.4344 28.9708 51.278 28.6896 52.1216C28.549 52.1216 28.4788 52.1918 28.4788 52.3325C28.3381 52.3325 28.2679 52.4027 28.2679 52.5434C27.8562 52.6478 27.4344 52.718 27.0025 52.7543C26.2104 52.6037 25.437 52.3928 24.6826 52.1216C23.8468 51.5619 23.0033 50.9996 22.1519 50.4344C21.0271 49.4501 19.9726 48.3957 18.9884 47.271C18.8776 46.9061 18.6667 46.6248 18.3557 46.4274C18.3711 46.1053 18.2305 45.8944 17.9339 45.7947C14.934 40.8856 13.7741 35.5428 14.4541 29.7666C14.8659 25.8924 16.1664 22.3774 18.3557 19.2217C18.7274 19.061 18.9383 18.7798 18.9884 18.3782C21.0239 16.1284 23.4141 14.3357 26.1589 13.0003C28.4564 12.7711 29.3 13.7904 28.6896 16.0583Z" fill="white"/>
<path opacity="0.889" fill-rule="evenodd" clip-rule="evenodd" d="M92.3757 14.7903C92.6805 15.1199 93.0318 15.4011 93.4302 15.6339C94.4145 16.4775 95.3283 17.3914 96.1719 18.3756C96.2221 18.7772 96.433 19.0584 96.8046 19.2192C101.752 26.9591 102.349 35.0433 98.5972 43.4722C98.1003 44.4206 97.5731 45.3345 97.0154 46.2139C96.8748 46.2139 96.8046 46.2841 96.8046 46.4248C96.508 46.5245 96.3674 46.7354 96.3828 47.0575C96.2421 47.0575 96.1719 47.1277 96.1719 47.2684C95.3283 48.2526 94.4145 49.1664 93.4302 50.01C93.2895 50.01 93.2193 50.0803 93.2193 50.2209C93.0786 50.2209 93.0084 50.2912 93.0084 50.4318C91.8076 51.3844 90.4718 52.1226 89.0014 52.6462C86.6029 52.9525 85.7593 51.9332 86.4706 49.5882C91.9149 47.269 95.2543 43.1915 96.4882 37.3562C97.4297 32.5961 96.8672 28.0266 94.801 23.648C94.1738 22.4973 93.4357 21.4428 92.5866 20.4845C92.3757 20.133 92.0946 19.8519 91.743 19.641C91.5058 19.2975 91.2244 18.9811 90.8995 18.6919C89.4173 17.8108 87.941 16.9321 86.4706 16.0557C85.8563 13.7984 86.6999 12.779 89.0014 12.9977C90.2313 13.4364 91.356 14.0339 92.3757 14.7903Z" fill="white"/>
<path opacity="0.01" fill-rule="evenodd" clip-rule="evenodd" d="M92.3789 14.5781C92.66 14.7187 92.66 14.7187 92.3789 14.5781Z" fill="white"/>
<path opacity="0.01" fill-rule="evenodd" clip-rule="evenodd" d="M92.8008 14.793C93.0819 14.9336 93.0819 14.9336 92.8008 14.793Z" fill="white"/>
<path opacity="0.01" fill-rule="evenodd" clip-rule="evenodd" d="M21.9375 15.0039C22.2186 15.1445 22.2186 15.1445 21.9375 15.0039Z" fill="white"/>
<path opacity="0.01" fill-rule="evenodd" clip-rule="evenodd" d="M93.4375 15.4258C93.7186 15.5664 93.7186 15.5664 93.4375 15.4258Z" fill="white"/>
<path opacity="0.01" fill-rule="evenodd" clip-rule="evenodd" d="M28.8984 15.8477C29.1796 15.9883 29.1796 15.9883 28.8984 15.8477Z" fill="white"/>
<path opacity="0.01" fill-rule="evenodd" clip-rule="evenodd" d="M28.6875 16.0586C28.7577 16.0586 28.8282 16.0586 28.8984 16.0586C28.8594 16.1999 28.7889 16.1999 28.6875 16.0586Z" fill="white"/>
<path opacity="0.01" fill-rule="evenodd" clip-rule="evenodd" d="M86.4727 16.0586C86.332 16.1992 86.332 16.1992 86.4727 16.0586Z" fill="white"/>
<path opacity="0.01" fill-rule="evenodd" clip-rule="evenodd" d="M28.4766 16.2695C28.5468 16.2695 28.6172 16.2695 28.6875 16.2695C28.6484 16.4109 28.578 16.4109 28.4766 16.2695Z" fill="white"/>
<path opacity="0.01" fill-rule="evenodd" clip-rule="evenodd" d="M28.2656 16.4805C28.3359 16.4805 28.4063 16.4805 28.4765 16.4805C28.4375 16.6218 28.3671 16.6218 28.2656 16.4805Z" fill="white"/>
<path opacity="0.01" fill-rule="evenodd" clip-rule="evenodd" d="M18.9844 18.3789C18.8438 18.0977 18.8438 18.0977 18.9844 18.3789Z" fill="white"/>
<path opacity="0.01" fill-rule="evenodd" clip-rule="evenodd" d="M96.3828 18.3789C96.2422 18.0977 96.2422 18.0977 96.3828 18.3789Z" fill="white"/>
<path opacity="0.01" fill-rule="evenodd" clip-rule="evenodd" d="M18.7734 18.3789C18.6328 18.5195 18.6328 18.5195 18.7734 18.3789Z" fill="white"/>
<path opacity="0.01" fill-rule="evenodd" clip-rule="evenodd" d="M25.1016 18.3789C25.3827 18.5195 25.3827 18.5195 25.1016 18.3789Z" fill="white"/>
<path opacity="0.01" fill-rule="evenodd" clip-rule="evenodd" d="M28.8984 18.3789C29.1796 18.5195 29.1796 18.5195 28.8984 18.3789Z" fill="white"/>
<path opacity="0.895" fill-rule="evenodd" clip-rule="evenodd" d="M32.2769 19.0091C32.558 19.8527 32.558 20.6963 32.2769 21.5399C32.1362 21.5399 32.066 21.6102 32.066 21.7508C31.9253 21.7508 31.8551 21.821 31.8551 21.9617C30.9788 22.2236 30.2055 22.6454 29.5352 23.2271C29.3946 23.2271 29.3244 23.2973 29.3244 23.438C29.1837 23.438 29.1135 23.5082 29.1135 23.6489C28.4808 24.1061 27.9535 24.6683 27.5317 25.336C24.5119 30.7179 24.6526 35.9201 27.9535 40.9424C28.393 41.5525 28.9203 42.0445 29.5352 42.4186C30.486 42.9992 31.3998 43.6319 32.2769 44.3167C32.5422 45.0831 32.5422 45.8562 32.2769 46.6366C32.1362 46.6366 32.066 46.7068 32.066 46.8475C31.9253 46.8475 31.8551 46.9177 31.8551 47.0583C31.2186 47.4723 30.5157 47.5778 29.7461 47.3747C29.2575 46.9198 28.695 46.6034 28.059 46.4257C27.9592 46.1291 27.7483 45.9885 27.4263 46.0039C26.5125 45.2305 25.6689 44.3869 24.8955 43.4731C24.7846 43.1083 24.5737 42.8269 24.2628 42.6295C21.3978 37.8143 20.7299 32.6826 22.2593 27.2341C22.6227 26.1558 23.0445 25.1013 23.5247 24.0706C24.7519 22.1707 26.2634 20.5537 28.059 19.22C28.8623 18.8185 29.7059 18.5373 30.5897 18.3764C31.2486 18.3553 31.8108 18.5662 32.2769 19.0091Z" fill="white"/>
<path opacity="0.892" fill-rule="evenodd" clip-rule="evenodd" d="M89.6327 21.3263C89.755 21.8006 90.0361 22.152 90.4762 22.3808C94.9753 29.3404 94.9753 36.3 90.4762 43.2595C90.3356 43.2595 90.2653 43.3298 90.2653 43.4704C88.9029 45.0684 87.286 46.3688 85.4147 47.372C84.5203 47.6226 83.747 47.4469 83.0949 46.8448C82.4887 45.8148 82.559 44.8305 83.3058 43.8922C83.8817 43.5354 84.4442 43.184 84.9929 42.8378C85.315 42.8531 85.5259 42.7125 85.6256 42.416C87.8221 40.7326 89.1227 38.4832 89.5272 35.6673C89.9825 32.9459 89.7716 30.2744 88.8945 27.6532C88.7131 26.9925 88.3968 26.43 87.9455 25.966C87.4796 24.9367 86.7765 24.0931 85.8365 23.4353C85.6758 23.0637 85.3945 22.8528 84.9929 22.8026C84.1359 22.4234 83.3977 21.8612 82.7785 21.1154C82.3919 18.9713 83.2705 18.0926 85.4147 18.4792C87.0262 19.1447 88.4322 20.0938 89.6327 21.3263Z" fill="white"/>
<path opacity="0.01" fill-rule="evenodd" clip-rule="evenodd" d="M86.0508 18.3789C86.3319 18.5195 86.3319 18.5195 86.0508 18.3789Z" fill="white"/>
<path opacity="0.01" fill-rule="evenodd" clip-rule="evenodd" d="M96.3867 18.3789C96.6678 18.5195 96.6678 18.5195 96.3867 18.3789Z" fill="white"/>
<path opacity="0.01" fill-rule="evenodd" clip-rule="evenodd" d="M28.4766 18.5898C28.7577 18.7304 28.7577 18.7304 28.4766 18.5898Z" fill="white"/>
<path opacity="0.01" fill-rule="evenodd" clip-rule="evenodd" d="M86.4766 18.5898C86.7577 18.7304 86.7577 18.7304 86.4766 18.5898Z" fill="white"/>
<path opacity="0.01" fill-rule="evenodd" clip-rule="evenodd" d="M32.2734 18.7969C32.5546 18.9375 32.5546 18.9375 32.2734 18.7969Z" fill="white"/>
<path opacity="0.01" fill-rule="evenodd" clip-rule="evenodd" d="M18.3515 19.2187C18.2109 18.9375 18.2109 18.9375 18.3515 19.2187Z" fill="white"/>
<path opacity="0.01" fill-rule="evenodd" clip-rule="evenodd" d="M24.2578 19.0078C24.5389 19.1484 24.5389 19.1484 24.2578 19.0078Z" fill="white"/>
<path opacity="0.01" fill-rule="evenodd" clip-rule="evenodd" d="M28.0547 19.2187C27.9141 18.9375 27.9141 18.9375 28.0547 19.2187Z" fill="white"/>
<path opacity="0.01" fill-rule="evenodd" clip-rule="evenodd" d="M96.8086 19.0078C97.0897 19.1484 97.0897 19.1484 96.8086 19.0078Z" fill="white"/>
<path opacity="0.01" fill-rule="evenodd" clip-rule="evenodd" d="M18.1484 19.2188C18.0078 19.3594 18.0078 19.3594 18.1484 19.2188Z" fill="white"/>
<path opacity="0.01" fill-rule="evenodd" clip-rule="evenodd" d="M91.7422 19.6445C91.6016 19.7851 91.6016 19.7851 91.7422 19.6445Z" fill="white"/>
<path opacity="0.01" fill-rule="evenodd" clip-rule="evenodd" d="M22.7812 20.2734C23.0624 20.414 23.0624 20.414 22.7812 20.2734Z" fill="white"/>
<path opacity="0.01" fill-rule="evenodd" clip-rule="evenodd" d="M22.5703 20.4883C22.6405 20.4883 22.711 20.4883 22.7812 20.4883C22.7422 20.6296 22.6718 20.6296 22.5703 20.4883Z" fill="white"/>
<path opacity="0.01" fill-rule="evenodd" clip-rule="evenodd" d="M92.5899 20.4883C92.4492 20.6289 92.4492 20.6289 92.5899 20.4883Z" fill="white"/>
<path opacity="0.01" fill-rule="evenodd" clip-rule="evenodd" d="M89.6367 21.1172C89.9178 21.2578 89.9178 21.2578 89.6367 21.1172Z" fill="white"/>
<path opacity="0.01" fill-rule="evenodd" clip-rule="evenodd" d="M32.2734 21.543C32.5546 21.6836 32.5546 21.6836 32.2734 21.543Z" fill="white"/>
<path opacity="0.01" fill-rule="evenodd" clip-rule="evenodd" d="M21.7266 21.7539C22.0077 21.8946 22.0077 21.8946 21.7266 21.7539Z" fill="white"/>
<path opacity="0.01" fill-rule="evenodd" clip-rule="evenodd" d="M32.0625 21.7539C32.1327 21.7539 32.2032 21.7539 32.2734 21.7539C32.2344 21.8952 32.1639 21.8952 32.0625 21.7539Z" fill="white"/>
<path opacity="0.01" fill-rule="evenodd" clip-rule="evenodd" d="M31.8516 21.9609C31.9218 21.9609 31.9922 21.9609 32.0625 21.9609C32.0234 22.1022 31.953 22.1022 31.8516 21.9609Z" fill="white"/>
<path opacity="0.01" fill-rule="evenodd" clip-rule="evenodd" d="M98.707 21.9609C98.9882 22.1016 98.9882 22.1016 98.707 21.9609Z" fill="white"/>
<path opacity="0.01" fill-rule="evenodd" clip-rule="evenodd" d="M90.4805 22.1719C90.7616 22.3125 90.7616 22.3125 90.4805 22.1719Z" fill="white"/>
<path opacity="0.01" fill-rule="evenodd" clip-rule="evenodd" d="M84.9961 22.8086C84.8555 22.9493 84.8555 22.9493 84.9961 22.8086Z" fill="white"/>
<path opacity="0.01" fill-rule="evenodd" clip-rule="evenodd" d="M29.5312 23.2266C29.8124 23.3672 29.8124 23.3672 29.5312 23.2266Z" fill="white"/>
<path opacity="0.01" fill-rule="evenodd" clip-rule="evenodd" d="M29.3203 23.4375C29.3905 23.4375 29.461 23.4375 29.5312 23.4375C29.4922 23.5788 29.4218 23.5788 29.3203 23.4375Z" fill="white"/>
<path opacity="0.01" fill-rule="evenodd" clip-rule="evenodd" d="M85.8399 23.4375C85.6992 23.5782 85.6992 23.5782 85.8399 23.4375Z" fill="white"/>
<path opacity="0.01" fill-rule="evenodd" clip-rule="evenodd" d="M29.1094 23.6484C29.1796 23.6484 29.25 23.6484 29.3203 23.6484C29.2813 23.7897 29.2108 23.7897 29.1094 23.6484Z" fill="white"/>
<path opacity="0.888" fill-rule="evenodd" clip-rule="evenodd" d="M35.8605 24.4916C36.1416 25.2649 36.1416 26.0381 35.8605 26.8114C35.7198 26.8114 35.6496 26.8816 35.6496 27.0223C35.5089 27.0223 35.4387 27.0925 35.4387 27.2332C34.0799 27.9851 33.2011 29.0395 32.8025 30.3967C31.7931 34.0937 32.8124 36.9056 35.8605 38.8325C36.1882 39.7906 36.118 40.7046 35.6496 41.5742C35.5089 41.5742 35.4387 41.6444 35.4387 41.7851C34.7472 41.9943 34.0442 42.0295 33.3297 41.8905C32.7247 41.5539 32.1622 41.1671 31.6426 40.7306C31.2146 40.2333 30.7929 39.7411 30.3772 39.2543C27.8397 34.8854 27.8747 30.527 30.4826 26.1787C31.2279 25.3628 32.0363 24.6246 32.9079 23.9643C33.8158 23.5588 34.7297 23.5588 35.6496 23.9643C35.4248 24.2088 35.495 24.3844 35.8605 24.4916Z" fill="white"/>
<path opacity="0.888" fill-rule="evenodd" clip-rule="evenodd" d="M82.6767 24.2815C82.9815 24.6112 83.3328 24.8923 83.7312 25.1251C86.2887 28.1144 87.1675 31.5589 86.3674 35.459C86.0551 36.7835 85.5981 38.0488 84.9966 39.2552C84.5029 39.7099 84.0811 40.2371 83.7312 40.8369C83.1027 41.1815 82.47 41.5329 81.8331 41.8914C80.6865 42.2404 79.8079 41.9241 79.1969 40.9423C79.0246 40.2118 79.0951 39.5087 79.4078 38.8334C82.0934 37.1116 83.1479 34.6513 82.5713 31.452C82.5076 30.6622 82.2615 29.9593 81.8331 29.343C81.8485 29.021 81.7079 28.8101 81.4113 28.7104C80.9062 28.0015 80.2736 27.4391 79.5133 27.0232C79.0472 26.2184 78.9768 25.3748 79.3024 24.4924C80.3537 23.4476 81.4784 23.3774 82.6767 24.2815Z" fill="white"/>
<path opacity="0.01" fill-rule="evenodd" clip-rule="evenodd" d="M82.6797 24.0703C82.9608 24.211 82.9608 24.211 82.6797 24.0703Z" fill="white"/>
<path opacity="0.01" fill-rule="evenodd" clip-rule="evenodd" d="M35.8594 24.2812C36.1405 24.4219 36.1405 24.4219 35.8594 24.2812Z" fill="white"/>
<path opacity="0.01" fill-rule="evenodd" clip-rule="evenodd" d="M79.3008 24.4921C79.1601 24.211 79.1601 24.211 79.3008 24.4921Z" fill="white"/>
<path opacity="0.01" fill-rule="evenodd" clip-rule="evenodd" d="M28.2656 24.7031C28.5467 24.8438 28.5467 24.8438 28.2656 24.7031Z" fill="white"/>
<path opacity="0.01" fill-rule="evenodd" clip-rule="evenodd" d="M83.7305 24.918C84.0116 25.0586 84.0116 25.0586 83.7305 24.918Z" fill="white"/>
<path opacity="0.01" fill-rule="evenodd" clip-rule="evenodd" d="M95.3359 25.5469C95.6171 25.6875 95.6171 25.6875 95.3359 25.5469Z" fill="white"/>
<path opacity="0.01" fill-rule="evenodd" clip-rule="evenodd" d="M87.9493 25.9648C87.8086 26.1055 87.8086 26.1055 87.9493 25.9648Z" fill="white"/>
<path opacity="0.01" fill-rule="evenodd" clip-rule="evenodd" d="M19.4062 26.1797C19.6874 26.3204 19.6874 26.3204 19.4062 26.1797Z" fill="white"/>
<path opacity="0.01" fill-rule="evenodd" clip-rule="evenodd" d="M95.5469 26.1797C95.828 26.3204 95.828 26.3204 95.5469 26.1797Z" fill="white"/>
<path opacity="0.01" fill-rule="evenodd" clip-rule="evenodd" d="M35.8594 26.8125C36.1405 26.9532 36.1405 26.9532 35.8594 26.8125Z" fill="white"/>
<path opacity="0.01" fill-rule="evenodd" clip-rule="evenodd" d="M35.6484 27.0195C35.7187 27.0195 35.7891 27.0195 35.8593 27.0195C35.8203 27.1608 35.7499 27.1608 35.6484 27.0195Z" fill="white"/>
<path opacity="0.01" fill-rule="evenodd" clip-rule="evenodd" d="M79.5118 27.0195C79.3711 27.1602 79.3711 27.1602 79.5118 27.0195Z" fill="white"/>
<path opacity="0.01" fill-rule="evenodd" clip-rule="evenodd" d="M35.4375 27.2344C35.5077 27.2344 35.5782 27.2344 35.6484 27.2344C35.6094 27.3757 35.5389 27.3757 35.4375 27.2344Z" fill="white"/>
<path opacity="0.01" fill-rule="evenodd" clip-rule="evenodd" d="M81.4102 28.7109C81.2695 28.8516 81.2695 28.8516 81.4102 28.7109Z" fill="white"/>
<path opacity="0.01" fill-rule="evenodd" clip-rule="evenodd" d="M81.8321 29.3398C81.6914 29.4805 81.6914 29.4805 81.8321 29.3398Z" fill="white"/>
<path opacity="0.808" fill-rule="evenodd" clip-rule="evenodd" d="M39.4452 31.6643C39.7105 32.4446 39.7105 33.2177 39.4452 33.9841C38.2404 35.1662 37.0804 35.096 35.9654 33.7732C35.6261 31.6531 36.5047 30.704 38.6016 30.9261C38.8558 31.2163 39.1369 31.4622 39.4452 31.6643Z" fill="white"/>
<path opacity="0.821" fill-rule="evenodd" clip-rule="evenodd" d="M79.0906 31.6628C79.3718 32.4361 79.3718 33.2093 79.0906 33.9826C77.9659 35.1073 76.841 35.1073 75.7163 33.9826C75.1606 31.7636 76.0042 30.7443 78.2471 30.9246C78.5012 31.2148 78.7823 31.4607 79.0906 31.6628Z" fill="white"/>
<path opacity="0.01" fill-rule="evenodd" clip-rule="evenodd" d="M39.6485 31.6601C39.5078 31.3789 39.5078 31.3789 39.6485 31.6601Z" fill="white"/>
<path opacity="0.01" fill-rule="evenodd" clip-rule="evenodd" d="M79.3008 31.6601C79.1601 31.3789 79.1601 31.3789 79.3008 31.6601Z" fill="white"/>
<path opacity="0.01" fill-rule="evenodd" clip-rule="evenodd" d="M39.6562 31.6602C39.9374 31.8008 39.9374 31.8008 39.6562 31.6602Z" fill="white"/>
<path opacity="0.01" fill-rule="evenodd" clip-rule="evenodd" d="M75.2969 31.6602C75.578 31.8008 75.578 31.8008 75.2969 31.6602Z" fill="white"/>
<path opacity="0.01" fill-rule="evenodd" clip-rule="evenodd" d="M79.3008 31.6602C79.5819 31.8008 79.5819 31.8008 79.3008 31.6602Z" fill="white"/>
<path opacity="0.01" fill-rule="evenodd" clip-rule="evenodd" d="M39.4453 33.9844C39.7264 34.125 39.7264 34.125 39.4453 33.9844Z" fill="white"/>
<path opacity="0.01" fill-rule="evenodd" clip-rule="evenodd" d="M75.7149 33.9844C75.5742 34.125 75.5742 34.125 75.7149 33.9844Z" fill="white"/>
<path opacity="0.01" fill-rule="evenodd" clip-rule="evenodd" d="M79.0898 33.9844C79.371 34.125 79.371 34.125 79.0898 33.9844Z" fill="white"/>
<path opacity="0.01" fill-rule="evenodd" clip-rule="evenodd" d="M88.3711 38.1992C88.6522 38.3399 88.6522 38.3399 88.3711 38.1992Z" fill="white"/>
<path opacity="0.01" fill-rule="evenodd" clip-rule="evenodd" d="M19.1953 38.6211C19.4765 38.7618 19.4765 38.7618 19.1953 38.6211Z" fill="white"/>
<path opacity="0.01" fill-rule="evenodd" clip-rule="evenodd" d="M35.8594 38.6211C36.1405 38.7618 36.1405 38.7618 35.8594 38.6211Z" fill="white"/>
<path opacity="0.01" fill-rule="evenodd" clip-rule="evenodd" d="M88.1602 38.6211C88.4413 38.7618 88.4413 38.7618 88.1602 38.6211Z" fill="white"/>
<path opacity="0.01" fill-rule="evenodd" clip-rule="evenodd" d="M95.7539 38.6211C96.035 38.7618 96.035 38.7618 95.7539 38.6211Z" fill="white"/>
<path opacity="0.01" fill-rule="evenodd" clip-rule="evenodd" d="M30.375 39.2539C30.2344 39.3946 30.2344 39.3946 30.375 39.2539Z" fill="white"/>
<path opacity="0.01" fill-rule="evenodd" clip-rule="evenodd" d="M85 39.2539C85.2811 39.3946 85.2811 39.3946 85 39.2539Z" fill="white"/>
<path opacity="0.01" fill-rule="evenodd" clip-rule="evenodd" d="M14.7656 39.4648C15.0468 39.6055 15.0468 39.6055 14.7656 39.4648Z" fill="white"/>
<path opacity="0.01" fill-rule="evenodd" clip-rule="evenodd" d="M100.184 39.4648C100.465 39.6055 100.465 39.6055 100.184 39.4648Z" fill="white"/>
<path opacity="0.01" fill-rule="evenodd" clip-rule="evenodd" d="M31.6407 40.7285C31.5 40.8692 31.5 40.8692 31.6407 40.7285Z" fill="white"/>
<path opacity="0.01" fill-rule="evenodd" clip-rule="evenodd" d="M35.6484 41.5742C35.9296 41.7149 35.9296 41.7149 35.6484 41.5742Z" fill="white"/>
<path opacity="0.01" fill-rule="evenodd" clip-rule="evenodd" d="M86.0508 41.5742C86.3319 41.7149 86.3319 41.7149 86.0508 41.5742Z" fill="white"/>
<path opacity="0.01" fill-rule="evenodd" clip-rule="evenodd" d="M35.4375 41.7832C35.5077 41.7832 35.5782 41.7832 35.6484 41.7832C35.6094 41.9245 35.5389 41.9245 35.4375 41.7832Z" fill="white"/>
<path opacity="0.01" fill-rule="evenodd" clip-rule="evenodd" d="M86.0508 41.7832C85.9101 41.9239 85.9101 41.9239 86.0508 41.7832Z" fill="white"/>
<path opacity="0.01" fill-rule="evenodd" clip-rule="evenodd" d="M85.8399 41.9961C85.6992 42.1368 85.6992 42.1368 85.8399 41.9961Z" fill="white"/>
<path opacity="0.01" fill-rule="evenodd" clip-rule="evenodd" d="M29.5312 42.207C29.8124 42.3477 29.8124 42.3477 29.5312 42.207Z" fill="white"/>
<path opacity="0.01" fill-rule="evenodd" clip-rule="evenodd" d="M85.6294 42.207C85.6294 42.2773 85.6294 42.3477 85.6294 42.4179C85.4881 42.3165 85.4881 42.246 85.6294 42.207Z" fill="white"/>
<path opacity="0.01" fill-rule="evenodd" clip-rule="evenodd" d="M24.2657 42.6289C24.125 42.7696 24.125 42.7696 24.2657 42.6289Z" fill="white"/>
<path opacity="0.01" fill-rule="evenodd" clip-rule="evenodd" d="M84.9961 42.8397C84.8555 42.5586 84.8555 42.5586 84.9961 42.8397Z" fill="white"/>
<path opacity="0.01" fill-rule="evenodd" clip-rule="evenodd" d="M99.1289 42.6289C99.41 42.7696 99.41 42.7696 99.1289 42.6289Z" fill="white"/>
<path opacity="0.01" fill-rule="evenodd" clip-rule="evenodd" d="M24.2578 43.0508C24.5389 43.1914 24.5389 43.1914 24.2578 43.0508Z" fill="white"/>
<path opacity="0.01" fill-rule="evenodd" clip-rule="evenodd" d="M98.918 43.0508C99.1991 43.1914 99.1991 43.1914 98.918 43.0508Z" fill="white"/>
<path opacity="0.01" fill-rule="evenodd" clip-rule="evenodd" d="M90.4805 43.2617C90.7616 43.4024 90.7616 43.4024 90.4805 43.2617Z" fill="white"/>
<path opacity="0.01" fill-rule="evenodd" clip-rule="evenodd" d="M24.8907 43.4727C24.75 43.6133 24.75 43.6133 24.8907 43.4727Z" fill="white"/>
<path opacity="0.01" fill-rule="evenodd" clip-rule="evenodd" d="M90.2695 43.4727C90.3398 43.4727 90.4102 43.4727 90.4804 43.4727C90.4414 43.614 90.371 43.614 90.2695 43.4727Z" fill="white"/>
<path opacity="0.01" fill-rule="evenodd" clip-rule="evenodd" d="M21.9375 44.1035C22.2186 44.2442 22.2186 44.2442 21.9375 44.1035Z" fill="white"/>
<path opacity="0.01" fill-rule="evenodd" clip-rule="evenodd" d="M32.2734 44.1035C32.5546 44.2442 32.5546 44.2442 32.2734 44.1035Z" fill="white"/>
<path opacity="0.01" fill-rule="evenodd" clip-rule="evenodd" d="M22.9922 45.3711C23.2733 45.5118 23.2733 45.5118 22.9922 45.3711Z" fill="white"/>
<path opacity="0.01" fill-rule="evenodd" clip-rule="evenodd" d="M17.9375 45.793C17.7969 45.9336 17.7969 45.9336 17.9375 45.793Z" fill="white"/>
<path opacity="0.01" fill-rule="evenodd" clip-rule="evenodd" d="M27.4219 46.002C27.2812 46.1426 27.2812 46.1426 27.4219 46.002Z" fill="white"/>
<path opacity="0.01" fill-rule="evenodd" clip-rule="evenodd" d="M18.1484 46.4237C18.0078 46.1426 18.0078 46.1426 18.1484 46.4237Z" fill="white"/>
<path opacity="0.01" fill-rule="evenodd" clip-rule="evenodd" d="M97.0195 46.2129C97.3007 46.3536 97.3007 46.3536 97.0195 46.2129Z" fill="white"/>
<path opacity="0.01" fill-rule="evenodd" clip-rule="evenodd" d="M18.1406 46.4258C18.2109 46.4258 18.2812 46.4258 18.3515 46.4258C18.3124 46.5671 18.2421 46.5671 18.1406 46.4258Z" fill="white"/>
<path opacity="0.01" fill-rule="evenodd" clip-rule="evenodd" d="M28.0547 46.4258C27.9141 46.5664 27.9141 46.5664 28.0547 46.4258Z" fill="white"/>
<path opacity="0.01" fill-rule="evenodd" clip-rule="evenodd" d="M32.4844 46.4258C32.7655 46.5664 32.7655 46.5664 32.4844 46.4258Z" fill="white"/>
<path opacity="0.01" fill-rule="evenodd" clip-rule="evenodd" d="M96.8086 46.4258C96.8788 46.4258 96.9493 46.4258 97.0195 46.4258C96.9805 46.5671 96.91 46.5671 96.8086 46.4258Z" fill="white"/>
<path opacity="0.01" fill-rule="evenodd" clip-rule="evenodd" d="M32.2734 46.6367C32.3437 46.6367 32.4141 46.6367 32.4843 46.6367C32.4453 46.778 32.3749 46.778 32.2734 46.6367Z" fill="white"/>
<path opacity="0.01" fill-rule="evenodd" clip-rule="evenodd" d="M32.0625 46.8477C32.1327 46.8477 32.2032 46.8477 32.2734 46.8477C32.2344 46.989 32.1639 46.989 32.0625 46.8477Z" fill="white"/>
<path opacity="0.01" fill-rule="evenodd" clip-rule="evenodd" d="M83.1016 46.8477C82.9609 46.9883 82.9609 46.9883 83.1016 46.8477Z" fill="white"/>
<path opacity="0.01" fill-rule="evenodd" clip-rule="evenodd" d="M31.8516 47.0566C31.9218 47.0566 31.9922 47.0566 32.0625 47.0566C32.0234 47.1979 31.953 47.1979 31.8516 47.0566Z" fill="white"/>
<path opacity="0.01" fill-rule="evenodd" clip-rule="evenodd" d="M96.3867 47.0566C96.6678 47.1973 96.6678 47.1973 96.3867 47.0566Z" fill="white"/>
<path opacity="0.01" fill-rule="evenodd" clip-rule="evenodd" d="M18.9844 47.2676C18.8438 47.4082 18.8438 47.4082 18.9844 47.2676Z" fill="white"/>
<path opacity="0.01" fill-rule="evenodd" clip-rule="evenodd" d="M96.1758 47.2676C96.246 47.2676 96.3164 47.2676 96.3867 47.2676C96.3477 47.4089 96.2772 47.4089 96.1758 47.2676Z" fill="white"/>
<path opacity="0.01" fill-rule="evenodd" clip-rule="evenodd" d="M25.7344 47.6914C26.0155 47.8321 26.0155 47.8321 25.7344 47.6914Z" fill="white"/>
<path opacity="0.01" fill-rule="evenodd" clip-rule="evenodd" d="M20.8828 49.5878C20.7422 49.3067 20.7422 49.3067 20.8828 49.5878Z" fill="white"/>
<path opacity="0.01" fill-rule="evenodd" clip-rule="evenodd" d="M28.6875 49.377C28.9686 49.5176 28.9686 49.5176 28.6875 49.377Z" fill="white"/>
<path opacity="0.01" fill-rule="evenodd" clip-rule="evenodd" d="M86.4727 49.5878C86.332 49.3067 86.332 49.3067 86.4727 49.5878Z" fill="white"/>
<path opacity="0.01" fill-rule="evenodd" clip-rule="evenodd" d="M20.8828 49.5879C21.0234 49.5879 21.0937 49.6581 21.0937 49.7988C21.0234 49.7286 20.9531 49.6581 20.8828 49.5879Z" fill="white"/>
<path opacity="0.01" fill-rule="evenodd" clip-rule="evenodd" d="M21.0938 49.7988C21.3749 49.9395 21.3749 49.9395 21.0938 49.7988Z" fill="white"/>
<path opacity="0.01" fill-rule="evenodd" clip-rule="evenodd" d="M93.4375 50.0117C93.7186 50.1524 93.7186 50.1524 93.4375 50.0117Z" fill="white"/>
<path opacity="0.01" fill-rule="evenodd" clip-rule="evenodd" d="M93.2266 50.2207C93.2968 50.2207 93.3672 50.2207 93.4375 50.2207C93.3984 50.362 93.328 50.362 93.2266 50.2207Z" fill="white"/>
<path opacity="0.01" fill-rule="evenodd" clip-rule="evenodd" d="M22.1563 50.4316C22.0156 50.5723 22.0156 50.5723 22.1563 50.4316Z" fill="white"/>
<path opacity="0.01" fill-rule="evenodd" clip-rule="evenodd" d="M93.0156 50.4316C93.0859 50.4316 93.1563 50.4316 93.2265 50.4316C93.1875 50.5729 93.1171 50.5729 93.0156 50.4316Z" fill="white"/>
<path opacity="0.01" fill-rule="evenodd" clip-rule="evenodd" d="M24.6797 52.1211C24.5391 52.2618 24.5391 52.2618 24.6797 52.1211Z" fill="white"/>
<path opacity="0.01" fill-rule="evenodd" clip-rule="evenodd" d="M28.6875 52.1211C28.9686 52.2618 28.9686 52.2618 28.6875 52.1211Z" fill="white"/>
<path opacity="0.01" fill-rule="evenodd" clip-rule="evenodd" d="M24.8906 52.3301C25.1717 52.4707 25.1717 52.4707 24.8906 52.3301Z" fill="white"/>
<path opacity="0.01" fill-rule="evenodd" clip-rule="evenodd" d="M28.4766 52.3301C28.5468 52.3301 28.6172 52.3301 28.6875 52.3301C28.6484 52.4714 28.578 52.4714 28.4766 52.3301Z" fill="white"/>
<path opacity="0.01" fill-rule="evenodd" clip-rule="evenodd" d="M25.3125 52.541C25.5936 52.6817 25.5936 52.6817 25.3125 52.541Z" fill="white"/>
<path opacity="0.01" fill-rule="evenodd" clip-rule="evenodd" d="M28.2656 52.541C28.3359 52.541 28.4063 52.541 28.4765 52.541C28.4375 52.6823 28.3671 52.6823 28.2656 52.541Z" fill="white"/>
<path opacity="0.01" fill-rule="evenodd" clip-rule="evenodd" d="M89.6367 52.541C89.9178 52.6817 89.9178 52.6817 89.6367 52.541Z" fill="white"/>
<path opacity="0.01" fill-rule="evenodd" clip-rule="evenodd" d="M89.2188 52.752C89.4999 52.8926 89.4999 52.8926 89.2188 52.752Z" fill="white"/>
<path opacity="0.01" fill-rule="evenodd" clip-rule="evenodd" d="M72.7618 77.0058C72.6211 76.7246 72.6211 76.7246 72.7618 77.0058Z" fill="white"/>
<path opacity="0.01" fill-rule="evenodd" clip-rule="evenodd" d="M72.7656 77.0059C73.0467 77.1465 73.0467 77.1465 72.7656 77.0059Z" fill="white"/>
<path opacity="0.01" fill-rule="evenodd" clip-rule="evenodd" d="M40.9219 79.3261C40.7812 79.045 40.7812 79.045 40.9219 79.3261Z" fill="white"/>
<path opacity="0.01" fill-rule="evenodd" clip-rule="evenodd" d="M38.8125 82.4863C39.0936 82.627 39.0936 82.627 38.8125 82.4863Z" fill="white"/>
<path opacity="0.01" fill-rule="evenodd" clip-rule="evenodd" d="M76.1406 82.4863C76.4217 82.627 76.4217 82.627 76.1406 82.4863Z" fill="white"/>
<path opacity="0.01" fill-rule="evenodd" clip-rule="evenodd" d="M38.1797 96.4082C38.4608 96.5489 38.4608 96.5489 38.1797 96.4082Z" fill="white"/>
<path opacity="0.01" fill-rule="evenodd" clip-rule="evenodd" d="M76.7695 96.4082C77.0507 96.5489 77.0507 96.5489 76.7695 96.4082Z" fill="white"/>
<path opacity="0.01" fill-rule="evenodd" clip-rule="evenodd" d="M41.5469 102.521C41.4062 102.662 41.4062 102.662 41.5469 102.521Z" fill="white"/>
<path opacity="0.01" fill-rule="evenodd" clip-rule="evenodd" d="M41.7656 103.158C42.0467 103.299 42.0467 103.299 41.7656 103.158Z" fill="white"/>
<path opacity="0.01" fill-rule="evenodd" clip-rule="evenodd" d="M73.1875 103.158C73.4686 103.299 73.4686 103.299 73.1875 103.158Z" fill="white"/>
<path opacity="0.01" fill-rule="evenodd" clip-rule="evenodd" d="M72.9766 103.369C73.0468 103.369 73.1172 103.369 73.1875 103.369C73.1484 103.51 73.078 103.51 72.9766 103.369Z" fill="white"/>
<path opacity="0.01" fill-rule="evenodd" clip-rule="evenodd" d="M72.7656 103.576C72.8359 103.576 72.9063 103.576 72.9765 103.576C72.9375 103.717 72.8671 103.717 72.7656 103.576Z" fill="white"/>
<path opacity="0.01" fill-rule="evenodd" clip-rule="evenodd" d="M42.6094 103.787C42.4687 103.928 42.4687 103.928 42.6094 103.787Z" fill="white"/>
<path opacity="0.01" fill-rule="evenodd" clip-rule="evenodd" d="M72.5508 103.787C72.621 103.787 72.6914 103.787 72.7617 103.787C72.7227 103.928 72.6522 103.928 72.5508 103.787Z" fill="white"/>
<path opacity="0.01" fill-rule="evenodd" clip-rule="evenodd" d="M44.7188 105.896C44.5781 106.037 44.5781 106.037 44.7188 105.896Z" fill="white"/>
<path opacity="0.01" fill-rule="evenodd" clip-rule="evenodd" d="M45.5552 106.533C45.5552 106.603 45.5552 106.674 45.5552 106.744C45.4139 106.643 45.4139 106.572 45.5552 106.533Z" fill="white"/>
<path opacity="0.01" fill-rule="evenodd" clip-rule="evenodd" d="M69.6016 106.533C69.8827 106.674 69.8827 106.674 69.6016 106.533Z" fill="white"/>
<path opacity="0.01" fill-rule="evenodd" clip-rule="evenodd" d="M45.5625 106.74C45.8436 106.881 45.8436 106.881 45.5625 106.74Z" fill="white"/>
<path opacity="0.01" fill-rule="evenodd" clip-rule="evenodd" d="M69.6016 106.74C69.4609 106.881 69.4609 106.881 69.6016 106.74Z" fill="white"/>
<path opacity="0.01" fill-rule="evenodd" clip-rule="evenodd" d="M68.9688 106.951C69.2499 107.092 69.2499 107.092 68.9688 106.951Z" fill="white"/>
<path opacity="0.01" fill-rule="evenodd" clip-rule="evenodd" d="M68.7578 107.162C68.828 107.162 68.8985 107.162 68.9687 107.162C68.9297 107.303 68.8593 107.303 68.7578 107.162Z" fill="white"/>
<circle cx="57.5842" cy="91.344" r="8.7522" fill="white"/>
</svg>
