<svg width="120" height="120" viewBox="0 0 120 120" fill="none" xmlns="http://www.w3.org/2000/svg">
<path d="M100.004 54.998H115.004V64.998H100.004V54.998ZM5.00391 54.998H20.0039V64.998H5.00391V54.998ZM65.0039 4.99805V19.998H55.0039V4.99805H65.0039ZM24.6039 17.498L35.2539 28.198L28.1539 35.248L17.5039 24.648L24.6039 17.498ZM84.7539 28.148L95.3539 17.498L102.504 24.648L91.8539 35.248L84.7539 28.148ZM60.0039 29.998C67.9604 29.998 75.591 33.1588 81.2171 38.7848C86.8432 44.4109 90.0039 52.0415 90.0039 59.998C90.0039 71.098 83.9539 80.798 75.0039 85.998V94.998C75.0039 96.3241 74.4771 97.5959 73.5394 98.5336C72.6018 99.4713 71.33 99.998 70.0039 99.998H50.0039C48.6778 99.998 47.4061 99.4713 46.4684 98.5336C45.5307 97.5959 45.0039 96.3241 45.0039 94.998V85.998C36.0539 80.798 30.0039 71.098 30.0039 59.998C30.0039 52.0415 33.1646 44.4109 38.7907 38.7848C44.4168 33.1588 52.0474 29.998 60.0039 29.998ZM70.0039 104.998V109.998C70.0039 111.324 69.4771 112.596 68.5394 113.534C67.6018 114.471 66.33 114.998 65.0039 114.998H55.0039C53.6778 114.998 52.4061 114.471 51.4684 113.534C50.5307 112.596 50.0039 111.324 50.0039 109.998V104.998H70.0039ZM55.0039 89.998H65.0039V79.348C73.6539 77.148 80.0039 69.298 80.0039 59.998C80.0039 54.6937 77.8968 49.6066 74.146 45.8559C70.3953 42.1052 65.3082 39.998 60.0039 39.998C54.6996 39.998 49.6125 42.1052 45.8618 45.8559C42.111 49.6066 40.0039 54.6937 40.0039 59.998C40.0039 69.298 46.3539 77.148 55.0039 79.348V89.998Z" fill="white"/>
</svg>
