<svg width="120" height="120" viewBox="0 0 120 120" fill="none" xmlns="http://www.w3.org/2000/svg">
<path d="M55 40C65 25 45 25 55 10M77.5 40C87.5 25 67.5 25 77.5 10M30 50H30.05M30 70H30.05M50 80V60M70 80V60M90 80V60" stroke="white" stroke-width="10" stroke-linecap="round" stroke-linejoin="round"/>
<path d="M100 30C102.652 30 105.196 31.0536 107.071 32.9289C108.946 34.8043 110 37.3478 110 40V90C110 92.6522 108.946 95.1957 107.071 97.0711C105.196 98.9464 102.652 100 100 100H20C17.3478 100 14.8043 98.9464 12.9289 97.0711C11.0536 95.1957 10 92.6522 10 90V40C10 37.3478 11.0536 34.8043 12.9289 32.9289C14.8043 31.0536 17.3478 30 20 30H35M25 100V110M95 100V110" stroke="white" stroke-width="10" stroke-linecap="round" stroke-linejoin="round"/>
</svg>
