<svg width="120" height="120" viewBox="0 0 120 120" fill="none" xmlns="http://www.w3.org/2000/svg">
<path d="M90 7.5V15H105V22.5H97.5V30H105V37.5H97.5V45H105V52.5H97.5V60H105V67.5H97.5V75H105V82.5H97.5V90H105V97.5H90V105H112.5V7.5H90ZM30 15C30 33.0151 26.6259 39.4614 22.8516 47.5781C19.3183 55.1765 15.5587 64.2219 15.0879 82.5H0L18.75 101.25L37.5 82.5H22.6758C23.1231 65.575 26.1944 58.1701 29.6484 50.7422C33.3741 42.7302 37.5 34.0274 37.5 15H30ZM75 15C75 33.0151 71.6259 39.4614 67.8516 47.5781C64.3183 55.1765 60.5587 64.2219 60.0879 82.5H45L63.75 101.25L82.5 82.5H67.6758C68.1231 65.575 71.1944 58.1701 74.6484 50.7422C78.3741 42.7302 82.5 34.0274 82.5 15H75Z" fill="white"/>
</svg>
