<svg width="120" height="120" viewBox="0 0 120 120" fill="none" xmlns="http://www.w3.org/2000/svg">
<path d="M65 35H85V25H65V35ZM20 85C21.4167 85 22.605 84.52 23.565 83.56C24.525 82.6 25.0033 81.4133 25 80C24.9967 78.5867 24.5167 77.4 23.56 76.44C22.6033 75.48 21.4167 75 20 75C18.5833 75 17.3967 75.48 16.44 76.44C15.4833 77.4 15.0033 78.5867 15 80C14.9967 81.4133 15.4767 82.6017 16.44 83.565C17.4033 84.5283 18.59 85.0067 20 85ZM60 105C53.6667 105 47.6667 104 42 102C36.3333 100 31.125 97.2083 26.375 93.625C25.4583 94.0417 24.4583 94.375 23.375 94.625C22.2917 94.875 21.1667 95 20 95C15.8333 95 12.2917 93.5417 9.375 90.625C6.45833 87.7083 5 84.1667 5 80C5 78.0833 5.33333 76.2917 6 74.625C6.66667 72.9583 7.58333 71.4583 8.75 70.125C7.83333 67.7917 7.08333 65.4167 6.5 63C5.91667 60.5833 5.5 58.0833 5.25 55.5L15.25 54.5C15.4167 56.4167 15.6883 58.25 16.065 60C16.4417 61.75 16.9617 63.4583 17.625 65.125C18.0417 65.0417 18.4383 65 18.815 65H20C24.1667 65 27.7083 66.4583 30.625 69.375C33.5417 72.2917 35 75.8333 35 80C35 81.1667 34.875 82.27 34.625 83.31C34.375 84.35 34.0417 85.3717 33.625 86.375C36.7083 88.625 40.0417 90.48 43.625 91.94C47.2083 93.4 51 94.3367 55 94.75V70C55 68.5833 54.52 67.3967 53.56 66.44C52.6 65.4833 51.4133 65.0033 50 65C44.5 65 39.7917 63.0417 35.875 59.125C31.9583 55.2083 30 50.5 30 45C30 39.5 31.9583 34.7917 35.875 30.875C39.7917 26.9583 44.5 25 50 25H55C55 22.25 55.98 19.8967 57.94 17.94C59.9 15.9833 62.2533 15.0033 65 15H85C87.75 15 90.105 15.98 92.065 17.94C94.025 19.9 95.0033 22.2533 95 25H100C101.417 25 102.605 25.48 103.565 26.44C104.525 27.4 105.003 28.5867 105 30C104.997 31.4133 104.517 32.6017 103.56 33.565C102.603 34.5283 101.417 35.0067 100 35H95C95 37.75 94.0217 40.105 92.065 42.065C90.1083 44.025 87.7533 45.0033 85 45H65C62.25 45 59.8967 44.0217 57.94 42.065C55.9833 40.1083 55.0033 37.7533 55 35H50C47.25 35 44.8967 35.98 42.94 37.94C40.9833 39.9 40.0033 42.2533 40 45C39.9967 47.7467 40.9767 50.1017 42.94 52.065C44.9033 54.0283 47.2567 55.0067 50 55C54.1667 55 57.7083 56.4583 60.625 59.375C63.5417 62.2917 65 65.8333 65 70V94.75C72.25 93.9167 78.8333 91.5417 84.75 87.625C90.6667 83.7083 95.375 78.7083 98.875 72.625L92.75 69.5L97.25 60.625L103 63.5C103.417 62.0833 103.77 60.625 104.06 59.125C104.35 57.625 104.58 56.0833 104.75 54.5L114.75 55.5C114.583 57.6667 114.25 59.7917 113.75 61.875C113.25 63.9583 112.667 66 112 68L117.25 70.625L112.75 79.5L108 77.125C103.25 85.5417 96.625 92.2917 88.125 97.375C79.625 102.458 70.25 105 60 105Z" fill="white"/>
</svg>
