<svg width="121" height="121" viewBox="0 0 121 121" fill="none" xmlns="http://www.w3.org/2000/svg">
<path d="M35.5039 25.498L15.5039 35.4981V15.498L35.5039 25.498ZM90.5039 15.498V35.4981L110.504 25.498L90.5039 15.498ZM55.5039 10.498V30.4981L75.5039 20.498L55.5039 10.498ZM65.5039 90.4981H55.5039V110.498C30.2539 109.748 10.5039 103.298 10.5039 95.4981V50.4981C10.5039 42.1981 32.9039 35.4981 60.5039 35.4981C88.1039 35.4981 110.504 42.1981 110.504 50.4981V95.4981C110.504 103.298 90.7539 109.748 65.5039 110.498V90.4981ZM25.5039 50.6981C32.4039 53.1481 44.3539 55.4981 60.5039 55.4981C76.6539 55.4981 88.6039 53.1481 95.5039 50.6981C95.5039 49.7981 81.6039 45.4981 60.5039 45.4981C39.4039 45.4981 25.5039 49.7981 25.5039 50.6981ZM100.504 59.4981C91.4039 63.1481 76.8539 65.4981 60.5039 65.4981C44.1539 65.4981 29.6039 63.1481 20.5039 59.4981V93.3981C23.5539 95.4481 32.3039 98.4481 45.5039 99.7981V80.4981H75.5039V99.7981C88.7039 98.4481 97.4539 95.4481 100.504 93.3981V59.4981Z" fill="white"/>
</svg>
