<svg width="120" height="120" viewBox="0 0 120 120" fill="none" xmlns="http://www.w3.org/2000/svg">
<path d="M20.0013 14.9978H50.0013V24.9978H20.0013V14.9978ZM5.00132 34.9978H30.0013V44.9978H5.00132V34.9978ZM15.0013 94.9978H40.0013V104.998H15.0013V94.9978ZM68.6513 53.0478C72.4013 54.1978 75.1513 56.9478 76.5013 60.3478L97.8513 24.7978C99.263 22.4415 99.7764 19.6546 99.2971 16.9499C98.8179 14.2452 97.3781 11.8045 95.2427 10.0767C93.1073 8.34892 90.4199 7.45025 87.6747 7.54599C84.9295 7.64174 82.3112 8.72545 80.3013 10.5978L63.1513 26.6478C61.1513 28.4978 60.0013 31.1478 60.0013 33.8978V53.5478C61.8013 52.7978 64.9013 51.8978 68.6513 53.0478ZM53.0513 61.3478C53.8513 58.7478 55.4513 56.5478 57.5013 54.9978H16.4013C13.6523 54.9944 10.9946 55.9849 8.91843 57.7868C6.84222 59.5886 5.48739 62.0803 5.10373 64.8025C4.72007 67.5247 5.33344 70.2937 6.83077 72.5993C8.32809 74.9048 10.6084 76.5913 13.2513 77.3478L35.8013 83.7978C38.4513 84.5478 41.3013 84.1978 43.7013 82.7478L57.1513 74.6978C55.2116 73.1375 53.7841 71.0315 53.0532 68.6518C52.3224 66.2721 52.3217 63.7279 53.0513 61.3478ZM111.051 93.0478L99.6514 72.5478C98.9772 71.3605 98.0726 70.3199 96.9908 69.4871C95.9089 68.6542 94.6715 68.0459 93.3513 67.6978L77.4513 63.6978C77.6013 65.2978 77.4513 66.9978 76.9513 68.6478C76.1839 71.2165 74.6046 73.4673 72.4501 75.0628C70.2957 76.6584 67.6822 77.5127 65.0013 77.4978C61.9513 77.4978 60.0513 76.3978 60.0013 76.3978V104.998C54.5013 104.998 50.0013 109.498 50.0013 114.998H80.0013C80.0013 109.498 75.5013 104.998 70.0013 104.998V83.5978L93.0514 106.648C97.5014 111.098 104.701 111.098 109.151 106.648C112.751 103.048 113.551 97.4978 111.051 93.0478Z" fill="white"/>
<path d="M62.7995 72.1497C66.7495 73.3497 70.9495 71.1497 72.1495 67.1497C73.3495 63.1997 71.1495 58.9997 67.1495 57.7997C63.1995 56.5997 58.9995 58.7997 57.7995 62.7997C56.5995 66.7497 58.8495 70.9497 62.7995 72.1497Z" fill="white"/>
</svg>
