<svg width="121" height="121" viewBox="0 0 121 121" fill="none" xmlns="http://www.w3.org/2000/svg">
<g clip-path="url(#clip0_5953_4515)">
<path d="M103.695 26.75V45.875C103.752 46.811 103.456 47.7345 102.866 48.4634C102.276 49.1922 101.434 49.6736 100.507 49.8125H80.6695C80.182 49.8125 80.182 49.8125 80.182 50.2625C80.2575 51.0231 80.2575 51.7894 80.182 52.55C79.9378 53.91 79.2682 55.1575 78.2695 56.1125C76.8397 57.4747 75.1755 58.5673 73.357 59.3375C70.7153 60.4165 67.9404 61.1355 65.107 61.475C62.9923 61.7308 60.8606 61.8186 58.732 61.7375C54.9613 61.6661 51.2313 60.943 47.707 59.6C45.9422 58.9124 44.297 57.9506 42.832 56.75C41.6293 55.7877 40.7521 54.4783 40.3195 53C40.1624 52.5676 40.0861 52.11 40.0945 51.65V49.925C40.0945 49.7 40.0945 49.625 39.832 49.625H20.5195C19.525 49.625 18.5711 49.2299 17.8679 48.5267C17.1646 47.8234 16.7695 46.8696 16.7695 45.875C16.7695 39.575 16.7695 33.3125 16.7695 27.125C16.7695 27.125 16.7695 26.9 16.7695 26.825L103.695 26.75ZM70.9945 36.9875C71.043 36.4887 71.043 35.9863 70.9945 35.4875C70.8487 34.4185 70.426 33.4062 69.7682 32.5511C69.1103 31.6959 68.2404 31.0276 67.2445 30.6125C65.9877 30.047 64.5921 29.8644 63.232 30.0875C62.1218 30.1915 61.0608 30.5954 60.1625 31.2559C59.2642 31.9165 58.5623 32.8088 58.132 33.8375C57.3248 35.847 57.3248 38.0905 58.132 40.1C58.4121 40.9792 58.8987 41.7785 59.5511 42.4309C60.2036 43.0834 61.0029 43.57 61.882 43.85C63.0076 44.2111 64.2026 44.3011 65.3695 44.1125C66.3352 44.0121 67.2633 43.6845 68.078 43.1566C68.8927 42.6287 69.5709 41.9153 70.057 41.075C70.707 39.8126 71.0294 38.407 70.9945 36.9875ZM54.007 34.475H55.207C55.432 34.475 55.507 34.475 55.4695 34.175C55.3413 33.4514 55.0524 32.7659 54.624 32.1688C54.1957 31.5717 53.6388 31.0783 52.9945 30.725C51.6934 30.0857 50.2268 29.8631 48.7945 30.0875C47.8013 30.1747 46.8475 30.5175 46.0261 31.0827C45.2046 31.6478 44.5435 32.416 44.107 33.3125C43.508 34.4634 43.1705 35.7325 43.1186 37.029C43.0667 38.3254 43.3018 39.6174 43.807 40.8125C44.0947 41.6149 44.5671 42.3385 45.1859 42.9247C45.8047 43.511 46.5527 43.9436 47.3695 44.1875C48.4972 44.5379 49.6897 44.6276 50.857 44.45C51.9698 44.3601 53.0267 43.9252 53.8804 43.2059C54.7342 42.4866 55.3421 41.5188 55.6195 40.4375C55.6195 40.1 55.6195 40.1 55.357 40.1H52.9945C52.8756 40.0762 52.752 40.0976 52.648 40.16C52.544 40.2224 52.467 40.3213 52.432 40.4375C52.3238 40.7836 52.1398 41.1013 51.8933 41.3673C51.6467 41.6332 51.344 41.8409 51.007 41.975C50.5998 42.1583 50.1595 42.2571 49.7129 42.2652C49.2664 42.2734 48.8228 42.1909 48.4091 42.0226C47.9954 41.8543 47.6201 41.6038 47.3061 41.2862C46.992 40.9686 46.7457 40.5906 46.582 40.175C46.1414 38.9773 45.9873 37.693 46.132 36.425C46.1639 35.6684 46.3556 34.9272 46.6945 34.25C46.9472 33.6873 47.3672 33.2162 47.8974 32.9008C48.4275 32.5854 49.0419 32.4411 49.657 32.4875C50.2728 32.4424 50.8858 32.6068 51.3963 32.954C51.9069 33.3012 52.2851 33.8108 52.4695 34.4C52.4952 34.4759 52.547 34.5402 52.6157 34.5815C52.6844 34.6227 52.7655 34.6381 52.8445 34.625L54.007 34.475ZM73.3195 47.3H74.8195C75.7945 47.3 75.607 47.3 75.7945 46.475C75.7945 46.175 75.7945 46.1375 75.4945 46.1375H72.9445C72.682 46.1375 72.6445 46.1375 72.9445 45.875C73.1582 45.5678 73.4248 45.3011 73.732 45.0875C74.2796 44.7508 74.7834 44.3478 75.232 43.8875C75.4558 43.6451 75.6145 43.3499 75.6931 43.0294C75.7717 42.709 75.7677 42.3739 75.6816 42.0554C75.5954 41.7369 75.4298 41.4455 75.2004 41.2085C74.9709 40.9714 74.685 40.7965 74.3695 40.7C73.8326 40.5303 73.2564 40.5303 72.7195 40.7C72.3292 40.7796 71.9727 40.9768 71.6978 41.265C71.4229 41.5533 71.2429 41.9189 71.182 42.3125C71.182 42.5375 71.257 42.65 71.407 42.65H71.7445C71.8137 42.6728 71.8871 42.6798 71.9594 42.6705C72.0316 42.6612 72.1008 42.6359 72.162 42.5963C72.2231 42.5567 72.2746 42.504 72.3127 42.4419C72.3508 42.3798 72.3745 42.3099 72.382 42.2375C72.4668 42.0126 72.6346 41.8288 72.851 41.7242C73.0673 41.6195 73.3156 41.6019 73.5445 41.675C73.7431 41.7199 73.9181 41.8367 74.0358 42.0028C74.1535 42.169 74.2056 42.3728 74.182 42.575C74.1768 42.7449 74.1375 42.9121 74.0667 43.0667C73.9959 43.2212 73.8948 43.3601 73.7695 43.475C73.357 43.85 72.907 44.15 72.457 44.4875C72.0555 44.7801 71.7162 45.1496 71.4587 45.5745C71.2012 45.9993 71.0306 46.4712 70.957 46.9625C70.957 47.3 70.957 47.3375 71.2945 47.3375L73.3195 47.3Z" fill="white"/>
<path d="M4.25 71.5263C4.33467 71.1452 4.501 70.787 4.7375 70.4763C4.83959 70.3575 4.96617 70.2621 5.10856 70.1967C5.25096 70.1312 5.4058 70.0974 5.5625 70.0974C5.7192 70.0974 5.87404 70.1312 6.01644 70.1967C6.15883 70.2621 6.28541 70.3575 6.3875 70.4763C9.26966 72.8491 12.3146 75.0169 15.5 76.9638C21.5996 80.9234 28.1132 84.2053 34.925 86.7513C39.2685 88.3535 43.7326 89.6074 48.275 90.5013C50.7125 90.9513 53.15 91.2888 55.775 91.5138C57.6125 91.7013 59.525 91.7763 61.325 91.8513C63.125 91.9263 64.025 91.8513 65.375 91.8513C67.6721 91.7834 69.9634 91.5831 72.2375 91.2513C76.5964 90.6518 80.8899 89.6475 85.0625 88.2513C89.8812 86.607 94.5281 84.497 98.9375 81.9513C103.085 79.5426 107.035 76.8091 110.75 73.7763C112.1 72.6888 113.45 71.5263 114.762 70.3638C114.881 70.2201 115.035 70.1094 115.208 70.0421C115.382 69.9748 115.57 69.9533 115.755 69.9797C115.939 70.006 116.114 70.0793 116.262 70.1926C116.41 70.3058 116.526 70.4552 116.6 70.6263C116.6 70.8513 116.825 71.1138 116.975 71.3763V72.6888C116.837 73.0902 116.62 73.4599 116.337 73.7763C114.5 75.4263 112.588 77.0388 110.638 78.5763C105.965 82.2406 100.941 85.4313 95.6375 88.1013C91.8333 90.0117 87.8834 91.6167 83.825 92.9013C78.3512 94.5779 72.7005 95.6099 66.9875 95.9763C66.5383 95.9389 66.0867 95.9389 65.6375 95.9763H59.375C57.55 95.9763 55.7125 95.8263 53.8625 95.5263C50.2873 95.1013 46.7427 94.45 43.25 93.5763C36.8945 91.9395 30.7244 89.6524 24.8375 86.7513C22.0625 85.3638 19.325 83.8638 16.6625 82.2138C12.8251 79.897 9.15376 77.3157 5.675 74.4888C4.99988 74.0787 4.49426 73.4401 4.25 72.6888V71.5263Z" fill="white"/>
<path d="M62.904 85.8852C56.796 85.9288 50.716 85.0566 44.8665 83.2977C40.1027 81.905 35.5015 80.0067 31.1415 77.6352C27.1674 75.489 23.4012 72.9782 19.8915 70.1352L18.129 68.7102C17.6752 68.2357 17.4219 67.6044 17.4219 66.9477C17.4219 66.2911 17.6752 65.6598 18.129 65.1852C18.2273 65.0796 18.3463 64.9954 18.4785 64.9378C18.6108 64.8802 18.7535 64.8505 18.8978 64.8505C19.042 64.8505 19.1848 64.8802 19.317 64.9378C19.4493 64.9954 19.5683 65.0796 19.6665 65.1852C21.008 66.346 22.41 67.435 23.8665 68.4477C26.4569 70.2933 29.1624 71.9717 31.9665 73.4727C35.3256 75.2969 38.8241 76.8518 42.429 78.1227C46.0787 79.4322 49.8461 80.3867 53.679 80.9727C55.6409 81.2858 57.6192 81.4862 59.604 81.5727C63.0605 81.7414 66.5252 81.5908 69.954 81.1227C75.4974 80.305 80.884 78.6485 85.929 76.2102C89.7723 74.3769 93.4165 72.1527 96.804 69.5727C98.6415 68.2227 100.554 66.7602 102.092 65.2227C102.19 65.0979 102.315 64.997 102.458 64.9277C102.601 64.8583 102.758 64.8223 102.917 64.8223C103.075 64.8223 103.232 64.8583 103.375 64.9277C103.518 64.997 103.643 65.0979 103.742 65.2227C104.123 65.7202 104.314 66.3378 104.279 66.9637C104.245 67.5896 103.988 68.1825 103.554 68.6352C101.46 70.5228 99.2698 72.3002 96.9915 73.9602C93.7685 76.2996 90.3423 78.3452 86.754 80.0727C82.6519 82.0668 78.3368 83.5891 73.8915 84.6102C71.6633 85.0881 69.4096 85.4387 67.1415 85.6602C65.4915 85.8102 63.804 85.8852 62.904 85.8852Z" fill="white"/>
<path d="M61.9641 75.8022C57.568 75.7784 53.1981 75.1217 48.9891 73.8522C43.6535 72.1909 38.5972 69.7386 33.9891 66.5772C32.6766 65.6772 31.4016 64.7022 30.2391 63.6897C29.7831 63.2387 29.5024 62.6401 29.4474 62.0011C29.3925 61.3621 29.5668 60.7244 29.9391 60.2022C30.0269 60.0707 30.1424 59.96 30.2773 59.8777C30.4123 59.7954 30.5636 59.7436 30.7206 59.7257C30.8777 59.7079 31.0368 59.7245 31.1868 59.7744C31.3368 59.8243 31.4741 59.9063 31.5891 60.0147C33.5912 61.7323 35.7365 63.2754 38.0016 64.6272C42.2735 67.2316 46.913 69.1784 51.7641 70.4022C54.0755 70.9957 56.4346 71.3847 58.8141 71.5647C60.6184 71.7771 62.4371 71.8398 64.2516 71.7522C68.4127 71.491 72.4976 70.5142 76.3266 68.8647C80.6345 66.9807 84.6303 64.4517 88.1766 61.3647C88.6266 60.9522 89.0766 60.5397 89.5641 60.1647C89.6695 60.0319 89.8035 59.9247 89.9561 59.851C90.1086 59.7773 90.2759 59.739 90.4454 59.739C90.6149 59.739 90.7821 59.7773 90.9347 59.851C91.0873 59.9247 91.2213 60.0319 91.3266 60.1647C91.6598 60.6735 91.8115 61.2799 91.757 61.8856C91.7026 62.4913 91.4452 63.061 91.0266 63.5022C89.0936 65.2036 87.0653 66.7936 84.9516 68.2647C81.3712 70.6958 77.4549 72.5908 73.3266 73.8897C70.812 74.6763 68.2235 75.204 65.6016 75.4647C64.2516 75.7272 62.9766 75.7272 61.9641 75.8022Z" fill="white"/>
<path d="M68.0045 37.0653C68.0319 37.9584 67.892 38.8487 67.592 39.6903C67.3949 40.3238 67.0093 40.8821 66.4867 41.2908C65.9641 41.6995 65.3293 41.9392 64.667 41.9778C63.955 42.1016 63.222 41.9798 62.5884 41.6323C61.9547 41.2848 61.4579 40.7323 61.1795 40.0653C60.7806 39.188 60.5742 38.2354 60.5742 37.2716C60.5742 36.3078 60.7806 35.3552 61.1795 34.4778C61.3764 33.9167 61.7336 33.4258 62.2069 33.0658C62.6802 32.7058 63.2487 32.4927 63.842 32.4528C64.6137 32.3126 65.4102 32.4455 66.0945 32.8287C66.7788 33.212 67.3083 33.8216 67.592 34.5528C67.8038 35.0686 67.9426 35.6113 68.0045 36.1653C68.0045 36.5403 68.0045 36.8778 68.0045 37.0653Z" fill="white"/>
</g>
<defs>
<clipPath id="clip0_5953_4515">
<rect width="120" height="120" fill="white" transform="translate(0.5 0.5)"/>
</clipPath>
</defs>
</svg>
