<svg width="121" height="121" viewBox="0 0 121 121" fill="none" xmlns="http://www.w3.org/2000/svg">
<path d="M27.9989 61.4293L92.2152 61.4293C94.4226 61.4293 96.3116 62.2146 97.8822 63.7853C99.4529 65.3559 100.24 67.2462 100.242 69.4564L100.242 93.5374C100.242 95.7449 99.4555 97.6339 97.8822 99.2045C96.3089 100.775 94.4199 101.562 92.2152 101.564L27.9989 101.564C25.7915 101.564 23.9011 100.778 22.3278 99.2045C20.7546 97.6312 19.9692 95.7422 19.9719 93.5374L19.9719 69.4563C19.9719 67.2489 20.7572 65.3585 22.3279 63.7853C23.8985 62.212 25.7888 61.4266 27.9989 61.4293ZM64.1206 33.3347L64.1206 49.3888C64.1206 50.5259 63.7353 51.4785 62.9647 52.2464C62.1941 53.0143 61.2415 53.3996 60.1071 53.4023C58.9726 53.405 58.0187 53.0197 57.2454 52.2464C56.4721 51.4731 56.0882 50.5206 56.0935 49.3888L56.0935 33.3347C56.0935 32.1976 56.4788 31.2437 57.2494 30.4731C58.02 29.7025 58.9726 29.3185 60.1071 29.3212C61.2415 29.3239 62.1941 29.7092 62.9647 30.4771C63.7353 31.245 64.1206 32.1976 64.1206 33.3347ZM84.1881 69.4564L84.1881 77.4834C84.1881 79.6908 83.4015 81.5798 81.8282 83.1505C80.2549 84.7211 78.3659 85.5077 76.1611 85.5104L44.053 85.5104C41.8456 85.5104 39.9552 84.7237 38.3819 83.1505C36.8086 81.5772 36.0233 79.6881 36.026 77.4834L36.026 69.4563L44.053 69.4563L44.053 77.4834L76.1611 77.4834L76.1611 69.4564L84.1881 69.4564ZM92.2152 69.4564L27.9989 69.4563L27.9989 93.5374L92.2152 93.5374L92.2152 69.4564ZM92.2152 33.3347C93.3523 33.3347 94.3049 33.72 95.0728 34.4906C95.8407 35.2612 96.226 36.2138 96.2287 37.3483C96.2314 38.4827 95.8461 39.4353 95.0728 40.2059C94.2995 40.9765 93.347 41.3618 92.2152 41.3618C90.6098 41.3618 89.0712 41.6628 87.5996 42.2648C86.128 42.8668 84.8236 43.7364 83.6864 44.8736C83.0175 45.5425 82.4489 46.2609 81.9807 47.0288C81.5125 47.7968 81.1111 48.6503 80.7767 49.5895C80.4422 50.6597 79.8736 51.5628 79.0709 52.2986C78.2682 53.0344 77.2983 53.4023 76.1611 53.4023C75.1577 53.4023 74.2881 53.0678 73.5523 52.3989C72.8165 51.73 72.4486 50.9607 72.4486 50.0912C72.4486 48.352 73.0841 46.4121 74.355 44.2716C75.626 42.131 76.8635 40.4587 78.0675 39.2547C79.9405 37.3817 82.0971 35.9261 84.5373 34.888C86.9775 33.8498 89.5368 33.3321 92.2152 33.3347ZM28.3 33.3347C27.1628 33.3347 26.2089 33.72 25.4383 34.4906C24.6677 35.2612 24.2838 36.2138 24.2865 37.3482C24.2891 38.4827 24.6744 39.4353 25.4423 40.2059C26.2103 40.9765 27.1628 41.3618 28.3 41.3618C29.9054 41.3618 31.4439 41.6628 32.9155 42.2648C34.3871 42.8668 35.6915 43.7364 36.8287 44.8736C37.4976 45.5425 38.0662 46.2609 38.5344 47.0288C39.0027 47.7968 39.404 48.6503 39.7385 49.5895C40.0729 50.6597 40.6415 51.5628 41.4442 52.2986C42.2469 53.0344 43.2169 53.4023 44.354 53.4023C45.3574 53.4023 46.227 53.0678 46.9628 52.3989C47.6986 51.73 48.0665 50.9607 48.0665 50.0912C48.0665 48.352 47.431 46.4121 46.1601 44.2716C44.8891 42.131 43.6517 40.4587 42.4476 39.2547C40.5746 37.3817 38.4167 35.9261 35.9738 34.888C33.5309 33.8498 30.973 33.3321 28.3 33.3347Z" fill="white"/>
</svg>
