<svg width="121" height="120" viewBox="0 0 121 120" fill="none" xmlns="http://www.w3.org/2000/svg">
<g clip-path="url(#clip0_5951_4149)">
<path d="M53.0194 43.6934C53.0194 42.7934 53.0194 41.9684 53.0194 41.1434C53.0194 41.1434 53.0194 40.8809 52.7194 40.8059L51.2944 40.1684C50.7714 39.9471 50.3252 39.5765 50.0117 39.1029C49.6982 38.6293 49.5313 38.0738 49.5319 37.5059C49.4371 36.4205 49.4371 35.3288 49.5319 34.2434C49.6108 33.6024 49.9138 33.01 50.3873 32.5708C50.8608 32.1316 51.4743 31.8739 52.1194 31.8434H53.5069H66.0319C66.6682 31.788 67.3081 31.788 67.9444 31.8434C68.4967 31.9137 69.01 32.1655 69.4037 32.5592C69.7973 32.9528 70.0491 33.4661 70.1194 34.0184C70.2752 35.1488 70.3379 36.2902 70.3069 37.4309C70.2879 37.898 70.1461 38.3519 69.896 38.7469C69.6458 39.1418 69.2961 39.464 68.8819 39.6809C68.5617 39.9099 68.2073 40.0871 67.8319 40.2059C66.2944 40.7684 66.6319 40.5059 66.5944 42.0059V43.3184H76.8319C77.1522 41.2527 77.8925 39.2745 79.0069 37.5059C79.688 36.1605 80.0109 34.6624 79.9444 33.1559V32.4059H77.2069C76.5504 32.3761 75.9088 32.2005 75.3287 31.8917C74.7486 31.583 74.2445 31.1489 73.8531 30.6211C73.4617 30.0932 73.1928 29.4848 73.0659 28.84C72.9389 28.1952 72.9573 27.5302 73.1194 26.8934C73.3885 25.9225 73.968 25.0664 74.7694 24.4559C75.5777 23.7882 76.155 22.8829 76.4194 21.8684C76.5855 20.8482 77.1286 19.9276 77.9411 19.2887C78.7536 18.6498 79.7764 18.3392 80.8069 18.4184H87.7444C88.7206 18.35 89.6888 18.6341 90.4733 19.219C91.2578 19.8039 91.8064 20.6508 92.0194 21.6059C92.3826 22.7672 93.0417 23.814 93.9319 24.6434C94.6484 25.1968 95.1726 25.9617 95.4301 26.8296C95.6877 27.6976 95.6655 28.6246 95.3668 29.4792C95.0681 30.3339 94.508 31.0729 93.7658 31.5914C93.0237 32.11 92.1372 32.3818 91.2319 32.3684C90.3319 32.3684 89.3944 32.3684 88.4194 32.3684C88.2653 34.021 88.5771 35.6838 89.3194 37.1684C90.6527 39.5634 91.3377 42.265 91.3069 45.0059C91.3069 47.1809 91.3069 49.3934 91.3069 51.6059V52.5059H94.0069V51.3809C93.9169 50.0942 94.1489 48.8054 94.6819 47.6309C95.2223 46.5576 96.1075 45.697 97.1955 45.187C98.2835 44.677 99.5113 44.5472 100.682 44.8184C101.883 45.0617 102.962 45.7145 103.735 46.6652C104.508 47.616 104.926 48.8056 104.919 50.0309C104.919 54.9059 104.919 59.7809 104.919 64.6559C104.919 67.8809 104.919 71.1434 104.919 74.4059C104.818 75.7194 104.243 76.9513 103.302 77.8728C102.36 78.7943 101.116 79.3426 99.8008 79.416C98.4854 79.4893 97.1882 79.0826 96.1501 78.2715C95.1121 77.4603 94.4038 76.2999 94.1569 75.0059C94.0999 74.0192 94.0999 73.0301 94.1569 72.0434V71.6309H91.4944C91.4944 71.9684 91.4944 72.2684 91.4944 72.5684C91.4944 74.3684 91.4944 76.3184 91.4944 77.9684C91.5509 78.8808 91.3698 79.7923 90.9689 80.6138C90.568 81.4354 89.9609 82.139 89.2069 82.6559C88.5423 83.1202 88.0744 83.8154 87.8944 84.6059C87.6694 85.3559 87.4444 86.0684 87.2194 86.8934C87.5567 86.8746 87.8947 86.8746 88.2319 86.8934C89.8049 86.7805 91.384 86.7805 92.9569 86.8934C93.6621 86.9763 94.3436 87.1995 94.9613 87.5497C95.579 87.8999 96.1204 88.3702 96.5536 88.9327C96.9869 89.4952 97.3033 90.1388 97.4842 90.8254C97.6651 91.512 97.7068 92.2279 97.6069 92.9309C97.4208 94.299 96.728 95.5475 95.6656 96.4294C94.6032 97.3113 93.2485 97.7624 91.8694 97.6934H31.8694C30.1811 97.857 28.4785 97.7939 26.8069 97.5059C25.5654 97.227 24.4715 96.4974 23.7372 95.4582C23.0028 94.419 22.6803 93.1443 22.8319 91.8809C22.9706 90.6174 23.5506 89.4432 24.4697 88.5652C25.3889 87.6872 26.5884 87.1616 27.8569 87.0809C29.3194 87.0809 30.7819 87.0809 32.2444 87.0809C32.6944 87.0809 32.8444 87.0809 32.8069 86.5184C32.7694 85.9559 32.8069 84.6059 32.8069 83.6684C32.7889 83.2915 32.6576 82.9288 32.4301 82.6277C32.2026 82.3266 31.8896 82.1012 31.5319 81.9809C29.8337 81.4015 28.3033 80.4149 27.0743 79.1075C25.8454 77.8001 24.9553 76.2117 24.4819 74.4809C24.444 74.3164 24.3607 74.1659 24.2413 74.0465C24.1219 73.9272 23.9714 73.8438 23.8069 73.8059C23.0409 73.6068 22.2892 73.3562 21.5569 73.0559C20.8171 72.8149 20.1706 72.3497 19.707 71.7248C19.2434 71.0999 18.9856 70.3463 18.9694 69.5684C18.9321 68.8439 18.9321 68.1179 18.9694 67.3934C18.9694 63.1559 18.9694 58.9184 18.9694 54.7184C18.8701 53.5921 19.202 52.4701 19.8981 51.5791C20.5942 50.6881 21.6026 50.0946 22.7194 49.9184C23.2534 49.7848 23.7471 49.5241 24.1585 49.1584C24.5699 48.7928 24.8867 48.333 25.0819 47.8184C25.6027 46.5221 26.3743 45.3413 27.3524 44.3438C28.3306 43.3464 29.496 42.5519 30.7819 42.0059C32.7107 41.1768 34.8587 41.0055 36.8944 41.5184C38.1802 42.0122 39.4328 42.5883 40.6444 43.2434C41.0734 43.4754 41.5459 43.6159 42.0319 43.6559H52.8694L53.0194 43.6934ZM76.7944 76.8809V46.8809H67.6819C67.3711 46.8891 67.0688 46.9849 66.8101 47.1574C66.5513 47.3299 66.3466 47.5721 66.2194 47.8559C65.9209 48.4387 65.4626 48.9245 64.8981 49.2565C64.3337 49.5886 63.6864 49.7531 63.0319 49.7309H60.4819C59.1319 49.7309 57.8194 49.7309 56.4694 49.7309C55.8285 49.7352 55.2008 49.5485 54.6664 49.1945C54.1321 48.8405 53.7154 48.3353 53.4694 47.7434C53.3642 47.4678 53.1715 47.2342 52.921 47.0784C52.6704 46.9227 52.3757 46.8533 52.0819 46.8809H41.3569V76.8809H76.7944ZM79.8694 61.8809V76.8809C79.8762 77.5226 79.9389 78.1626 80.0569 78.7934C80.0653 79.1858 80.2199 79.561 80.4904 79.8454C80.7609 80.1298 81.1279 80.3029 81.5194 80.3309C83.3944 80.3309 85.2694 80.3309 87.0694 80.3309C87.8194 80.3309 88.1944 79.8059 88.3069 78.9809C88.4194 78.1559 88.3069 78.0434 88.3069 77.5559V64.3559C88.3069 59.7434 88.3069 55.1309 88.3069 50.5184V46.7684C88.4356 43.7123 87.6944 40.6825 86.1694 38.0309C85.9069 37.5809 85.6444 37.0934 85.4194 36.6059C85.1338 36.0969 84.9564 35.5344 84.8983 34.9536C84.8402 34.3729 84.9027 33.7864 85.0819 33.2309C85.0819 32.8559 85.0819 32.5184 84.8194 32.3684C84.5933 32.256 84.3333 32.2321 84.0905 32.3015C83.8477 32.3708 83.6395 32.5285 83.5069 32.7434C83.1694 33.6809 82.8319 34.6184 82.5319 35.5934C81.7069 38.2559 80.8819 40.9184 80.1319 43.6184C79.7571 45.6708 79.6437 47.7625 79.7944 49.8434C79.8319 53.8934 79.8694 57.8309 79.8694 61.7684V61.8809ZM60.1444 90.0059H30.4069C30.0831 90.0441 29.7558 90.0441 29.4319 90.0059C28.7779 89.9247 28.115 90.0558 27.5412 90.3799C26.9673 90.704 26.5127 91.2039 26.2444 91.8059C26.161 91.9817 26.1178 92.1738 26.1178 92.3684C26.1178 92.563 26.161 92.7551 26.2444 92.9309C26.4997 93.6075 26.9749 94.1787 27.5937 94.5527C28.2126 94.9268 28.9392 95.082 29.6569 94.9934H89.6569C90.1444 94.9934 90.6319 94.9934 91.1194 94.9934C91.6069 94.9934 92.0569 94.9934 92.3569 94.9934C92.9968 94.5301 93.5873 94.0023 94.1194 93.4184C94.3013 93.2183 94.402 92.9576 94.402 92.6871C94.402 92.4167 94.3013 92.156 94.1194 91.9559C93.7444 91.5059 93.2944 91.0559 92.8819 90.6434C92.6945 90.4499 92.4652 90.302 92.2117 90.211C91.9581 90.12 91.6871 90.0883 91.4194 90.1184H60.1444V90.0059ZM84.4444 86.8559V84.2684C84.4444 83.5184 84.4444 83.4434 83.5444 83.4059C82.6444 83.3684 82.0069 83.4059 81.2569 83.4059C80.4755 83.3545 79.7204 83.1034 79.0638 82.6766C78.4072 82.2499 77.8711 81.6617 77.5069 80.9684C77.4051 80.7607 77.2516 80.5826 77.0612 80.4513C76.8708 80.32 76.6498 80.2398 76.4194 80.2184C76.0948 80.1979 75.7691 80.1979 75.4444 80.2184H42.4444C41.7649 80.2236 41.0965 80.3907 40.4944 80.7059C39.0319 81.4559 37.6444 82.3184 36.2569 83.1434C36.2569 83.1434 35.9569 83.3309 35.9569 83.4434V87.0059L84.4444 86.8559ZM31.5694 45.2309C30.3859 45.6317 29.3359 46.3515 28.5353 47.3109C27.7347 48.2704 27.2144 49.4322 27.0319 50.6684C27.0319 52.5809 27.0319 54.4184 27.0319 56.4059C27.0319 61.3934 27.0319 66.3434 27.0319 71.4059C26.9951 72.5479 27.2036 73.6844 27.6435 74.7389C28.0834 75.7934 28.7444 76.7412 29.5819 77.5184C31.2835 78.9835 33.4911 79.7238 35.7319 79.5809C37.5694 79.5809 38.3194 78.8309 38.3569 77.0309V76.5059C38.3569 73.7684 38.3569 71.0684 38.3569 68.3309V47.0684C38.4122 46.5448 38.4122 46.0169 38.3569 45.4934C38.343 45.3222 38.2947 45.1556 38.2148 45.0035C38.1349 44.8515 38.0252 44.7172 37.8921 44.6086C37.759 44.5 37.6053 44.4195 37.4403 44.3717C37.2754 44.324 37.1024 44.3101 36.9319 44.3309C36.4444 44.3309 35.9944 44.3309 35.5069 44.3309C35.0194 44.3309 34.7944 44.6309 34.7944 45.2309V70.7309C34.8318 71.105 34.8318 71.4818 34.7944 71.8559C34.7427 72.1558 34.6108 72.4361 34.4128 72.6671C34.2147 72.8982 33.9579 73.0714 33.6694 73.1684C33.4208 73.2156 33.1636 73.183 32.9346 73.0752C32.7056 72.9675 32.5165 72.7901 32.3944 72.5684C32.1298 72.2139 31.9502 71.8033 31.8694 71.3684C31.832 70.9567 31.832 70.5425 31.8694 70.1309V45.2309H31.5694ZM97.0069 62.0684V72.1559C97.0069 72.9809 97.0069 73.8059 97.0069 74.6309C97.0265 75.1713 97.2576 75.6825 97.6504 76.0542C98.0431 76.426 98.5662 76.6286 99.1069 76.6184C99.3989 76.6834 99.7013 76.6864 99.9945 76.6272C100.288 76.568 100.565 76.4479 100.809 76.2747C101.053 76.1016 101.258 75.8791 101.41 75.6218C101.563 75.3645 101.66 75.078 101.694 74.7809C101.752 74.383 101.752 73.9788 101.694 73.5809V50.5559C101.68 50.009 101.592 49.4665 101.432 48.9434C101.286 48.4783 100.98 48.0799 100.568 47.819C100.156 47.5582 99.6649 47.4517 99.1819 47.5184C98.7049 47.4648 98.2243 47.5824 97.8259 47.8503C97.4275 48.1182 97.1373 48.5189 97.0069 48.9809C96.8402 49.6425 96.7645 50.3238 96.7819 51.0059C97.0069 54.6809 97.0069 58.3934 97.0069 62.0684ZM92.3194 27.9434C92.023 27.4364 91.5843 27.0276 91.0576 26.7676C90.531 26.5076 89.9397 26.4079 89.3569 26.4809C85.8319 26.4809 82.3069 26.4809 78.7819 26.4809C78.2211 26.4771 77.6686 26.6162 77.1765 26.8852C76.6844 27.1542 76.269 27.5442 75.9694 28.0184C77.2819 29.2559 77.3569 29.3309 79.0444 29.3309C82.4194 29.3309 85.7944 29.3309 89.1694 29.3309C89.7671 29.3679 90.365 29.2613 90.913 29.0199C91.4611 28.7785 91.9433 28.4094 92.3194 27.9434ZM63.4069 40.7309H56.4319V46.4309H63.4069V40.7309ZM67.1569 34.9184H52.6444V37.5059H67.1944L67.1569 34.9184ZM23.2819 70.9934C23.3944 70.98 23.503 70.9435 23.6008 70.8864C23.6986 70.8292 23.7835 70.7524 23.8504 70.661C23.9172 70.5695 23.9645 70.4652 23.9893 70.3547C24.0141 70.2441 24.0158 70.1297 23.9944 70.0184C23.9944 64.5809 23.9944 59.1809 23.9944 53.7434C24.019 53.5169 23.9602 53.2891 23.8291 53.1028C23.698 52.9165 23.5035 52.7843 23.2819 52.7309C22.9069 53.1809 22.4944 53.6309 22.1569 54.1184C21.9639 54.3931 21.8592 54.7201 21.8569 55.0559C21.8569 56.6559 21.8569 58.2684 21.8569 59.8934V68.6309C21.8674 69.0233 21.9983 69.403 22.2319 69.7184C22.5319 70.1684 22.9069 70.5809 23.2819 70.9934ZM91.5319 68.4434H93.8569V55.7309H91.5319V68.4434ZM89.2069 22.7309C89.0345 22.592 88.8716 22.4417 88.7194 22.2809C88.5255 22.0059 88.2741 21.7764 87.9828 21.608C87.6914 21.4397 87.367 21.3366 87.0319 21.3059H80.6569C80.3974 21.2501 80.129 21.2501 79.8694 21.3059C79.6083 21.4625 79.4118 21.7073 79.3155 21.9962C79.2192 22.2851 79.2294 22.5989 79.3444 22.8809C79.3444 23.4809 79.9444 23.2184 80.2444 23.2184H88.2694C88.458 23.2597 88.6552 23.2335 88.8265 23.1444C88.9978 23.0553 89.1324 22.909 89.2069 22.7309Z" fill="white" stroke="white" stroke-width="1.5"/>
<path d="M68.743 71.1727C68.3309 71.7613 67.7584 72.2191 67.0936 72.4917C66.4288 72.7642 65.6996 72.8401 64.993 72.7102H52.0555C51.4936 72.7475 50.9298 72.7475 50.368 72.7102C49.9868 72.6255 49.6286 72.4592 49.318 72.2227C48.937 71.8924 48.5739 71.5419 48.2305 71.1727C48.5589 70.766 48.9688 70.4324 49.4338 70.1935C49.8988 69.9545 50.4086 69.8155 50.9305 69.7852C54.4555 69.7852 57.943 69.7852 61.468 69.7852C63.193 69.7852 64.918 69.7852 66.643 69.7852C66.9698 69.8058 67.2831 69.9233 67.543 70.1227C67.993 70.4227 68.368 70.8352 68.743 71.1727Z" fill="white"/>
<path d="M68.8148 63.6715L68.5148 63.934C68.1369 64.4132 67.641 64.7861 67.0757 65.0162C66.5104 65.2463 65.895 65.3256 65.2898 65.2465C62.5148 65.2465 59.7773 65.2465 57.0023 65.2465H50.3648C50.0522 65.2438 49.7492 65.1384 49.5023 64.9465L48.1523 63.934C48.5264 63.53 48.9411 63.1656 49.3898 62.8465C49.7407 62.5888 50.156 62.4331 50.5898 62.3965H56.8898H63.9398C64.8773 62.3965 65.7773 62.3965 66.7148 62.3965C67.0517 62.4488 67.3723 62.5771 67.6523 62.7715C68.0568 63.0489 68.445 63.3494 68.8148 63.6715Z" fill="white"/>
<path d="M48.1523 55.079C49.3898 53.5415 51.0773 53.6915 52.7648 53.6915H64.0148C64.8023 53.6915 65.5898 53.6915 66.3773 53.6915C66.7377 53.7428 67.083 53.8707 67.3898 54.0665C67.8023 54.3665 68.1773 54.7415 68.5898 55.079C68.2195 55.5402 67.7518 55.9138 67.2202 56.1732C66.6886 56.4325 66.1063 56.5711 65.5148 56.579C62.5523 56.579 59.5898 56.579 56.6273 56.579C54.7148 56.579 52.8773 56.579 50.8523 56.579C50.4628 56.5804 50.0768 56.5049 49.7164 56.3569C49.3561 56.2089 49.0285 55.9913 48.7523 55.7165L48.1523 55.079Z" fill="white"/>
<path d="M86.4376 72.0027C85.9501 72.4152 85.5001 72.7902 85.0876 73.2027C85.004 73.2866 84.9047 73.3532 84.7953 73.3986C84.6859 73.444 84.5686 73.4674 84.4501 73.4674C84.3317 73.4674 84.2144 73.444 84.105 73.3986C83.9956 73.3532 83.8962 73.2866 83.8126 73.2027L83.5501 72.9777C83.3315 72.8551 83.1553 72.6689 83.0447 72.4439C82.9342 72.219 82.8946 71.9657 82.9312 71.7177C82.9678 71.4697 83.0788 71.2387 83.2496 71.0552C83.4204 70.8717 83.6429 70.7444 83.8876 70.6902C84.0225 70.6267 84.1698 70.5938 84.3189 70.5938C84.468 70.5937 84.6152 70.6267 84.7501 70.6902C85.3501 71.2527 85.8751 71.5902 86.4376 72.0027Z" fill="white"/>
<path d="M84.1115 53.6277C83.7365 52.9902 83.3615 52.4277 83.0615 51.8652C82.986 51.7641 82.9326 51.6481 82.9049 51.525C82.8771 51.4019 82.8755 51.2743 82.9003 51.1505C82.925 51.0267 82.9756 50.9095 83.0486 50.8065C83.1216 50.7036 83.2154 50.6171 83.324 50.5527L84.149 49.9902C86.099 51.9027 85.6115 51.7527 84.149 53.2527L84.1115 53.6277Z" fill="white"/>
<path d="M84.3683 63.7543L83.2808 62.4418C83.1434 62.3016 83.0664 62.1131 83.0664 61.9168C83.0664 61.7205 83.1434 61.532 83.2808 61.3918C83.6183 60.9793 84.0308 60.6043 84.4058 60.1543C84.8558 60.5668 85.2683 60.9043 85.6058 61.2793C85.6796 61.3494 85.7383 61.4337 85.7784 61.5272C85.8185 61.6207 85.8392 61.7213 85.8392 61.823C85.8392 61.9248 85.8185 62.0254 85.7784 62.1189C85.7383 62.2124 85.6796 62.2967 85.6058 62.3668L84.3683 63.7543Z" fill="white"/>
</g>
<defs>
<clipPath id="clip0_5951_4149">
<rect width="120" height="120" fill="white" transform="translate(0.777344)"/>
</clipPath>
</defs>
</svg>
