<svg width="120" height="120" viewBox="0 0 120 120" fill="none" xmlns="http://www.w3.org/2000/svg">
<path d="M23.6364 77.4855C15.356 71.1525 10 61.0695 10 49.7127C10 30.5415 25.263 15 44.091 15C59.8335 15 73.084 25.8655 77.0038 40.6332C80.0883 39.0397 83.5775 38.1417 87.2727 38.1417C99.8247 38.1417 110 48.5028 110 61.2838C110 70.7735 104.391 78.929 96.3638 82.5" stroke="white" stroke-width="10" stroke-linecap="round" stroke-linejoin="round"/>
<path d="M55.6065 39.3935C52.8922 36.679 49.1423 35 45 35C36.7158 35 30 41.7158 30 50C30 54.1423 31.679 57.8922 34.3935 60.6065" stroke="white" stroke-width="10" stroke-linecap="round" stroke-linejoin="round"/>
<path d="M50 85H70" stroke="white" stroke-width="10" stroke-linecap="round" stroke-linejoin="round"/>
<path d="M25 105H50" stroke="white" stroke-width="10" stroke-linecap="round" stroke-linejoin="round"/>
<path d="M70 105H95" stroke="white" stroke-width="10" stroke-linecap="round" stroke-linejoin="round"/>
<path d="M65 65H85" stroke="white" stroke-width="10" stroke-linecap="round" stroke-linejoin="round"/>
</svg>
