<svg width="120" height="120" viewBox="0 0 120 120" fill="none" xmlns="http://www.w3.org/2000/svg">
<path d="M109.3 62.5C105.689 58.237 100.56 55.5471 95 55C95 45.25 91.6 37 84.8 30.2C78 23.4 69.75 20 60 20C52.1 20 45 22.35 38.75 27.15C32.5 31.95 28.35 38.1 26.25 45.75C20 47.15 14.8 50.4 10.85 55.5C6.9 60.6 5 66.4 5 72.9C5 80.45 7.7 86.9 13.05 92.15C18.45 97.5 25 100 32.5 100H92.5C98.75 100 104.05 97.8 108.45 93.45C112.8 89.05 115 83.75 115 77.5C115 71.75 113.1 66.75 109.3 62.5ZM101.35 86.35C98.95 88.8 96 90 92.5 90H32.5C27.65 90 23.55 88.3 20.15 85C16.7 81.45 15 77.35 15 72.5C15 67.65 16.7 63.55 20.15 60.15C23.55 56.7 27.65 55 32.5 55H35C35 48.1 37.5 42.2 42.3 37.3C47.2 32.5 53.1 30 60 30C66.9 30 72.8 32.5 77.7 37.3C82.5 42.2 85 48.1 85 55V65H92.5C96 65 98.95 66.2 101.35 68.65C103.75 71.1 105 74 105 77.5C105 81 103.8 83.95 101.35 86.35ZM40.15 52.25C40.15 48.35 43.35 45.15 47.25 45.15C51.15 45.15 54.35 48.35 54.35 52.25C54.35 56.15 51.15 59.35 47.25 59.35C43.35 59.35 40.15 56.15 40.15 52.25ZM79.85 77.75C79.85 81.65 76.65 84.85 72.75 84.85C68.85 84.85 65.65 81.65 65.65 77.75C65.65 73.85 68.85 70.65 72.75 70.65C76.65 70.65 79.85 73.85 79.85 77.75ZM74 45L80 51L46 85L40 79L74 45Z" fill="white"/>
</svg>
