<svg width="120" height="120" viewBox="0 0 120 120" fill="none" xmlns="http://www.w3.org/2000/svg">
<g opacity="0.962">
<path fill-rule="evenodd" clip-rule="evenodd" d="M55.6649 22.3815C70.097 21.3389 81.6986 26.4951 90.4696 37.8503C91.993 39.9653 93.2821 42.231 94.3368 44.6472C96.5971 44.8811 98.8626 44.9594 101.134 44.8815C101.095 43.9408 101.134 43.0033 101.251 42.069C101.368 41.6394 101.642 41.3659 102.071 41.2487C106.623 41.0202 111.155 41.0985 115.665 41.4831C115.812 41.6589 115.929 41.8544 116.016 42.069C116.056 48.0065 116.095 53.9441 116.134 59.8815C116.171 65.9952 116.053 72.089 115.782 78.1628C115.606 78.3095 115.411 78.4267 115.196 78.5144C110.821 78.6707 106.446 78.6707 102.071 78.5144C101.642 78.3972 101.368 78.1237 101.251 77.694C101.134 76.7598 101.095 75.8223 101.134 74.8815C98.8626 74.8037 96.5971 74.882 94.3368 75.1159C87.359 89.4259 75.8746 96.8476 59.8836 97.3815C43.8927 96.8476 32.4083 89.4259 25.4305 75.1159C23.1703 74.882 20.9046 74.8037 18.6336 74.8815C18.6724 75.8223 18.6334 76.7598 18.5165 77.694C18.3993 78.1237 18.1258 78.3972 17.6961 78.5144C13.1438 78.7429 8.61257 78.6646 4.10239 78.28C3.95572 78.1042 3.83854 77.9087 3.75083 77.694C3.71176 71.7566 3.67271 65.819 3.63364 59.8815C3.59654 53.7679 3.71373 47.6741 3.98521 41.6003C4.16108 41.4536 4.35641 41.3364 4.57114 41.2487C8.94615 41.0924 13.3211 41.0924 17.6961 41.2487C18.1258 41.3659 18.3993 41.6394 18.5165 42.069C18.6334 43.0033 18.6724 43.9408 18.6336 44.8815C20.9046 44.9594 23.1703 44.8811 25.4305 44.6472C31.5927 31.9244 41.6708 24.5026 55.6649 22.3815ZM59.1805 26.1315C73.2517 26.62 83.6031 33.0261 90.2352 45.3503C95.7955 58.5367 94.1549 70.7242 85.3133 81.9128C76.5475 91.3452 65.8051 94.978 53.0868 92.8112C41.2159 89.98 32.9736 82.9096 28.3602 71.6003C23.6608 56.4526 27.2936 43.6792 39.2586 33.28C45.1804 28.8714 51.8211 26.4885 59.1805 26.1315ZM7.38364 44.8815C9.88365 44.8815 12.3836 44.8815 14.8836 44.8815C14.8836 54.8816 14.8836 64.8815 14.8836 74.8815C12.3836 74.8815 9.88365 74.8815 7.38364 74.8815C7.38364 64.8815 7.38364 54.8816 7.38364 44.8815ZM104.884 44.8815C107.384 44.8815 109.884 44.8815 112.384 44.8815C112.384 54.8816 112.384 64.8815 112.384 74.8815C109.884 74.8815 107.384 74.8815 104.884 74.8815C104.884 64.8815 104.884 54.8816 104.884 44.8815ZM18.6336 48.6315C20.4322 48.5926 22.2291 48.6315 24.0243 48.7487C22.8118 52.3529 22.2649 56.0638 22.3836 59.8815C22.2649 63.6993 22.8118 67.4101 24.0243 71.0144C22.2291 71.1315 20.4322 71.1704 18.6336 71.1315C18.6336 63.6315 18.6336 56.1315 18.6336 48.6315ZM95.743 48.8659C97.4966 48.6334 99.2933 48.5554 101.134 48.6315C101.134 56.1315 101.134 63.6315 101.134 71.1315C99.3351 71.1704 97.5381 71.1315 95.743 71.0144C96.9554 67.4101 97.5022 63.6993 97.3837 59.8815C97.543 56.0729 96.9962 52.4012 95.743 48.8659Z" fill="white"/>
<path d="M83.9071 49.569C87.7211 59.6711 86.2368 68.8897 79.454 77.2253C70.9234 85.8325 60.9625 88.059 49.5711 83.905C39.569 78.9847 34.2566 70.9379 33.6336 59.7644C34.3267 48.6847 39.639 40.716 49.5711 35.8581M44.8836 50.5065C44.8836 51.7565 44.8836 53.0066 44.8836 54.2565C54.8837 54.2565 64.8836 54.2565 74.8836 54.2565M68.5555 69.4909C70.7469 69.4593 71.372 70.4359 70.4305 72.4206M55.6649 22.3815C70.097 21.3389 81.6986 26.4951 90.4696 37.8503C91.993 39.9653 93.2821 42.231 94.3368 44.6472C96.5971 44.8811 98.8626 44.9594 101.134 44.8815C101.095 43.9408 101.134 43.0033 101.251 42.069C101.368 41.6394 101.642 41.3659 102.071 41.2487C106.623 41.0202 111.155 41.0985 115.665 41.4831C115.812 41.6589 115.929 41.8544 116.016 42.069C116.056 48.0065 116.095 53.9441 116.134 59.8815C116.171 65.9952 116.053 72.089 115.782 78.1628C115.606 78.3095 115.411 78.4267 115.196 78.5144C110.821 78.6707 106.446 78.6707 102.071 78.5144C101.642 78.3972 101.368 78.1237 101.251 77.694C101.134 76.7598 101.095 75.8223 101.134 74.8815C98.8626 74.8037 96.5971 74.882 94.3368 75.1159C87.359 89.4259 75.8746 96.8476 59.8836 97.3815C43.8927 96.8476 32.4083 89.4259 25.4305 75.1159C23.1703 74.882 20.9046 74.8037 18.6336 74.8815C18.6724 75.8223 18.6334 76.7598 18.5165 77.694C18.3993 78.1237 18.1258 78.3972 17.6961 78.5144C13.1438 78.7429 8.61257 78.6646 4.10239 78.28C3.95572 78.1042 3.83854 77.9087 3.75083 77.694C3.71176 71.7566 3.67271 65.819 3.63364 59.8815C3.59654 53.7679 3.71373 47.6741 3.98521 41.6003C4.16108 41.4536 4.35641 41.3364 4.57114 41.2487C8.94615 41.0924 13.3211 41.0924 17.6961 41.2487C18.1258 41.3659 18.3993 41.6394 18.5165 42.069C18.6334 43.0033 18.6724 43.9408 18.6336 44.8815C20.9046 44.9594 23.1703 44.8811 25.4305 44.6472C31.5927 31.9244 41.6708 24.5026 55.6649 22.3815ZM59.1805 26.1315C73.2517 26.62 83.6031 33.0261 90.2352 45.3503C95.7955 58.5367 94.1549 70.7242 85.3133 81.9128C76.5475 91.3452 65.8051 94.978 53.0868 92.8112C41.2159 89.98 32.9736 82.9096 28.3602 71.6003C23.6608 56.4526 27.2936 43.6792 39.2586 33.28C45.1804 28.8714 51.8211 26.4885 59.1805 26.1315ZM7.38364 44.8815C9.88365 44.8815 12.3836 44.8815 14.8836 44.8815C14.8836 54.8816 14.8836 64.8815 14.8836 74.8815C12.3836 74.8815 9.88365 74.8815 7.38364 74.8815C7.38364 64.8815 7.38364 54.8816 7.38364 44.8815ZM104.884 44.8815C107.384 44.8815 109.884 44.8815 112.384 44.8815C112.384 54.8816 112.384 64.8815 112.384 74.8815C109.884 74.8815 107.384 74.8815 104.884 74.8815C104.884 64.8815 104.884 54.8816 104.884 44.8815ZM18.6336 48.6315C20.4322 48.5926 22.2291 48.6315 24.0243 48.7487C22.8118 52.3529 22.2649 56.0638 22.3836 59.8815C22.2649 63.6993 22.8118 67.4101 24.0243 71.0144C22.2291 71.1315 20.4322 71.1704 18.6336 71.1315C18.6336 63.6315 18.6336 56.1315 18.6336 48.6315ZM95.743 48.8659C97.4966 48.6334 99.2933 48.5554 101.134 48.6315C101.134 56.1315 101.134 63.6315 101.134 71.1315C99.3351 71.1704 97.5381 71.1315 95.743 71.0144C96.9554 67.4101 97.5022 63.6993 97.3836 59.8815C97.543 56.0729 96.9962 52.4012 95.743 48.8659Z" stroke="white"/>
</g>
<path opacity="0.933" fill-rule="evenodd" clip-rule="evenodd" d="M56.1334 29.8828C68.9416 28.8972 78.8242 33.7411 85.7819 44.414C90.0616 51.9511 91.0771 59.9198 88.8287 68.3203C84.7389 80.5354 76.3405 87.6839 63.6334 89.7656C50.2274 90.8561 40.1104 85.6607 33.2819 74.1797C29.6629 66.9028 28.8815 59.3245 30.9381 51.4453C35.0673 39.2275 43.4659 32.04 56.1334 29.8828ZM59.4147 33.6328C56.0486 33.8486 52.7673 34.5907 49.5709 35.8593C39.6388 40.7172 34.3265 48.686 33.6334 59.7656C34.2564 70.9392 39.5687 78.986 49.5709 83.9062C60.9623 88.0603 70.9232 85.8337 79.4537 77.2265C86.2366 68.891 87.7209 59.6723 83.9069 49.5703C78.9051 39.4675 70.7411 34.1552 59.4147 33.6328Z" fill="white"/>
<path fill-rule="evenodd" clip-rule="evenodd" d="M50.5078 39.2578C51.7577 39.2578 53.0079 39.2578 54.2578 39.2578C54.2578 40.5077 54.2578 41.7579 54.2578 43.0078C53.0079 43.0078 51.7577 43.0078 50.5078 43.0078C50.5078 41.7579 50.5078 40.5077 50.5078 39.2578Z" fill="white"/>
<path fill-rule="evenodd" clip-rule="evenodd" d="M58.0078 39.2578C59.2577 39.2578 60.5079 39.2578 61.7578 39.2578C61.7578 40.5077 61.7578 41.7579 61.7578 43.0078C60.5079 43.0078 59.2577 43.0078 58.0078 43.0078C58.0078 41.7579 58.0078 40.5077 58.0078 39.2578Z" fill="white"/>
<path fill-rule="evenodd" clip-rule="evenodd" d="M65.5078 39.2578C66.7577 39.2578 68.0079 39.2578 69.2578 39.2578C69.2578 40.5077 69.2578 41.7579 69.2578 43.0078C68.0079 43.0078 66.7577 43.0078 65.5078 43.0078C65.5078 41.7579 65.5078 40.5077 65.5078 39.2578Z" fill="white"/>
<path opacity="0.996" fill-rule="evenodd" clip-rule="evenodd" d="M42.0704 46.7588C53.9457 46.7197 65.8205 46.7588 77.6954 46.876C78.125 46.9932 78.3985 47.2667 78.5157 47.6963C78.672 50.8212 78.672 53.9464 78.5157 57.0713C78.3985 57.5009 78.125 57.7744 77.6954 57.8916C65.8203 58.048 53.9454 58.048 42.0704 57.8916C41.6408 57.7744 41.3672 57.5009 41.2501 57.0713C41.0937 53.9464 41.0937 50.8212 41.2501 47.6963C41.4118 47.2627 41.6851 46.9501 42.0704 46.7588ZM44.8829 50.5088C44.8829 51.7587 44.8829 53.0089 44.8829 54.2588C54.8829 54.2588 64.8828 54.2588 74.8829 54.2588C74.8829 53.0089 74.8829 51.7587 74.8829 50.5088C64.8828 50.5088 54.8829 50.5088 44.8829 50.5088Z" fill="white"/>
<path fill-rule="evenodd" clip-rule="evenodd" d="M41.1328 61.7578C42.3827 61.7578 43.6329 61.7578 44.8828 61.7578C44.8828 63.0077 44.8828 64.2579 44.8828 65.5078C43.6329 65.5078 42.3827 65.5078 41.1328 65.5078C41.1328 64.2579 41.1328 63.0077 41.1328 61.7578Z" fill="white"/>
<path fill-rule="evenodd" clip-rule="evenodd" d="M48.6328 61.7578C49.8827 61.7578 51.1329 61.7578 52.3828 61.7578C52.3828 63.0077 52.3828 64.2579 52.3828 65.5078C51.1329 65.5078 49.8827 65.5078 48.6328 65.5078C48.6328 64.2579 48.6328 63.0077 48.6328 61.7578Z" fill="white"/>
<path fill-rule="evenodd" clip-rule="evenodd" d="M56.1328 61.7578C57.3827 61.7578 58.6329 61.7578 59.8828 61.7578C59.8828 63.0077 59.8828 64.2579 59.8828 65.5078C58.6329 65.5078 57.3827 65.5078 56.1328 65.5078C56.1328 64.2579 56.1328 63.0077 56.1328 61.7578Z" fill="white"/>
<path opacity="0.945" fill-rule="evenodd" clip-rule="evenodd" d="M67.3826 61.7578C68.6325 61.7578 69.8827 61.7578 71.1326 61.7578C71.0555 63.0952 71.1338 64.4231 71.367 65.7422C74.9691 67.7609 75.8677 70.6514 74.0623 74.4141C70.8591 77.8516 67.6561 77.8516 64.4529 74.4141C62.6475 70.6514 63.5461 67.7609 67.1482 65.7422C67.3814 64.4231 67.4597 63.0952 67.3826 61.7578ZM68.5545 69.4922C68.1692 69.6834 67.8959 69.9961 67.7342 70.4297C67.5286 72.5365 68.427 73.2005 70.4295 72.4219C71.371 70.4372 70.7459 69.4605 68.5545 69.4922Z" fill="white"/>
<path fill-rule="evenodd" clip-rule="evenodd" d="M41.1328 69.2578C42.3827 69.2578 43.6329 69.2578 44.8828 69.2578C44.8828 70.5077 44.8828 71.7579 44.8828 73.0078C43.6329 73.0078 42.3827 73.0078 41.1328 73.0078C41.1328 71.7579 41.1328 70.5077 41.1328 69.2578Z" fill="white"/>
<path fill-rule="evenodd" clip-rule="evenodd" d="M48.6328 69.2578C49.8827 69.2578 51.1329 69.2578 52.3828 69.2578C52.3828 70.5077 52.3828 71.7579 52.3828 73.0078C51.1329 73.0078 49.8827 73.0078 48.6328 73.0078C48.6328 71.7579 48.6328 70.5077 48.6328 69.2578Z" fill="white"/>
<path fill-rule="evenodd" clip-rule="evenodd" d="M56.1328 69.2578C57.3827 69.2578 58.6329 69.2578 59.8828 69.2578C59.8828 70.5077 59.8828 71.7579 59.8828 73.0078C58.6329 73.0078 57.3827 73.0078 56.1328 73.0078C56.1328 71.7579 56.1328 70.5077 56.1328 69.2578Z" fill="white"/>
</svg>
