<svg width="120" height="120" viewBox="0 0 120 120" fill="none" xmlns="http://www.w3.org/2000/svg">
<path opacity="0.937" fill-rule="evenodd" clip-rule="evenodd" d="M38.4801 14.3851C38.7536 15.0895 39.1435 15.7133 39.6497 16.2564C40.3826 17.9093 40.9283 19.6248 41.2871 21.4026C43.1601 21.4415 45.0314 21.4025 46.9012 21.2856C46.5893 16.6853 46.5893 12.0849 46.9012 7.48448C52.5926 7.36752 58.2845 7.32855 63.9772 7.36752C63.9772 12.0459 63.9772 16.7242 63.9772 21.4026C65.8485 21.4026 67.7199 21.4026 69.5912 21.4026C69.6944 20.2736 69.9671 19.182 70.4099 18.1278C70.9056 17.2149 71.3344 16.2793 71.6965 15.3207C72.1753 14.8413 72.5652 14.2955 72.8661 13.6833C74.2838 12.2644 75.7652 10.9388 77.3105 9.7067C85.4389 5.64357 92.7685 6.73519 99.2988 12.9816C103.409 18.1541 104.462 23.924 102.457 30.2915C101.52 32.6365 100.234 34.7418 98.5971 36.6073C97.3475 37.5437 96.1 38.4793 94.8544 39.4143C88.5131 42.4695 82.3533 42.1577 76.3748 38.4786C76.1966 38.0665 75.8845 37.8325 75.4392 37.7769C74.1758 36.5149 73.0062 35.1893 71.9304 33.8003C70.6944 31.8723 69.9147 29.7671 69.5912 27.4845C67.7199 27.4845 65.8485 27.4845 63.9772 27.4845C63.9381 34.7364 63.9772 41.9879 64.0941 49.2389C67.7451 55.6856 71.4488 62.0793 75.2052 68.4201C75.2052 80.0382 75.2052 91.6559 75.2052 103.274C61.9498 103.274 48.6946 103.274 35.4392 103.274C35.4001 91.7338 35.4392 80.1937 35.5561 68.6541C35.955 68.1682 36.2279 67.6225 36.3748 67.0166C36.8633 66.5872 37.1751 66.0414 37.3105 65.3792C37.7989 64.9497 38.1107 64.404 38.2462 63.7418C38.7346 63.3123 39.0464 62.7666 39.1819 62.1044C39.9231 61.0908 40.547 59.9991 41.0532 58.8295C43.0258 55.5497 44.9751 52.2358 46.9012 48.888C46.5893 41.7925 46.5893 34.6969 46.9012 27.6014C45.0249 27.4068 43.1536 27.4459 41.2871 27.7184C40.7477 29.9624 39.8899 32.0676 38.714 34.0342C32.1851 41.972 24.31 43.6094 15.0883 38.9465C13.139 37.4651 11.4236 35.7495 9.94209 33.8003C7.02735 28.6342 6.59849 23.254 8.65554 17.6599C9.42066 16.2052 10.2394 14.8016 11.1117 13.4494C11.9694 12.7476 12.7491 11.9679 13.4509 11.1102C18.9008 7.07208 24.8268 6.25337 31.2286 8.65407C34.0317 10.0943 36.4488 12.0046 38.4801 14.3851ZM33.5678 30.5254C32.944 31.9289 31.9304 32.9425 30.5269 33.5663C29.3765 34.4852 28.0511 35.07 26.5503 35.3207C21.8624 35.9947 18.0808 34.4742 15.2052 30.7593C14.8652 30.1579 14.5923 29.5341 14.3865 28.888C12.4093 23.9663 13.345 19.6389 17.1936 15.9055C22.6478 12.1283 27.8329 12.4792 32.7491 16.9582C35.2616 20.0701 36.0415 23.579 35.0883 27.4845C34.8209 28.6431 34.314 29.6566 33.5678 30.5254ZM52.7491 13.2155C54.5442 13.1765 56.3376 13.2155 58.1292 13.3324C57.8976 20.8262 57.8198 28.2725 57.8953 35.6716C56.2118 35.3628 54.5355 35.3628 52.8661 35.6716C52.7491 28.1867 52.71 20.7013 52.7491 13.2155ZM92.5152 15.3207C95.7903 17.4235 97.4277 20.4645 97.4275 24.4435C97.4389 28.3984 95.8015 31.4393 92.5152 33.5663C89.9921 35.3263 87.1851 35.9111 84.0941 35.3207C82.4024 34.9427 80.921 34.2019 79.6497 33.0985C78.467 32.4616 77.6092 31.5259 77.0766 30.2915C74.6261 26.3783 74.587 22.4017 76.9596 18.3617C80.4347 13.8246 84.9182 12.3821 90.4099 14.0342C91.2048 14.3516 91.9065 14.7805 92.5152 15.3207ZM52.7491 41.5196C54.5442 41.4807 56.3376 41.5196 58.1292 41.6365C57.8174 43.3518 57.8174 45.0674 58.1292 46.7827C56.3746 46.5998 54.6202 46.6389 52.8661 46.8997C52.7491 45.1081 52.7103 43.3147 52.7491 41.5196ZM60.7023 55.5546C61.8146 57.0761 62.7503 58.7135 63.5093 60.4669C63.9978 60.8964 64.3096 61.4421 64.445 62.1044C65.1863 63.1179 65.8102 64.2096 66.3164 65.3792C66.5739 65.6945 66.8078 66.0454 67.0181 66.4318C59.2209 66.5879 51.4235 66.5879 43.6263 66.4318C46.2462 61.9785 48.8193 57.4952 51.3456 52.9816C53.9933 52.7088 56.6443 52.67 59.2988 52.8646C59.8024 53.7554 60.2703 54.6522 60.7023 55.5546ZM41.521 72.3968C50.7833 72.5902 60.0619 72.7072 69.3573 72.7476C69.0455 77.1921 69.0455 81.6365 69.3573 86.081C60.0789 86.1979 50.8001 86.237 41.521 86.1979C41.521 81.5975 41.521 76.9972 41.521 72.3968ZM41.521 92.2798C50.8001 92.2407 60.0789 92.2798 69.3573 92.3968C69.0455 94.0342 69.0455 95.6716 69.3573 97.309C60.0789 97.426 50.8001 97.4651 41.521 97.426C41.521 95.7107 41.521 93.9951 41.521 92.2798Z" fill="white"/>
<path opacity="0.01" fill-rule="evenodd" clip-rule="evenodd" d="M16.7227 8.53711C17.0345 8.69306 17.0345 8.69306 16.7227 8.53711Z" fill="white"/>
<path opacity="0.01" fill-rule="evenodd" clip-rule="evenodd" d="M31.9297 8.53711C32.2415 8.69306 32.2415 8.69306 31.9297 8.53711Z" fill="white"/>
<path opacity="0.01" fill-rule="evenodd" clip-rule="evenodd" d="M78.7109 8.53711C79.0228 8.69306 79.0228 8.69306 78.7109 8.53711Z" fill="white"/>
<path opacity="0.01" fill-rule="evenodd" clip-rule="evenodd" d="M15.082 9.47266C15.3939 9.62861 15.3939 9.62861 15.082 9.47266Z" fill="white"/>
<path opacity="0.01" fill-rule="evenodd" clip-rule="evenodd" d="M33.5703 9.47266C33.8821 9.62861 33.8821 9.62861 33.5703 9.47266Z" fill="white"/>
<path opacity="0.01" fill-rule="evenodd" clip-rule="evenodd" d="M77.3084 9.70657C77.1524 9.39469 77.1524 9.39469 77.3084 9.70657Z" fill="white"/>
<path opacity="0.01" fill-rule="evenodd" clip-rule="evenodd" d="M95.5508 9.47266C95.8626 9.62861 95.8626 9.62861 95.5508 9.47266Z" fill="white"/>
<path opacity="0.01" fill-rule="evenodd" clip-rule="evenodd" d="M76.6055 9.70703C76.9173 9.86298 76.9173 9.86298 76.6055 9.70703Z" fill="white"/>
<path opacity="0.01" fill-rule="evenodd" clip-rule="evenodd" d="M96.4881 10.1753C96.3321 9.86344 96.3321 9.86344 96.4881 10.1753Z" fill="white"/>
<path opacity="0.01" fill-rule="evenodd" clip-rule="evenodd" d="M75.9023 10.1758C76.2142 10.3317 76.2142 10.3317 75.9023 10.1758Z" fill="white"/>
<path opacity="0.01" fill-rule="evenodd" clip-rule="evenodd" d="M96.4883 10.1758C96.8001 10.3317 96.8001 10.3317 96.4883 10.1758Z" fill="white"/>
<path opacity="0.01" fill-rule="evenodd" clip-rule="evenodd" d="M13.6875 10.4102C13.9994 10.5661 13.9994 10.5661 13.6875 10.4102Z" fill="white"/>
<path opacity="0.01" fill-rule="evenodd" clip-rule="evenodd" d="M35.199 10.6441C35.043 10.3322 35.043 10.3322 35.199 10.6441Z" fill="white"/>
<path opacity="0.01" fill-rule="evenodd" clip-rule="evenodd" d="M75.9022 10.4102C75.7462 10.5661 75.7462 10.5661 75.9022 10.4102Z" fill="white"/>
<path opacity="0.01" fill-rule="evenodd" clip-rule="evenodd" d="M97.1912 10.6441C97.0352 10.3322 97.0352 10.3322 97.1912 10.6441Z" fill="white"/>
<path opacity="0.01" fill-rule="evenodd" clip-rule="evenodd" d="M13.6873 10.6445C13.5313 10.8005 13.5313 10.8005 13.6873 10.6445Z" fill="white"/>
<path opacity="0.01" fill-rule="evenodd" clip-rule="evenodd" d="M35.1992 10.6445C35.3552 10.6445 35.4331 10.7225 35.4331 10.8784C35.3552 10.8005 35.2771 10.7225 35.1992 10.6445Z" fill="white"/>
<path opacity="0.01" fill-rule="evenodd" clip-rule="evenodd" d="M97.1914 10.6445C97.3474 10.6445 97.4253 10.7225 97.4253 10.8784C97.3474 10.8005 97.2693 10.7225 97.1914 10.6445Z" fill="white"/>
<path opacity="0.01" fill-rule="evenodd" clip-rule="evenodd" d="M13.4535 10.877C13.4535 10.9549 13.4535 11.0329 13.4535 11.1109C13.2968 10.9983 13.2968 10.9203 13.4535 10.877Z" fill="white"/>
<path opacity="0.01" fill-rule="evenodd" clip-rule="evenodd" d="M35.4336 10.877C35.7454 11.0329 35.7454 11.0329 35.4336 10.877Z" fill="white"/>
<path opacity="0.01" fill-rule="evenodd" clip-rule="evenodd" d="M97.4258 10.877C97.5818 10.877 97.6597 10.9549 97.6597 11.1109C97.5818 11.0329 97.5037 10.9549 97.4258 10.877Z" fill="white"/>
<path opacity="0.01" fill-rule="evenodd" clip-rule="evenodd" d="M97.6602 11.1113C97.972 11.2673 97.972 11.2673 97.6602 11.1113Z" fill="white"/>
<path opacity="0.01" fill-rule="evenodd" clip-rule="evenodd" d="M12.5156 11.3457C12.8275 11.5017 12.8275 11.5017 12.5156 11.3457Z" fill="white"/>
<path opacity="0.01" fill-rule="evenodd" clip-rule="evenodd" d="M36.3709 11.5796C36.2149 11.2677 36.2149 11.2677 36.3709 11.5796Z" fill="white"/>
<path opacity="0.01" fill-rule="evenodd" clip-rule="evenodd" d="M74.5078 11.3457C74.8196 11.5017 74.8196 11.5017 74.5078 11.3457Z" fill="white"/>
<path opacity="0.01" fill-rule="evenodd" clip-rule="evenodd" d="M12.5154 11.5801C12.3594 11.736 12.3594 11.736 12.5154 11.5801Z" fill="white"/>
<path opacity="0.01" fill-rule="evenodd" clip-rule="evenodd" d="M36.3711 11.5801C36.6829 11.736 36.6829 11.736 36.3711 11.5801Z" fill="white"/>
<path opacity="0.01" fill-rule="evenodd" clip-rule="evenodd" d="M74.5076 11.5801C74.3516 11.736 74.3516 11.736 74.5076 11.5801Z" fill="white"/>
<path opacity="0.01" fill-rule="evenodd" clip-rule="evenodd" d="M12.281 11.8145C12.1251 11.9704 12.1251 11.9704 12.281 11.8145Z" fill="white"/>
<path opacity="0.01" fill-rule="evenodd" clip-rule="evenodd" d="M74.2733 11.8145C74.1172 11.9704 74.1172 11.9704 74.2733 11.8145Z" fill="white"/>
<path opacity="0.01" fill-rule="evenodd" clip-rule="evenodd" d="M11.582 12.2832C11.8939 12.4392 11.8939 12.4392 11.582 12.2832Z" fill="white"/>
<path opacity="0.01" fill-rule="evenodd" clip-rule="evenodd" d="M37.3084 12.5171C37.1524 12.2052 37.1524 12.2052 37.3084 12.5171Z" fill="white"/>
<path opacity="0.01" fill-rule="evenodd" clip-rule="evenodd" d="M73.5703 12.2832C73.8821 12.4392 73.8821 12.4392 73.5703 12.2832Z" fill="white"/>
<path opacity="0.01" fill-rule="evenodd" clip-rule="evenodd" d="M11.5818 12.5117C11.4259 12.6677 11.4259 12.6677 11.5818 12.5117Z" fill="white"/>
<path opacity="0.01" fill-rule="evenodd" clip-rule="evenodd" d="M37.3086 12.5117C37.6204 12.6677 37.6204 12.6677 37.3086 12.5117Z" fill="white"/>
<path opacity="0.01" fill-rule="evenodd" clip-rule="evenodd" d="M73.5701 12.5117C73.4141 12.6677 73.4141 12.6677 73.5701 12.5117Z" fill="white"/>
<path opacity="0.01" fill-rule="evenodd" clip-rule="evenodd" d="M73.3358 12.7461C73.1797 12.902 73.1797 12.902 73.3358 12.7461Z" fill="white"/>
<path opacity="0.01" fill-rule="evenodd" clip-rule="evenodd" d="M99.5311 12.98C99.3751 12.6681 99.3751 12.6681 99.5311 12.98Z" fill="white"/>
<path opacity="0.01" fill-rule="evenodd" clip-rule="evenodd" d="M99.5312 12.9805C99.6873 12.9805 99.7652 13.0584 99.7652 13.2144C99.6873 13.1364 99.6091 13.0584 99.5312 12.9805Z" fill="white"/>
<path opacity="0.01" fill-rule="evenodd" clip-rule="evenodd" d="M11.1131 13.4488C10.9571 13.1369 10.9571 13.1369 11.1131 13.4488Z" fill="white"/>
<path opacity="0.01" fill-rule="evenodd" clip-rule="evenodd" d="M38.0115 13.4488C37.8555 13.1369 37.8555 13.1369 38.0115 13.4488Z" fill="white"/>
<path opacity="0.01" fill-rule="evenodd" clip-rule="evenodd" d="M99.7656 13.2148C99.9216 13.2148 99.9995 13.2928 99.9995 13.4488C99.9216 13.3708 99.8435 13.2928 99.7656 13.2148Z" fill="white"/>
<path opacity="0.01" fill-rule="evenodd" clip-rule="evenodd" d="M10.8787 13.4492C10.7227 13.6052 10.7227 13.6052 10.8787 13.4492Z" fill="white"/>
<path opacity="0.01" fill-rule="evenodd" clip-rule="evenodd" d="M38.0117 13.4492C38.1677 13.4492 38.2456 13.5272 38.2456 13.6831C38.1677 13.6052 38.0896 13.5272 38.0117 13.4492Z" fill="white"/>
<path opacity="0.01" fill-rule="evenodd" clip-rule="evenodd" d="M72.867 13.6831C72.711 13.3712 72.711 13.3712 72.867 13.6831Z" fill="white"/>
<path opacity="0.01" fill-rule="evenodd" clip-rule="evenodd" d="M100 13.4492C100.312 13.6052 100.312 13.6052 100 13.4492Z" fill="white"/>
<path opacity="0.01" fill-rule="evenodd" clip-rule="evenodd" d="M10.6443 13.6836C10.4884 13.8395 10.4884 13.8395 10.6443 13.6836Z" fill="white"/>
<path opacity="0.01" fill-rule="evenodd" clip-rule="evenodd" d="M38.2461 13.6836C38.5579 13.8395 38.5579 13.8395 38.2461 13.6836Z" fill="white"/>
<path opacity="0.01" fill-rule="evenodd" clip-rule="evenodd" d="M72.6326 13.6836C72.4766 13.8395 72.4766 13.8395 72.6326 13.6836Z" fill="white"/>
<path opacity="0.01" fill-rule="evenodd" clip-rule="evenodd" d="M72.3983 13.918C72.2422 14.0739 72.2422 14.0739 72.3983 13.918Z" fill="white"/>
<path opacity="0.01" fill-rule="evenodd" clip-rule="evenodd" d="M38.7108 14.3863C38.5547 14.0744 38.5547 14.0744 38.7108 14.3863Z" fill="white"/>
<path opacity="0.01" fill-rule="evenodd" clip-rule="evenodd" d="M100.703 14.3863C100.547 14.0744 100.547 14.0744 100.703 14.3863Z" fill="white"/>
<path opacity="0.01" fill-rule="evenodd" clip-rule="evenodd" d="M38.7109 14.3848C39.0228 14.5407 39.0228 14.5407 38.7109 14.3848Z" fill="white"/>
<path opacity="0.01" fill-rule="evenodd" clip-rule="evenodd" d="M100.703 14.3848C101.015 14.5407 101.015 14.5407 100.703 14.3848Z" fill="white"/>
<path opacity="0.01" fill-rule="evenodd" clip-rule="evenodd" d="M9.47266 15.0879C9.78454 15.2438 9.78454 15.2438 9.47266 15.0879Z" fill="white"/>
<path opacity="0.01" fill-rule="evenodd" clip-rule="evenodd" d="M39.1797 15.0879C39.4915 15.2438 39.4915 15.2438 39.1797 15.0879Z" fill="white"/>
<path opacity="0.01" fill-rule="evenodd" clip-rule="evenodd" d="M71.699 15.3218C71.543 15.0099 71.543 15.0099 71.699 15.3218Z" fill="white"/>
<path opacity="0.01" fill-rule="evenodd" clip-rule="evenodd" d="M9.47243 15.3223C9.31648 15.4782 9.31648 15.4782 9.47243 15.3223Z" fill="white"/>
<path opacity="0.01" fill-rule="evenodd" clip-rule="evenodd" d="M71.4647 15.3223C71.3087 15.4782 71.3087 15.4782 71.4647 15.3223Z" fill="white"/>
<path opacity="0.01" fill-rule="evenodd" clip-rule="evenodd" d="M39.6484 16.0234C39.9603 16.1794 39.9603 16.1794 39.6484 16.0234Z" fill="white"/>
<path opacity="0.01" fill-rule="evenodd" clip-rule="evenodd" d="M101.641 16.0234C101.952 16.1794 101.952 16.1794 101.641 16.0234Z" fill="white"/>
<path opacity="0.01" fill-rule="evenodd" clip-rule="evenodd" d="M8.76953 16.2578C9.08141 16.4138 9.08141 16.4138 8.76953 16.2578Z" fill="white"/>
<path opacity="0.01" fill-rule="evenodd" clip-rule="evenodd" d="M8.53516 16.7266C8.84704 16.8825 8.84704 16.8825 8.53516 16.7266Z" fill="white"/>
<path opacity="0.01" fill-rule="evenodd" clip-rule="evenodd" d="M40.1172 16.7266C40.429 16.8825 40.429 16.8825 40.1172 16.7266Z" fill="white"/>
<path opacity="0.01" fill-rule="evenodd" clip-rule="evenodd" d="M70.5273 16.7266C70.8392 16.8825 70.8392 16.8825 70.5273 16.7266Z" fill="white"/>
<path opacity="0.01" fill-rule="evenodd" clip-rule="evenodd" d="M8.30469 17.1953C8.61657 17.3513 8.61657 17.3513 8.30469 17.1953Z" fill="white"/>
<path opacity="0.01" fill-rule="evenodd" clip-rule="evenodd" d="M70.293 17.1953C70.6048 17.3513 70.6048 17.3513 70.293 17.1953Z" fill="white"/>
<path opacity="0.01" fill-rule="evenodd" clip-rule="evenodd" d="M40.8203 18.5957C41.1321 18.7517 41.1321 18.7517 40.8203 18.5957Z" fill="white"/>
<path opacity="0.01" fill-rule="evenodd" clip-rule="evenodd" d="M7.83594 30.0586C8.14782 30.2146 8.14782 30.2146 7.83594 30.0586Z" fill="white"/>
<path opacity="0.01" fill-rule="evenodd" clip-rule="evenodd" d="M40.8203 30.0586C41.1321 30.2146 41.1321 30.2146 40.8203 30.0586Z" fill="white"/>
<path opacity="0.01" fill-rule="evenodd" clip-rule="evenodd" d="M102.574 30.5273C102.886 30.6834 102.886 30.6834 102.574 30.5273Z" fill="white"/>
<path opacity="0.01" fill-rule="evenodd" clip-rule="evenodd" d="M102.34 30.9941C102.652 31.1502 102.652 31.1502 102.34 30.9941Z" fill="white"/>
<path opacity="0.01" fill-rule="evenodd" clip-rule="evenodd" d="M70.293 31.4629C70.6048 31.6189 70.6048 31.6189 70.293 31.4629Z" fill="white"/>
<path opacity="0.01" fill-rule="evenodd" clip-rule="evenodd" d="M8.53516 31.9316C8.84704 32.0877 8.84704 32.0877 8.53516 31.9316Z" fill="white"/>
<path opacity="0.01" fill-rule="evenodd" clip-rule="evenodd" d="M39.6484 32.6289C39.9603 32.7849 39.9603 32.7849 39.6484 32.6289Z" fill="white"/>
<path opacity="0.01" fill-rule="evenodd" clip-rule="evenodd" d="M101.641 32.6289C101.952 32.7849 101.952 32.7849 101.641 32.6289Z" fill="white"/>
<path opacity="0.01" fill-rule="evenodd" clip-rule="evenodd" d="M9.47243 33.5659C9.31648 33.2541 9.31648 33.2541 9.47243 33.5659Z" fill="white"/>
<path opacity="0.01" fill-rule="evenodd" clip-rule="evenodd" d="M71.4647 33.5659C71.3087 33.2541 71.3087 33.2541 71.4647 33.5659Z" fill="white"/>
<path opacity="0.01" fill-rule="evenodd" clip-rule="evenodd" d="M9.47266 33.5664C9.62861 33.5664 9.70657 33.6443 9.70657 33.8003C9.62861 33.7224 9.55062 33.6443 9.47266 33.5664Z" fill="white"/>
<path opacity="0.01" fill-rule="evenodd" clip-rule="evenodd" d="M71.4648 33.5664C71.6209 33.5664 71.6988 33.6443 71.6988 33.8003C71.6209 33.7224 71.5427 33.6443 71.4648 33.5664Z" fill="white"/>
<path opacity="0.01" fill-rule="evenodd" clip-rule="evenodd" d="M9.70703 33.8008C9.785 33.8008 9.86298 33.8008 9.94095 33.8008C9.8976 33.9575 9.81962 33.9575 9.70703 33.8008Z" fill="white"/>
<path opacity="0.01" fill-rule="evenodd" clip-rule="evenodd" d="M38.9453 33.8008C39.2571 33.9568 39.2571 33.9568 38.9453 33.8008Z" fill="white"/>
<path opacity="0.01" fill-rule="evenodd" clip-rule="evenodd" d="M71.6953 33.8008C71.7732 33.8008 71.8513 33.8008 71.9292 33.8008C71.886 33.9575 71.8078 33.9575 71.6953 33.8008Z" fill="white"/>
<path opacity="0.01" fill-rule="evenodd" clip-rule="evenodd" d="M100.938 33.8008C101.249 33.9568 101.249 33.9568 100.938 33.8008Z" fill="white"/>
<path opacity="0.01" fill-rule="evenodd" clip-rule="evenodd" d="M38.7109 34.0352C38.7888 34.0352 38.867 34.0352 38.9449 34.0352C38.9016 34.1919 38.8235 34.1919 38.7109 34.0352Z" fill="white"/>
<path opacity="0.01" fill-rule="evenodd" clip-rule="evenodd" d="M9.94141 34.2676C10.2533 34.4236 10.2533 34.4236 9.94141 34.2676Z" fill="white"/>
<path opacity="0.01" fill-rule="evenodd" clip-rule="evenodd" d="M10.6443 35.2046C10.4884 34.8927 10.4884 34.8927 10.6443 35.2046Z" fill="white"/>
<path opacity="0.01" fill-rule="evenodd" clip-rule="evenodd" d="M72.6326 35.2046C72.4766 34.8927 72.4766 34.8927 72.6326 35.2046Z" fill="white"/>
<path opacity="0.01" fill-rule="evenodd" clip-rule="evenodd" d="M10.6445 35.2051C10.8005 35.2051 10.8784 35.283 10.8784 35.439C10.8005 35.3611 10.7225 35.283 10.6445 35.2051Z" fill="white"/>
<path opacity="0.01" fill-rule="evenodd" clip-rule="evenodd" d="M38.0117 35.2051C38.3235 35.3611 38.3235 35.3611 38.0117 35.2051Z" fill="white"/>
<path opacity="0.01" fill-rule="evenodd" clip-rule="evenodd" d="M72.6328 35.2051C72.9446 35.3611 72.9446 35.3611 72.6328 35.2051Z" fill="white"/>
<path opacity="0.01" fill-rule="evenodd" clip-rule="evenodd" d="M10.8789 35.4395C11.1908 35.5955 11.1908 35.5955 10.8789 35.4395Z" fill="white"/>
<path opacity="0.01" fill-rule="evenodd" clip-rule="evenodd" d="M38.0115 35.4395C37.8555 35.5955 37.8555 35.5955 38.0115 35.4395Z" fill="white"/>
<path opacity="0.01" fill-rule="evenodd" clip-rule="evenodd" d="M99.7656 35.4395C100.077 35.5955 100.077 35.5955 99.7656 35.4395Z" fill="white"/>
<path opacity="0.01" fill-rule="evenodd" clip-rule="evenodd" d="M73.3358 36.1401C73.1797 35.8283 73.1797 35.8283 73.3358 36.1401Z" fill="white"/>
<path opacity="0.01" fill-rule="evenodd" clip-rule="evenodd" d="M11.3477 36.1406C11.6595 36.2966 11.6595 36.2966 11.3477 36.1406Z" fill="white"/>
<path opacity="0.01" fill-rule="evenodd" clip-rule="evenodd" d="M73.3359 36.1406C73.492 36.1406 73.5699 36.2185 73.5699 36.3745C73.492 36.2966 73.4138 36.2185 73.3359 36.1406Z" fill="white"/>
<path opacity="0.01" fill-rule="evenodd" clip-rule="evenodd" d="M73.5703 36.375C73.7263 36.375 73.8042 36.4529 73.8042 36.6089C73.7263 36.531 73.6482 36.4529 73.5703 36.375Z" fill="white"/>
<path opacity="0.01" fill-rule="evenodd" clip-rule="evenodd" d="M73.8047 36.6094C73.9607 36.6094 74.0386 36.6873 74.0386 36.8433C73.9607 36.7654 73.8826 36.6873 73.8047 36.6094Z" fill="white"/>
<path opacity="0.01" fill-rule="evenodd" clip-rule="evenodd" d="M98.5938 36.6094C98.9056 36.7654 98.9056 36.7654 98.5938 36.6094Z" fill="white"/>
<path opacity="0.01" fill-rule="evenodd" clip-rule="evenodd" d="M12.281 37.0776C12.1251 36.7658 12.1251 36.7658 12.281 37.0776Z" fill="white"/>
<path opacity="0.01" fill-rule="evenodd" clip-rule="evenodd" d="M74.0391 36.8438C74.1951 36.8438 74.273 36.9216 74.273 37.0777C74.1951 36.9998 74.117 36.9216 74.0391 36.8438Z" fill="white"/>
<path opacity="0.01" fill-rule="evenodd" clip-rule="evenodd" d="M12.2812 37.0781C12.5931 37.2341 12.5931 37.2341 12.2812 37.0781Z" fill="white"/>
<path opacity="0.01" fill-rule="evenodd" clip-rule="evenodd" d="M74.2734 37.0781C74.5853 37.2341 74.5853 37.2341 74.2734 37.0781Z" fill="white"/>
<path opacity="0.01" fill-rule="evenodd" clip-rule="evenodd" d="M97.8945 37.3125C98.2063 37.4685 98.2063 37.4685 97.8945 37.3125Z" fill="white"/>
<path opacity="0.01" fill-rule="evenodd" clip-rule="evenodd" d="M13.4529 38.0093C13.2969 37.6974 13.2969 37.6974 13.4529 38.0093Z" fill="white"/>
<path opacity="0.01" fill-rule="evenodd" clip-rule="evenodd" d="M35.4336 37.7754C35.7454 37.9314 35.7454 37.9314 35.4336 37.7754Z" fill="white"/>
<path opacity="0.01" fill-rule="evenodd" clip-rule="evenodd" d="M75.434 37.7754C75.434 37.8533 75.434 37.9314 75.434 38.0093C75.2772 37.8968 75.2772 37.8187 75.434 37.7754Z" fill="white"/>
<path opacity="0.01" fill-rule="evenodd" clip-rule="evenodd" d="M13.4531 38.0098C13.765 38.1658 13.765 38.1658 13.4531 38.0098Z" fill="white"/>
<path opacity="0.01" fill-rule="evenodd" clip-rule="evenodd" d="M35.4334 38.0098C35.2774 38.1658 35.2774 38.1658 35.4334 38.0098Z" fill="white"/>
<path opacity="0.01" fill-rule="evenodd" clip-rule="evenodd" d="M75.4336 38.0098C75.5896 38.0098 75.6675 38.0877 75.6675 38.2437C75.5896 38.1658 75.5115 38.0877 75.4336 38.0098Z" fill="white"/>
<path opacity="0.01" fill-rule="evenodd" clip-rule="evenodd" d="M75.668 38.2441C75.9798 38.4002 75.9798 38.4002 75.668 38.2441Z" fill="white"/>
<path opacity="0.01" fill-rule="evenodd" clip-rule="evenodd" d="M14.3904 38.7124C14.2344 38.4006 14.2344 38.4006 14.3904 38.7124Z" fill="white"/>
<path opacity="0.01" fill-rule="evenodd" clip-rule="evenodd" d="M76.3709 38.4785C76.2149 38.6345 76.2149 38.6345 76.3709 38.4785Z" fill="white"/>
<path opacity="0.01" fill-rule="evenodd" clip-rule="evenodd" d="M14.3906 38.7129C14.7025 38.8689 14.7025 38.8689 14.3906 38.7129Z" fill="white"/>
<path opacity="0.01" fill-rule="evenodd" clip-rule="evenodd" d="M34.2734 38.7129C34.5853 38.8689 34.5853 38.8689 34.2734 38.7129Z" fill="white"/>
<path opacity="0.01" fill-rule="evenodd" clip-rule="evenodd" d="M15.0935 38.9473C14.9376 39.1033 14.9376 39.1033 15.0935 38.9473Z" fill="white"/>
<path opacity="0.01" fill-rule="evenodd" clip-rule="evenodd" d="M33.8047 38.9473C34.1165 39.1033 34.1165 39.1033 33.8047 38.9473Z" fill="white"/>
<path opacity="0.01" fill-rule="evenodd" clip-rule="evenodd" d="M76.6055 38.9473C76.9173 39.1033 76.9173 39.1033 76.6055 38.9473Z" fill="white"/>
<path opacity="0.01" fill-rule="evenodd" clip-rule="evenodd" d="M95.7852 38.9473C96.097 39.1033 96.097 39.1033 95.7852 38.9473Z" fill="white"/>
<path opacity="0.01" fill-rule="evenodd" clip-rule="evenodd" d="M94.8594 39.4141C95.1712 39.5701 95.1712 39.5701 94.8594 39.4141Z" fill="white"/>
<path opacity="0.01" fill-rule="evenodd" clip-rule="evenodd" d="M32.1641 39.8828C32.4759 40.0388 32.4759 40.0388 32.1641 39.8828Z" fill="white"/>
<path opacity="0.01" fill-rule="evenodd" clip-rule="evenodd" d="M94.1562 39.8828C94.4681 40.0388 94.4681 40.0388 94.1562 39.8828Z" fill="white"/>
<path opacity="0.01" fill-rule="evenodd" clip-rule="evenodd" d="M18.5938 40.8203C18.9056 40.9763 18.9056 40.9763 18.5938 40.8203Z" fill="white"/>
<path opacity="0.01" fill-rule="evenodd" clip-rule="evenodd" d="M64.449 49.0053C64.293 48.6935 64.293 48.6935 64.449 49.0053Z" fill="white"/>
<path opacity="0.01" fill-rule="evenodd" clip-rule="evenodd" d="M46.1953 49.0059C46.5071 49.1619 46.5071 49.1619 46.1953 49.0059Z" fill="white"/>
<path opacity="0.01" fill-rule="evenodd" clip-rule="evenodd" d="M64.4492 49.0059C64.761 49.1619 64.761 49.1619 64.4492 49.0059Z" fill="white"/>
<path opacity="0.01" fill-rule="evenodd" clip-rule="evenodd" d="M45.7266 49.707C46.0384 49.8631 46.0384 49.8631 45.7266 49.707Z" fill="white"/>
<path opacity="0.01" fill-rule="evenodd" clip-rule="evenodd" d="M64.918 49.9414C65.2298 50.0974 65.2298 50.0974 64.918 49.9414Z" fill="white"/>
<path opacity="0.01" fill-rule="evenodd" clip-rule="evenodd" d="M65.3748 50.644C65.2188 50.3322 65.2188 50.3322 65.3748 50.644Z" fill="white"/>
<path opacity="0.01" fill-rule="evenodd" clip-rule="evenodd" d="M45.2578 50.6445C45.5696 50.8006 45.5696 50.8006 45.2578 50.6445Z" fill="white"/>
<path opacity="0.01" fill-rule="evenodd" clip-rule="evenodd" d="M65.375 50.6445C65.6868 50.8006 65.6868 50.8006 65.375 50.6445Z" fill="white"/>
<path opacity="0.01" fill-rule="evenodd" clip-rule="evenodd" d="M65.8438 51.5801C66.1556 51.7361 66.1556 51.7361 65.8438 51.5801Z" fill="white"/>
<path opacity="0.01" fill-rule="evenodd" clip-rule="evenodd" d="M66.0781 52.0488C66.3899 52.2049 66.3899 52.2049 66.0781 52.0488Z" fill="white"/>
<path opacity="0.01" fill-rule="evenodd" clip-rule="evenodd" d="M44.332 52.2832C44.6438 52.4392 44.6438 52.4392 44.332 52.2832Z" fill="white"/>
<path opacity="0.01" fill-rule="evenodd" clip-rule="evenodd" d="M43.8633 52.9805C44.1751 53.1365 44.1751 53.1365 43.8633 52.9805Z" fill="white"/>
<path opacity="0.01" fill-rule="evenodd" clip-rule="evenodd" d="M67.2498 53.9175C67.0938 53.6056 67.0938 53.6056 67.2498 53.9175Z" fill="white"/>
<path opacity="0.01" fill-rule="evenodd" clip-rule="evenodd" d="M43.3945 53.918C43.7063 54.074 43.7063 54.074 43.3945 53.918Z" fill="white"/>
<path opacity="0.01" fill-rule="evenodd" clip-rule="evenodd" d="M67.25 53.918C67.5618 54.074 67.5618 54.074 67.25 53.918Z" fill="white"/>
<path opacity="0.01" fill-rule="evenodd" clip-rule="evenodd" d="M42.9258 54.6191C43.2376 54.7752 43.2376 54.7752 42.9258 54.6191Z" fill="white"/>
<path opacity="0.01" fill-rule="evenodd" clip-rule="evenodd" d="M68.1873 55.5561C68.0313 55.2443 68.0313 55.2443 68.1873 55.5561Z" fill="white"/>
<path opacity="0.01" fill-rule="evenodd" clip-rule="evenodd" d="M42.457 55.5566C42.7688 55.7127 42.7688 55.7127 42.457 55.5566Z" fill="white"/>
<path opacity="0.01" fill-rule="evenodd" clip-rule="evenodd" d="M68.1875 55.5566C68.4993 55.7127 68.4993 55.7127 68.1875 55.5566Z" fill="white"/>
<path opacity="0.01" fill-rule="evenodd" clip-rule="evenodd" d="M68.6523 56.4922C68.9642 56.6482 68.9642 56.6482 68.6523 56.4922Z" fill="white"/>
<path opacity="0.01" fill-rule="evenodd" clip-rule="evenodd" d="M69.1209 57.1948C68.9649 56.883 68.9649 56.883 69.1209 57.1948Z" fill="white"/>
<path opacity="0.01" fill-rule="evenodd" clip-rule="evenodd" d="M41.5234 57.1953C41.8353 57.3513 41.8353 57.3513 41.5234 57.1953Z" fill="white"/>
<path opacity="0.01" fill-rule="evenodd" clip-rule="evenodd" d="M69.1211 57.1953C69.4329 57.3513 69.4329 57.3513 69.1211 57.1953Z" fill="white"/>
<path opacity="0.01" fill-rule="evenodd" clip-rule="evenodd" d="M69.5898 58.127C69.9017 58.283 69.9017 58.283 69.5898 58.127Z" fill="white"/>
<path opacity="0.01" fill-rule="evenodd" clip-rule="evenodd" d="M41.0545 58.8296C40.8985 58.5177 40.8985 58.5177 41.0545 58.8296Z" fill="white"/>
<path opacity="0.01" fill-rule="evenodd" clip-rule="evenodd" d="M69.8242 58.5957C70.136 58.7517 70.136 58.7517 69.8242 58.5957Z" fill="white"/>
<path opacity="0.01" fill-rule="evenodd" clip-rule="evenodd" d="M40.8201 58.8301C40.6641 58.9861 40.6641 58.9861 40.8201 58.8301Z" fill="white"/>
<path opacity="0.01" fill-rule="evenodd" clip-rule="evenodd" d="M40.3516 59.2969C40.6634 59.4529 40.6634 59.4529 40.3516 59.2969Z" fill="white"/>
<path opacity="0.01" fill-rule="evenodd" clip-rule="evenodd" d="M70.7617 60.2344C71.0735 60.3904 71.0735 60.3904 70.7617 60.2344Z" fill="white"/>
<path opacity="0.01" fill-rule="evenodd" clip-rule="evenodd" d="M39.4141 60.9355C39.7259 61.0916 39.7259 61.0916 39.4141 60.9355Z" fill="white"/>
<path opacity="0.01" fill-rule="evenodd" clip-rule="evenodd" d="M39.1795 62.1069C39.0235 61.7951 39.0235 61.7951 39.1795 62.1069Z" fill="white"/>
<path opacity="0.01" fill-rule="evenodd" clip-rule="evenodd" d="M71.6953 61.873C72.0071 62.0291 72.0071 62.0291 71.6953 61.873Z" fill="white"/>
<path opacity="0.01" fill-rule="evenodd" clip-rule="evenodd" d="M38.9451 62.1074C38.7891 62.2634 38.7891 62.2634 38.9451 62.1074Z" fill="white"/>
<path opacity="0.01" fill-rule="evenodd" clip-rule="evenodd" d="M38.4766 62.5703C38.7884 62.7263 38.7884 62.7263 38.4766 62.5703Z" fill="white"/>
<path opacity="0.01" fill-rule="evenodd" clip-rule="evenodd" d="M38.2459 63.7417C38.0899 63.4299 38.0899 63.4299 38.2459 63.7417Z" fill="white"/>
<path opacity="0.01" fill-rule="evenodd" clip-rule="evenodd" d="M72.6328 63.5078C72.9446 63.6638 72.9446 63.6638 72.6328 63.5078Z" fill="white"/>
<path opacity="0.01" fill-rule="evenodd" clip-rule="evenodd" d="M38.0115 63.7422C37.8555 63.8982 37.8555 63.8982 38.0115 63.7422Z" fill="white"/>
<path opacity="0.01" fill-rule="evenodd" clip-rule="evenodd" d="M37.543 64.209C37.8548 64.365 37.8548 64.365 37.543 64.209Z" fill="white"/>
<path opacity="0.01" fill-rule="evenodd" clip-rule="evenodd" d="M37.3084 65.3803C37.1524 65.0685 37.1524 65.0685 37.3084 65.3803Z" fill="white"/>
<path opacity="0.01" fill-rule="evenodd" clip-rule="evenodd" d="M73.5703 65.1465C73.8821 65.3025 73.8821 65.3025 73.5703 65.1465Z" fill="white"/>
<path opacity="0.01" fill-rule="evenodd" clip-rule="evenodd" d="M36.6055 65.8477C36.9173 66.0037 36.9173 66.0037 36.6055 65.8477Z" fill="white"/>
<path opacity="0.01" fill-rule="evenodd" clip-rule="evenodd" d="M36.3709 67.019C36.2149 66.7072 36.2149 66.7072 36.3709 67.019Z" fill="white"/>
<path opacity="0.01" fill-rule="evenodd" clip-rule="evenodd" d="M74.5078 66.7852C74.8196 66.9412 74.8196 66.9412 74.5078 66.7852Z" fill="white"/>
<path opacity="0.01" fill-rule="evenodd" clip-rule="evenodd" d="M35.668 67.4883C35.9798 67.6443 35.9798 67.6443 35.668 67.4883Z" fill="white"/>
<path opacity="0.01" fill-rule="evenodd" clip-rule="evenodd" d="M75.1992 68.1855C75.511 68.3416 75.511 68.3416 75.1992 68.1855Z" fill="white"/>
</svg>
