<svg width="120" height="120" viewBox="0 0 120 120" fill="none" xmlns="http://www.w3.org/2000/svg">
<mask id="mask0_5951_4164" style="mask-type:luminance" maskUnits="userSpaceOnUse" x="26" y="18" width="79" height="90">
<path d="M26 18H105V107.63H26V18Z" fill="white"/>
</mask>
<g mask="url(#mask0_5951_4164)">
<path d="M54.9008 107.804V95.0229H61.0282V87.0697H54.9008V77.4843H58.9298C61.5319 77.4843 63.6303 75.8511 63.6303 73.8623V52.0633C63.6303 50.0756 61.5319 48.4423 58.9298 48.4423H54.9008V39.2114H61.0282V31.2593H54.9008V17.3418H43.1495V31.2593H36.0158V39.2114H43.1505V48.3716H37.6107C35.0086 48.3716 32.9102 50.0048 32.9102 51.9926V73.7916C32.9102 75.7794 35.0086 77.4126 37.6107 77.4126H43.1505V86.999H36.0158V95.0229H43.1505V107.804H54.9008Z" stroke="white" stroke-width="3.68667" stroke-miterlimit="10"/>
<path d="M74.1221 80.097V47.2836C74.1221 45.7977 75.075 44.5957 76.2521 44.5957H80.3443C81.5214 44.5957 82.4744 45.7977 82.4744 47.2836V80.097C82.4744 81.5819 81.5214 82.7849 80.3443 82.7849H76.2511C75.074 82.7849 74.1221 81.5819 74.1221 80.097Z" stroke="white" stroke-width="3.68667" stroke-miterlimit="10"/>
<path d="M82.4648 67.3679V57.184C82.4648 55.6991 83.4178 54.4961 84.5949 54.4961H85.9399C87.117 54.4961 88.0699 55.6991 88.0699 57.184V67.3679C88.0699 68.8528 87.117 70.0548 85.9408 70.0548H84.5949C83.4178 70.0548 82.4648 68.8528 82.4648 67.3679Z" stroke="white" stroke-width="3.68667" stroke-miterlimit="10"/>
<path d="M62.8711 68.9267V55.291C62.8711 55.0791 63.2756 54.8672 63.6801 54.8672H72.5931C72.9976 54.8672 73.4044 55.0791 73.4044 55.291V68.9267C73.4044 69.1386 72.9999 69.3505 72.5955 69.3505H63.6801C63.2756 69.3505 62.8711 69.1386 62.8711 68.9267Z" stroke="white" stroke-width="3.68667" stroke-miterlimit="10"/>
<path d="M94.3697 65.3869V59.2344H88.1484V65.3869H94.3697Z" stroke="white" stroke-width="3.68667" stroke-miterlimit="10"/>
<path d="M100.83 67.8211V57.0684H95.4531V67.8211H100.83Z" stroke="white" stroke-width="3.68667" stroke-miterlimit="10"/>
<path d="M88.7525 53.8596V47.707H82.5312V53.8596H88.7525Z" stroke="white" stroke-width="3.68667" stroke-miterlimit="10"/>
<path d="M97.1029 54.8668V46.9668H90.5195V54.8668H97.1029Z" stroke="white" stroke-width="3.68667" stroke-miterlimit="10"/>
<path d="M61.1716 36.0098H36.5977M61.1716 90.5733H36.5977" stroke="white" stroke-width="3.68667" stroke-miterlimit="10"/>
</g>
</svg>
