<svg width="120" height="120" viewBox="0 0 120 120" fill="none" xmlns="http://www.w3.org/2000/svg">
<path d="M20 60L100 60C102.75 60 105.103 60.9783 107.06 62.935C109.017 64.8917 109.997 67.2467 110 70L110 100C110 102.75 109.02 105.103 107.06 107.06C105.1 109.017 102.747 109.997 100 110L20 110C17.25 110 14.895 109.02 12.935 107.06C10.975 105.1 9.99664 102.747 9.99997 100L9.99997 70C9.99998 67.25 10.9783 64.895 12.935 62.935C14.8916 60.975 17.2466 59.9967 20 60ZM65 25L65 45C65 46.4167 64.52 47.6033 63.56 48.56C62.6 49.5167 61.4133 49.9967 60 50C58.5867 50.0033 57.3983 49.5233 56.435 48.56C55.4717 47.5967 54.9933 46.41 55 45L55 25C55 23.5833 55.48 22.395 56.44 21.435C57.4 20.475 58.5867 19.9967 60 20C61.4133 20.0033 62.6 20.4833 63.56 21.44C64.52 22.3967 65 23.5833 65 25ZM90 70L90 80C90 82.75 89.02 85.1033 87.06 87.06C85.1 89.0167 82.7467 89.9967 80 90L40 90C37.25 90 34.895 89.02 32.935 87.06C30.975 85.1 29.9966 82.7467 30 80L30 70L40 70L40 80L80 80L80 70L90 70ZM100 70L20 70L20 100L100 100L100 70ZM100 25C101.417 25 102.603 25.48 103.56 26.44C104.517 27.4 104.997 28.5867 105 30C105.003 31.4133 104.523 32.6 103.56 33.56C102.597 34.52 101.41 35 100 35C98 35 96.0833 35.375 94.25 36.125C92.4167 36.875 90.7917 37.9583 89.375 39.375C88.5417 40.2083 87.8333 41.1033 87.25 42.06C86.6667 43.0167 86.1667 44.08 85.75 45.25C85.3333 46.5833 84.625 47.7083 83.625 48.625C82.625 49.5417 81.4167 50 80 50C78.75 50 77.6667 49.5833 76.75 48.75C75.8333 47.9167 75.375 46.9583 75.375 45.875C75.375 43.7083 76.1667 41.2917 77.75 38.625C79.3333 35.9583 80.875 33.875 82.375 32.375C84.7083 30.0417 87.395 28.2283 90.435 26.935C93.475 25.6417 96.6633 24.9967 100 25ZM20.375 25C18.9583 25 17.77 25.48 16.81 26.44C15.85 27.4 15.3717 28.5867 15.375 30C15.3783 31.4133 15.8583 32.6 16.815 33.56C17.7717 34.52 18.9583 35 20.375 35C22.375 35 24.2917 35.375 26.125 36.125C27.9583 36.875 29.5833 37.9583 31 39.375C31.8333 40.2083 32.5417 41.1033 33.125 42.06C33.7083 43.0167 34.2083 44.08 34.625 45.25C35.0416 46.5833 35.75 47.7083 36.75 48.625C37.75 49.5417 38.9583 50 40.375 50C41.625 50 42.7083 49.5833 43.625 48.75C44.5417 47.9167 45 46.9583 45 45.875C45 43.7083 44.2083 41.2917 42.625 38.625C41.0417 35.9583 39.5 33.875 38 32.375C35.6667 30.0417 32.9783 28.2283 29.935 26.935C26.8916 25.6416 23.705 24.9967 20.375 25Z" fill="white"/>
</svg>
