<svg width="120" height="120" viewBox="0 0 120 120" fill="none" xmlns="http://www.w3.org/2000/svg">
<path opacity="0.91" fill-rule="evenodd" clip-rule="evenodd" d="M66.1143 8.7513C67.193 10.1874 67.9312 11.8042 68.3287 13.6019C68.3639 33.4968 68.4694 53.3913 68.6451 73.2856C69.917 74.3417 71.1824 75.3962 72.4412 76.449C76.2898 81.1819 77.9418 86.595 77.3973 92.688C77.2488 93.7731 77.0029 94.8276 76.6591 95.8515C75.7786 98.386 74.5133 100.706 72.863 102.811C72.7223 102.811 72.6521 102.881 72.6521 103.022C72.5114 103.022 72.4412 103.092 72.4412 103.233C71.4658 104.145 70.4816 105.059 69.4887 105.974C69.1666 105.959 68.9557 106.1 68.856 106.396C68.7153 106.396 68.6451 106.467 68.6451 106.607C63.0941 109.957 57.189 110.695 50.9298 108.822C49.8319 108.467 48.7774 108.01 47.7663 107.451C47.0421 106.864 46.2688 106.372 45.4465 105.974C45.2858 105.603 45.0044 105.392 44.6029 105.342C43.9588 104.557 43.2557 103.854 42.4939 103.233C42.2406 102.725 41.8893 102.303 41.4394 101.967C37.6912 96.4907 36.6717 90.5152 38.3814 84.0413C38.969 82.1645 39.7774 80.4069 40.8068 78.7689C42.2775 76.5601 44.1404 74.7323 46.3955 73.2856C46.4657 53.3911 46.5362 33.4964 46.6064 13.6019C47.3089 10.8233 48.8204 8.60888 51.1407 6.95868C52.1901 6.05875 53.5259 5.49635 55.1477 5.27151C59.4629 4.4851 63.1185 5.64503 66.1143 8.7513ZM58.1003 32.3717C57.1653 33.2425 57.0249 34.2265 57.6785 35.3242C57.5861 35.3105 57.5156 35.3455 57.4676 35.4297C57.6432 35.6054 57.8191 35.7812 57.9948 35.9569C58.079 35.9088 58.114 35.8384 58.1003 35.746C60.2687 35.9468 62.4479 36.0172 64.638 35.9569C64.638 37.7143 64.638 39.4719 64.638 41.2293C62.4479 41.169 60.2687 41.2395 58.1003 41.4402C58.114 41.3479 58.079 41.2774 57.9948 41.2293C57.8191 41.405 57.6432 41.5809 57.4676 41.7566C57.5156 41.8407 57.5861 41.8757 57.6785 41.862C57.116 42.7056 57.116 43.5492 57.6785 44.3928C57.5861 44.3791 57.5156 44.4141 57.4676 44.4982C57.6432 44.6739 57.8191 44.8498 57.9948 45.0255C58.079 44.9774 58.114 44.9069 58.1003 44.8146C60.2687 45.0153 62.4479 45.0858 64.638 45.0255C64.638 46.7126 64.638 48.3998 64.638 50.087C62.5982 50.052 60.5595 50.087 58.522 50.1924C58.2612 50.2414 58.0503 50.3468 57.8894 50.5088C57.5509 50.6155 57.4804 50.7561 57.6785 50.9306C57.116 51.7039 57.116 52.4771 57.6785 53.2504C58.0439 53.3576 58.1142 53.5332 57.8894 53.7777C58.1003 53.8479 58.3111 53.9183 58.522 53.9886C60.5595 54.094 62.5982 54.129 64.638 54.094C64.638 55.7812 64.638 57.4683 64.638 59.1555C62.4479 59.0952 60.2687 59.1656 58.1003 59.3664C57.19 60.2541 57.0496 61.2383 57.6785 62.319C57.5861 62.3052 57.5156 62.3403 57.4676 62.4244C57.6432 62.6001 57.8191 62.776 57.9948 62.9516C58.079 62.9036 58.114 62.8331 58.1003 62.7407C60.2687 62.9415 62.4479 63.012 64.638 62.9516C64.6028 67.0295 64.638 71.107 64.7435 75.1836C64.9626 75.3405 65.0681 75.5514 65.0598 75.8163C65.3819 75.8009 65.5928 75.9416 65.6925 76.2381C66.7223 76.7883 67.6361 77.4915 68.4342 78.3471C68.3418 78.3334 68.2714 78.3684 68.2233 78.4525C68.4694 78.6986 68.7153 78.9445 68.9614 79.1907C69.0456 79.1426 69.0806 79.0721 69.0669 78.9798C69.9942 79.9201 70.7675 80.9746 71.3867 82.1432C71.725 82.3092 71.8657 82.5903 71.8085 82.9868C71.9852 83.0589 72.0557 83.1994 72.0194 83.4086C73.572 87.0225 73.8181 90.7484 72.7575 94.5861C72.48 95.7403 72.0232 96.7948 71.3867 97.7495C71.2581 98.1574 71.0472 98.509 70.754 98.804C70.1243 99.7145 69.4212 100.558 68.6451 101.335C68.5232 101.114 68.3827 101.149 68.2233 101.44C68.2714 101.524 68.3418 101.559 68.4342 101.546C68.2066 101.977 67.855 102.258 67.3797 102.389C63.0447 105.78 58.1941 106.729 52.8278 105.236C51.3195 104.658 49.9135 103.92 48.6099 103.022C48.2879 103.037 48.077 102.897 47.9772 102.6C46.4446 101.736 45.2145 100.541 44.2865 99.0149C41.001 93.7178 40.6496 88.2345 43.2321 82.565C43.7825 81.6704 44.38 80.8268 45.0247 80.0342C45.147 79.5599 45.4281 79.2086 45.8683 78.9798C45.9902 79.2006 46.1306 79.1654 46.2901 78.8743C46.242 78.7902 46.1715 78.7552 46.0792 78.7689C46.8559 77.9928 47.6995 77.2896 48.6099 76.6599C48.8543 76.2908 49.2059 76.0799 49.6644 76.0272C49.7863 76.248 49.9268 76.2128 50.0862 75.9218C50.0381 75.8376 49.9677 75.8026 49.8753 75.8163C50.0065 75.5786 50.1822 75.3677 50.4025 75.1836C50.4728 55.0783 50.5432 34.9727 50.6134 14.8673C50.7377 13.7519 51.1244 12.7677 51.7734 11.9147C51.9216 11.4475 52.2027 11.0608 52.6169 10.7548C56.3542 8.12239 59.9043 8.43873 63.2672 11.7038C63.8145 12.8534 64.2363 14.0485 64.5326 15.2891C64.638 20.9126 64.6733 26.5364 64.638 32.1608C62.4479 32.1005 60.2687 32.1709 58.1003 32.3717Z" fill="white" stroke="white" stroke-width="2"/>
<path opacity="0.01" fill-rule="evenodd" clip-rule="evenodd" d="M48.8281 8.33008C49.1092 8.47068 49.1092 8.47068 48.8281 8.33008Z" fill="white"/>
<path opacity="0.01" fill-rule="evenodd" clip-rule="evenodd" d="M48.8282 8.54102C48.6875 8.68162 48.6875 8.68162 48.8282 8.54102Z" fill="white"/>
<path opacity="0.01" fill-rule="evenodd" clip-rule="evenodd" d="M66.125 8.54102C66.4061 8.68162 66.4061 8.68162 66.125 8.54102Z" fill="white"/>
<path opacity="0.897" fill-rule="evenodd" clip-rule="evenodd" d="M28.5803 15.5017C28.4396 15.5017 28.3694 15.572 28.3694 15.7126C28.2287 15.7126 28.1585 15.7829 28.1585 15.9235C26.0421 16.7708 24.2143 18.0362 22.6752 19.7196C22.5345 19.7196 22.4643 19.7899 22.4643 19.9305C18.1988 25.4821 17.0389 31.6686 18.9845 38.4894C19.7189 40.3811 20.6679 42.1385 21.8316 43.7618C22.0254 44.3078 22.377 44.7296 22.8861 45.0271C23.609 46.0319 24.523 46.805 25.6277 47.347C26.5763 47.947 27.5604 48.5093 28.5803 49.0342C28.8614 49.8778 28.8614 50.7213 28.5803 51.5649C28.4396 51.5649 28.3694 51.6352 28.3694 51.7758C28.2287 51.7758 28.1585 51.8461 28.1585 51.9867C27.7468 52.0911 27.325 52.1613 26.8931 52.1976C26.101 52.047 25.3276 51.8361 24.5732 51.5649C23.7375 51.0052 22.8939 50.443 22.0425 49.8778C20.9177 48.8935 19.8632 47.839 18.879 46.7143C18.7682 46.3495 18.5573 46.0681 18.2464 45.8707C18.2617 45.5487 18.1211 45.3378 17.8246 45.238C14.8246 40.329 13.6647 34.9862 14.3448 29.2099C14.7565 25.3358 16.057 21.8207 18.2464 18.6651C18.618 18.5043 18.8289 18.2232 18.879 17.8215C20.9145 15.5717 23.3047 13.7791 26.0495 12.4437C28.347 12.2145 29.1906 13.2338 28.5803 15.5017Z" fill="white"/>
<path opacity="0.889" fill-rule="evenodd" clip-rule="evenodd" d="M92.2664 14.2337C92.5711 14.5633 92.9225 14.8445 93.3208 15.0773C94.3051 15.9209 95.2189 16.8348 96.0625 17.8189C96.1127 18.2206 96.3236 18.5018 96.6952 18.6625C101.643 26.4024 102.24 34.4867 98.4878 42.9156C97.9909 43.864 97.4637 44.7778 96.9061 45.6573C96.7654 45.6573 96.6952 45.7275 96.6952 45.8682C96.3987 45.9679 96.258 46.1788 96.2734 46.5008C96.1327 46.5008 96.0625 46.5711 96.0625 46.7117C95.2189 47.696 94.3051 48.6098 93.3208 49.4534C93.1802 49.4534 93.1099 49.5236 93.1099 49.6643C92.9693 49.6643 92.899 49.7345 92.899 49.8752C91.6982 50.8278 90.3624 51.5659 88.892 52.0896C86.4935 52.3958 85.6499 51.3766 86.3613 49.0316C91.8055 46.7124 95.1449 42.6349 96.3788 36.7996C97.3203 32.0395 96.7578 27.47 94.6917 23.0913C94.0645 21.9407 93.3263 20.8862 92.4773 19.9279C92.2664 19.5764 91.9852 19.2952 91.6337 19.0843C91.3964 18.7408 91.1151 18.4245 90.7901 18.1353C89.3079 17.2541 87.8316 16.3754 86.3613 15.4991C85.7469 13.2417 86.5905 12.2224 88.892 12.4411C90.122 12.8797 91.2467 13.4773 92.2664 14.2337Z" fill="white"/>
<path opacity="0.01" fill-rule="evenodd" clip-rule="evenodd" d="M92.2695 14.0215C92.5507 14.1621 92.5507 14.1621 92.2695 14.0215Z" fill="white"/>
<path opacity="0.01" fill-rule="evenodd" clip-rule="evenodd" d="M92.6914 14.2363C92.9725 14.3769 92.9725 14.3769 92.6914 14.2363Z" fill="white"/>
<path opacity="0.01" fill-rule="evenodd" clip-rule="evenodd" d="M21.8281 14.4473C22.1092 14.5879 22.1092 14.5879 21.8281 14.4473Z" fill="white"/>
<path opacity="0.01" fill-rule="evenodd" clip-rule="evenodd" d="M93.3281 14.8691C93.6092 15.0097 93.6092 15.0097 93.3281 14.8691Z" fill="white"/>
<path opacity="0.01" fill-rule="evenodd" clip-rule="evenodd" d="M28.7891 15.291C29.0702 15.4316 29.0702 15.4316 28.7891 15.291Z" fill="white"/>
<path opacity="0.01" fill-rule="evenodd" clip-rule="evenodd" d="M28.5781 15.502C28.6484 15.502 28.7188 15.502 28.789 15.502C28.75 15.6433 28.6796 15.6433 28.5781 15.502Z" fill="white"/>
<path opacity="0.01" fill-rule="evenodd" clip-rule="evenodd" d="M86.3633 15.502C86.2226 15.6426 86.2226 15.6426 86.3633 15.502Z" fill="white"/>
<path opacity="0.01" fill-rule="evenodd" clip-rule="evenodd" d="M28.3672 15.7129C28.4374 15.7129 28.5079 15.7129 28.5781 15.7129C28.5391 15.8542 28.4686 15.8542 28.3672 15.7129Z" fill="white"/>
<path opacity="0.01" fill-rule="evenodd" clip-rule="evenodd" d="M28.1562 15.9238C28.2265 15.9238 28.2969 15.9238 28.3671 15.9238C28.3281 16.0651 28.2577 16.0651 28.1562 15.9238Z" fill="white"/>
<path opacity="0.01" fill-rule="evenodd" clip-rule="evenodd" d="M18.875 17.8222C18.7344 17.541 18.7344 17.541 18.875 17.8222Z" fill="white"/>
<path opacity="0.01" fill-rule="evenodd" clip-rule="evenodd" d="M96.2735 17.8222C96.1328 17.541 96.1328 17.541 96.2735 17.8222Z" fill="white"/>
<path opacity="0.01" fill-rule="evenodd" clip-rule="evenodd" d="M18.664 17.8223C18.5234 17.9629 18.5234 17.9629 18.664 17.8223Z" fill="white"/>
<path opacity="0.01" fill-rule="evenodd" clip-rule="evenodd" d="M24.9922 17.8223C25.2733 17.9629 25.2733 17.9629 24.9922 17.8223Z" fill="white"/>
<path opacity="0.01" fill-rule="evenodd" clip-rule="evenodd" d="M28.7891 17.8223C29.0702 17.9629 29.0702 17.9629 28.7891 17.8223Z" fill="white"/>
<path opacity="0.895" fill-rule="evenodd" clip-rule="evenodd" d="M32.1675 18.4525C32.4487 19.2961 32.4487 20.1397 32.1675 20.9833C32.0269 20.9833 31.9566 21.0535 31.9566 21.1941C31.816 21.1941 31.7457 21.2644 31.7457 21.405C30.8695 21.667 30.0961 22.0888 29.4259 22.6704C29.2852 22.6704 29.215 22.7407 29.215 22.8813C29.0743 22.8813 29.0041 22.9515 29.0041 23.0922C28.3714 23.5494 27.8442 24.1117 27.4224 24.7794C24.4025 30.1613 24.5432 35.3634 27.8442 40.3857C28.2837 40.9958 28.8109 41.4879 29.4259 41.862C30.3766 42.4426 31.2904 43.0753 32.1675 43.7601C32.4328 44.5265 32.4328 45.2996 32.1675 46.0799C32.0269 46.0799 31.9566 46.1501 31.9566 46.2908C31.816 46.2908 31.7457 46.361 31.7457 46.5017C31.1092 46.9157 30.4063 47.0211 29.6368 46.8181C29.1481 46.3631 28.5857 46.0468 27.9496 45.869C27.8498 45.5725 27.6389 45.4318 27.3169 45.4472C26.4031 44.6739 25.5595 43.8303 24.7862 42.9165C24.6752 42.5516 24.4643 42.2703 24.1535 42.0729C21.2884 37.2577 20.6206 32.126 22.15 26.6775C22.5133 25.5991 22.9351 24.5447 23.4153 23.514C24.6425 21.614 26.154 19.9971 27.9496 18.6634C28.7529 18.2618 29.5965 17.9806 30.4804 17.8198C31.1392 17.7986 31.7014 18.0095 32.1675 18.4525Z" fill="white"/>
<path opacity="0.892" fill-rule="evenodd" clip-rule="evenodd" d="M89.5233 20.7697C89.6456 21.244 89.9267 21.5953 90.3669 21.8242C94.8659 28.7837 94.8659 35.7433 90.3669 42.7029C90.2262 42.7029 90.156 42.7731 90.156 42.9138C88.7936 44.5118 87.1766 45.8122 85.3054 46.8154C84.4109 47.0659 83.6376 46.8903 82.9855 46.2881C82.3794 45.2581 82.4496 44.2739 83.1964 43.3356C83.7723 42.9788 84.3348 42.6274 84.8836 42.2811C85.2056 42.2965 85.4165 42.1558 85.5162 41.8593C87.7127 40.1759 89.0133 37.9265 89.4178 35.1106C89.8732 32.3892 89.6623 29.7178 88.7851 27.0966C88.6038 26.4358 88.2874 25.8734 87.8361 25.4094C87.3702 24.38 86.6671 23.5364 85.7271 22.8787C85.5664 22.5071 85.2851 22.2962 84.8836 22.246C84.0265 21.8668 83.2883 21.3045 82.6691 20.5588C82.2826 18.4147 83.1612 17.536 85.3054 17.9226C86.9168 18.5881 88.3229 19.5371 89.5233 20.7697Z" fill="white"/>
<path opacity="0.01" fill-rule="evenodd" clip-rule="evenodd" d="M85.9414 17.8223C86.2225 17.9629 86.2225 17.9629 85.9414 17.8223Z" fill="white"/>
<path opacity="0.01" fill-rule="evenodd" clip-rule="evenodd" d="M96.2773 17.8223C96.5585 17.9629 96.5585 17.9629 96.2773 17.8223Z" fill="white"/>
<path opacity="0.01" fill-rule="evenodd" clip-rule="evenodd" d="M28.3672 18.0332C28.6483 18.1738 28.6483 18.1738 28.3672 18.0332Z" fill="white"/>
<path opacity="0.01" fill-rule="evenodd" clip-rule="evenodd" d="M86.3672 18.0332C86.6483 18.1738 86.6483 18.1738 86.3672 18.0332Z" fill="white"/>
<path opacity="0.01" fill-rule="evenodd" clip-rule="evenodd" d="M32.1641 18.2402C32.4452 18.3808 32.4452 18.3808 32.1641 18.2402Z" fill="white"/>
<path opacity="0.01" fill-rule="evenodd" clip-rule="evenodd" d="M18.2422 18.6621C18.1016 18.3809 18.1016 18.3809 18.2422 18.6621Z" fill="white"/>
<path opacity="0.01" fill-rule="evenodd" clip-rule="evenodd" d="M24.1484 18.4512C24.4296 18.5918 24.4296 18.5918 24.1484 18.4512Z" fill="white"/>
<path opacity="0.01" fill-rule="evenodd" clip-rule="evenodd" d="M27.9453 18.6621C27.8047 18.3809 27.8047 18.3809 27.9453 18.6621Z" fill="white"/>
<path opacity="0.01" fill-rule="evenodd" clip-rule="evenodd" d="M96.6992 18.4512C96.9803 18.5918 96.9803 18.5918 96.6992 18.4512Z" fill="white"/>
<path opacity="0.01" fill-rule="evenodd" clip-rule="evenodd" d="M18.039 18.6621C17.8984 18.8027 17.8984 18.8027 18.039 18.6621Z" fill="white"/>
<path opacity="0.01" fill-rule="evenodd" clip-rule="evenodd" d="M91.6328 19.0879C91.4922 19.2285 91.4922 19.2285 91.6328 19.0879Z" fill="white"/>
<path opacity="0.01" fill-rule="evenodd" clip-rule="evenodd" d="M22.6719 19.7168C22.953 19.8574 22.953 19.8574 22.6719 19.7168Z" fill="white"/>
<path opacity="0.01" fill-rule="evenodd" clip-rule="evenodd" d="M22.4609 19.9316C22.5312 19.9316 22.6016 19.9316 22.6718 19.9316C22.6328 20.073 22.5624 20.073 22.4609 19.9316Z" fill="white"/>
<path opacity="0.01" fill-rule="evenodd" clip-rule="evenodd" d="M92.4805 19.9316C92.3398 20.0722 92.3398 20.0722 92.4805 19.9316Z" fill="white"/>
<path opacity="0.01" fill-rule="evenodd" clip-rule="evenodd" d="M89.5273 20.5605C89.8085 20.7012 89.8085 20.7012 89.5273 20.5605Z" fill="white"/>
<path opacity="0.01" fill-rule="evenodd" clip-rule="evenodd" d="M32.1641 20.9863C32.4452 21.127 32.4452 21.127 32.1641 20.9863Z" fill="white"/>
<path opacity="0.01" fill-rule="evenodd" clip-rule="evenodd" d="M21.6172 21.1973C21.8983 21.3379 21.8983 21.3379 21.6172 21.1973Z" fill="white"/>
<path opacity="0.01" fill-rule="evenodd" clip-rule="evenodd" d="M31.9531 21.1973C32.0234 21.1973 32.0938 21.1973 32.164 21.1973C32.125 21.3386 32.0546 21.3386 31.9531 21.1973Z" fill="white"/>
<path opacity="0.01" fill-rule="evenodd" clip-rule="evenodd" d="M31.7422 21.4043C31.8124 21.4043 31.8829 21.4043 31.9531 21.4043C31.9141 21.5456 31.8436 21.5456 31.7422 21.4043Z" fill="white"/>
<path opacity="0.01" fill-rule="evenodd" clip-rule="evenodd" d="M98.5977 21.4043C98.8788 21.545 98.8788 21.545 98.5977 21.4043Z" fill="white"/>
<path opacity="0.01" fill-rule="evenodd" clip-rule="evenodd" d="M90.3711 21.6152C90.6522 21.7559 90.6522 21.7559 90.3711 21.6152Z" fill="white"/>
<path opacity="0.01" fill-rule="evenodd" clip-rule="evenodd" d="M84.8868 22.252C84.7461 22.3926 84.7461 22.3926 84.8868 22.252Z" fill="white"/>
<path opacity="0.01" fill-rule="evenodd" clip-rule="evenodd" d="M29.4219 22.6699C29.703 22.8106 29.703 22.8106 29.4219 22.6699Z" fill="white"/>
<path opacity="0.01" fill-rule="evenodd" clip-rule="evenodd" d="M29.2109 22.8809C29.2812 22.8809 29.3516 22.8809 29.4218 22.8809C29.3828 23.0222 29.3124 23.0222 29.2109 22.8809Z" fill="white"/>
<path opacity="0.01" fill-rule="evenodd" clip-rule="evenodd" d="M85.7305 22.8809C85.5898 23.0215 85.5898 23.0215 85.7305 22.8809Z" fill="white"/>
<path opacity="0.01" fill-rule="evenodd" clip-rule="evenodd" d="M29 23.0918C29.0702 23.0918 29.1407 23.0918 29.2109 23.0918C29.1719 23.2331 29.1014 23.2331 29 23.0918Z" fill="white"/>
<path opacity="0.888" fill-rule="evenodd" clip-rule="evenodd" d="M35.7511 23.9349C36.0322 24.7083 36.0322 25.4814 35.7511 26.2548C35.6104 26.2548 35.5402 26.325 35.5402 26.4657C35.3995 26.4657 35.3293 26.5359 35.3293 26.6766C33.9705 27.4284 33.0917 28.4829 32.6931 29.84C31.6838 33.537 32.703 36.3489 35.7511 38.2759C36.0788 39.234 36.0086 40.148 35.5402 41.0175C35.3995 41.0175 35.3293 41.0878 35.3293 41.2284C34.6378 41.4376 33.9349 41.4728 33.2204 41.3339C32.6153 40.9973 32.0528 40.6105 31.5332 40.1739C31.1053 39.6766 30.6835 39.1844 30.2678 38.6977C27.7303 34.3287 27.7653 29.9704 30.3733 25.6221C31.1186 24.8061 31.9269 24.068 32.7986 23.4077C33.7065 23.0021 34.6203 23.0021 35.5402 23.4077C35.3154 23.6521 35.3856 23.8278 35.7511 23.9349Z" fill="white"/>
<path opacity="0.888" fill-rule="evenodd" clip-rule="evenodd" d="M82.5673 23.7249C82.8721 24.0545 83.2234 24.3356 83.6218 24.5685C86.1794 27.5577 87.0582 31.0023 86.258 34.9024C85.9457 36.2268 85.4887 37.4922 84.8872 38.6985C84.3935 39.1532 83.9717 39.6805 83.6218 40.2803C82.9934 40.6249 82.3607 40.9762 81.7238 41.3347C80.5771 41.6838 79.6985 41.3674 79.0876 40.3857C78.9153 39.6552 78.9857 38.952 79.2984 38.2767C81.984 36.555 83.0385 34.0947 82.4619 30.8954C82.3982 30.1056 82.1521 29.4026 81.7238 28.7864C81.7392 28.4644 81.5985 28.2535 81.302 28.1537C80.7969 27.4449 80.1642 26.8824 79.4039 26.4665C78.9378 25.6618 78.8674 24.8182 79.193 23.9358C80.2443 22.891 81.369 22.8208 82.5673 23.7249Z" fill="white"/>
<path opacity="0.01" fill-rule="evenodd" clip-rule="evenodd" d="M82.5703 23.5137C82.8514 23.6543 82.8514 23.6543 82.5703 23.5137Z" fill="white"/>
<path opacity="0.01" fill-rule="evenodd" clip-rule="evenodd" d="M35.75 23.7246C36.0311 23.8653 36.0311 23.8653 35.75 23.7246Z" fill="white"/>
<path opacity="0.01" fill-rule="evenodd" clip-rule="evenodd" d="M79.1914 23.9355C79.0508 23.6543 79.0508 23.6543 79.1914 23.9355Z" fill="white"/>
<path opacity="0.01" fill-rule="evenodd" clip-rule="evenodd" d="M28.1562 24.1465C28.4374 24.2872 28.4374 24.2872 28.1562 24.1465Z" fill="white"/>
<path opacity="0.01" fill-rule="evenodd" clip-rule="evenodd" d="M83.6211 24.3613C83.9022 24.502 83.9022 24.502 83.6211 24.3613Z" fill="white"/>
<path opacity="0.01" fill-rule="evenodd" clip-rule="evenodd" d="M95.2266 24.9902C95.5077 25.1309 95.5077 25.1309 95.2266 24.9902Z" fill="white"/>
<path opacity="0.01" fill-rule="evenodd" clip-rule="evenodd" d="M87.8399 25.4082C87.6992 25.5489 87.6992 25.5489 87.8399 25.4082Z" fill="white"/>
<path opacity="0.01" fill-rule="evenodd" clip-rule="evenodd" d="M19.2969 25.623C19.5781 25.7637 19.5781 25.7637 19.2969 25.623Z" fill="white"/>
<path opacity="0.01" fill-rule="evenodd" clip-rule="evenodd" d="M95.4375 25.623C95.7186 25.7637 95.7186 25.7637 95.4375 25.623Z" fill="white"/>
<path opacity="0.01" fill-rule="evenodd" clip-rule="evenodd" d="M35.75 26.2559C36.0311 26.3965 36.0311 26.3965 35.75 26.2559Z" fill="white"/>
<path opacity="0.01" fill-rule="evenodd" clip-rule="evenodd" d="M35.5391 26.4629C35.6093 26.4629 35.6797 26.4629 35.75 26.4629C35.7109 26.6042 35.6405 26.6042 35.5391 26.4629Z" fill="white"/>
<path opacity="0.01" fill-rule="evenodd" clip-rule="evenodd" d="M79.4024 26.4629C79.2617 26.6036 79.2617 26.6036 79.4024 26.4629Z" fill="white"/>
<path opacity="0.01" fill-rule="evenodd" clip-rule="evenodd" d="M35.3281 26.6777C35.3984 26.6777 35.4688 26.6777 35.539 26.6777C35.5 26.819 35.4296 26.819 35.3281 26.6777Z" fill="white"/>
<path opacity="0.01" fill-rule="evenodd" clip-rule="evenodd" d="M81.3008 28.1543C81.1601 28.295 81.1601 28.295 81.3008 28.1543Z" fill="white"/>
<path opacity="0.01" fill-rule="evenodd" clip-rule="evenodd" d="M81.7227 28.7832C81.582 28.9239 81.582 28.9239 81.7227 28.7832Z" fill="white"/>
<path opacity="0.808" fill-rule="evenodd" clip-rule="evenodd" d="M39.3359 31.1076C39.6012 31.8879 39.6012 32.6611 39.3359 33.4275C38.131 34.6095 36.9711 34.5393 35.8561 33.2166C35.5167 31.0964 36.3953 30.1474 38.4923 30.3695C38.7464 30.6597 39.0275 30.9056 39.3359 31.1076Z" fill="white"/>
<path opacity="0.821" fill-rule="evenodd" clip-rule="evenodd" d="M78.9813 31.1061C79.2624 31.8795 79.2624 32.6526 78.9813 33.426C77.8566 34.5507 76.7316 34.5507 75.6069 33.426C75.0512 31.2069 75.8948 30.1877 78.1377 30.368C78.3918 30.6582 78.6729 30.9041 78.9813 31.1061Z" fill="white"/>
<path opacity="0.01" fill-rule="evenodd" clip-rule="evenodd" d="M39.5391 31.1034C39.3984 30.8223 39.3984 30.8223 39.5391 31.1034Z" fill="white"/>
<path opacity="0.01" fill-rule="evenodd" clip-rule="evenodd" d="M79.1914 31.1034C79.0508 30.8223 79.0508 30.8223 79.1914 31.1034Z" fill="white"/>
<path opacity="0.01" fill-rule="evenodd" clip-rule="evenodd" d="M39.5469 31.1035C39.828 31.2442 39.828 31.2442 39.5469 31.1035Z" fill="white"/>
<path opacity="0.01" fill-rule="evenodd" clip-rule="evenodd" d="M75.1875 31.1035C75.4686 31.2442 75.4686 31.2442 75.1875 31.1035Z" fill="white"/>
<path opacity="0.01" fill-rule="evenodd" clip-rule="evenodd" d="M79.1914 31.1035C79.4725 31.2442 79.4725 31.2442 79.1914 31.1035Z" fill="white"/>
<path opacity="0.01" fill-rule="evenodd" clip-rule="evenodd" d="M39.3359 33.4277C39.6171 33.5684 39.6171 33.5684 39.3359 33.4277Z" fill="white"/>
<path opacity="0.01" fill-rule="evenodd" clip-rule="evenodd" d="M75.6055 33.4277C75.4648 33.5684 75.4648 33.5684 75.6055 33.4277Z" fill="white"/>
<path opacity="0.01" fill-rule="evenodd" clip-rule="evenodd" d="M78.9805 33.4277C79.2616 33.5684 79.2616 33.5684 78.9805 33.4277Z" fill="white"/>
<path opacity="0.01" fill-rule="evenodd" clip-rule="evenodd" d="M88.2617 37.6426C88.5428 37.7832 88.5428 37.7832 88.2617 37.6426Z" fill="white"/>
<path opacity="0.01" fill-rule="evenodd" clip-rule="evenodd" d="M19.0859 38.0645C19.3671 38.2051 19.3671 38.2051 19.0859 38.0645Z" fill="white"/>
<path opacity="0.01" fill-rule="evenodd" clip-rule="evenodd" d="M35.75 38.0645C36.0311 38.2051 36.0311 38.2051 35.75 38.0645Z" fill="white"/>
<path opacity="0.01" fill-rule="evenodd" clip-rule="evenodd" d="M88.0508 38.0645C88.3319 38.2051 88.3319 38.2051 88.0508 38.0645Z" fill="white"/>
<path opacity="0.01" fill-rule="evenodd" clip-rule="evenodd" d="M95.6445 38.0645C95.9257 38.2051 95.9257 38.2051 95.6445 38.0645Z" fill="white"/>
<path opacity="0.01" fill-rule="evenodd" clip-rule="evenodd" d="M30.2657 38.6973C30.125 38.8379 30.125 38.8379 30.2657 38.6973Z" fill="white"/>
<path opacity="0.01" fill-rule="evenodd" clip-rule="evenodd" d="M84.8906 38.6973C85.1717 38.8379 85.1717 38.8379 84.8906 38.6973Z" fill="white"/>
<path opacity="0.01" fill-rule="evenodd" clip-rule="evenodd" d="M14.6562 38.9082C14.9374 39.0489 14.9374 39.0489 14.6562 38.9082Z" fill="white"/>
<path opacity="0.01" fill-rule="evenodd" clip-rule="evenodd" d="M100.074 38.9082C100.355 39.0489 100.355 39.0489 100.074 38.9082Z" fill="white"/>
<path opacity="0.01" fill-rule="evenodd" clip-rule="evenodd" d="M31.5313 40.1719C31.3906 40.3125 31.3906 40.3125 31.5313 40.1719Z" fill="white"/>
<path opacity="0.01" fill-rule="evenodd" clip-rule="evenodd" d="M35.5391 41.0176C35.8202 41.1582 35.8202 41.1582 35.5391 41.0176Z" fill="white"/>
<path opacity="0.01" fill-rule="evenodd" clip-rule="evenodd" d="M85.9414 41.0176C86.2225 41.1582 86.2225 41.1582 85.9414 41.0176Z" fill="white"/>
<path opacity="0.01" fill-rule="evenodd" clip-rule="evenodd" d="M35.3281 41.2266C35.3984 41.2266 35.4688 41.2266 35.539 41.2266C35.5 41.3679 35.4296 41.3679 35.3281 41.2266Z" fill="white"/>
<path opacity="0.01" fill-rule="evenodd" clip-rule="evenodd" d="M85.9414 41.2266C85.8008 41.3672 85.8008 41.3672 85.9414 41.2266Z" fill="white"/>
<path opacity="0.01" fill-rule="evenodd" clip-rule="evenodd" d="M85.7305 41.4395C85.5898 41.5801 85.5898 41.5801 85.7305 41.4395Z" fill="white"/>
<path opacity="0.01" fill-rule="evenodd" clip-rule="evenodd" d="M29.4219 41.6504C29.703 41.7911 29.703 41.7911 29.4219 41.6504Z" fill="white"/>
<path opacity="0.01" fill-rule="evenodd" clip-rule="evenodd" d="M85.52 41.6504C85.52 41.7206 85.52 41.7911 85.52 41.8613C85.3787 41.7598 85.3787 41.6894 85.52 41.6504Z" fill="white"/>
<path opacity="0.01" fill-rule="evenodd" clip-rule="evenodd" d="M24.1563 42.0723C24.0156 42.2129 24.0156 42.2129 24.1563 42.0723Z" fill="white"/>
<path opacity="0.01" fill-rule="evenodd" clip-rule="evenodd" d="M84.8868 42.2831C84.7461 42.002 84.7461 42.002 84.8868 42.2831Z" fill="white"/>
<path opacity="0.01" fill-rule="evenodd" clip-rule="evenodd" d="M99.0195 42.0723C99.3007 42.2129 99.3007 42.2129 99.0195 42.0723Z" fill="white"/>
<path opacity="0.01" fill-rule="evenodd" clip-rule="evenodd" d="M24.1484 42.4941C24.4296 42.6348 24.4296 42.6348 24.1484 42.4941Z" fill="white"/>
<path opacity="0.01" fill-rule="evenodd" clip-rule="evenodd" d="M98.8086 42.4941C99.0897 42.6348 99.0897 42.6348 98.8086 42.4941Z" fill="white"/>
<path opacity="0.01" fill-rule="evenodd" clip-rule="evenodd" d="M90.3711 42.7051C90.6522 42.8457 90.6522 42.8457 90.3711 42.7051Z" fill="white"/>
<path opacity="0.01" fill-rule="evenodd" clip-rule="evenodd" d="M24.7813 42.916C24.6406 43.0567 24.6406 43.0567 24.7813 42.916Z" fill="white"/>
<path opacity="0.01" fill-rule="evenodd" clip-rule="evenodd" d="M90.1602 42.916C90.2304 42.916 90.3008 42.916 90.3711 42.916C90.332 43.0573 90.2616 43.0573 90.1602 42.916Z" fill="white"/>
<path opacity="0.01" fill-rule="evenodd" clip-rule="evenodd" d="M21.8281 43.5469C22.1092 43.6875 22.1092 43.6875 21.8281 43.5469Z" fill="white"/>
<path opacity="0.01" fill-rule="evenodd" clip-rule="evenodd" d="M32.1641 43.5469C32.4452 43.6875 32.4452 43.6875 32.1641 43.5469Z" fill="white"/>
<path opacity="0.01" fill-rule="evenodd" clip-rule="evenodd" d="M22.8828 44.8145C23.1639 44.9551 23.1639 44.9551 22.8828 44.8145Z" fill="white"/>
<path opacity="0.01" fill-rule="evenodd" clip-rule="evenodd" d="M17.8281 45.2363C17.6875 45.377 17.6875 45.377 17.8281 45.2363Z" fill="white"/>
<path opacity="0.01" fill-rule="evenodd" clip-rule="evenodd" d="M27.3125 45.4453C27.1719 45.586 27.1719 45.586 27.3125 45.4453Z" fill="white"/>
<path opacity="0.01" fill-rule="evenodd" clip-rule="evenodd" d="M18.039 45.8671C17.8984 45.586 17.8984 45.586 18.039 45.8671Z" fill="white"/>
<path opacity="0.01" fill-rule="evenodd" clip-rule="evenodd" d="M96.9102 45.6562C97.1913 45.7969 97.1913 45.7969 96.9102 45.6562Z" fill="white"/>
<path opacity="0.01" fill-rule="evenodd" clip-rule="evenodd" d="M18.0312 45.8691C18.1015 45.8691 18.1719 45.8691 18.2421 45.8691C18.2031 46.0104 18.1328 46.0104 18.0312 45.8691Z" fill="white"/>
<path opacity="0.01" fill-rule="evenodd" clip-rule="evenodd" d="M27.9453 45.8691C27.8047 46.0098 27.8047 46.0098 27.9453 45.8691Z" fill="white"/>
<path opacity="0.01" fill-rule="evenodd" clip-rule="evenodd" d="M32.375 45.8691C32.6561 46.0098 32.6561 46.0098 32.375 45.8691Z" fill="white"/>
<path opacity="0.01" fill-rule="evenodd" clip-rule="evenodd" d="M96.6992 45.8691C96.7694 45.8691 96.8399 45.8691 96.9101 45.8691C96.8711 46.0104 96.8007 46.0104 96.6992 45.8691Z" fill="white"/>
<path opacity="0.01" fill-rule="evenodd" clip-rule="evenodd" d="M32.1641 46.0801C32.2343 46.0801 32.3047 46.0801 32.375 46.0801C32.3359 46.2214 32.2655 46.2214 32.1641 46.0801Z" fill="white"/>
<path opacity="0.01" fill-rule="evenodd" clip-rule="evenodd" d="M31.9531 46.291C32.0234 46.291 32.0938 46.291 32.164 46.291C32.125 46.4323 32.0546 46.4323 31.9531 46.291Z" fill="white"/>
<path opacity="0.01" fill-rule="evenodd" clip-rule="evenodd" d="M82.9922 46.291C82.8516 46.4317 82.8516 46.4317 82.9922 46.291Z" fill="white"/>
<path opacity="0.01" fill-rule="evenodd" clip-rule="evenodd" d="M31.7422 46.5C31.8124 46.5 31.8829 46.5 31.9531 46.5C31.9141 46.6413 31.8436 46.6413 31.7422 46.5Z" fill="white"/>
<path opacity="0.01" fill-rule="evenodd" clip-rule="evenodd" d="M96.2773 46.5C96.5585 46.6407 96.5585 46.6407 96.2773 46.5Z" fill="white"/>
<path opacity="0.01" fill-rule="evenodd" clip-rule="evenodd" d="M18.875 46.7109C18.7344 46.8516 18.7344 46.8516 18.875 46.7109Z" fill="white"/>
<path opacity="0.01" fill-rule="evenodd" clip-rule="evenodd" d="M96.0664 46.7109C96.1366 46.7109 96.2071 46.7109 96.2773 46.7109C96.2383 46.8522 96.1678 46.8522 96.0664 46.7109Z" fill="white"/>
<path opacity="0.01" fill-rule="evenodd" clip-rule="evenodd" d="M25.625 47.1348C25.9061 47.2754 25.9061 47.2754 25.625 47.1348Z" fill="white"/>
<path opacity="0.01" fill-rule="evenodd" clip-rule="evenodd" d="M20.7734 49.0312C20.6328 48.75 20.6328 48.75 20.7734 49.0312Z" fill="white"/>
<path opacity="0.01" fill-rule="evenodd" clip-rule="evenodd" d="M28.5781 48.8203C28.8592 48.961 28.8592 48.961 28.5781 48.8203Z" fill="white"/>
<path opacity="0.01" fill-rule="evenodd" clip-rule="evenodd" d="M86.3633 49.0312C86.2226 48.75 86.2226 48.75 86.3633 49.0312Z" fill="white"/>
<path opacity="0.01" fill-rule="evenodd" clip-rule="evenodd" d="M20.7734 49.0312C20.914 49.0312 20.9843 49.1015 20.9843 49.2421C20.914 49.1719 20.8437 49.1015 20.7734 49.0312Z" fill="white"/>
<path opacity="0.01" fill-rule="evenodd" clip-rule="evenodd" d="M20.9844 49.2422C21.2655 49.3829 21.2655 49.3829 20.9844 49.2422Z" fill="white"/>
<path opacity="0.01" fill-rule="evenodd" clip-rule="evenodd" d="M93.3281 49.4551C93.6092 49.5957 93.6092 49.5957 93.3281 49.4551Z" fill="white"/>
<path opacity="0.01" fill-rule="evenodd" clip-rule="evenodd" d="M93.1172 49.6641C93.1874 49.6641 93.2579 49.6641 93.3281 49.6641C93.2891 49.8054 93.2186 49.8054 93.1172 49.6641Z" fill="white"/>
<path opacity="0.01" fill-rule="evenodd" clip-rule="evenodd" d="M22.0469 49.875C21.9062 50.0157 21.9062 50.0157 22.0469 49.875Z" fill="white"/>
<path opacity="0.01" fill-rule="evenodd" clip-rule="evenodd" d="M92.9062 49.875C92.9765 49.875 93.0469 49.875 93.1171 49.875C93.0781 50.0163 93.0077 50.0163 92.9062 49.875Z" fill="white"/>
<path opacity="0.01" fill-rule="evenodd" clip-rule="evenodd" d="M24.5703 51.5645C24.4297 51.7051 24.4297 51.7051 24.5703 51.5645Z" fill="white"/>
<path opacity="0.01" fill-rule="evenodd" clip-rule="evenodd" d="M28.5781 51.5645C28.8592 51.7051 28.8592 51.7051 28.5781 51.5645Z" fill="white"/>
<path opacity="0.01" fill-rule="evenodd" clip-rule="evenodd" d="M24.7812 51.7734C25.0624 51.9141 25.0624 51.9141 24.7812 51.7734Z" fill="white"/>
<path opacity="0.01" fill-rule="evenodd" clip-rule="evenodd" d="M28.3672 51.7734C28.4374 51.7734 28.5079 51.7734 28.5781 51.7734C28.5391 51.9147 28.4686 51.9147 28.3672 51.7734Z" fill="white"/>
<path opacity="0.01" fill-rule="evenodd" clip-rule="evenodd" d="M25.2031 51.9844C25.4842 52.125 25.4842 52.125 25.2031 51.9844Z" fill="white"/>
<path opacity="0.01" fill-rule="evenodd" clip-rule="evenodd" d="M28.1562 51.9844C28.2265 51.9844 28.2969 51.9844 28.3671 51.9844C28.3281 52.1257 28.2577 52.1257 28.1562 51.9844Z" fill="white"/>
<path opacity="0.01" fill-rule="evenodd" clip-rule="evenodd" d="M89.5273 51.9844C89.8085 52.125 89.8085 52.125 89.5273 51.9844Z" fill="white"/>
<path opacity="0.01" fill-rule="evenodd" clip-rule="evenodd" d="M89.1094 52.1953C89.3905 52.336 89.3905 52.336 89.1094 52.1953Z" fill="white"/>
<path opacity="0.01" fill-rule="evenodd" clip-rule="evenodd" d="M72.6524 76.4491C72.5117 76.168 72.5117 76.168 72.6524 76.4491Z" fill="white"/>
<path opacity="0.01" fill-rule="evenodd" clip-rule="evenodd" d="M72.6562 76.4492C72.9374 76.5899 72.9374 76.5899 72.6562 76.4492Z" fill="white"/>
<path opacity="0.01" fill-rule="evenodd" clip-rule="evenodd" d="M40.8125 78.7694C40.6719 78.4883 40.6719 78.4883 40.8125 78.7694Z" fill="white"/>
<path opacity="0.01" fill-rule="evenodd" clip-rule="evenodd" d="M38.7031 81.9297C38.9842 82.0704 38.9842 82.0704 38.7031 81.9297Z" fill="white"/>
<path opacity="0.01" fill-rule="evenodd" clip-rule="evenodd" d="M76.0312 81.9297C76.3124 82.0704 76.3124 82.0704 76.0312 81.9297Z" fill="white"/>
<path opacity="0.01" fill-rule="evenodd" clip-rule="evenodd" d="M38.0703 95.8516C38.3514 95.9922 38.3514 95.9922 38.0703 95.8516Z" fill="white"/>
<path opacity="0.01" fill-rule="evenodd" clip-rule="evenodd" d="M76.6602 95.8516C76.9413 95.9922 76.9413 95.9922 76.6602 95.8516Z" fill="white"/>
<path opacity="0.01" fill-rule="evenodd" clip-rule="evenodd" d="M41.4375 101.965C41.2969 102.106 41.2969 102.106 41.4375 101.965Z" fill="white"/>
<path opacity="0.01" fill-rule="evenodd" clip-rule="evenodd" d="M41.6562 102.602C41.9374 102.742 41.9374 102.742 41.6562 102.602Z" fill="white"/>
<path opacity="0.01" fill-rule="evenodd" clip-rule="evenodd" d="M73.0781 102.602C73.3592 102.742 73.3592 102.742 73.0781 102.602Z" fill="white"/>
<path opacity="0.01" fill-rule="evenodd" clip-rule="evenodd" d="M72.8672 102.812C72.9374 102.812 73.0079 102.812 73.0781 102.812C73.0391 102.954 72.9686 102.954 72.8672 102.812Z" fill="white"/>
<path opacity="0.01" fill-rule="evenodd" clip-rule="evenodd" d="M72.6562 103.02C72.7265 103.02 72.7969 103.02 72.8671 103.02C72.8281 103.161 72.7577 103.161 72.6562 103.02Z" fill="white"/>
<path opacity="0.01" fill-rule="evenodd" clip-rule="evenodd" d="M42.5 103.23C42.3594 103.371 42.3594 103.371 42.5 103.23Z" fill="white"/>
<path opacity="0.01" fill-rule="evenodd" clip-rule="evenodd" d="M72.4414 103.23C72.5116 103.23 72.5821 103.23 72.6523 103.23C72.6133 103.372 72.5428 103.372 72.4414 103.23Z" fill="white"/>
<path opacity="0.01" fill-rule="evenodd" clip-rule="evenodd" d="M44.6094 105.34C44.4687 105.481 44.4687 105.481 44.6094 105.34Z" fill="white"/>
<path opacity="0.01" fill-rule="evenodd" clip-rule="evenodd" d="M45.4458 105.977C45.4458 106.047 45.4458 106.117 45.4458 106.187C45.3045 106.086 45.3045 106.016 45.4458 105.977Z" fill="white"/>
<path opacity="0.01" fill-rule="evenodd" clip-rule="evenodd" d="M69.4922 105.977C69.7733 106.117 69.7733 106.117 69.4922 105.977Z" fill="white"/>
<path opacity="0.01" fill-rule="evenodd" clip-rule="evenodd" d="M45.4531 106.184C45.7342 106.324 45.7342 106.324 45.4531 106.184Z" fill="white"/>
<path opacity="0.01" fill-rule="evenodd" clip-rule="evenodd" d="M69.4922 106.184C69.3516 106.324 69.3516 106.324 69.4922 106.184Z" fill="white"/>
<path opacity="0.01" fill-rule="evenodd" clip-rule="evenodd" d="M68.8594 106.395C69.1405 106.535 69.1405 106.535 68.8594 106.395Z" fill="white"/>
<path opacity="0.01" fill-rule="evenodd" clip-rule="evenodd" d="M68.6484 106.605C68.7187 106.605 68.7891 106.605 68.8593 106.605C68.8203 106.747 68.7499 106.747 68.6484 106.605Z" fill="white"/>
<circle cx="57.4749" cy="90.7874" r="8.7522" fill="white"/>
</svg>
