<svg width="121" height="121" viewBox="0 0 121 121" fill="none" xmlns="http://www.w3.org/2000/svg">
<g clip-path="url(#clip0_5953_4185)">
<path d="M80.3673 27.3547H76.4109C76.1087 27.3961 75.801 27.3723 75.5088 27.2849C75.2165 27.1975 74.9463 27.0486 74.7164 26.848C74.4865 26.6475 74.3022 26.4 74.176 26.1223C74.0497 25.8446 73.9844 25.5431 73.9844 25.238C73.9844 24.933 74.0497 24.6314 74.176 24.3537C74.3022 24.076 74.4865 23.8286 74.7164 23.628C74.9463 23.4275 75.2165 23.2785 75.5088 23.1911C75.801 23.1037 76.1087 23.0799 76.4109 23.1213H80.3673C80.6696 23.0799 80.9772 23.1037 81.2694 23.1911C81.5617 23.2785 81.8319 23.4275 82.0618 23.628C82.2917 23.8286 82.476 24.076 82.6022 24.3537C82.7285 24.6314 82.7938 24.933 82.7938 25.238C82.7938 25.5431 82.7285 25.8446 82.6022 26.1223C82.476 26.4 82.2917 26.6475 82.0618 26.848C81.8319 27.0486 81.5617 27.1975 81.2694 27.2849C80.9772 27.3723 80.6696 27.3961 80.3673 27.3547ZM80.3673 35.2675H76.4109C76.1087 35.309 75.801 35.2852 75.5088 35.1978C75.2165 35.1104 74.9463 34.9614 74.7164 34.7609C74.4865 34.5603 74.3022 34.3129 74.176 34.0352C74.0497 33.7575 73.9844 33.4559 73.9844 33.1509C73.9844 32.8458 74.0497 32.5443 74.176 32.2666C74.3022 31.9888 74.4865 31.7414 74.7164 31.5409C74.9463 31.3403 75.2165 31.1913 75.5088 31.1039C75.801 31.0165 76.1087 30.9928 76.4109 31.0342H80.3673C80.6696 30.9928 80.9772 31.0165 81.2694 31.1039C81.5617 31.1913 81.8319 31.3403 82.0618 31.5409C82.2917 31.7414 82.476 31.9888 82.6022 32.2666C82.7285 32.5443 82.7938 32.8458 82.7938 33.1509C82.7938 33.4559 82.7285 33.7575 82.6022 34.0352C82.476 34.3129 82.2917 34.5603 82.0618 34.7609C81.8319 34.9614 81.5617 35.1104 81.2694 35.1978C80.9772 35.2852 80.6696 35.309 80.3673 35.2675ZM80.3673 43.1804H76.4109C75.9108 43.1462 75.4385 42.9373 75.0769 42.5901C74.7153 42.2429 74.4872 41.7796 74.4327 41.2813C74.4056 40.9974 74.4356 40.711 74.5209 40.4389C74.6063 40.1668 74.7452 39.9146 74.9296 39.697C75.114 39.4795 75.34 39.301 75.5944 39.1722C75.8488 39.0434 76.1264 38.9668 76.4109 38.947H80.3673C80.9339 38.947 81.4774 39.1721 81.878 39.5728C82.2787 39.9734 82.5038 40.5168 82.5038 41.0835C82.4934 41.6432 82.2638 42.1765 81.8642 42.5687C81.4647 42.9608 80.9272 43.1805 80.3673 43.1804Z" fill="white"/>
<path d="M70.7095 65.574V19.6795C70.7956 18.3095 70.6 16.9363 70.135 15.6447C69.6699 14.3531 68.9451 13.1705 68.0053 12.1698C67.0656 11.1691 65.9307 10.3716 64.6708 9.82643C63.411 9.28126 62.0527 9 60.68 9C59.3072 9 57.949 9.28126 56.6891 9.82643C55.4292 10.3716 54.2944 11.1691 53.3546 12.1698C52.4148 13.1705 51.69 14.3531 51.225 15.6447C50.7599 16.9363 50.5643 18.3095 50.6504 19.6795V65.574C46.5575 67.8032 43.3238 71.3324 41.4602 75.6043C39.5966 79.8762 39.2093 84.6471 40.3595 89.1637C41.5097 93.6802 44.1318 97.6848 47.8116 100.545C51.4914 103.405 56.0193 104.958 60.68 104.958C65.3406 104.958 69.8685 103.405 73.5483 100.545C77.2281 97.6848 79.8502 93.6802 81.0004 89.1637C82.1506 84.6471 81.7633 79.8762 79.8997 75.6043C78.0361 71.3324 74.8024 67.8032 70.7095 65.574ZM60.581 100.628C57.1151 100.625 53.7371 99.5364 50.9221 97.5144C48.1071 95.4924 45.9966 92.639 44.8875 89.3553C43.7784 86.0716 43.7264 82.5228 44.7388 79.208C45.7512 75.8933 47.7772 72.9792 50.5317 70.8756C51.8725 69.8649 53.3515 69.0521 54.9234 68.4621V19.6795C54.858 18.8995 54.9552 18.1143 55.2088 17.3737C55.4624 16.6331 55.867 15.9532 56.3969 15.377C56.9268 14.8008 57.5705 14.3409 58.2873 14.0262C59.0041 13.7116 59.7784 13.5492 60.5613 13.5492C61.3441 13.5492 62.1184 13.7116 62.8352 14.0262C63.552 14.3409 64.1957 14.8008 64.7256 15.377C65.2555 15.9532 65.6601 16.6331 65.9137 17.3737C66.1674 18.1143 66.2646 18.8995 66.1992 19.6795V44.0313V68.383C67.7751 68.9642 69.2553 69.7776 70.5908 70.7964C73.3753 72.8882 75.4303 75.8039 76.4641 79.1296C77.4979 82.4554 77.458 86.0222 76.3502 89.324C75.2423 92.6258 73.1226 95.4948 70.292 97.5238C67.4615 99.5529 64.0637 100.639 60.581 100.628Z" fill="white" stroke="white" stroke-width="1.5"/>
<path d="M71.7795 84.5242C71.2989 84.432 70.8012 84.5176 70.3791 84.7651C69.9569 85.0126 69.6391 85.405 69.4848 85.8693C69.2062 87.5391 68.4573 89.0949 67.3259 90.3542C66.1945 91.6134 64.7275 92.5239 63.0969 92.979C61.4664 93.434 59.7398 93.4147 58.1199 92.9232C56.4999 92.4318 55.0537 91.4886 53.9508 90.2043C52.8478 88.92 52.134 87.3479 51.8929 85.6723C51.6519 83.9966 51.8936 82.287 52.5897 80.7439C53.2859 79.2008 54.4076 77.8882 55.8233 76.96C57.2391 76.0319 58.8901 75.5266 60.5828 75.5035C61.2901 75.5151 61.9937 75.608 62.6797 75.7805V24.7823C62.5879 24.3253 62.3406 23.9142 61.98 23.6188C61.6194 23.3235 61.1676 23.1621 60.7015 23.1621C60.2354 23.1621 59.7836 23.3235 59.423 23.6188C59.0624 23.9142 58.8152 24.3253 58.7233 24.7823V71.7449H58.4068C55.8662 72.1938 53.5234 73.4082 51.6921 75.2254C49.8607 77.0426 48.6282 79.3759 48.1597 81.9129C47.5094 85.2602 48.2154 88.7286 50.1222 91.5555C52.029 94.3823 54.9805 96.336 58.3277 96.9869C59.1225 97.1443 59.9308 97.2238 60.7411 97.2243C63.7254 97.224 66.6168 96.1856 68.9194 94.2872C71.2221 92.3887 72.7927 89.7484 73.362 86.8189C73.4544 86.2945 73.3356 85.7549 73.0318 85.3176C72.7279 84.8804 72.2636 84.5809 71.7399 84.4846L71.7795 84.5242ZM107.387 112.496C102.909 112.6 98.523 111.208 94.9245 108.54C91.8668 106.278 88.1641 105.057 84.3609 105.057C80.5577 105.057 76.8549 106.278 73.7972 108.54C70.1672 111.225 65.7709 112.675 61.2554 112.675C56.7399 112.675 52.3436 111.225 48.7136 108.54C45.6819 106.228 41.9618 105.002 38.1499 105.058C34.3762 105.013 30.6973 106.24 27.705 108.54C24.0888 111.203 19.6927 112.594 15.2027 112.496C14.7457 112.404 14.3346 112.157 14.0393 111.796C13.744 111.436 13.5826 110.984 13.5826 110.518C13.5826 110.052 13.744 109.6 14.0393 109.239C14.3346 108.879 14.7457 108.631 15.2027 108.54C19.0246 108.619 22.7565 107.375 25.7664 105.018C29.3826 102.355 33.7787 100.964 38.2686 101.062C42.7456 100.97 47.1273 102.361 50.7313 105.018C53.7412 107.375 57.4731 108.619 61.295 108.54C65.1144 108.603 68.841 107.361 71.8586 105.018C75.4741 102.37 79.8394 100.942 84.3213 100.942C88.8032 100.942 93.1686 102.37 96.784 105.018C99.7939 107.375 103.526 108.619 107.348 108.54C107.805 108.631 108.216 108.879 108.511 109.239C108.806 109.6 108.968 110.052 108.968 110.518C108.968 110.984 108.806 111.436 108.511 111.796C108.216 112.157 107.805 112.404 107.348 112.496H107.387ZM108.495 95.9186C104.676 95.9819 100.949 94.7397 97.9314 92.3974C94.3329 89.7291 89.9473 88.3369 85.4687 88.441C84.1411 88.4234 82.8153 88.5427 81.5123 88.7971C81.168 90.3306 80.6778 91.8277 80.0484 93.2678C81.7775 92.7348 83.5805 92.4811 85.3896 92.5161C89.2702 92.356 93.0867 93.5443 96.1906 95.8791C99.7763 98.5724 104.171 99.9674 108.653 99.8355C109.11 99.7436 109.521 99.4964 109.817 99.1358C110.112 98.7752 110.273 98.3234 110.273 97.8573C110.273 97.3912 110.112 96.9394 109.817 96.5788C109.521 96.2182 109.11 95.9709 108.653 95.8791L108.495 95.9186ZM39.3764 88.4806C38.5456 88.4806 37.6356 88.4806 36.6465 88.4806C32.1696 88.3885 27.7878 89.7795 24.1838 92.437C21.1739 94.7936 17.442 96.0375 13.6202 95.9582C13.1632 96.0501 12.7521 96.2973 12.4567 96.6579C12.1614 97.0185 12 97.4703 12 97.9364C12 98.4025 12.1614 98.8543 12.4567 99.2149C12.7521 99.5755 13.1632 99.8228 13.6202 99.9146C18.0988 100.019 22.4843 98.6265 26.0829 95.9582C29.1544 93.5703 32.9546 92.3128 36.8443 92.3974C38.1729 92.3995 39.4981 92.532 40.8007 92.7931C40.2225 91.3993 39.7723 89.9559 39.4556 88.4806H39.3764Z" fill="white" stroke="white" stroke-width="1.5"/>
</g>
<defs>
<clipPath id="clip0_5953_4185">
<rect width="120" height="120" fill="white" transform="translate(0.777344 0.779297)"/>
</clipPath>
</defs>
</svg>
