<svg width="120" height="120" viewBox="0 0 120 120" fill="none" xmlns="http://www.w3.org/2000/svg">
<g clip-path="url(#clip0_490_1567)">
<path opacity="0.963" fill-rule="evenodd" clip-rule="evenodd" d="M56.1337 -0.117188C58.6338 -0.117188 61.1336 -0.117188 63.6337 -0.117188C75.6204 1.98469 83.8624 8.70345 88.3603 20.0391C91.9565 32.3344 89.2612 42.9984 80.2743 52.0312C76.0183 55.7023 71.1356 58.1632 65.6259 59.4141C65.4696 61.2891 65.4696 63.1641 65.6259 65.0391C66.4788 65.8852 67.0256 66.9009 67.2665 68.0859C67.4229 75.1952 67.4229 82.3048 67.2665 89.4141C66.4814 92.1912 64.6455 93.5974 61.7587 93.6328C61.7974 94.4958 61.7585 95.355 61.6415 96.2109C61.0708 97.3181 60.1722 97.6697 58.9462 97.2656C58.751 97.0704 58.5555 96.8749 58.3603 96.6797C58.0399 95.6953 57.9227 94.6798 58.0087 93.6328C55.1219 93.5974 53.2861 92.1912 52.5009 89.4141C52.3446 82.3048 52.3446 75.1952 52.5009 68.0859C52.7418 66.9009 53.2886 65.8852 54.1415 65.0391C54.2979 63.1641 54.2979 61.2891 54.1415 59.4141C40.3144 55.9777 32.2676 47.2275 30.0009 33.1641C29.1422 24.0502 31.7594 16.1205 37.8525 9.375C38.6465 9.22059 39.4277 9.25964 40.1962 9.49219C40.5705 10.1528 40.6877 10.856 40.5478 11.6016C31.814 22.3332 31.1109 33.5831 38.4384 45.3516C40.6493 48.1549 43.2663 50.4987 46.29 52.3828C51.6033 55.6268 57.3843 56.8378 63.6337 56.0156C76.6523 53.3004 84.1915 45.3708 86.2509 32.2266C86.7738 26.7516 85.6408 21.6735 82.8525 16.9922C77.7473 8.26373 70.091 3.73249 59.8837 3.39844C54.7268 3.4118 49.9612 4.77898 45.5869 7.5C44.6679 7.76688 43.8867 7.57158 43.2431 6.91406C42.9185 6.20023 42.9574 5.4971 43.3603 4.80469C47.2458 2.16889 51.5034 0.528265 56.1337 -0.117188Z" fill="white" stroke="white"/>
<path fill-rule="evenodd" clip-rule="evenodd" d="M70.4297 19.1016C65.7973 14.9637 60.4847 13.8308 54.4922 15.7031C52.6427 16.5866 50.9241 17.6413 49.3359 18.8672C49.5832 18.2642 49.6223 17.6392 49.4531 16.9922C48.9023 16.4806 48.3945 15.9337 47.9297 15.3516C50.775 12.7612 54.1343 11.355 58.0078 11.1328C57.889 12.2158 58.0842 13.2315 58.5938 14.1797C59.9766 15.0053 60.9923 14.6928 61.6406 13.2422C61.7573 12.5434 61.7965 11.8403 61.7578 11.1328C65.598 11.4477 68.9576 12.854 71.8359 15.3516C71.3712 15.9337 70.8633 16.4806 70.3125 16.9922C70.1639 17.7081 70.2028 18.4113 70.4297 19.1016Z" fill="white"/>
<path fill-rule="evenodd" clip-rule="evenodd" d="M64.8049 16.7574C66.1666 16.6142 66.9478 17.2001 67.1486 18.5153C66.1872 20.9858 65.0936 23.4076 63.8674 25.7809C65.3053 27.6453 65.6568 29.7156 64.9221 31.9918C63.6757 34.3937 61.6835 35.5656 58.9455 35.5074C58.4285 36.5806 57.8817 37.6353 57.3049 38.6715C55.7618 39.4224 54.8243 38.9928 54.4924 37.3824C54.7929 36.1154 55.2616 34.9046 55.8986 33.7496C54.5836 32.0546 54.1537 30.1405 54.6096 28.0074C55.8431 25.4157 57.9133 24.0878 60.8205 24.0231C61.9729 21.482 63.3011 19.0602 64.8049 16.7574Z" fill="white"/>
<path fill-rule="evenodd" clip-rule="evenodd" d="M59.1812 27.772C61.3255 27.6914 62.1458 28.7072 61.6421 30.8189C60.4703 32.0688 59.2984 32.0688 58.1265 30.8189C57.7466 29.5118 58.0982 28.496 59.1812 27.772Z" fill="#E3E1E3"/>
<path fill-rule="evenodd" clip-rule="evenodd" d="M48.8672 19.3359C47.7197 20.767 46.7433 22.3295 45.9375 24.0234C43.8598 29.993 44.8364 35.3836 48.8672 40.1953C48.409 40.0024 47.9402 39.9633 47.4609 40.0781C46.7665 40.5377 46.1416 41.0845 45.5859 41.7188C45.3909 41.88 45.2348 41.8409 45.1172 41.6016C42.8147 38.6358 41.4865 35.2762 41.1328 31.5234C41.9958 31.5621 42.855 31.5232 43.7109 31.4062C44.5809 30.8173 44.8542 29.997 44.5312 28.9453C44.336 28.7501 44.1405 28.5546 43.9453 28.3594C43.0399 28.042 42.1024 27.9248 41.1328 28.0078C41.4516 24.1699 42.8578 20.8106 45.3516 17.9297C45.9427 18.4819 46.5675 18.9897 47.2266 19.4531C47.7959 19.618 48.3427 19.5789 48.8672 19.3359Z" fill="white"/>
<path fill-rule="evenodd" clip-rule="evenodd" d="M71.1328 40.1953C72.0851 38.6838 72.9834 37.1215 73.8281 35.5078C75.9108 29.5385 74.9341 24.1479 70.8984 19.3359C71.423 19.5789 71.9698 19.618 72.5391 19.4531C73.1981 18.9897 73.823 18.4819 74.4141 17.9297C76.9078 20.8106 78.3141 24.1699 78.6328 28.0078C77.8477 27.9691 77.0665 28.0083 76.2891 28.125C75.0197 28.8757 74.7853 29.8912 75.5859 31.1719C76.5703 31.4923 77.5859 31.6095 78.6328 31.5234C78.2791 35.2762 76.9509 38.6358 74.6484 41.6016C74.5308 41.8409 74.3747 41.88 74.1797 41.7188C73.624 41.0845 72.9991 40.5377 72.3047 40.0781C71.891 39.9281 71.5003 39.9673 71.1328 40.1953Z" fill="white"/>
<path fill-rule="evenodd" clip-rule="evenodd" d="M49.3356 40.6641C52.1526 43.2811 55.5119 44.6873 59.4137 44.8828C58.127 45.7781 57.6583 47.028 58.0075 48.6328C54.3465 48.2203 51.0653 46.8921 48.1637 44.6484C47.9244 44.5308 47.8853 44.3747 48.0465 44.1797C49.4137 43.3254 49.8433 42.1535 49.3356 40.6641Z" fill="white"/>
<path fill-rule="evenodd" clip-rule="evenodd" d="M70.1953 40.8984C70.0038 42.3127 70.5117 43.4062 71.7188 44.1797C71.88 44.3747 71.8409 44.5308 71.6016 44.6484C68.6993 46.8797 65.418 48.2079 61.7578 48.6328C62.107 47.028 61.6383 45.7781 60.3516 44.8828C64.0936 44.652 67.3748 43.324 70.1953 40.8984Z" fill="white"/>
<path opacity="0.93" fill-rule="evenodd" clip-rule="evenodd" d="M36.681 59.8844C37.9253 59.6652 38.7457 60.134 39.142 61.2906C39.22 68.2438 39.2983 75.1968 39.3764 82.15C40.1913 80.867 41.1679 79.7343 42.306 78.7516C43.7889 78.5167 44.6482 79.1416 44.8842 80.6266C44.7686 81.2873 44.4951 81.8732 44.0639 82.3844C42.2564 84.7884 40.4203 87.1713 38.556 89.5328C37.2567 90.1846 36.202 89.9111 35.392 88.7125C33.8416 86.4588 32.201 84.2711 30.4701 82.15C29.6655 81.0642 29.7044 80.0095 30.5873 78.986C31.5264 78.4783 32.3859 78.5955 33.1654 79.3375C33.9529 80.3202 34.6952 81.3358 35.392 82.3844C35.47 75.2751 35.5483 68.1656 35.6264 61.0563C35.8666 60.5437 36.2182 60.153 36.681 59.8844Z" fill="white"/>
<path opacity="0.929" fill-rule="evenodd" clip-rule="evenodd" d="M81.6784 59.8826C82.6869 59.7176 83.5072 60.0303 84.1393 60.8201C84.2174 68.0077 84.2957 75.195 84.3737 82.3826C85.2418 80.9897 86.2965 79.7787 87.5378 78.7498C89.0089 78.5016 89.7901 79.1264 89.8815 80.6248C89.9087 81.221 89.7135 81.7289 89.2956 82.1482C87.3927 84.7545 85.4005 87.2937 83.319 89.7654C82.2369 90.0694 81.3385 89.7959 80.6237 88.9451C79.0733 86.6913 77.4327 84.5037 75.7018 82.3826C74.6816 81.3122 74.6427 80.2184 75.5846 79.1013C76.6982 78.3942 77.6746 78.5506 78.5143 79.5701C79.082 80.471 79.7071 81.3303 80.3893 82.1482C80.4674 75.195 80.5457 68.242 80.6237 61.2888C80.7641 60.6434 81.1157 60.1746 81.6784 59.8826Z" fill="white"/>
<path fill-rule="evenodd" clip-rule="evenodd" d="M57.7734 59.6484C59.1797 59.6484 60.5859 59.6484 61.9922 59.6484C61.9922 61.0547 61.9922 62.4609 61.9922 63.8672C60.5859 63.8672 59.1797 63.8672 57.7734 63.8672C57.7734 62.4609 57.7734 61.0547 57.7734 59.6484Z" fill="white"/>
<path fill-rule="evenodd" clip-rule="evenodd" d="M58.0078 59.8828C59.2577 59.8828 60.5079 59.8828 61.7578 59.8828C61.7578 61.1327 61.7578 62.3829 61.7578 63.6328C60.5079 63.6328 59.2577 63.6328 58.0078 63.6328C58.0078 62.3829 58.0078 61.1327 58.0078 59.8828Z" fill="#D9D7D9"/>
<path fill-rule="evenodd" clip-rule="evenodd" d="M59.8828 67.3837C59.8828 72.3836 59.8828 77.3838 59.8828 82.3837C58.6329 82.3837 57.3827 82.3837 56.1328 82.3837C56.1328 77.8525 56.1328 73.3211 56.1328 68.7899C56.2976 68.2706 56.61 67.841 57.0703 67.5009C58.0045 67.3839 58.942 67.3448 59.8828 67.3837Z" fill="white"/>
<path fill-rule="evenodd" clip-rule="evenodd" d="M59.8828 67.3837C60.8236 67.3448 61.7611 67.3839 62.6953 67.5009C63.1556 67.841 63.468 68.2706 63.6328 68.7899C63.6328 73.3211 63.6328 77.8525 63.6328 82.3837C62.3829 82.3837 61.1327 82.3837 59.8828 82.3837C59.8828 77.3838 59.8828 72.3836 59.8828 67.3837Z" fill="white"/>
<path fill-rule="evenodd" clip-rule="evenodd" d="M56.1324 68.7891C56.1324 73.3202 56.1324 77.8516 56.1324 82.3828C57.3823 82.3828 58.6325 82.3828 59.8824 82.3828C61.1323 82.3828 62.3825 82.3828 63.6324 82.3828C63.6324 77.8516 63.6324 73.3202 63.6324 68.7891C63.8661 73.3577 63.9441 77.9672 63.8668 82.6172C61.2106 82.6172 58.5542 82.6172 55.898 82.6172C55.8207 77.9672 55.8987 73.3577 56.1324 68.7891Z" fill="white"/>
<path fill-rule="evenodd" clip-rule="evenodd" d="M59.8836 86.1328C59.8836 87.3827 59.8836 88.6329 59.8836 89.8828C59.0241 89.8828 58.1649 89.8828 57.3054 89.8828C56.6136 89.6815 56.1839 89.2127 56.0164 88.4766C55.8997 87.6991 55.8605 86.918 55.8992 86.1328C57.2274 86.1328 58.5554 86.1328 59.8836 86.1328Z" fill="white"/>
<path fill-rule="evenodd" clip-rule="evenodd" d="M59.8828 86.1328C61.211 86.1328 62.539 86.1328 63.8672 86.1328C64.023 87.3595 63.7887 88.4925 63.1641 89.5312C62.8516 89.6876 62.539 89.8437 62.2266 90C60.544 90.1924 58.9034 90.1535 57.3047 89.8828C58.1641 89.8828 59.0234 89.8828 59.8828 89.8828C59.8828 88.6329 59.8828 87.3827 59.8828 86.1328Z" fill="white"/>
<path opacity="0.927" fill-rule="evenodd" clip-rule="evenodd" d="M14.1794 88.0079C14.5776 87.9704 14.9682 88.0093 15.3512 88.1251C39.4689 102.818 64.7033 105.083 91.0543 94.922C95.6755 92.9631 100.129 90.6974 104.414 88.1251C106.772 88.1664 107.397 89.2602 106.289 91.4064C79.6389 107.41 52.0607 109.207 23.5544 96.797C20.0832 95.1791 16.7239 93.3822 13.4762 91.4064C12.6756 90.0191 12.91 88.8861 14.1794 88.0079Z" fill="white" stroke="white"/>
<path opacity="0.933" fill-rule="evenodd" clip-rule="evenodd" d="M14.4142 103.008C39.9838 109.409 65.765 110.386 91.7579 105.938C96.212 105.14 100.626 104.164 105 103.008C106.768 103.499 107.237 104.593 106.406 106.289C98.7149 108.607 90.8633 110.208 82.8517 111.094C59.8525 113.872 37.1181 112.466 14.6486 106.875C13.1336 106.463 12.6258 105.487 13.1251 103.945C13.4766 103.484 13.9063 103.171 14.4142 103.008Z" fill="white" stroke="white"/>
<path opacity="0.997" fill-rule="evenodd" clip-rule="evenodd" d="M105.821 119.883C75.1963 119.883 44.5715 119.883 13.9464 119.883C12.962 119.058 12.7667 118.043 13.3605 116.836C13.5363 116.689 13.7317 116.572 13.9464 116.484C44.5715 116.328 75.1963 116.328 105.821 116.484C106.493 116.811 106.806 117.358 106.759 118.125C106.775 118.914 106.463 119.5 105.821 119.883Z" fill="white" stroke="white"/>
</g>
<defs>
<clipPath id="clip0_490_1567">
<rect width="120" height="120" fill="white"/>
</clipPath>
</defs>
</svg>
