<svg width="121" height="121" viewBox="0 0 121 121" fill="none" xmlns="http://www.w3.org/2000/svg">
<path d="M72.6094 85.1113C72.6094 93.3614 65.8594 100.111 57.6094 100.111C49.3594 100.111 42.6094 93.3614 42.6094 85.1113H52.6094C52.6094 87.8613 54.8594 90.1113 57.6094 90.1113C60.3594 90.1113 62.6094 87.8613 62.6094 85.1113C62.6094 82.3613 60.3594 80.1113 57.6094 80.1113H10.1094V70.1113H57.6094C65.8594 70.1113 72.6094 76.8613 72.6094 85.1113ZM95.1094 32.6113C95.1094 22.9613 87.2594 15.1113 77.6094 15.1113C67.9594 15.1113 60.1094 22.9613 60.1094 32.6113H70.1094C70.1094 28.4613 73.4594 25.1113 77.6094 25.1113C81.7594 25.1113 85.1094 28.4613 85.1094 32.6113C85.1094 36.7613 81.7594 40.1113 77.6094 40.1113H10.1094V50.1113H77.6094C87.2594 50.1113 95.1094 42.2613 95.1094 32.6113ZM92.6094 55.1113H10.1094V65.1113H92.6094C96.7594 65.1113 100.109 68.4613 100.109 72.6113C100.109 76.7613 96.7594 80.1113 92.6094 80.1113V90.1113C102.259 90.1113 110.109 82.2613 110.109 72.6113C110.109 62.9613 102.259 55.1113 92.6094 55.1113Z" fill="white"/>
</svg>
