<svg width="120" height="120" viewBox="0 0 120 120" fill="none" xmlns="http://www.w3.org/2000/svg">
<path d="M89.525 114H29.8454C18.9027 114 10 105.097 10 94.1544V26.8454C10 15.9025 18.9027 7 29.8454 7H89.525C100.468 7 109.37 15.9025 109.37 26.8452V94.1544C109.37 105.097 100.468 114 89.525 114ZM29.8454 16.2914C24.026 16.2914 19.2914 21.0258 19.2914 26.8452V94.1544C19.2914 99.974 24.026 104.709 29.8454 104.709H89.525C95.3444 104.709 100.079 99.974 100.079 94.1544V26.8454C100.079 21.0258 95.3444 16.2914 89.525 16.2914H29.8454ZM83.1479 21.2124C76.4771 21.2124 71.069 26.6203 71.069 33.2913C71.067 35.1387 71.4905 36.9617 72.3068 38.6189L63.6812 47.2447C62.5649 46.8026 61.3751 46.5758 60.1744 46.5764C58.8779 46.5752 57.5947 46.8392 56.4039 47.3522L47.5789 38.5272C48.3419 36.9431 48.7697 35.1673 48.7697 33.2913C48.7697 26.6205 43.3618 21.2124 36.6909 21.2124C30.0201 21.2124 24.612 26.6203 24.612 33.2913C24.612 39.9621 30.0199 45.3702 36.6909 45.3702C38.8329 45.3728 40.9367 44.8028 42.7844 43.7192L51.4107 52.3452C50.8978 53.5361 50.6339 54.8193 50.6351 56.1159C50.6351 60.2074 53.2113 63.6958 56.8296 65.0511V76.1423C51.6913 77.5314 47.9102 82.2233 47.9102 87.8009C47.9102 94.4717 53.3179 99.8798 59.9889 99.8798C66.6598 99.8798 72.0677 94.4719 72.0677 87.8009C72.0677 82.496 68.6465 77.9932 63.8912 76.3701V64.9043C67.3131 63.4553 69.7142 60.0661 69.7142 56.1159C69.7152 54.7247 69.4109 53.3502 68.8228 52.0894L77.1425 43.7698C78.9693 44.8206 81.0404 45.3725 83.1479 45.3702C89.8189 45.3702 95.2268 39.9623 95.2268 33.2913C95.2268 26.6205 89.8189 21.2124 83.1479 21.2124ZM36.6731 37.7512C34.21 37.7512 32.2134 35.7544 32.2134 33.2915C32.2134 30.8282 34.21 28.8313 36.6731 28.8313C39.1362 28.8313 41.133 30.8282 41.133 33.2913C41.133 35.7544 39.1362 37.751 36.6733 37.751M64.379 88.0469C64.379 90.5099 62.3824 92.5066 59.9193 92.5066C57.4562 92.5066 55.4593 90.5099 55.4593 88.0469C55.4593 85.5836 57.456 83.5869 59.9191 83.5869C62.3821 83.5869 64.379 85.5838 64.379 88.0469ZM83.1299 37.751C80.6668 37.751 78.6702 35.7542 78.6702 33.2913C78.6702 30.828 80.6668 28.8311 83.1299 28.8311C85.593 28.8311 87.5898 30.828 87.5898 33.2911C87.5898 35.7542 85.593 37.7508 83.1301 37.7508" fill="white"/>
</svg>
