<svg width="120" height="120" viewBox="0 0 120 120" fill="none" xmlns="http://www.w3.org/2000/svg">
<path d="M54.3594 77.1562V87H24.0859V77.1562H54.3594ZM28.4219 30.125V87H15.6875V30.125H28.4219ZM50.4531 53.0156V62.5469H24.0859V53.0156H50.4531ZM54.3984 30.125V40.0078H24.0859V30.125H54.3984ZM93.3047 67.9375H105.961C105.753 71.8438 104.685 75.2943 102.758 78.2891C100.857 81.2578 98.2135 83.5885 94.8281 85.2812C91.4427 86.9479 87.4193 87.7812 82.7578 87.7812C79.0339 87.7812 75.7005 87.1432 72.7578 85.8672C69.8151 84.5911 67.3151 82.7682 65.2578 80.3984C63.2266 78.0026 61.6641 75.125 60.5703 71.7656C59.5026 68.3802 58.9688 64.5651 58.9688 60.3203V56.8438C58.9688 52.599 59.5286 48.7839 60.6484 45.3984C61.7682 42.013 63.3698 39.1224 65.4531 36.7266C67.5365 34.3307 70.0365 32.4948 72.9531 31.2188C75.8698 29.9427 79.125 29.3047 82.7188 29.3047C87.5625 29.3047 91.651 30.1771 94.9844 31.9219C98.3177 33.6667 100.896 36.0625 102.719 39.1094C104.568 42.1562 105.674 45.6328 106.039 49.5391H93.3438C93.2396 47.3255 92.8229 45.4635 92.0938 43.9531C91.3646 42.4167 90.2448 41.2578 88.7344 40.4766C87.224 39.6953 85.2188 39.3047 82.7188 39.3047C80.8958 39.3047 79.2943 39.6432 77.9141 40.3203C76.5599 40.9974 75.4271 42.0521 74.5156 43.4844C73.6302 44.9167 72.9661 46.7396 72.5234 48.9531C72.0807 51.1406 71.8594 53.7448 71.8594 56.7656V60.3203C71.8594 63.3151 72.0547 65.9062 72.4453 68.0938C72.8359 70.2812 73.4609 72.0911 74.3203 73.5234C75.2057 74.9557 76.3385 76.0234 77.7188 76.7266C79.099 77.4297 80.7786 77.7812 82.7578 77.7812C85.0234 77.7812 86.9115 77.4297 88.4219 76.7266C89.9323 75.9974 91.0911 74.9036 91.8984 73.4453C92.7057 71.987 93.1745 70.151 93.3047 67.9375Z" fill="white"/>
</svg>
