<svg width="120" height="120" viewBox="0 0 120 120" fill="none" xmlns="http://www.w3.org/2000/svg">
<path d="M55.7484 75.9L48.6484 68.85L55.7484 61.75L62.7984 68.85L69.8484 61.75L62.7984 54.7L69.8484 47.65L76.9484 54.7L83.9984 47.65L69.8484 33.5L34.4984 68.85L48.6484 83L55.7484 75.9ZM15.3984 95L30.9984 79.45L20.3984 68.85L69.8484 19.35L80.4984 30L87.4984 22.9L80.4984 15.8L87.4984 8.75L108.748 30L101.698 37L94.5984 30L87.4984 37L98.1484 47.65L48.6484 97.1L38.0484 86.5L15.3984 109.2V95Z" fill="white"/>
</svg>
