<svg width="120" height="120" viewBox="0 0 120 120" fill="none" xmlns="http://www.w3.org/2000/svg">
<path d="M89.125 87.5L93.5 91.875C94.4167 92.875 94.8967 94.0634 94.94 95.44C94.9834 96.8167 94.5034 98.0034 93.5 99C92.4967 99.9967 91.33 100.497 90 100.5C88.67 100.503 87.5034 100.003 86.5 99L73.5 86C72.5 85 72 83.8334 72 82.5C72 81.1667 72.5 80 73.5 79L86.5 66C87.5 65 88.6667 64.5 90 64.5C91.3334 64.5 92.5 65 93.5 66C94.5 67 94.98 68.1884 94.94 69.565C94.9 70.9417 94.42 72.1284 93.5 73.125L89.125 77.5H105C106.417 77.5 107.605 77.98 108.565 78.94C109.525 79.9 110.003 81.0867 110 82.5C109.997 83.9134 109.517 85.1017 108.56 86.065C107.603 87.0284 106.417 87.5067 105 87.5H89.125ZM20 100C17.25 100 14.8967 99.0217 12.94 97.065C10.9834 95.1084 10.0034 92.7534 10 90V75C10 72.25 10.98 69.8967 12.94 67.94C14.9 65.9834 17.2534 65.0034 20 65H50C52.75 65 55.105 65.98 57.065 67.94C59.025 69.9 60.0034 72.2534 60 75V90C60 92.75 59.0217 95.105 57.065 97.065C55.1084 99.025 52.7534 100.003 50 100H20ZM20 90H50V75H20V90ZM30.875 42.5H15C13.5834 42.5 12.3967 42.02 11.44 41.06C10.4834 40.1 10.0034 38.9134 10 37.5C9.99668 36.0867 10.4767 34.9 11.44 33.94C12.4034 32.98 13.59 32.5 15 32.5H30.875L26.5 28.125C25.5834 27.125 25.105 25.9384 25.065 24.565C25.025 23.1917 25.5034 22.0033 26.5 21C27.4967 19.9967 28.6634 19.4967 30 19.5C31.3367 19.5033 32.5034 20.0033 33.5 21L46.5 34C47.5 35 48 36.1667 48 37.5C48 38.8334 47.5 40 46.5 41L33.5 54C32.5 55 31.3334 55.5 30 55.5C28.6667 55.5 27.5 55 26.5 54C25.5 53 25.02 51.8134 25.06 50.44C25.1 49.0667 25.58 47.8784 26.5 46.875L30.875 42.5ZM70 55C67.25 55 64.8967 54.0217 62.94 52.065C60.9834 50.1084 60.0034 47.7534 60 45V30C60 27.25 60.98 24.8967 62.94 22.94C64.9 20.9833 67.2534 20.0033 70 20H100C102.75 20 105.105 20.98 107.065 22.94C109.025 24.9 110.003 27.2534 110 30V45C110 47.75 109.022 50.105 107.065 52.065C105.108 54.025 102.753 55.0034 100 55H70ZM70 45H100V30H70V45Z" fill="white"/>
</svg>
