<svg width="120" height="120" viewBox="0 0 120 120" fill="none" xmlns="http://www.w3.org/2000/svg">
<path d="M115 55.05L90 55C87.25 55 85 57.25 85 60V105C85 107.75 87.25 110 90 110H115C117.75 110 120 107.75 120 105V60C120 57.25 117.75 55.05 115 55.05ZM115 100H90V65H115V100ZM100 10H10C4.45 10 0 14.45 0 20V80C0 82.6522 1.05357 85.1957 2.92893 87.0711C4.8043 88.9464 7.34784 90 10 90H45V100H35V110H75V100H65V90H75V80H10V20H100V45H110V20C110 17.3478 108.946 14.8043 107.071 12.9289C105.196 11.0536 102.652 10 100 10ZM59.85 45L55 30L50.15 45H35L47.35 53.8L42.65 68.35L55 59.35L67.35 68.35L62.65 53.8L75 45H59.85Z" fill="white"/>
</svg>
