<svg width="120" height="120" viewBox="0 0 120 120" fill="none" xmlns="http://www.w3.org/2000/svg">
<path d="M20 110H10V10H20M110 10H100V110H110M55 20V45.9C52.1042 46.951 49.6023 48.8681 47.8342 51.3908C46.0661 53.9135 45.1176 56.9194 45.1176 60C45.1176 63.0806 46.0661 66.0865 47.8342 68.6092C49.6023 71.1319 52.1042 73.049 55 74.1V100H65V74.1C67.8958 73.049 70.3977 71.1319 72.1658 68.6092C73.9339 66.0865 74.8824 63.0806 74.8824 60C74.8824 56.9194 73.9339 53.9135 72.1658 51.3908C70.3977 48.8681 67.8958 46.951 65 45.9V20H55Z" fill="white"/>
</svg>
