<svg width="120" height="120" viewBox="0 0 120 120" fill="none" xmlns="http://www.w3.org/2000/svg">
<path d="M64.9984 76.4V42.5C64.9984 41.1739 64.4716 39.9021 63.534 38.9645C62.5963 38.0268 61.3245 37.5 59.9984 37.5C58.6723 37.5 57.4006 38.0268 56.4629 38.9645C55.5252 39.9021 54.9984 41.1739 54.9984 42.5V76.4C53.4871 77.2726 52.2303 78.5254 51.3532 80.0342C50.476 81.5429 50.009 83.2549 49.9984 85C49.9984 87.6522 51.052 90.1957 52.9274 92.0711C54.8027 93.9464 57.3463 95 59.9984 95C62.6506 95 65.1941 93.9464 67.0695 92.0711C68.9449 90.1957 69.9984 87.6522 69.9984 85C69.9879 83.2549 69.5208 81.5429 68.6437 80.0342C67.7665 78.5254 66.5098 77.2726 64.9984 76.4ZM82.4984 65V27.5C82.4984 21.5326 80.1279 15.8097 75.9083 11.5901C71.6888 7.37053 65.9658 5 59.9984 5C54.0311 5 48.3081 7.37053 44.0885 11.5901C39.869 15.8097 37.4984 21.5326 37.4984 27.5V65C34.0426 68.916 31.6691 73.6664 30.6125 78.7812C29.5559 83.896 29.8529 89.198 31.4742 94.1628C33.0955 99.1276 35.9848 103.583 39.8563 107.089C43.7279 110.594 48.4475 113.028 53.5484 114.15C55.6674 114.633 57.8267 114.918 59.9984 115C65.8016 115.027 71.488 113.37 76.3685 110.231C81.2491 107.091 85.1143 102.603 87.4957 97.3113C89.8771 92.0192 90.6725 86.1501 89.7856 80.415C88.8986 74.68 86.3673 69.3254 82.4984 65ZM72.4984 100.35C68.5202 103.877 63.3036 105.68 57.9963 105.361C52.6891 105.042 47.7258 102.628 44.1984 98.65C40.671 94.6718 38.8685 89.4552 39.1873 84.1479C39.5061 78.8406 41.9202 73.8774 45.8984 70.35C46.3709 69.8869 46.7467 69.3347 47.0042 68.7253C47.2617 68.116 47.3957 67.4615 47.3984 66.8V27.5C47.3984 24.1848 48.7154 21.0054 51.0596 18.6612C53.4038 16.317 56.5832 15 59.8984 15C63.2136 15 66.3931 16.317 68.7373 18.6612C71.0815 21.0054 72.3984 24.1848 72.3984 27.5V67.2C72.4012 67.8615 72.5352 68.516 72.7927 69.1253C73.0501 69.7347 73.426 70.2869 73.8984 70.75C75.9422 72.7244 77.5417 75.1116 78.5905 77.7527C79.6393 80.3937 80.1133 83.2279 79.9808 86.0665C79.8484 88.9051 79.1125 91.6829 77.8223 94.2148C76.5321 96.7467 74.7172 98.9745 72.4984 100.75V100.35Z" fill="white"/>
</svg>
