<svg width="120" height="120" viewBox="0 0 120 120" fill="none" xmlns="http://www.w3.org/2000/svg">
<path d="M56.5 49L46.5 39C46 38.5 45.625 37.9383 45.375 37.315C45.125 36.6917 45 36.045 45 35.375V15C45 13.5833 45.48 12.3967 46.44 11.44C47.4 10.4833 48.5867 10.0033 50 10H70C71.4167 10 72.605 10.48 73.565 11.44C74.525 12.4 75.0033 13.5867 75 15V35.375C75 36.0417 74.875 36.6883 74.625 37.315C74.375 37.9417 74 38.5033 73.5 39L63.5 49C63 49.5 62.4583 49.855 61.875 50.065C61.2917 50.275 60.6667 50.3783 60 50.375C59.3333 50.3717 58.7083 50.2683 58.125 50.065C57.5417 49.8617 57 49.5067 56.5 49ZM71 63.5C70.5 63 70.1467 62.4583 69.94 61.875C69.7333 61.2917 69.6283 60.6667 69.625 60C69.6217 59.3333 69.7267 58.7083 69.94 58.125C70.1533 57.5417 70.5067 57 71 56.5L81 46.5C81.5 46 82.0633 45.625 82.69 45.375C83.3167 45.125 83.9617 45 84.625 45H105C106.417 45 107.605 45.48 108.565 46.44C109.525 47.4 110.003 48.5867 110 50V70C110 71.4167 109.52 72.605 108.56 73.565C107.6 74.525 106.413 75.0033 105 75H84.625C83.9583 75 83.3133 74.875 82.69 74.625C82.0667 74.375 81.5033 74 81 73.5L71 63.5ZM10 70V50C10 48.5833 10.48 47.3967 11.44 46.44C12.4 45.4833 13.5867 45.0033 15 45H35.375C36.0417 45 36.6883 45.125 37.315 45.375C37.9417 45.625 38.5033 46 39 46.5L49 56.5C49.5 57 49.855 57.5417 50.065 58.125C50.275 58.7083 50.3783 59.3333 50.375 60C50.3717 60.6667 50.2683 61.2917 50.065 61.875C49.8617 62.4583 49.5067 63 49 63.5L39 73.5C38.5 74 37.9383 74.375 37.315 74.625C36.6917 74.875 36.045 75 35.375 75H15C13.5833 75 12.3967 74.52 11.44 73.56C10.4833 72.6 10.0033 71.4133 10 70ZM45 105V84.625C45 83.9583 45.125 83.3133 45.375 82.69C45.625 82.0667 46 81.5033 46.5 81L56.5 71C57 70.5 57.5417 70.1467 58.125 69.94C58.7083 69.7333 59.3333 69.6283 60 69.625C60.6667 69.6217 61.2917 69.7267 61.875 69.94C62.4583 70.1533 63 70.5067 63.5 71L73.5 81C74 81.5 74.375 82.0633 74.625 82.69C74.875 83.3167 75 83.9617 75 84.625V105C75 106.417 74.52 107.605 73.56 108.565C72.6 109.525 71.4133 110.003 70 110H50C48.5833 110 47.3967 109.52 46.44 108.56C45.4833 107.6 45.0033 106.413 45 105ZM60 38.25L65 33.25V20H55V33.25L60 38.25ZM20 65H33.25L38.25 60L33.25 55H20V65ZM55 100H65V86.75L60 81.75L55 86.75V100ZM86.75 65H100V55H86.75L81.75 60L86.75 65Z" fill="white"/>
</svg>
