<svg width="120" height="120" viewBox="0 0 120 120" fill="none" xmlns="http://www.w3.org/2000/svg">
<path d="M43.5 104.997C38.5833 104.997 35.3133 104.163 33.69 102.497C32.0667 100.83 29.7533 99.9968 26.75 99.9968C25.5833 99.9968 24.4583 100.205 23.375 100.622C22.2917 101.038 20.2917 102.08 17.375 103.747C15.7083 104.663 14.0633 104.643 12.44 103.687C10.8167 102.73 10.0033 101.292 10 99.3718C10 98.4551 10.23 97.6001 10.69 96.8068C11.15 96.0134 11.795 95.4101 12.625 94.9968C16.625 92.8301 19.3967 91.4551 20.94 90.8718C22.4833 90.2884 24.42 89.9968 26.75 89.9968C31.5 89.9968 34.6883 90.8301 36.315 92.4968C37.9417 94.1634 40.2533 94.9968 43.25 94.9968C46.4167 94.9968 48.77 94.1634 50.31 92.4968C51.85 90.8301 55.08 89.9968 60 89.9968C64.75 89.9968 67.9583 90.8301 69.625 92.4968C71.2917 94.1634 73.5833 94.9968 76.5 94.9968C79.6667 94.9968 82.02 94.1634 83.56 92.4968C85.1 90.8301 88.33 89.9968 93.25 89.9968C95.5833 89.9968 97.5417 90.2884 99.125 90.8718C100.708 91.4551 103.458 92.8301 107.375 94.9968C108.208 95.4134 108.853 96.0184 109.31 96.8118C109.767 97.6051 109.997 98.4584 110 99.3718C110 101.288 109.167 102.727 107.5 103.687C105.833 104.647 104.167 104.667 102.5 103.747C99.5833 102.08 97.605 101.038 96.565 100.622C95.525 100.205 94.42 99.9968 93.25 99.9968C90.25 99.9968 87.98 100.83 86.44 102.497C84.9 104.163 81.67 104.997 76.75 104.997C72 104.997 68.7717 104.163 67.065 102.497C65.3583 100.83 63.0033 99.9968 60 99.9968C56.8333 99.9968 54.52 100.83 53.06 102.497C51.6 104.163 48.4133 104.997 43.5 104.997ZM30 19.9968C30 21.4134 29.52 22.6018 28.56 23.5618C27.6 24.5218 26.4133 25.0001 25 24.9968H20C18.5833 24.9968 17.3967 24.5168 16.44 23.5568C15.4833 22.5968 15.0033 21.4101 15 19.9968C14.9967 18.5834 15.4767 17.3968 16.44 16.4368C17.4033 15.4768 18.59 14.9968 20 14.9968H25C26.4167 14.9968 27.605 15.4768 28.565 16.4368C29.525 17.3968 30.0033 18.5834 30 19.9968ZM37.625 38.3718C38.625 39.3718 39.125 40.5601 39.125 41.9368C39.125 43.3134 38.625 44.5001 37.625 45.4968L34.125 48.9968C33.2083 49.9134 32.0633 50.3718 30.69 50.3718C29.3167 50.3718 28.1283 49.9134 27.125 48.9968C26.125 47.9968 25.625 46.8101 25.625 45.4368C25.625 44.0634 26.125 42.8751 27.125 41.8718L30.625 38.3718C31.5417 37.4551 32.6883 36.9968 34.065 36.9968C35.4417 36.9968 36.6283 37.4551 37.625 38.3718ZM60 39.9968C54.25 39.9968 49.125 38.2468 44.625 34.7468C40.125 31.2468 37.1667 26.7468 35.75 21.2468C35.3333 19.9134 35.48 18.6634 36.19 17.4968C36.9 16.3301 37.9617 15.5384 39.375 15.1218C40.7083 14.7051 41.9583 14.8518 43.125 15.5618C44.2917 16.2718 45.0833 17.3334 45.5 18.7468C46.4167 22.0801 48.1883 24.7884 50.815 26.8718C53.4417 28.9551 56.5033 29.9968 60 29.9968C63.4967 29.9968 66.58 28.9551 69.25 26.8718C71.92 24.7884 73.67 22.0801 74.5 18.7468C74.9167 17.4134 75.7083 16.3934 76.875 15.6868C78.0417 14.9801 79.2917 14.8334 80.625 15.2468C81.9583 15.6601 82.98 16.4318 83.69 17.5618C84.4 18.6918 84.545 19.9201 84.125 21.2468C82.7083 26.7468 79.77 31.2468 75.31 34.7468C70.85 38.2468 65.7467 39.9968 60 39.9968ZM60 44.9968C61.4167 44.9968 62.605 45.4768 63.565 46.4368C64.525 47.3968 65.0033 48.5834 65 49.9968V54.9968C65 56.4134 64.52 57.6018 63.56 58.5618C62.6 59.5218 61.4133 60.0001 60 59.9968C58.5867 59.9934 57.4 59.5134 56.44 58.5568C55.48 57.6001 55 56.4134 55 54.9968V49.9968C55 48.5801 55.48 47.3934 56.44 46.4368C57.4 45.4801 58.5867 45.0001 60 44.9968ZM82.375 38.4968C83.2917 37.5801 84.4583 37.1218 85.875 37.1218C87.2917 37.1218 88.4583 37.5801 89.375 38.4968L92.875 41.9968C93.875 42.9968 94.3967 44.1634 94.44 45.4968C94.4833 46.8301 94.0033 47.9968 93 48.9968C91.9967 49.9968 90.81 50.4968 89.44 50.4968C88.07 50.4968 86.8817 49.9968 85.875 48.9968L82.375 45.4968C81.4583 44.4968 80.98 43.3301 80.94 41.9968C80.9 40.6634 81.3783 39.4968 82.375 38.4968ZM105 19.9968C105 21.4134 104.522 22.6018 103.565 23.5618C102.608 24.5218 101.42 25.0001 100 24.9968H95C93.5833 24.9968 92.3967 24.5168 91.44 23.5568C90.4833 22.5968 90.0033 21.4101 90 19.9968C89.9967 18.5834 90.4767 17.3968 91.44 16.4368C92.4033 15.4768 93.59 14.9968 95 14.9968H100C101.417 14.9968 102.605 15.4768 103.565 16.4368C104.525 17.3968 105.003 18.5834 105 19.9968ZM43.5 84.9968C38.5833 84.9968 35.3133 84.1634 33.69 82.4968C32.0667 80.8301 29.7533 79.9968 26.75 79.9968C25.5833 79.9968 24.4583 80.2051 23.375 80.6218C22.2917 81.0384 20.2917 82.0801 17.375 83.7468C15.7083 84.6634 14.0633 84.6434 12.44 83.6868C10.8167 82.7301 10.0033 81.2918 10 79.3718C10 78.4551 10.23 77.6001 10.69 76.8068C11.15 76.0134 11.795 75.4101 12.625 74.9968C16.625 72.8301 19.3967 71.4551 20.94 70.8718C22.4833 70.2884 24.42 69.9968 26.75 69.9968C31.5 69.9968 34.6883 70.8301 36.315 72.4968C37.9417 74.1634 40.2533 74.9968 43.25 74.9968C46.4167 74.9968 48.77 74.1634 50.31 72.4968C51.85 70.8301 55.08 69.9968 60 69.9968C64.75 69.9968 67.9583 70.8301 69.625 72.4968C71.2917 74.1634 73.5833 74.9968 76.5 74.9968C79.6667 74.9968 82.02 74.1634 83.56 72.4968C85.1 70.8301 88.33 69.9968 93.25 69.9968C95.5833 69.9968 97.5417 70.2884 99.125 70.8718C100.708 71.4551 103.458 72.8301 107.375 74.9968C108.208 75.4134 108.853 76.0184 109.31 76.8118C109.767 77.6051 109.997 78.4584 110 79.3718C110 81.2884 109.167 82.7268 107.5 83.6868C105.833 84.6468 104.167 84.6668 102.5 83.7468C99.5833 82.0801 97.605 81.0384 96.565 80.6218C95.525 80.2051 94.42 79.9968 93.25 79.9968C90.25 79.9968 87.98 80.8301 86.44 82.4968C84.9 84.1634 81.67 84.9968 76.75 84.9968C72 84.9968 68.7717 84.1634 67.065 82.4968C65.3583 80.8301 63.0033 79.9968 60 79.9968C56.8333 79.9968 54.52 80.8301 53.06 82.4968C51.6 84.1634 48.4133 84.9968 43.5 84.9968Z" fill="white"/>
</svg>
