<svg width="121" height="121" viewBox="0 0 121 121" fill="none" xmlns="http://www.w3.org/2000/svg">
<g clip-path="url(#clip0_5953_4516)">
<path d="M50.0346 94.9634C48.8885 93.2611 47.636 91.6328 46.2846 90.0884C44.0236 87.4701 42.5311 84.2773 41.9721 80.8634C41.9407 80.4205 41.7722 79.9984 41.49 79.6556C41.2077 79.3129 40.8258 79.0666 40.3971 78.9509C33.7738 76.4384 27.7275 72.6116 22.6221 67.7009C22.4566 67.5166 22.2814 67.3414 22.0971 67.1759C21.2346 66.2384 21.0846 65.4134 21.8346 64.8134C22.5846 64.2134 23.4096 64.4384 24.1221 65.1134C27.5354 68.5533 31.4559 71.4494 35.7471 73.7009C37.3221 74.5634 39.0096 75.2759 40.6596 76.0259C41.2971 76.3259 41.6346 76.2884 41.7096 75.4634C42.0762 71.485 43.6311 67.7089 46.1721 64.6259C46.9221 63.6884 45.9096 63.6884 45.4971 63.5384C41.2305 61.7475 37.3188 59.2075 33.9471 56.0384L33.2721 55.3259C33.0765 55.0514 32.9845 54.7164 33.0124 54.3805C33.0404 54.0446 33.1866 53.7295 33.4249 53.4911C33.6633 53.2528 33.9784 53.1067 34.3143 53.0787C34.6502 53.0507 34.9851 53.1427 35.2596 53.3384C36.1971 54.1259 37.0221 54.9509 37.9596 55.7384C40.9384 58.178 44.2949 60.1159 47.8971 61.4759C48.2284 61.6229 48.5946 61.6727 48.9531 61.6196C49.3117 61.5665 49.6477 61.4126 49.9221 61.1759C53.1984 58.7145 57.1565 57.3281 61.2525 57.2073C65.3485 57.0864 69.3815 58.237 72.7971 60.5009C73.1491 60.7285 73.5592 60.8496 73.9784 60.8496C74.3975 60.8496 74.8077 60.7285 75.1596 60.5009C79.3391 58.7143 83.153 56.1717 86.4096 53.0009C86.7301 52.6235 87.1643 52.3604 87.6471 52.2509C87.9143 52.2108 88.1872 52.2541 88.4289 52.3749C88.6705 52.4957 88.8689 52.6881 88.9971 52.9259C89.1856 53.2046 89.2631 53.5437 89.2145 53.8767C89.166 54.2097 88.9948 54.5125 88.7346 54.7259C87.3556 56.0849 85.8764 57.3384 84.3096 58.4759C82.1336 60.119 79.7817 61.515 77.2971 62.6384C76.5096 63.0134 76.5096 63.2384 77.0721 63.8759C79.548 66.6312 81.1757 70.0429 81.7596 73.7009C81.7596 74.8259 82.2096 74.9384 83.2221 74.4884C88.4533 71.9957 93.2415 68.6643 97.3971 64.6259L97.9971 64.2509C98.2789 64.0639 98.6179 63.9832 98.9537 64.0233C99.2894 64.0633 99.6 64.2214 99.8299 64.4693C100.06 64.7173 100.194 65.0389 100.209 65.3767C100.223 65.7145 100.117 66.0465 99.9096 66.3134C98.5972 67.6581 97.1939 68.911 95.7096 70.0634C91.9376 73.1236 87.7606 75.6475 83.2971 77.5634C82.8178 77.7297 82.4 78.0372 82.0988 78.4455C81.7976 78.8538 81.627 79.3438 81.6096 79.8509C81.21 83.7783 79.6278 87.492 77.0721 90.5009C76.2471 91.4759 75.4596 92.4884 74.7096 93.5384C74.5221 93.7634 74.1471 94.0634 74.3721 94.3634C74.5971 94.6634 75.0096 94.3634 75.3096 94.3634C88.0577 91.5395 99.7536 85.1847 109.06 76.0259C110.11 75.0134 110.972 74.8634 111.572 75.6134C112.172 76.3634 111.797 77.3759 111.085 78.0884C100.944 88.0672 88.0802 94.8254 74.1096 97.5134C73.4264 97.5671 72.7822 97.8532 72.2842 98.3239C71.7861 98.7947 71.4642 99.4218 71.3721 100.101C70.6971 102.951 70.4721 105.876 69.9471 108.763C69.7377 110.117 69.2497 111.413 68.5138 112.568C67.778 113.723 66.8103 114.714 65.6721 115.476C65.2326 115.895 64.6484 116.129 64.0409 116.129C63.4333 116.129 62.8491 115.895 62.4096 115.476C62.2325 115.323 62.0062 115.239 61.7721 115.239C61.538 115.239 61.3118 115.323 61.1346 115.476C60.7573 115.811 60.2703 115.995 59.7659 115.995C59.2614 115.995 58.7745 115.811 58.3971 115.476C57.248 114.731 56.2651 113.758 55.5101 112.615C54.7551 111.473 54.2442 110.187 54.0096 108.838C53.4471 105.838 53.2596 102.801 52.5096 99.8009C52.4322 99.323 52.1921 98.8866 51.83 98.5654C51.4678 98.2443 51.0058 98.0581 50.5221 98.0384C35.6917 96.1887 21.8552 89.5992 11.0721 79.2509C9.79713 78.0134 9.57213 77.2634 10.2471 76.5509C10.9221 75.8384 11.7471 75.9134 13.0596 77.1884C22.8462 86.7784 35.3763 93.0827 48.9096 95.2259C49.1044 95.2769 49.3086 95.2797 49.5046 95.2339C49.7007 95.1882 49.8826 95.0953 50.0346 94.9634ZM61.8096 100.663C63.5721 100.663 65.3346 100.663 67.1346 100.663C67.2854 100.69 67.4399 100.685 67.5889 100.65C67.7378 100.615 67.878 100.55 68.0009 100.459C68.1237 100.367 68.2267 100.252 68.3034 100.119C68.3801 99.987 68.4291 99.8403 68.4471 99.6884C69.531 95.6373 71.6355 91.9318 74.5596 88.9259C76.8285 86.4602 78.3301 83.3871 78.8811 80.082C79.432 76.7769 79.0085 73.3829 77.6622 70.3145C76.3159 67.2462 74.1052 64.6364 71.3 62.8039C68.4948 60.9713 65.2166 59.9955 61.8659 59.9955C58.5152 59.9955 55.237 60.9713 52.4318 62.8039C49.6266 64.6364 47.4158 67.2462 46.0695 70.3145C44.7232 73.3829 44.2997 76.7769 44.8507 80.082C45.4017 83.3871 46.9033 86.4602 49.1721 88.9259C52.0823 91.8921 54.1752 95.5611 55.2471 99.5759C55.2647 99.7317 55.3146 99.8821 55.3937 100.018C55.4728 100.153 55.5793 100.27 55.7064 100.362C55.8335 100.454 55.9784 100.518 56.1318 100.551C56.2852 100.583 56.4437 100.583 56.5971 100.551C58.3221 100.626 60.0471 100.663 61.8096 100.663ZM61.8096 107.863H64.2471C67.2096 107.863 67.1721 107.863 67.5471 104.976C67.5471 103.926 67.5471 103.438 66.2721 103.476C63.9846 103.476 61.6596 103.476 59.3346 103.476C55.8846 103.476 55.9221 103.476 56.5221 106.851C56.5258 106.994 56.56 107.135 56.6223 107.264C56.6847 107.394 56.7737 107.508 56.8836 107.6C56.9936 107.693 57.1218 107.76 57.2599 107.799C57.398 107.838 57.5428 107.847 57.6846 107.826L61.8096 107.863ZM61.8096 110.863H58.4721C58.1721 110.863 57.7596 110.863 57.9096 111.388C58.0678 111.8 58.3632 112.144 58.7458 112.362C59.1285 112.581 59.5749 112.661 60.0096 112.588C60.991 112.233 62.0658 112.233 63.0471 112.588C64.3221 113.188 64.8096 112.363 65.4096 111.576C66.0096 110.788 65.5971 110.863 65.0346 110.863H61.8096Z" fill="white" stroke="white" stroke-width="1.64384"/>
<path d="M61.0985 38.5262C56.5519 38.5933 52.0189 38.0124 47.636 36.8012C45.7512 36.2929 44.097 35.1548 42.9485 33.5762C39.1985 28.9637 36.7985 23.7887 33.7235 18.8762C33.3195 18.21 32.855 17.5823 32.336 17.0012C31.9075 16.6078 31.5654 16.1296 31.3314 15.5971C31.0974 15.0645 30.9766 14.4891 30.9766 13.9074C30.9766 13.3257 31.0974 12.7504 31.3314 12.2178C31.5654 11.6852 31.9075 11.2071 32.336 10.8137C34.4626 8.92565 37.0496 7.63211 39.836 7.06368C45.2543 5.46708 50.8439 4.5229 56.486 4.25118C63.8716 3.80448 71.2839 4.32133 78.536 5.78868C82.0914 6.35383 85.4966 7.62918 88.5485 9.53868C89.3616 10.1147 90.0292 10.8722 90.4985 11.7512C91.0501 12.4222 91.3516 13.2638 91.3516 14.1324C91.3516 15.001 91.0501 15.8427 90.4985 16.5137C88.7795 18.7793 87.2375 21.1739 85.886 23.6762C83.8995 27.218 81.6822 30.6254 79.2485 33.8762C78.3058 35.157 76.999 36.1241 75.4985 36.6512C70.8211 38.0017 65.9658 38.6339 61.0985 38.5262ZM61.0985 7.21368C58.1695 7.15757 55.2396 7.27026 52.3235 7.55118C47.5453 7.87895 42.8368 8.87619 38.336 10.5137C36.946 10.9648 35.6678 11.7062 34.586 12.6887C34.3772 12.8294 34.2061 13.0193 34.0879 13.2416C33.9696 13.4639 33.9077 13.7119 33.9077 13.9637C33.9077 14.2155 33.9696 14.4635 34.0879 14.6858C34.2061 14.9081 34.3772 15.098 34.586 15.2387C35.3394 15.953 36.2161 16.5247 37.1735 16.9262C40.5025 18.391 44.0269 19.3636 47.636 19.8137C54.4973 20.857 61.4568 21.0961 68.3735 20.5262C73.3482 20.2653 78.2662 19.3448 82.9985 17.7887C84.4106 17.3169 85.7489 16.6478 86.9735 15.8012C88.6985 14.4512 88.661 13.3637 86.9735 12.0512C85.636 11.1479 84.1694 10.4525 82.6235 9.98868C75.6535 7.92986 68.4004 6.99315 61.136 7.21368H61.0985ZM84.1985 20.6012C69.1001 24.7253 53.172 24.7253 38.0735 20.6012C38.707 21.5405 39.283 22.5173 39.7985 23.5262C40.2078 24.4728 40.8542 25.2979 41.6753 25.9219C42.4963 26.5459 43.4644 26.9478 44.486 27.0887C51.829 28.9642 59.436 29.5854 66.986 28.9262C71.3502 28.5455 75.6618 27.7033 79.8485 26.4137C80.3735 26.4137 80.861 26.1137 81.161 25.5512L84.1985 20.6012ZM78.2735 29.9762C75.6508 30.6018 72.9972 31.0899 70.3235 31.4387C66.9772 31.9866 63.589 32.2376 60.1985 32.1887C55.1469 32.0023 50.1244 31.3368 45.1985 30.2012C44.936 30.2012 44.6735 30.2012 44.486 30.2012C44.2985 30.2012 44.486 30.6512 44.6735 30.8387C45.1445 31.6857 45.7886 32.4241 46.564 33.0056C47.3393 33.5871 48.2285 33.9987 49.1735 34.2137C56.9613 36.038 65.0579 36.102 72.8735 34.4012C74.0646 34.1447 75.1781 33.6101 76.1231 32.841C77.0681 32.072 77.8178 31.0903 78.311 29.9762H78.2735Z" fill="white" stroke="white" stroke-width="1.64384"/>
<path d="M60.9465 50.3773C55.2045 50.2816 49.701 48.0642 45.4965 44.1523C45.009 43.6648 44.559 43.2148 44.709 42.4273C44.859 41.6398 46.2465 40.9648 47.2215 41.8648C48.3901 42.9287 49.6443 43.8945 50.9715 44.7523C54.6732 46.8638 58.944 47.7607 63.1823 47.3167C67.4206 46.8727 71.4129 45.1101 74.5965 42.2773L74.784 42.0898C76.0215 40.9273 76.8465 40.7773 77.5215 41.5273C78.1965 42.2773 77.934 43.0648 76.6965 44.2273C72.3664 48.12 66.7687 50.3057 60.9465 50.3773Z" fill="white" stroke="white" stroke-width="1.64384"/>
<path d="M61.4343 62.45C62.264 62.4043 63.096 62.4673 63.9093 62.6375C64.8093 62.8625 65.5218 63.3125 65.3343 64.325C65.1468 65.3375 64.3218 65.6 63.3093 65.45C61.2195 65.0761 59.0675 65.2706 57.0785 66.013C55.0895 66.7555 53.3365 68.0187 52.0028 69.6705C50.6691 71.3223 49.8036 73.3021 49.4969 75.4029C49.1902 77.5037 49.4535 79.6483 50.2593 81.6125V81.875C50.9343 83.4125 50.8218 84.2375 49.8468 84.6125C48.8718 84.9875 48.1968 84.6125 47.5593 82.925C46.5809 80.6619 46.189 78.1886 46.4199 75.7338C46.6507 73.2791 47.4968 70.9222 48.8799 68.8812C50.2631 66.8401 52.1386 65.1808 54.333 64.0567C56.5273 62.9326 58.9698 62.38 61.4343 62.45Z" fill="white"/>
</g>
<defs>
<clipPath id="clip0_5953_4516">
<rect width="120" height="120" fill="white" transform="translate(0.5 0.5)"/>
</clipPath>
</defs>
</svg>
