<svg width="120" height="120" viewBox="0 0 120 120" fill="none" xmlns="http://www.w3.org/2000/svg">
<g clip-path="url(#clip0_5951_4145)">
<path d="M45.3427 37.1826C47.7544 40.5932 49.2612 44.56 49.7221 48.7117C50.1146 52.9327 50.2398 57.1743 50.0969 61.4111V63.0019C50.0969 68.4876 50.0969 73.2876 50.1518 74.9973C51.2672 75.0613 54.1564 75.0613 59.7061 75.0613H69.3883L69.498 54.6271H58.1975L57.4112 53.8043C57.1918 53.6074 57.0138 53.3689 56.8875 53.1026C56.7612 52.8363 56.6892 52.5476 56.6755 52.2532C56.6619 51.9588 56.707 51.6646 56.8082 51.3878C56.9094 51.111 57.0647 50.8571 57.2649 50.6408L57.9872 49.7905L69.7449 49.7357L69.9095 48.6111C70.3418 44.3114 71.9206 40.2067 74.4809 36.7254C76.3197 34.5682 77.6702 32.0387 78.4397 29.3106C78.6683 27.9026 78.6317 27.6649 77.1049 26.1472C73.9877 23.122 70.0299 21.1081 65.7495 20.3689C61.7111 19.877 57.6279 19.877 53.5895 20.3689C50.5003 20.9521 47.5574 22.1423 44.9312 23.8706C43.4381 24.8859 42.1223 26.14 41.0364 27.5826C40.9124 28.8104 41.1012 30.0496 41.585 31.1849C42.5979 33.3246 43.8591 35.3377 45.3427 37.1826ZM70.3849 28.954C71.4729 30.2066 70.5312 32.2272 69.0226 31.8797C68.7126 31.7137 68.4515 31.4693 68.2654 31.171C68.0793 30.8726 67.9747 30.5306 67.962 30.1792C67.962 28.7803 69.5712 28.0306 70.3849 28.9997V28.954ZM58.7826 29.0363C59.8432 27.7838 61.6901 29.0363 61.2055 30.746C61.1105 31.1042 60.88 31.4113 60.5626 31.6024C60.2452 31.7935 59.8659 31.8537 59.5049 31.77H59.2855C59.0569 31.6435 58.8591 31.468 58.7063 31.2561C58.5534 31.0443 58.4492 30.8012 58.4012 30.5444C58.3531 30.2876 58.3624 30.0234 58.4283 29.7706C58.4943 29.5178 58.6153 29.2826 58.7826 29.082V29.0363ZM49.1644 29.0363C49.2746 28.8799 49.419 28.7505 49.5867 28.6581C49.7543 28.5657 49.9407 28.5127 50.1319 28.503C50.323 28.4933 50.5139 28.5272 50.69 28.6022C50.8661 28.6772 51.0229 28.7912 51.1484 28.9357C51.3605 29.1676 51.5057 29.4526 51.5687 29.7605C51.6316 30.0684 51.6098 30.3876 51.5057 30.6841C51.4015 30.9806 51.2189 31.2432 50.9773 31.4441C50.7356 31.645 50.444 31.7766 50.1335 31.8249C49.9325 31.8519 49.7279 31.8174 49.5468 31.726C49.3657 31.6346 49.2164 31.4906 49.1187 31.3129C48.8631 30.9949 48.7276 30.597 48.736 30.1892C48.7443 29.7813 48.896 29.3893 49.1644 29.082V29.0363ZM71.2717 86.6087H80.9814V78.0693C79.3174 77.9779 73.7677 77.9779 59.7243 77.9779C45.681 77.9779 40.1495 77.9779 38.4947 78.0785C38.4307 79.1116 38.4307 81.7356 38.4307 86.6179V94.4899H81.0454V92.3321H59.6329L58.7186 91.2533C58.4308 90.9659 58.2185 90.6119 58.1004 90.2228C57.9824 89.8336 57.9623 89.4212 58.0421 89.0224C58.1483 88.4321 58.4139 87.882 58.8101 87.4316C59.6512 86.6087 59.6512 86.6087 71.2717 86.6087ZM53.2878 91.2807L52.4924 92.195H44.9312L44.081 91.1984C43.6621 90.7352 43.4139 90.1429 43.3773 89.5195C43.3408 88.8961 43.518 88.2789 43.8798 87.7699L44.6295 86.6819H52.6112L53.3884 87.5962C53.8527 88.1034 54.1018 88.7713 54.083 89.4588C54.0643 90.1462 53.7791 90.7995 53.2878 91.2807ZM151.765 98.2658L151.674 98.0464C151.63 97.8822 151.541 97.7334 151.418 97.6167L151.336 97.4887H151.016C150.897 97.4887 150.805 97.3516 150.677 97.3516H136.414V85.0362L137.265 84.1219C140.421 80.5385 144.073 77.423 148.108 74.8693C150.12 73.6168 150.558 73.1596 150.385 72.3916C148.992 70.2329 147.16 68.3917 145.009 66.9882C143.754 66.1261 142.27 65.661 140.748 65.6534C139.564 65.8934 138.471 66.4638 137.598 67.2987C136.724 68.1336 136.105 69.1988 135.811 70.3711C135.629 70.816 135.482 71.2745 135.372 71.7425C135.372 71.8796 135.299 72.0808 135.226 72.0808C135.153 72.0808 135.08 71.9071 135.08 71.7973C134.647 70.2448 133.962 68.7743 133.05 67.4454C132.226 66.4505 131.088 65.7666 129.822 65.5071C128.073 65.7097 126.387 66.2815 124.876 67.1847C123.364 68.0878 122.062 69.3017 121.054 70.7459C120.213 71.7151 119.994 72.0533 119.994 72.4556C119.994 73.2236 120.36 73.5893 122.17 74.6408C126.076 77.0679 129.616 80.0387 132.684 83.4636L134.019 84.9173V91.1162L133.964 97.2967H100.474V85.155L101.681 83.8202C104.737 80.4792 108.224 77.5585 112.049 75.1345C114.252 73.7996 114.371 73.7173 114.371 72.8579C114.371 72.2911 114.252 72.0899 113.356 71.0933C112.404 69.7158 111.185 68.5433 109.772 67.645C108.358 66.7468 106.779 66.141 105.128 65.8637C104.357 65.7745 103.581 65.9766 102.952 66.4305C101.397 67.2808 100.428 68.7071 99.2945 71.8339L99.1574 72.2636L99.0294 71.8339C98.8434 71.235 98.6267 70.646 98.3802 70.0694C98.0803 69.0562 97.5197 68.1396 96.7543 67.4112C95.989 66.6827 95.0458 66.168 94.0191 65.9185C91.6694 65.4339 88.3963 67.2534 85.0591 70.9562C83.4317 72.7848 83.5323 73.4339 85.6351 74.6133C89.728 77.1192 93.4411 80.198 96.6614 83.7562L97.914 85.1825V97.2784H83.3951V97.2236H35.7427L28.6204 97.2784H21.3062V84.8442L22.6136 83.4453C25.735 79.9769 29.341 76.9776 33.3198 74.5402C35.1484 73.4888 35.377 73.2053 35.377 72.3459C35.377 71.3219 31.793 67.7745 29.3701 66.4579C28.3086 65.6458 26.9691 65.2862 25.6436 65.4575C24.318 65.6288 23.1139 66.317 22.2936 67.3722C21.4102 68.6442 20.7343 70.0483 20.2913 71.5322C20.2913 72.0991 20.0445 71.7059 19.7062 70.6819C19.4414 69.6509 18.9725 68.6834 18.327 67.8369C17.6815 66.9904 16.8727 66.2821 15.9485 65.7539C14.6822 65.361 13.3208 65.4029 12.0811 65.8728C9.80561 66.9698 7.78214 68.5263 6.13821 70.4442C4.37365 72.2728 4.47422 72.9493 6.72335 74.3116C10.9552 76.9391 14.7884 80.1596 18.1062 83.875L18.9565 84.7893V97.1961H2.16108L-14.6526 97.1413V91.2442C-14.7354 89.1286 -14.6958 87.01 -14.5337 84.899C-11.1568 80.7207 -7.08311 77.1574 -2.49262 74.3665C-0.773766 73.3425 -0.664054 73.1779 -0.664054 72.3185C-0.664054 71.7242 -0.792053 71.5505 -1.51434 70.7002C-5.93947 65.8179 -9.57222 64.2941 -12.4126 66.1288C-13.6909 67.1282 -14.6452 68.4833 -15.1554 70.0236L-15.832 71.7333L-16.2709 70.4534C-16.7315 69.0914 -17.4553 67.8333 -18.4011 66.7505C-21.208 64.0077 -25.3314 65.3882 -30.1223 70.7368C-30.872 71.5596 -30.9725 71.7333 -30.9725 72.3551C-30.9725 73.2693 -30.8263 73.3516 -29.0343 74.4945C-24.8673 77.115 -21.0854 80.3029 -17.7977 83.9665L-17.0663 84.7345V97.2601H-29.8205C-29.9766 97.2613 -30.1309 97.2933 -30.2747 97.3541C-30.4184 97.4149 -30.5488 97.5035 -30.6583 97.6147C-30.7678 97.7259 -30.8544 97.8576 -30.913 98.0023C-30.9716 98.147 -31.0012 98.3018 -31 98.4578V99.1253C-30.9976 99.4373 -30.8725 99.7359 -30.6519 99.9566C-30.4312 100.177 -30.1326 100.302 -29.8205 100.305H150.677C150.989 100.302 151.288 100.177 151.509 99.9566C151.729 99.7359 151.854 99.4373 151.857 99.1253V98.4578C151.857 98.3664 151.784 98.3116 151.765 98.2658ZM127.171 48.5014C128.451 50.0923 128.817 50.3757 129.182 50.3757C129.442 50.3989 129.702 50.3289 129.915 50.1781C130.127 50.0273 130.279 49.8056 130.344 49.5528C130.462 49.2406 130.462 48.896 130.344 48.5837C129.459 47.1333 128.355 45.8287 127.07 44.7163C126.348 44.5426 125.617 45.2557 125.617 46.1334C125.617 46.5357 125.891 46.9928 127.171 48.5288V48.5014ZM134.65 60.9631C134.872 61.0777 135.125 61.1193 135.372 61.0819C135.647 60.9661 135.886 60.7816 136.069 60.5462C136.252 60.3109 136.37 60.0325 136.414 59.738C136.149 58.6152 135.707 57.5415 135.107 56.5562C134.43 55.898 133.141 56.6111 133.141 57.6077C133.394 58.8176 133.916 59.9551 134.668 60.9357L134.65 60.9631ZM97.3745 45.6214C97.3745 45.0271 97.0271 44.5974 95.6282 43.3723C93.9277 41.8637 93.4431 41.6443 92.8854 41.9551C92.6104 42.1349 92.3994 42.3972 92.2828 42.7044C92.1661 43.0116 92.1498 43.3478 92.2363 43.6648C93.2856 44.8746 94.4696 45.9605 95.7654 46.9014C96.3322 47.2488 97.3745 46.426 97.3745 45.6214ZM117.598 40.0443C118.218 40.5089 118.894 40.8929 119.61 41.1871C119.887 41.1319 120.14 40.9924 120.335 40.7879C120.529 40.5833 120.656 40.3236 120.698 40.0443C120.844 39.13 120.506 38.7094 118.659 37.4569C117.99 36.9701 117.258 36.5764 116.483 36.2866C115.569 36.2866 115.002 37.7129 115.614 38.5083C116.227 39.0798 116.892 39.594 117.598 40.0443ZM102.915 56.8397C103.056 57.1639 103.234 57.4707 103.445 57.754C103.552 57.8599 103.679 57.9428 103.818 57.9977C103.958 58.0526 104.107 58.0783 104.257 58.0732C104.407 58.068 104.555 58.0322 104.69 57.9678C104.826 57.9035 104.947 57.812 105.045 57.6991C105.246 57.3348 105.344 56.9226 105.328 56.507C105.312 56.0913 105.182 55.6879 104.954 55.3402C104.413 54.1317 103.729 52.9928 102.915 51.9483C102.69 51.8408 102.436 51.8131 102.193 51.8696C101.951 51.9261 101.734 52.0635 101.58 52.2591C101.032 52.89 101.096 53.5117 101.946 55.002C102.287 55.5932 102.61 56.2058 102.915 56.8397ZM106.408 33.9003V33.9552C107.138 34.3125 107.913 34.5708 108.712 34.7232C108.977 34.5843 109.204 34.3825 109.373 34.1354C109.542 33.8883 109.648 33.6035 109.681 33.306C109.657 32.9995 109.556 32.7039 109.388 32.4466C108.062 31.5793 106.618 30.908 105.1 30.4535C104.851 30.5015 104.622 30.6224 104.442 30.8009C104.301 30.9284 104.192 31.0879 104.125 31.2661C104.058 31.4443 104.035 31.6359 104.058 31.8249C104.069 32.1384 104.134 32.4476 104.25 32.7392C104.914 33.2213 105.64 33.6118 106.408 33.9003ZM94.5402 29.8043L94.778 29.5483C96.7162 30.0603 96.9814 30.0877 97.4385 29.658C97.7066 29.3846 97.8567 29.0169 97.8567 28.634C97.8567 28.2511 97.7066 27.8835 97.4385 27.61C96.1736 26.9732 94.805 26.5676 93.3974 26.4123C92.7482 26.33 92.602 26.3575 92.2637 26.7872C92.0645 26.9956 91.9361 27.2615 91.8968 27.5471C91.8574 27.8327 91.909 28.1235 92.0443 28.378C92.2363 28.9449 92.5745 29.2283 94.5402 29.8043ZM-14.36 59.4271C-13.5372 57.4888 -13.8023 56.3002 -15.0183 56.3002C-15.6674 56.3002 -15.6949 56.3551 -16.4171 57.8911C-17.1394 59.4271 -17.1486 60.5059 -16.2983 60.9357C-15.448 61.3654 -15.0366 61.0454 -14.36 59.4271ZM24.6616 42.5769C23.8048 43.2453 23.0092 43.9888 22.2845 44.7986C22.101 45.1453 22.0444 45.5452 22.1245 45.9292C22.2047 46.3131 22.4165 46.657 22.7233 46.9014C23.281 47.1574 23.6376 47.0203 25.3107 45.594C27.3222 43.8843 27.6147 43.3174 26.9564 42.2934C26.4719 41.5803 25.7496 41.6991 24.6616 42.5769ZM-9.88003 50.4031C-9.42288 50.4031 -9.20346 50.202 -7.79546 48.5745C-6.38746 46.9471 -6.25032 46.746 -6.25032 46.1608C-6.25032 45.3288 -6.70746 44.762 -7.38403 44.762C-7.82289 44.762 -8.08803 44.9631 -8.88346 45.8408C-11.0412 48.2363 -11.3795 48.9768 -10.712 49.9368C-10.6389 50.0913 -10.5196 50.2193 -10.3705 50.3028C-10.2214 50.3864 -10.05 50.4214 -9.88003 50.4031ZM14.321 57.6351C14.423 57.7644 14.5539 57.8679 14.7032 57.9373C14.8525 58.0067 15.016 58.0401 15.1806 58.0348C15.3452 58.0294 15.5062 57.9855 15.6507 57.9066C15.7952 57.8276 15.9191 57.7158 16.0125 57.5802C16.9116 56.1878 17.6682 54.7083 18.2707 53.1643C18.2193 52.8638 18.0936 52.5809 17.905 52.3414C17.0548 51.1711 16.2136 51.802 14.7599 54.6454C13.7999 56.3825 13.7999 56.9768 14.321 57.6351ZM21.9736 29.8318C22.1605 30.0488 22.4148 30.1969 22.6959 30.2523C24.2125 30.0232 25.6897 29.5831 27.0844 28.9449C27.2875 28.6642 27.3967 28.3267 27.3967 27.9803C27.3967 27.6339 27.2875 27.2964 27.0844 27.0158C26.6456 26.4672 26.1153 26.4672 23.9302 27.1255C22.6227 27.4638 22.1016 27.6923 21.9005 27.9758C21.7202 28.251 21.6319 28.5763 21.6484 28.9049C21.6648 29.2335 21.7851 29.5484 21.9919 29.8043L21.9736 29.8318ZM-1.03891 40.7574C-0.851756 40.9755 -0.591911 41.1185 -0.307483 41.1597C1.00604 40.5644 2.23562 39.799 3.34965 38.8832C3.5413 38.765 3.69547 38.5949 3.7942 38.3926C3.89294 38.1903 3.93218 37.9641 3.90736 37.7403C3.90736 37.1734 3.83422 36.9723 3.46851 36.6889C3.25003 36.4931 2.9806 36.3631 2.69137 36.314C1.30596 36.9674 0.0317684 37.8344 -1.08462 38.8832C-1.29755 39.1491 -1.41356 39.4796 -1.41356 39.8203C-1.41356 40.161 -1.29755 40.4915 -1.08462 40.7574H-1.03891ZM34.6364 27.1803C34.8204 27.2706 35.0182 27.3293 35.2216 27.354C35.8841 27.21 36.5564 27.1152 37.233 27.0706C37.9526 27.0227 38.6613 26.8687 39.3358 26.6135C39.492 26.4599 39.6132 26.2746 39.6914 26.0701C39.7696 25.8656 39.8029 25.6466 39.7891 25.428C39.7752 25.2095 39.7145 24.9965 39.611 24.8035C39.5076 24.6105 39.3638 24.442 39.1895 24.3095C38.8513 24.0809 38.5404 24.0809 36.8398 24.3095C34.7096 24.5655 34.225 24.7666 33.9873 25.5895C33.9071 25.9026 33.9266 26.2329 34.043 26.5344C34.1593 26.8359 34.3667 27.0936 34.6364 27.2718V27.1803ZM80.0031 26.6409C80.7221 26.8284 81.4518 26.9719 82.1883 27.0706V27.1255C82.8933 27.2432 83.6046 27.3196 84.3186 27.354C84.4182 27.3179 84.5234 27.2993 84.6294 27.2992C84.9494 27.2992 85.3608 26.586 85.3608 26.0192C85.3608 24.9586 85.0408 24.6752 83.3037 24.3918C81.5666 24.1083 80.4146 24.0809 80.0763 24.3918C79.8304 24.593 79.6522 24.8648 79.5656 25.1705C79.4789 25.4762 79.488 25.8011 79.5917 26.1015C79.6283 26.3575 79.8569 26.6409 80.0031 26.6409ZM81.2649 37.402C81.8444 37.9001 82.4984 38.3042 83.2031 38.5997C85.0866 39.514 85.7723 39.5963 86.2568 39.0843C86.4445 38.8182 86.549 38.5024 86.5571 38.1769C86.5653 37.8514 86.4767 37.5309 86.3026 37.2557C85.1187 36.426 83.8307 35.7558 82.4717 35.2626C82.2087 35.2242 81.9402 35.2663 81.7015 35.3833C81.4629 35.5004 81.2653 35.6869 81.1347 35.9185C81.0041 36.15 80.9466 36.4156 80.9698 36.6804C80.9931 36.9452 81.0959 37.1968 81.2649 37.402ZM33.5484 39.45V39.2214C33.9141 39.3677 34.353 39.2214 36.3827 38.3072C37.9553 37.6306 38.3941 37.1734 38.3941 36.4786C38.3941 35.7837 38.2296 35.3997 37.745 35.226C37.2604 35.0523 36.4833 35.226 34.4718 36.3689C33.1187 37.0729 32.7804 37.4477 32.7804 38.1974C32.8027 38.4514 32.8836 38.6968 33.0169 38.9142C33.1502 39.1316 33.3321 39.315 33.5484 39.45ZM10.9291 34.7506L12.8856 33.9003C15.3268 32.8763 15.7199 32.4192 15.2353 31.2215C15.1418 31.0124 14.9975 30.8301 14.8154 30.6911C14.6333 30.5522 14.4194 30.461 14.193 30.426C12.7669 30.904 11.3893 31.5163 10.0788 32.2546C9.94362 32.4252 9.84581 32.6223 9.79166 32.8331C9.73751 33.0439 9.72823 33.2637 9.76443 33.4783C9.80063 33.6929 9.8815 33.8975 10.0018 34.0789C10.1221 34.2603 10.2791 34.4143 10.4628 34.5312L10.9291 34.7506Z" fill="white"/>
</g>
<defs>
<clipPath id="clip0_5951_4145">
<rect width="120" height="120" fill="white"/>
</clipPath>
</defs>
</svg>
