<svg width="148" height="119" viewBox="0 0 148 119" fill="none" xmlns="http://www.w3.org/2000/svg">
<rect width="78" height="60" transform="matrix(-1 0 0 1 114 45)" fill="#724201"/>
<path d="M40 20L40 28L78 28L78 20L40 20Z" fill="url(#paint0_radial_5607_1025)"/>
<path d="M-5.07007e-07 79L0 87L14 87L14 79L-5.07007e-07 79Z" fill="url(#paint1_radial_5607_1025)"/>
<path fill-rule="evenodd" clip-rule="evenodd" d="M77.0482 20.0024L77.0482 28.2328L77.4177 28.2328C79.6458 28.2422 81.7799 29.1379 83.3553 30.7249C84.9308 32.3119 85.82 34.4616 85.8294 36.7059L85.8294 37.0781L94 37.0781L94 36.7041C93.9906 32.277 92.2406 28.0339 89.1328 24.9034C86.0251 21.7729 81.8127 20.0101 77.4177 20.0006L77.0482 20.0024Z" fill="url(#paint2_radial_5607_1025)"/>
<path fill-rule="evenodd" clip-rule="evenodd" d="M40 20.0024L40 28.2328L39.6305 28.2328C37.4025 28.2422 35.2683 29.1379 33.6929 30.7249C32.1174 32.3119 31.2282 34.4616 31.2189 36.7059L31.2189 37.0781L23.0482 37.0781L23.0482 36.7041C23.0576 32.277 24.8076 28.0339 27.9154 24.9034C31.0232 21.7729 35.2355 20.0101 39.6305 20.0006L40 20.0024Z" fill="url(#paint3_radial_5607_1025)"/>
<path fill-rule="evenodd" clip-rule="evenodd" d="M14.0482 87.0757L14.0482 78.8453L14.4177 78.8453C16.6458 78.8359 18.7799 77.9402 20.3553 76.3532C21.9308 74.7662 22.82 72.6165 22.8294 70.3722L22.8294 70L31 70L31 70.374C30.9906 74.8011 29.2406 79.0442 26.1328 82.1747C23.0251 85.3052 18.8127 87.068 14.4177 87.0775L14.0482 87.0757Z" fill="url(#paint4_radial_5607_1025)"/>
<rect width="78" height="27" transform="matrix(-1 0 0 1 114 78)" fill="#B8DEEA"/>
<path d="M94 86L86 86L86 37L94 37L94 86Z" fill="url(#paint5_radial_5607_1025)"/>
<path d="M31 70L23 70L23 37L31 37L31 70Z" fill="url(#paint6_radial_5607_1025)"/>
<defs>
<radialGradient id="paint0_radial_5607_1025" cx="0" cy="0" r="1" gradientUnits="userSpaceOnUse" gradientTransform="translate(59 24) scale(19 4)">
<stop stop-color="#C0E3EE"/>
<stop offset="1" stop-color="#67B1C1"/>
</radialGradient>
<radialGradient id="paint1_radial_5607_1025" cx="0" cy="0" r="1" gradientUnits="userSpaceOnUse" gradientTransform="translate(7 83) scale(7 4)">
<stop stop-color="#C0E3EE"/>
<stop offset="1" stop-color="#67B1C1"/>
</radialGradient>
<radialGradient id="paint2_radial_5607_1025" cx="0" cy="0" r="1" gradientUnits="userSpaceOnUse" gradientTransform="translate(85.5241 28.5394) rotate(-90) scale(8.53874 8.47589)">
<stop stop-color="#C0E3EE"/>
<stop offset="1" stop-color="#67B1C1"/>
</radialGradient>
<radialGradient id="paint3_radial_5607_1025" cx="0" cy="0" r="1" gradientUnits="userSpaceOnUse" gradientTransform="translate(31.5241 28.5394) rotate(-90) scale(8.53874 8.47589)">
<stop stop-color="#C0E3EE"/>
<stop offset="1" stop-color="#67B1C1"/>
</radialGradient>
<radialGradient id="paint4_radial_5607_1025" cx="0" cy="0" r="1" gradientUnits="userSpaceOnUse" gradientTransform="translate(22.5241 78.5387) rotate(90) scale(8.53874 8.47589)">
<stop stop-color="#C0E3EE"/>
<stop offset="1" stop-color="#67B1C1"/>
</radialGradient>
<radialGradient id="paint5_radial_5607_1025" cx="0" cy="0" r="1" gradientUnits="userSpaceOnUse" gradientTransform="translate(90 61.5) rotate(-90) scale(24.5 4)">
<stop stop-color="#C0E3EE"/>
<stop offset="1" stop-color="#67B1C1"/>
</radialGradient>
<radialGradient id="paint6_radial_5607_1025" cx="0" cy="0" r="1" gradientUnits="userSpaceOnUse" gradientTransform="translate(27 53.5) rotate(-90) scale(16.5 4)">
<stop stop-color="#C0E3EE"/>
<stop offset="1" stop-color="#67B1C1"/>
</radialGradient>
</defs>
</svg>
